<svg width="35" height="83" viewBox="0 0 35 83" fill="none" xmlns="http://www.w3.org/2000/svg">
<path d="M30.5017 31.0036C27.6988 21.3876 24.5517 15.0939 20.6079 10.0682C17.2558 5.79492 14.0215 2.88898 10.9075 1.35676C9.80186 0.813619 7.57653 -0.232517 5.34884 0.046453C5.34884 0.046453 3.69871 0.253567 2.38331 1.49202C0.162696 3.58218 -0.652944 10.009 0.565801 18.8198C0.961835 22.7592 1.99199 26.8318 2.9255 29.9216C3.85665 33.0092 4.68879 35.1121 4.68879 35.1121C4.68879 35.1121 11.6429 52.6787 17.4939 55.3691C17.5245 55.3817 17.5575 55.3944 17.5575 55.3944C17.9347 55.5191 18.3331 55.2676 18.6207 54.8492C19.0308 54.2553 19.0544 53.6234 19.0191 53.3233C18.6607 50.299 14.7971 47.5981 14.7971 47.5981C12.204 45.7869 8.71041 41.0127 5.01175 27.6792C10.344 32.8423 20.0139 35.5178 20.0139 35.5178C23.828 46.0722 24.1651 60.1454 24.3207 62.6815L24.3372 63.2626C22.9063 67.6395 21.2185 71.5493 19.276 74.992C17.3312 78.4348 15.2237 80.1572 12.956 80.1572C12.2394 80.1572 11.7255 79.8634 11.4166 79.278C11.1055 78.6926 10.9499 78.0649 10.9499 77.3971C10.9499 75.5014 11.617 73.4514 12.956 71.2492C14.2926 69.047 15.8084 67.145 17.5033 65.5409C19.1982 63.9389 20.3722 63.1379 21.0252 63.1379C21.1807 63.1379 21.2727 63.1654 21.3057 63.2204C21.334 63.2774 21.3505 63.3747 21.3505 63.5141C21.3505 63.6261 21.2727 63.8481 21.1171 64.182C20.9615 64.5159 20.8837 64.7547 20.8837 64.8942C20.8837 64.9491 20.9238 64.9977 21.0016 65.04C21.0794 65.0823 21.1477 65.1013 21.2114 65.1013C21.2727 65.1013 21.4825 64.8942 21.8408 64.4757C22.1991 64.0573 22.5244 63.5902 22.8215 63.0746C23.1161 62.5589 23.2623 62.1066 23.2623 61.7156C23.2623 61.1302 22.7649 60.8364 21.7701 60.8364C20.7446 60.8364 19.1652 61.7706 17.0365 63.6388C14.9055 65.5071 13.0102 67.7367 11.3459 70.3299C9.68164 72.923 8.85185 75.3196 8.85185 77.5218C8.85185 79.1935 9.21488 80.4763 9.94566 81.3682C10.6764 82.26 11.5722 82.7081 12.6283 82.7081C14.9621 82.7081 17.1308 81.2097 19.1346 78.2129C21.1407 75.2161 22.937 71.431 24.5235 66.8575C24.5847 67.724 24.6319 68.7892 24.6625 70.0572C24.6932 71.3274 24.7097 72.3503 24.7097 73.1301L24.6625 75.4739C24.5706 77.1456 24.5235 78.7497 24.5235 80.2819C24.5235 80.7003 24.5777 81.0279 24.6861 81.2646C24.7945 81.5013 25.0208 81.6197 25.3627 81.6197C25.6102 81.6197 25.9614 81.495 26.4117 81.2435C26.8619 80.992 27.0882 80.7278 27.0882 80.4489C27.0882 80.2819 27.0246 79.8085 26.902 79.0265C26.8714 78.8596 26.8384 78.6799 26.8077 78.4834C26.7771 78.289 26.7606 78.1072 26.7606 77.9402C26.6828 77.0759 26.5838 75.4105 26.4612 72.9463V72.942C26.4612 63.3134 25.5607 55.386 25.5607 55.386C25.1151 51.4741 24.3679 46.4949 23.043 40.7189C26.5036 35.6911 27.4913 30.19 27.7483 26.8127C31.6261 37.0585 33.1065 46.9767 31.5719 49.6734C31.3432 50.075 29.7261 52.6364 30.7586 53.8369C31.0274 54.1517 31.4069 54.2764 31.513 54.325C33.0429 55.0373 34.3583 54.287 34.2828 52.8457C33.8161 43.925 32.0528 36.3231 30.5017 31.0036ZM4.60628 26.2569L4.60393 26.2548C4.03109 24.2238 3.37339 21.487 2.91371 18.2196C2.59783 15.971 2.32909 13.9822 2.47053 11.4271C2.61669 8.82131 2.96086 2.24862 6.28471 1.35254C8.048 0.877021 9.99045 2.11759 11.5274 3.12357C14.6792 5.17991 17.5292 8.22956 20.0351 11.8054C22.6635 20.1027 18.8682 27.2333 17.8404 28.943C16.5132 26.6014 15.0964 24.2048 13.5901 21.7638C11.9753 19.1495 10.3511 16.643 8.72927 14.2443C8.66562 14.1471 8.60197 14.052 8.53597 13.9548C8.53597 13.9548 8.12815 13.3503 7.51996 12.896C7.35494 12.7713 7.17107 12.6571 7.17107 12.6571C7.02491 12.5663 6.89526 12.4944 6.78918 12.4395C6.70196 12.3993 6.48508 12.3084 6.26585 12.3507C5.93582 12.4162 5.74959 12.7544 5.8651 13.0122C5.8651 13.0143 5.8651 13.0143 5.8651 13.0143C5.9594 13.2531 6.44029 14.6163 7.20407 15.2313C7.22529 15.2461 7.24415 15.263 7.26536 15.2799C7.69676 15.6201 8.30495 16.1358 8.95793 16.8311C8.95793 16.8311 9.17245 17.0636 9.38933 17.3087C14.3232 22.867 17.5976 29.036 19.7734 34.8627C10.3063 31.3185 6.21635 27.9667 4.60628 26.2569ZM22.7814 39.9623C22.5433 39.2755 22.3028 38.6203 22.0671 37.9969C20.3934 33.5799 18.8988 30.8515 18.8988 30.8515C18.682 30.4541 18.458 30.0484 18.2246 29.632C21.6121 23.5813 21.6616 17.1439 21.3905 13.8428C23.5004 17.1777 25.3344 20.8593 26.8596 24.562V24.5641C27.8685 31.9272 24.3231 37.8088 22.7814 39.9623Z" fill="#2C4C3F"/>
</svg>
