<svg width="29" height="38" viewBox="0 0 29 38" fill="none" xmlns="http://www.w3.org/2000/svg">
<rect width="29" height="31" fill="white"/>
<g filter="url(#filter0_d_318_1029)">
<path d="M20.4548 11.8708C19.3103 8.49916 18.0252 6.29239 16.4148 4.53023C15.0461 3.03188 13.7254 2.01297 12.4538 1.47572C12.0024 1.28528 11.0937 0.918473 10.1841 1.01629C10.1841 1.01629 9.5103 1.08891 8.97318 1.52315C8.06643 2.25602 7.73338 4.50948 8.23103 7.59881C8.39275 8.98008 8.81339 10.408 9.19457 11.4914C9.57479 12.5741 9.91458 13.3114 9.91458 13.3114C9.91458 13.3114 12.7542 19.4708 15.1433 20.4141C15.1558 20.4185 15.1693 20.423 15.1693 20.423C15.3233 20.4667 15.486 20.3785 15.6034 20.2318C15.7709 20.0236 15.7805 19.802 15.7661 19.6968C15.6198 18.6364 14.0421 17.6894 14.0421 17.6894C12.9833 17.0543 11.5567 15.3803 10.0464 10.7052C12.2238 12.5155 16.1723 13.4537 16.1723 13.4537C17.7297 17.1543 17.8674 22.0888 17.9309 22.978L17.9376 23.1818C17.3534 24.7165 16.6641 26.0874 15.871 27.2945C15.0769 28.5016 14.2163 29.1056 13.2903 29.1056C12.9977 29.1056 12.7879 29.0026 12.6618 28.7973C12.5347 28.5921 12.4712 28.372 12.4712 28.1378C12.4712 27.4731 12.7436 26.7543 13.2903 25.9822C13.8361 25.21 14.455 24.5431 15.1471 23.9807C15.8392 23.419 16.3186 23.1381 16.5852 23.1381C16.6487 23.1381 16.6863 23.1477 16.6998 23.167C16.7113 23.187 16.7181 23.2211 16.7181 23.27C16.7181 23.3093 16.6863 23.3871 16.6228 23.5042C16.5592 23.6213 16.5275 23.705 16.5275 23.7539C16.5275 23.7732 16.5438 23.7902 16.5756 23.805C16.6074 23.8199 16.6353 23.8265 16.6613 23.8265C16.6863 23.8265 16.772 23.7539 16.9183 23.6072C17.0646 23.4605 17.1974 23.2967 17.3187 23.1159C17.439 22.9351 17.4987 22.7765 17.4987 22.6394C17.4987 22.4341 17.2956 22.3311 16.8894 22.3311C16.4707 22.3311 15.8257 22.6587 14.9565 23.3137C14.0864 23.9688 13.3125 24.7506 12.6329 25.6598C11.9533 26.5691 11.6145 27.4094 11.6145 28.1815C11.6145 28.7677 11.7627 29.2175 12.0611 29.5302C12.3595 29.8429 12.7253 30 13.1565 30C14.1095 30 14.995 29.4746 15.8132 28.4238C16.6324 27.3731 17.3659 26.0459 18.0137 24.4423C18.0387 24.7461 18.058 25.1196 18.0705 25.5642C18.083 26.0096 18.0897 26.3682 18.0897 26.6417L18.0705 27.4635C18.0329 28.0496 18.0137 28.6121 18.0137 29.1493C18.0137 29.296 18.0358 29.4109 18.0801 29.4939C18.1244 29.5769 18.2168 29.6184 18.3564 29.6184C18.4574 29.6184 18.6008 29.5747 18.7847 29.4865C18.9686 29.3983 19.061 29.3057 19.061 29.2078C19.061 29.1493 19.035 28.9833 18.9849 28.7091C18.9724 28.6506 18.9589 28.5876 18.9464 28.5187C18.9339 28.4505 18.9272 28.3868 18.9272 28.3282C18.8954 28.0252 18.855 27.4412 18.8049 26.5772V26.5757C18.8049 23.1996 18.4372 20.42 18.4372 20.42C18.2553 19.0484 17.9501 17.3025 17.4092 15.2773C18.8222 13.5144 19.2256 11.5855 19.3305 10.4014C20.9139 13.9939 21.5184 17.4715 20.8918 18.417C20.7984 18.5578 20.1381 19.456 20.5597 19.8769C20.6694 19.9873 20.8244 20.031 20.8677 20.048C21.4924 20.2978 22.0295 20.0347 21.9987 19.5293C21.8081 16.4014 21.0881 13.736 20.4548 11.8708ZM9.88089 10.2065L9.87992 10.2057C9.64602 9.49361 9.37746 8.53399 9.18976 7.38836C9.06077 6.59991 8.95104 5.90261 9.00879 5.00671C9.06847 4.09302 9.20901 1.78844 10.5662 1.47424C11.2862 1.30751 12.0794 1.74249 12.707 2.09522C13.994 2.81624 15.1577 3.88554 16.1809 5.13935C17.2542 8.04861 15.7045 10.5488 15.2848 11.1483C14.7429 10.3273 14.1643 9.48694 13.5493 8.63106C12.8899 7.71441 12.2267 6.83556 11.5644 5.99449C11.5384 5.96041 11.5125 5.92706 11.4855 5.89297C11.4855 5.89297 11.319 5.68104 11.0706 5.52172C11.0032 5.478 10.9282 5.43798 10.9282 5.43798C10.8685 5.40612 10.8155 5.38093 10.7722 5.36166C10.7366 5.34758 10.6481 5.31571 10.5585 5.33054C10.4238 5.35351 10.3477 5.47207 10.3949 5.56248C10.3949 5.56322 10.3949 5.56322 10.3949 5.56322C10.4334 5.64695 10.6298 6.12491 10.9416 6.34055C10.9503 6.34574 10.958 6.35167 10.9667 6.3576C11.1428 6.4769 11.3912 6.65771 11.6578 6.90151C11.6578 6.90151 11.7454 6.98302 11.834 7.06898C13.8486 9.01788 15.1856 11.1809 16.0741 13.2239C12.2084 11.9812 10.5383 10.806 9.88089 10.2065ZM17.3023 15.012C17.2051 14.7712 17.1069 14.5415 17.0107 14.3229C16.3272 12.7741 15.717 11.8175 15.717 11.8175C15.6284 11.6782 15.537 11.5359 15.4417 11.3899C16.8249 9.26834 16.8451 7.01118 16.7344 5.8537C17.5959 7.02304 18.3448 8.3139 18.9676 9.61218V9.61292C19.3796 12.1947 17.9319 14.2569 17.3023 15.012Z" fill="#2C4C3F"/>
</g>
<defs>
<filter id="filter0_d_318_1029" x="4" y="1" width="22" height="37" filterUnits="userSpaceOnUse" color-interpolation-filters="sRGB">
<feFlood flood-opacity="0" result="BackgroundImageFix"/>
<feColorMatrix in="SourceAlpha" type="matrix" values="0 0 0 0 0 0 0 0 0 0 0 0 0 0 0 0 0 0 127 0" result="hardAlpha"/>
<feOffset dy="4"/>
<feGaussianBlur stdDeviation="2"/>
<feComposite in2="hardAlpha" operator="out"/>
<feColorMatrix type="matrix" values="0 0 0 0 0 0 0 0 0 0 0 0 0 0 0 0 0 0 0.25 0"/>
<feBlend mode="normal" in2="BackgroundImageFix" result="effect1_dropShadow_318_1029"/>
<feBlend mode="normal" in="SourceGraphic" in2="effect1_dropShadow_318_1029" result="shape"/>
</filter>
</defs>
</svg>
