<svg width="192" height="1080" viewBox="0 0 192 1080" fill="none" xmlns="http://www.w3.org/2000/svg">
<path d="M96.7154 145.43C107.619 142.053 114.747 138.292 120.429 133.596C125.26 129.607 128.539 125.765 130.257 122.072C130.867 120.763 132.04 118.125 131.709 115.493C131.709 115.493 131.463 113.544 130.046 111.997C127.658 109.386 120.352 108.464 110.352 109.962C105.88 110.455 101.261 111.701 97.7565 112.824C94.2555 113.944 91.8726 114.943 91.8726 114.943C91.8726 114.943 71.966 123.277 68.9492 130.213C68.9358 130.248 68.9207 130.288 68.9207 130.288C68.7822 130.734 69.0705 131.203 69.5468 131.54C70.2245 132.021 70.9421 132.046 71.2836 132.001C74.7171 131.558 77.7577 126.972 77.7577 126.972C79.7971 123.895 85.1965 119.735 100.317 115.275C94.4885 121.612 91.5164 133.061 91.5164 133.061C82.9648 136.334 72.361 137.515 65.956 137.999C65.6073 137.971 65.2724 137.981 64.9907 138.069C64.8905 138.101 64.799 138.14 64.716 138.193C64.4771 138.346 64.3899 138.547 64.3528 138.602C64.1051 138.996 64.1225 139.356 64.3314 139.614C64.5523 139.883 64.9504 139.93 65.5918 140.008C65.5918 140.008 65.9083 140.048 66.3366 140.03C66.3417 140.03 66.3485 140.03 66.3553 140.027C66.5728 140.009 66.7784 139.989 66.9687 139.967C68.2601 139.837 68.9872 139.747 68.9872 139.747C73.4282 139.194 79.0793 138.279 85.6275 136.674C91.3617 140.731 97.618 141.863 101.455 142.145C89.8428 146.795 78.5881 148.612 75.5141 146.815C75.0569 146.548 72.1353 144.654 70.7789 145.882C70.4237 146.202 70.2835 146.652 70.2298 146.776C69.431 148.59 70.2917 150.14 71.9284 150.041C82.0611 149.433 90.6839 147.299 96.7154 145.43ZM101.931 114.788L101.933 114.784C104.236 114.094 107.341 113.298 111.049 112.734C113.601 112.345 115.858 112.014 118.761 112.166C121.722 112.322 129.191 112.685 130.231 116.608C130.783 118.689 129.387 120.994 128.255 122.817C125.941 126.557 122.496 129.944 118.451 132.931C109.044 136.093 100.919 131.653 98.9701 130.449C101.622 128.865 104.334 127.174 107.096 125.378C110.055 123.452 112.89 121.516 115.605 119.583C115.715 119.507 115.823 119.432 115.931 119.353C115.931 119.353 116.615 118.866 117.126 118.146C117.266 117.95 117.396 117.731 117.396 117.731C117.499 117.557 117.579 117.404 117.64 117.278C117.685 117.174 117.787 116.918 117.737 116.658C117.66 116.268 117.274 116.051 116.982 116.188C116.981 116.188 116.981 116.188 116.981 116.188C116.709 116.302 115.166 116.879 114.472 117.786C114.455 117.811 114.437 117.833 114.418 117.859C114.035 118.371 113.453 119.094 112.668 119.87C112.668 119.87 112.406 120.125 112.129 120.383C105.848 126.253 98.863 130.162 92.2594 132.773C96.2206 121.558 99.9992 116.701 101.931 114.788ZM86.486 136.363C87.2647 136.076 88.0077 135.788 88.7134 135.505C93.7189 133.497 96.808 131.713 96.808 131.713C97.257 131.453 97.7179 131.186 98.1889 130.907C105.086 134.871 112.398 134.889 116.147 134.546C112.373 137.062 108.203 139.253 104.008 141.081L104.006 141.081C95.6485 142.323 88.943 138.171 86.486 136.363Z" fill="white"/>
<path d="M-33.4818 156.523C-22.5779 153.146 -15.4505 149.385 -9.76846 144.689C-4.93755 140.7 -1.65804 136.857 0.0599058 133.165C0.669505 131.856 1.84268 129.217 1.51127 126.586C1.51127 126.586 1.2654 124.637 -0.151249 123.09C-2.53972 120.479 -9.84548 119.557 -19.8456 121.054C-24.3176 121.548 -28.9365 122.793 -32.4408 123.917C-35.9417 125.037 -38.3247 126.035 -38.3247 126.035C-38.3247 126.035 -58.2312 134.37 -61.2481 141.305C-61.2615 141.341 -61.2765 141.38 -61.2765 141.38C-61.4151 141.827 -61.1268 142.296 -60.6505 142.633C-59.9727 143.114 -59.2551 143.138 -58.9137 143.094C-55.4802 142.651 -52.4396 138.065 -52.4396 138.065C-50.4002 134.988 -45.0007 130.827 -29.8798 126.367C-35.7088 132.705 -38.6809 144.154 -38.6809 144.154C-47.2324 147.426 -57.8362 148.608 -64.2413 149.092C-64.59 149.063 -64.9249 149.074 -65.2066 149.162C-65.3067 149.193 -65.3983 149.233 -65.4813 149.286C-65.7201 149.439 -65.8074 149.64 -65.8445 149.695C-66.0921 150.089 -66.0747 150.449 -65.8658 150.706C-65.645 150.975 -65.2469 151.022 -64.6055 151.1C-64.6055 151.1 -64.289 151.141 -63.8607 151.123C-63.8556 151.123 -63.8488 151.123 -63.842 151.12C-63.6245 151.101 -63.4189 151.082 -63.2286 151.06C-61.9372 150.93 -61.2101 150.839 -61.2101 150.839C-56.7691 150.287 -51.118 149.372 -44.5697 147.766C-38.8355 151.824 -32.5793 152.956 -28.7421 153.238C-40.3545 157.888 -51.6092 159.704 -54.6832 157.908C-55.1404 157.64 -58.062 155.746 -59.4184 156.975C-59.7736 157.295 -59.9138 157.744 -59.9675 157.869C-60.7663 159.682 -59.9056 161.233 -58.2689 161.133C-48.1361 160.526 -39.5134 158.392 -33.4818 156.523ZM-28.2658 125.88L-28.2641 125.877C-25.961 125.187 -22.856 124.39 -19.1479 123.827C-16.5965 123.438 -14.3389 123.107 -11.4359 123.259C-8.475 123.415 -1.00585 123.778 0.0334754 127.701C0.586132 129.782 -0.809991 132.087 -1.94197 133.909C-4.2564 137.649 -7.70175 141.037 -11.7462 144.024C-21.1535 147.186 -29.2787 142.746 -31.2272 141.542C-28.5756 139.957 -25.8634 138.267 -23.1008 136.471C-20.1418 134.545 -17.3069 132.609 -14.5927 130.676C-14.4827 130.6 -14.3743 130.525 -14.2659 130.446C-14.2659 130.446 -13.5819 129.959 -13.0709 129.239C-12.9309 129.042 -12.8013 128.824 -12.8013 128.824C-12.6986 128.65 -12.6178 128.497 -12.5574 128.37C-12.5121 128.266 -12.4098 128.011 -12.4606 127.751C-12.5377 127.36 -12.9232 127.143 -13.2148 127.281C-13.2165 127.281 -13.2165 127.281 -13.2165 127.281C-13.4879 127.395 -15.0317 127.972 -15.7252 128.878C-15.7421 128.904 -15.7606 128.926 -15.7792 128.952C-16.1622 129.464 -16.7445 130.187 -17.5289 130.963C-17.5289 130.963 -17.791 131.218 -18.0683 131.476C-24.3488 137.345 -31.3343 141.255 -37.9379 143.865C-33.9766 132.651 -30.198 127.794 -28.2658 125.88ZM-43.7113 147.455C-42.9325 147.169 -42.1895 146.88 -41.4839 146.598C-36.4784 144.59 -33.3893 142.806 -33.3893 142.806C-32.9402 142.546 -32.4794 142.278 -32.0083 142C-25.1117 145.964 -17.7993 145.981 -14.0508 145.639C-17.8242 148.154 -21.9939 150.346 -26.1895 152.174L-26.1912 152.174C-34.5488 153.416 -41.2543 149.264 -43.7113 147.455Z" fill="white"/>
<path d="M39.7154 198.429C50.6194 195.052 57.7468 191.291 63.4288 186.595C68.2597 182.606 71.5392 178.764 73.2572 175.071C73.8668 173.762 75.0399 171.124 74.7085 168.492C74.7085 168.492 74.4627 166.543 73.046 164.996C70.6575 162.385 63.3518 161.463 53.3517 162.961C48.8797 163.454 44.2608 164.7 40.7565 165.823C37.2555 166.943 34.8726 167.942 34.8726 167.942C34.8726 167.942 14.966 176.276 11.9492 183.212C11.9358 183.247 11.9207 183.287 11.9207 183.287C11.7822 183.733 12.0705 184.202 12.5468 184.539C13.2245 185.02 13.9421 185.045 14.2836 185C17.7171 184.557 20.7577 179.971 20.7577 179.971C22.7971 176.894 28.1965 172.734 43.3174 168.274C37.4885 174.611 34.5164 186.06 34.5164 186.06C25.9648 189.333 15.361 190.514 8.95595 190.998C8.60726 190.97 8.27239 190.98 7.99067 191.068C7.89055 191.1 7.79897 191.139 7.71597 191.192C7.47713 191.345 7.38988 191.546 7.3528 191.601C7.10514 191.995 7.12253 192.355 7.33143 192.613C7.5523 192.882 7.9504 192.929 8.59181 193.007C8.59181 193.007 8.90827 193.047 9.33661 193.029C9.34171 193.029 9.34851 193.029 9.35529 193.026C9.57281 193.008 9.77841 192.988 9.9687 192.966C11.2601 192.836 11.9872 192.746 11.9872 192.746C16.4282 192.193 22.0793 191.278 28.6275 189.673C34.3617 193.73 40.618 194.862 44.4552 195.144C32.8428 199.795 21.5881 201.611 18.5141 199.814C18.0569 199.547 15.1353 197.653 13.7789 198.881C13.4237 199.201 13.2835 199.651 13.2298 199.775C12.431 201.589 13.2917 203.139 14.9284 203.04C25.0611 202.432 33.6839 200.298 39.7154 198.429ZM44.9315 167.787L44.9331 167.783C47.2363 167.093 50.3412 166.297 54.0494 165.733C56.6008 165.344 58.8584 165.013 61.7614 165.165C64.7223 165.321 72.1914 165.684 73.2307 169.607C73.7834 171.688 72.3873 173.993 71.2553 175.816C68.9409 179.556 65.4955 182.943 61.4511 185.93C52.0437 189.092 43.9186 184.652 41.9701 183.448C44.6217 181.864 47.3338 180.173 50.0964 178.377C53.0555 176.451 55.8903 174.515 58.6045 172.582C58.7146 172.506 58.823 172.431 58.9313 172.352C58.9313 172.352 59.6154 171.865 60.1264 171.145C60.2663 170.949 60.396 170.73 60.396 170.73C60.4987 170.556 60.5794 170.403 60.6399 170.277C60.6852 170.173 60.7874 169.917 60.7366 169.657C60.6596 169.267 60.2741 169.05 59.9825 169.187C59.9808 169.187 59.9808 169.187 59.9808 169.187C59.7094 169.301 58.1656 169.878 57.4721 170.785C57.4552 170.81 57.4366 170.832 57.4181 170.858C57.0351 171.37 56.4527 172.093 55.6683 172.869C55.6683 172.869 55.4063 173.124 55.1289 173.382C48.8485 179.252 41.863 183.161 35.2594 185.772C39.2206 174.557 42.9992 169.7 44.9315 167.787ZM29.486 189.362C30.2647 189.075 31.0077 188.787 31.7134 188.504C36.7189 186.496 39.808 184.712 39.808 184.712C40.257 184.452 40.7179 184.185 41.1889 183.906C48.0855 187.87 55.398 187.888 59.1465 187.545C55.3731 190.061 51.2034 192.252 47.0078 194.08L47.0061 194.08C38.6485 195.322 31.943 191.17 29.486 189.362Z" fill="white" fill-opacity="0.2"/>
<path d="M15.7154 295.429C26.6194 292.052 33.7468 288.291 39.4288 283.595C44.2597 279.606 47.5392 275.764 49.2572 272.071C49.8668 270.762 51.0399 268.124 50.7085 265.492C50.7085 265.492 50.4627 263.543 49.046 261.996C46.6575 259.385 39.3518 258.463 29.3517 259.961C24.8797 260.454 20.2608 261.7 16.7565 262.823C13.2555 263.943 10.8726 264.942 10.8726 264.942C10.8726 264.942 -9.03397 273.276 -12.0508 280.212C-12.0642 280.247 -12.0793 280.287 -12.0793 280.287C-12.2178 280.733 -11.9295 281.202 -11.4532 281.539C-10.7755 282.02 -10.0579 282.045 -9.71639 282C-6.28295 281.557 -3.24234 276.971 -3.24234 276.971C-1.20292 273.894 4.19655 269.734 19.3174 265.274C13.4885 271.611 10.5164 283.06 10.5164 283.06C1.96483 286.333 -8.63898 287.514 -15.044 287.998C-15.3927 287.97 -15.7276 287.98 -16.0093 288.068C-16.1095 288.1 -16.201 288.139 -16.284 288.192C-16.5229 288.345 -16.6101 288.546 -16.6472 288.601C-16.8949 288.995 -16.8775 289.355 -16.6686 289.613C-16.4477 289.882 -16.0496 289.929 -15.4082 290.007C-15.4082 290.007 -15.0917 290.047 -14.6634 290.029C-14.6583 290.029 -14.6515 290.029 -14.6447 290.026C-14.4272 290.008 -14.2216 289.988 -14.0313 289.966C-12.7399 289.836 -12.0128 289.746 -12.0128 289.746C-7.5718 289.193 -1.92069 288.278 4.62752 286.673C10.3617 290.73 16.618 291.862 20.4552 292.144C8.8428 296.795 -2.4119 298.611 -5.48594 296.814C-5.94312 296.547 -8.86471 294.653 -10.2211 295.881C-10.5763 296.201 -10.7165 296.651 -10.7702 296.775C-11.569 298.589 -10.7083 300.139 -9.07164 300.04C1.06114 299.432 9.68388 297.298 15.7154 295.429ZM20.9315 264.787L20.9331 264.783C23.2363 264.093 26.3412 263.297 30.0494 262.733C32.6008 262.344 34.8584 262.013 37.7614 262.165C40.7223 262.321 48.1914 262.684 49.2307 266.607C49.7834 268.688 48.3873 270.993 47.2553 272.816C44.9409 276.556 41.4955 279.943 37.4511 282.93C28.0437 286.092 19.9186 281.652 17.9701 280.448C20.6217 278.864 23.3338 277.173 26.0964 275.377C29.0555 273.451 31.8903 271.515 34.6045 269.582C34.7146 269.506 34.823 269.431 34.9313 269.352C34.9313 269.352 35.6154 268.865 36.1264 268.145C36.2663 267.949 36.396 267.73 36.396 267.73C36.4987 267.556 36.5794 267.403 36.6399 267.277C36.6852 267.173 36.7874 266.917 36.7366 266.657C36.6596 266.267 36.2741 266.05 35.9825 266.187C35.9808 266.187 35.9808 266.187 35.9808 266.187C35.7094 266.301 34.1656 266.878 33.4721 267.785C33.4552 267.81 33.4366 267.832 33.4181 267.858C33.0351 268.37 32.4527 269.093 31.6683 269.869C31.6683 269.869 31.4063 270.124 31.1289 270.382C24.8485 276.252 17.863 280.161 11.2594 282.772C15.2206 271.557 18.9992 266.7 20.9315 264.787ZM5.486 286.362C6.26472 286.075 7.00772 285.787 7.71335 285.504C12.7189 283.496 15.808 281.712 15.808 281.712C16.257 281.452 16.7179 281.185 17.1889 280.906C24.0855 284.87 31.398 284.888 35.1465 284.545C31.3731 287.061 27.2034 289.252 23.0078 291.08L23.0061 291.08C14.6485 292.322 7.94295 288.17 5.486 286.362Z" fill="white" fill-opacity="0.2"/>
<path d="M48.7543 94.9176C55.0153 93.353 59.1089 91.6135 62.3734 89.4436C65.1489 87.6004 67.0339 85.8258 68.0223 84.1215C68.3731 83.5172 69.0482 82.2993 68.8597 81.0856C68.8597 81.0856 68.7198 80.187 67.9077 79.4741C66.5384 78.2712 62.3455 77.8507 56.6045 78.5481C54.0373 78.7785 51.3853 79.3561 49.3731 79.8767C47.3628 80.3957 45.9943 80.8576 45.9943 80.8576C45.9943 80.8576 34.5626 84.7153 32.8265 87.9163C32.8187 87.9328 32.8101 87.9509 32.8101 87.9509C32.7303 88.1568 32.8955 88.3731 33.1686 88.5283C33.5573 88.7496 33.9692 88.7605 34.1652 88.7398C36.1363 88.5332 37.8846 86.4159 37.8846 86.4159C39.0572 84.9952 42.1592 83.0724 50.8415 81.0053C47.4915 83.9325 45.7781 89.2155 45.7781 89.2155C40.8674 90.7307 34.7801 91.2826 31.1033 91.5101C30.9032 91.4971 30.7109 91.5021 30.5492 91.5431C30.4917 91.5575 30.4391 91.5759 30.3914 91.6004C30.2542 91.671 30.204 91.7639 30.1827 91.7891C30.0403 91.9711 30.05 92.1373 30.1698 92.2558C30.2964 92.3797 30.5249 92.4011 30.893 92.4367C30.893 92.4367 31.0746 92.4552 31.3205 92.4467C31.3234 92.4467 31.3273 92.4467 31.3312 92.4451C31.456 92.4365 31.5741 92.4272 31.6833 92.4172C32.4246 92.3565 32.8421 92.3141 32.8421 92.3141C35.3916 92.0562 38.6359 91.6305 42.3956 90.8858C45.6844 92.7536 49.2747 93.2716 51.477 93.3993C44.8085 95.552 38.3472 96.3971 36.5839 95.5705C36.3216 95.4473 34.6459 94.5755 33.8665 95.1431C33.6624 95.2909 33.5816 95.4984 33.5507 95.5558C33.091 96.3929 33.5841 97.1076 34.5236 97.0606C40.3402 96.7737 45.291 95.7837 48.7543 94.9176ZM51.7682 80.7796L51.7692 80.778C53.0916 80.4583 54.8744 80.0888 57.0032 79.8264C58.468 79.6454 59.764 79.4913 61.4303 79.5593C63.1297 79.6295 67.4167 79.7922 68.0107 81.6011C68.3266 82.5607 67.5237 83.6248 66.8728 84.4661C65.5419 86.1928 63.5621 87.7577 61.2386 89.138C55.8368 90.6027 51.1759 88.5601 50.0582 88.0058C51.5812 87.2732 53.1391 86.4918 54.726 85.6615C56.4257 84.7711 58.0542 83.8763 59.6134 82.9827C59.6766 82.9478 59.7389 82.913 59.8011 82.8765C59.8011 82.8765 60.1941 82.6515 60.4879 82.3189C60.5683 82.2283 60.6429 82.1274 60.6429 82.1274C60.702 82.0471 60.7484 81.9763 60.7832 81.918C60.8093 81.87 60.8681 81.7521 60.8391 81.6323C60.7951 81.4521 60.574 81.3523 60.4065 81.416C60.4056 81.416 60.4056 81.416 60.4056 81.416C60.2497 81.4686 59.3632 81.7357 58.9645 82.1544C58.9548 82.1662 58.9442 82.1765 58.9335 82.1883C58.7133 82.4248 58.3786 82.7585 57.9278 83.1171C57.9278 83.1171 57.7773 83.2348 57.6179 83.3542C54.0091 86.0656 49.9969 87.8736 46.2048 89.082C48.4858 83.9064 50.6579 81.6636 51.7682 80.7796ZM42.8885 90.7418C43.3357 90.609 43.7624 90.4756 44.1676 90.3446C47.0421 89.4152 48.8163 88.5902 48.8163 88.5902C49.0743 88.4703 49.339 88.3464 49.6095 88.2178C53.5656 90.0418 57.7629 90.045 59.9148 89.8844C57.7472 91.0473 55.3524 92.061 52.9429 92.907L52.9419 92.907C48.1439 93.4852 44.2976 91.5743 42.8885 90.7418Z" fill="white"/>
<path d="M6.41169 68.9785C13.8814 66.6682 18.7639 64.0949 22.6563 60.8817C25.9657 58.1523 28.2123 55.5232 29.3892 52.9969C29.8068 52.1011 30.6105 50.2958 30.3835 48.4952C30.3835 48.4952 30.2151 47.162 29.2446 46.1032C27.6084 44.3167 22.6037 43.686 15.7532 44.7108C12.6898 45.0483 9.52561 45.9006 7.12501 46.6694C4.72672 47.4359 3.0943 48.1188 3.0943 48.1188C3.0943 48.1188 -10.5425 53.8217 -12.6092 58.5668C-12.6184 58.5913 -12.6287 58.6181 -12.6287 58.6181C-12.7236 58.9234 -12.5261 59.2445 -12.1998 59.4753C-11.7355 59.8041 -11.244 59.821 -11.01 59.7906C-8.65799 59.4874 -6.57503 56.3498 -6.57503 56.3498C-5.17793 54.2444 -1.47907 51.3976 8.87936 48.346C4.88627 52.6823 2.85021 60.5156 2.85021 60.5156C-3.00796 62.7549 -10.272 63.5634 -14.6597 63.8946C-14.8986 63.8751 -15.128 63.8822 -15.321 63.9426C-15.3896 63.964 -15.4523 63.9911 -15.5092 64.0275C-15.6728 64.1319 -15.7325 64.2695 -15.7579 64.3069C-15.9276 64.5766 -15.9157 64.8231 -15.7726 64.9991C-15.6213 65.1832 -15.3486 65.2154 -14.9092 65.2687C-14.9092 65.2687 -14.6924 65.2965 -14.399 65.2843C-14.3955 65.2843 -14.3908 65.2843 -14.3862 65.2819C-14.2372 65.2694 -14.0963 65.2558 -13.966 65.2411C-13.0813 65.1523 -12.5832 65.0901 -12.5832 65.0901C-9.54094 64.7119 -5.6697 64.0859 -1.18391 62.9875C2.74423 65.7635 7.03002 66.5379 9.65863 66.731C1.70367 69.913 -6.00626 71.1556 -8.11208 69.9266C-8.42527 69.7434 -10.4267 68.4475 -11.3559 69.2881C-11.5992 69.507 -11.6952 69.8146 -11.732 69.8998C-12.2792 71.1406 -11.6896 72.2015 -10.5684 72.1334C-3.62709 71.7176 2.27984 70.2574 6.41169 68.9785ZM9.98503 48.0127L9.98618 48.0104C11.5639 47.5383 13.6909 46.9933 16.2312 46.6076C17.979 46.3416 19.5255 46.1151 21.5142 46.2188C23.5425 46.3258 28.6592 46.5742 29.3711 49.2584C29.7497 50.6823 28.7933 52.2593 28.0178 53.5061C26.4324 56.0651 24.0721 58.3831 21.3015 60.4266C14.8571 62.5901 9.29109 59.5525 7.95629 58.7285C9.77274 57.6443 11.6307 56.4878 13.5232 55.259C15.5503 53.941 17.4923 52.6165 19.3516 51.2937C19.427 51.242 19.5012 51.1904 19.5755 51.1365C19.5755 51.1365 20.0441 50.8034 20.3941 50.3105C20.49 50.1762 20.5788 50.0268 20.5788 50.0268C20.6492 49.9077 20.7045 49.8027 20.7459 49.7164C20.777 49.6453 20.847 49.4704 20.8122 49.2926C20.7594 49.0254 20.4953 48.8769 20.2955 48.9711C20.2944 48.9711 20.2944 48.9711 20.2944 48.9711C20.1085 49.0489 19.0509 49.4435 18.5758 50.064C18.5643 50.0815 18.5515 50.0967 18.5388 50.1142C18.2765 50.4647 17.8775 50.959 17.3402 51.4902C17.3402 51.4902 17.1607 51.6646 16.9707 51.8413C12.6683 55.8572 7.88295 58.5323 3.3592 60.3184C6.07286 52.6452 8.66137 49.322 9.98503 48.0127ZM-0.595821 62.7747C-0.0623692 62.5785 0.44662 62.3813 0.930006 62.1878C4.35901 60.814 6.47516 59.5932 6.47516 59.5932C6.78277 59.4157 7.0985 59.2325 7.42118 59.0422C12.1456 61.7543 17.1549 61.7661 19.7228 61.5314C17.1379 63.2528 14.2814 64.7524 11.4073 66.0032L11.4061 66.0032C5.68082 66.8528 1.08728 64.012 -0.595821 62.7747Z" fill="white"/>
<path d="M88.4408 240.934C96.254 238.534 101.361 235.862 105.433 232.525C108.894 229.69 111.244 226.96 112.475 224.336C112.912 223.406 113.753 221.531 113.516 219.662C113.516 219.662 113.34 218.277 112.324 217.178C110.613 215.322 105.378 214.668 98.2128 215.732C95.0085 216.083 91.6989 216.968 89.1878 217.767C86.6793 218.563 84.9718 219.272 84.9718 219.272C84.9718 219.272 70.7077 225.195 68.5458 230.122C68.5362 230.148 68.5254 230.176 68.5254 230.176C68.4261 230.493 68.6327 230.826 68.974 231.066C69.4596 231.407 69.9738 231.425 70.2184 231.393C72.6786 231.078 74.8575 227.82 74.8575 227.82C76.3189 225.633 80.188 222.677 91.0228 219.508C86.8459 224.011 84.7159 232.146 84.7159 232.146C78.5883 234.471 70.9903 235.311 66.4008 235.655C66.1509 235.635 65.911 235.642 65.7091 235.705C65.6374 235.727 65.5718 235.755 65.5123 235.793C65.3411 235.902 65.2786 236.045 65.252 236.083C65.0746 236.364 65.087 236.62 65.2367 236.802C65.395 236.993 65.6802 237.027 66.1398 237.082C66.1398 237.082 66.3666 237.111 66.6735 237.098C66.6771 237.098 66.682 237.098 66.6869 237.096C66.8427 237.083 66.99 237.069 67.1264 237.054C68.0517 236.961 68.5727 236.897 68.5727 236.897C71.7549 236.504 75.8041 235.853 80.4962 234.713C84.6048 237.595 89.0876 238.399 91.8371 238.6C83.5162 241.904 75.4518 243.195 73.2492 241.919C72.9216 241.729 70.8283 240.383 69.8563 241.256C69.6018 241.483 69.5013 241.803 69.4628 241.891C68.8904 243.18 69.5071 244.282 70.6798 244.211C77.9403 243.779 84.1189 242.262 88.4408 240.934ZM92.1793 219.161L92.1805 219.159C93.8308 218.669 96.0557 218.103 98.7127 217.702C100.541 217.426 102.159 217.19 104.239 217.298C106.36 217.409 111.712 217.667 112.457 220.454C112.853 221.933 111.852 223.571 111.041 224.865C109.382 227.523 106.914 229.93 104.016 232.052C97.2748 234.299 91.453 231.145 90.0568 230.289C91.9568 229.164 93.9003 227.962 95.8798 226.686C98.0001 225.318 100.032 223.942 101.976 222.568C102.055 222.515 102.133 222.461 102.211 222.405C102.211 222.405 102.701 222.059 103.067 221.547C103.167 221.408 103.26 221.253 103.26 221.253C103.334 221.129 103.392 221.02 103.435 220.93C103.467 220.856 103.541 220.675 103.504 220.49C103.449 220.213 103.173 220.058 102.964 220.156C102.963 220.156 102.963 220.156 102.963 220.156C102.768 220.237 101.662 220.647 101.165 221.291C101.153 221.309 101.14 221.325 101.126 221.343C100.852 221.707 100.435 222.221 99.8725 222.772C99.8725 222.772 99.6847 222.953 99.486 223.137C94.9856 227.308 89.9801 230.086 85.2483 231.941C88.0871 223.972 90.7947 220.521 92.1793 219.161ZM81.1113 234.492C81.6693 234.288 82.2017 234.083 82.7073 233.882C86.2941 232.455 88.5076 231.187 88.5076 231.187C88.8293 231.003 89.1596 230.813 89.4971 230.615C94.4386 233.431 99.6782 233.443 102.364 233.2C99.6603 234.987 96.6725 236.545 93.6661 237.844L93.6649 237.844C87.6764 238.726 82.8718 235.776 81.1113 234.492Z" fill="white"/>
<path d="M27.7076 871.831C38.6116 868.455 45.739 864.694 51.421 859.998C56.2519 856.008 59.5314 852.166 61.2494 848.474C61.859 847.164 63.0321 844.526 62.7007 841.894C62.7007 841.894 62.4549 839.946 61.0382 838.398C58.6497 835.787 51.344 834.865 41.3438 836.363C36.8719 836.856 32.253 838.102 28.7487 839.226C25.2477 840.346 22.8648 841.344 22.8648 841.344C22.8648 841.344 2.95822 849.679 -0.0586277 856.614C-0.0720247 856.65 -0.0870957 856.689 -0.0870957 856.689C-0.225633 857.135 0.062698 857.604 0.538987 857.942C1.21672 858.422 1.93433 858.447 2.2758 858.403C5.70924 857.959 8.74985 853.374 8.74985 853.374C10.7893 850.297 16.1887 846.136 31.3096 841.676C25.4807 848.014 22.5086 859.462 22.5086 859.462C13.957 862.735 3.35321 863.917 -3.05186 864.401C-3.40056 864.372 -3.73542 864.382 -4.01714 864.471C-4.11726 864.502 -4.20884 864.542 -4.29184 864.595C-4.53068 864.748 -4.61793 864.949 -4.65502 865.003C-4.90267 865.397 -4.88528 865.758 -4.67638 866.015C-4.45551 866.284 -4.05741 866.331 -3.416 866.409C-3.416 866.409 -3.09954 866.45 -2.67121 866.432C-2.6661 866.432 -2.6593 866.432 -2.65253 866.428C-2.43501 866.41 -2.22941 866.39 -2.03911 866.369C-0.747746 866.239 -0.0206092 866.148 -0.0206092 866.148C4.42039 865.595 10.0715 864.68 16.6197 863.075C22.3539 867.132 28.6102 868.264 32.4474 868.546C20.835 873.197 9.58028 875.013 6.50625 873.217C6.04906 872.949 3.12748 871.055 1.77105 872.283C1.41586 872.603 1.27564 873.053 1.22196 873.177C0.423151 874.991 1.28387 876.542 2.92055 876.442C13.0533 875.834 21.6761 873.7 27.7076 871.831ZM32.9237 841.189L32.9253 841.186C35.2285 840.496 38.3334 839.699 42.0416 839.135C44.593 838.747 46.8506 838.416 49.7536 838.567C52.7145 838.723 60.1836 839.087 61.2229 843.01C61.7756 845.091 60.3795 847.396 59.2475 849.218C56.9331 852.958 53.4877 856.346 49.4433 859.332C40.0359 862.494 31.9108 858.055 29.9623 856.85C32.6139 855.266 35.326 853.576 38.0886 851.78C41.0477 849.853 43.8825 847.918 46.5967 845.984C46.7068 845.909 46.8152 845.833 46.9235 845.755C46.9235 845.755 47.6076 845.268 48.1186 844.547C48.2585 844.351 48.3882 844.133 48.3882 844.133C48.4909 843.959 48.5716 843.805 48.6321 843.679C48.6774 843.575 48.7796 843.319 48.7288 843.06C48.6518 842.669 48.2663 842.452 47.9746 842.59C47.9729 842.59 47.9729 842.59 47.9729 842.59C47.7016 842.703 46.1578 843.28 45.4642 844.187C45.4474 844.213 45.4288 844.235 45.4103 844.26C45.0273 844.773 44.4449 845.495 43.6605 846.271C43.6605 846.271 43.3985 846.526 43.1211 846.785C36.8406 852.654 29.8552 856.564 23.2516 859.174C27.2128 847.959 30.9914 843.102 32.9237 841.189ZM17.4782 862.764C18.2569 862.477 18.9999 862.189 19.7055 861.906C24.7111 859.898 27.8002 858.114 27.8002 858.114C28.2492 857.855 28.7101 857.587 29.1811 857.309C36.0777 861.273 43.3902 861.29 47.1387 860.947C43.3653 863.463 39.1956 865.655 35 867.483L34.9983 867.483C26.6407 868.724 19.9351 864.572 17.4782 862.764Z" fill="white" fill-opacity="0.2"/>
<path d="M61.7154 990.26C72.6194 986.883 79.7468 983.122 85.4288 978.426C90.2597 974.437 93.5392 970.595 95.2572 966.902C95.8668 965.593 97.0399 962.955 96.7085 960.323C96.7085 960.323 96.4627 958.374 95.046 956.827C92.6575 954.216 85.3518 953.294 75.3517 954.792C70.8797 955.285 66.2608 956.531 62.7565 957.654C59.2555 958.774 56.8726 959.773 56.8726 959.773C56.8726 959.773 36.966 968.107 33.9492 975.043C33.9358 975.078 33.9207 975.118 33.9207 975.118C33.7822 975.564 34.0705 976.033 34.5468 976.37C35.2245 976.851 35.9421 976.876 36.2836 976.831C39.7171 976.388 42.7577 971.802 42.7577 971.802C44.7971 968.725 50.1965 964.565 65.3174 960.105C59.4885 966.442 56.5164 977.891 56.5164 977.891C47.9648 981.164 37.361 982.345 30.956 982.829C30.6073 982.801 30.2724 982.811 29.9907 982.9C29.8905 982.931 29.799 982.97 29.716 983.024C29.4771 983.176 29.3899 983.377 29.3528 983.432C29.1051 983.826 29.1225 984.186 29.3314 984.444C29.5523 984.713 29.9504 984.76 30.5918 984.838C30.5918 984.838 30.9083 984.878 31.3366 984.86C31.3417 984.86 31.3485 984.86 31.3553 984.857C31.5728 984.839 31.7784 984.819 31.9687 984.797C33.2601 984.667 33.9872 984.577 33.9872 984.577C38.4282 984.024 44.0793 983.109 50.6275 981.504C56.3617 985.561 62.618 986.693 66.4552 986.975C54.8428 991.626 43.5881 993.442 40.5141 991.645C40.0569 991.378 37.1353 989.484 35.7789 990.712C35.4237 991.032 35.2835 991.482 35.2298 991.606C34.431 993.42 35.2917 994.97 36.9284 994.871C47.0611 994.263 55.6839 992.129 61.7154 990.26ZM66.9315 959.618L66.9331 959.614C69.2363 958.924 72.3412 958.128 76.0494 957.564C78.6008 957.175 80.8584 956.844 83.7614 956.996C86.7223 957.152 94.1914 957.515 95.2307 961.438C95.7834 963.519 94.3873 965.824 93.2553 967.647C90.9409 971.387 87.4955 974.774 83.4511 977.761C74.0437 980.923 65.9186 976.483 63.9701 975.279C66.6217 973.695 69.3338 972.004 72.0964 970.208C75.0555 968.282 77.8903 966.346 80.6045 964.413C80.7146 964.337 80.823 964.262 80.9313 964.183C80.9313 964.183 81.6154 963.696 82.1264 962.976C82.2663 962.78 82.396 962.561 82.396 962.561C82.4987 962.387 82.5794 962.234 82.6399 962.108C82.6852 962.004 82.7874 961.748 82.7366 961.488C82.6596 961.098 82.2741 960.881 81.9825 961.018C81.9808 961.018 81.9808 961.018 81.9808 961.018C81.7094 961.132 80.1656 961.709 79.4721 962.616C79.4552 962.641 79.4366 962.663 79.4181 962.689C79.0351 963.201 78.4527 963.924 77.6683 964.7C77.6683 964.7 77.4063 964.955 77.1289 965.213C70.8485 971.083 63.863 974.992 57.2594 977.603C61.2206 966.388 64.9992 961.531 66.9315 959.618ZM51.486 981.193C52.2647 980.906 53.0077 980.618 53.7134 980.335C58.7189 978.327 61.808 976.543 61.808 976.543C62.257 976.284 62.7179 976.016 63.1889 975.738C70.0855 979.701 77.398 979.719 81.1465 979.376C77.3731 981.892 73.2034 984.083 69.0078 985.911L69.0061 985.911C60.6485 987.153 53.943 983.001 51.486 981.193Z" fill="white" fill-opacity="0.2"/>
<path d="M5.71542 396.429C16.6194 393.052 23.7468 389.291 29.4288 384.595C34.2597 380.606 37.5392 376.764 39.2572 373.071C39.8668 371.762 41.0399 369.124 40.7085 366.492C40.7085 366.492 40.4627 364.543 39.046 362.996C36.6575 360.385 29.3518 359.463 19.3517 360.961C14.8797 361.454 10.2608 362.7 6.75647 363.823C3.25553 364.943 0.872578 365.942 0.872578 365.942C0.872578 365.942 -19.034 374.276 -22.0508 381.212C-22.0642 381.247 -22.0793 381.287 -22.0793 381.287C-22.2178 381.733 -21.9295 382.202 -21.4532 382.539C-20.7755 383.02 -20.0579 383.045 -19.7164 383C-16.2829 382.557 -13.2423 377.971 -13.2423 377.971C-11.2029 374.894 -5.80345 370.734 9.31743 366.274C3.48849 372.611 0.516394 384.06 0.516394 384.06C-8.03517 387.333 -18.639 388.514 -25.044 388.998C-25.3927 388.97 -25.7276 388.98 -26.0093 389.068C-26.1095 389.1 -26.201 389.139 -26.284 389.192C-26.5229 389.345 -26.6101 389.546 -26.6472 389.601C-26.8949 389.995 -26.8775 390.355 -26.6686 390.613C-26.4477 390.882 -26.0496 390.929 -25.4082 391.007C-25.4082 391.007 -25.0917 391.047 -24.6634 391.029C-24.6583 391.029 -24.6515 391.029 -24.6447 391.026C-24.4272 391.008 -24.2216 390.988 -24.0313 390.966C-22.7399 390.836 -22.0128 390.746 -22.0128 390.746C-17.5718 390.193 -11.9207 389.278 -5.37248 387.673C0.361734 391.73 6.61802 392.862 10.4552 393.144C-1.1572 397.795 -12.4119 399.611 -15.4859 397.814C-15.9431 397.547 -18.8647 395.653 -20.2211 396.881C-20.5763 397.201 -20.7165 397.651 -20.7702 397.775C-21.569 399.589 -20.7083 401.139 -19.0716 401.04C-8.93886 400.432 -0.31612 398.298 5.71542 396.429ZM10.9315 365.787L10.9331 365.783C13.2363 365.093 16.3412 364.297 20.0494 363.733C22.6008 363.344 24.8584 363.013 27.7614 363.165C30.7223 363.321 38.1914 363.684 39.2307 367.607C39.7834 369.688 38.3873 371.993 37.2553 373.816C34.9409 377.556 31.4955 380.943 27.4511 383.93C18.0437 387.092 9.91859 382.652 7.97007 381.448C10.6217 379.864 13.3338 378.173 16.0964 376.377C19.0555 374.451 21.8903 372.515 24.6045 370.582C24.7146 370.506 24.823 370.431 24.9313 370.352C24.9313 370.352 25.6154 369.865 26.1264 369.145C26.2663 368.949 26.396 368.73 26.396 368.73C26.4987 368.556 26.5794 368.403 26.6399 368.277C26.6852 368.173 26.7874 367.917 26.7366 367.657C26.6596 367.267 26.2741 367.05 25.9825 367.187C25.9808 367.187 25.9808 367.187 25.9808 367.187C25.7094 367.301 24.1656 367.878 23.4721 368.785C23.4552 368.81 23.4366 368.832 23.4181 368.858C23.0351 369.37 22.4527 370.093 21.6683 370.869C21.6683 370.869 21.4063 371.124 21.1289 371.382C14.8485 377.252 7.86301 381.161 1.2594 383.772C5.22063 372.557 8.99924 367.7 10.9315 365.787ZM-4.514 387.362C-3.73528 387.075 -2.99228 386.787 -2.28665 386.504C2.7189 384.496 5.80798 382.712 5.80798 382.712C6.25702 382.452 6.71791 382.185 7.18895 381.906C14.0855 385.87 21.398 385.888 25.1465 385.545C21.3731 388.061 17.2034 390.252 13.0078 392.08L13.0061 392.08C4.6485 393.322 -2.05705 389.17 -4.514 387.362Z" fill="white"/>
<path d="M56.7523 332C63.1071 329.335 67.1703 326.659 70.3103 323.505C72.9802 320.826 74.7265 318.326 75.5432 316.007C75.8331 315.185 76.384 313.531 76.0313 311.969C76.0313 311.969 75.7698 310.813 74.8283 309.966C73.2407 308.536 68.797 308.409 62.8757 309.892C60.2174 310.45 57.5147 311.468 55.4746 312.347C53.4364 313.225 52.0628 313.964 52.0628 313.964C52.0628 313.964 40.588 320.134 39.1801 324.477C39.1741 324.499 39.1673 324.524 39.1673 324.524C39.1102 324.8 39.3108 325.065 39.6167 325.24C40.052 325.489 40.4846 325.462 40.6872 325.416C42.7244 324.949 44.2837 322.016 44.2837 322.016C45.3295 320.048 48.3311 317.233 57.1565 313.67C54.024 317.819 52.9064 324.871 52.9064 324.871C47.959 327.337 41.6564 328.666 37.836 329.331C37.6249 329.334 37.4242 329.36 37.2601 329.429C37.2018 329.454 37.1491 329.483 37.1023 329.52C36.9677 329.625 36.927 329.751 36.9079 329.786C36.7821 330.038 36.8136 330.253 36.9541 330.395C37.1026 330.544 37.3445 330.549 37.7345 330.559C37.7345 330.559 37.927 330.565 38.1833 330.529C38.1864 330.529 38.1905 330.528 38.1943 330.526C38.324 330.502 38.4464 330.478 38.5594 330.454C39.3278 330.301 39.7594 330.204 39.7594 330.204C42.3956 329.612 45.7378 328.733 49.5788 327.386C53.2611 329.489 57.0864 329.804 59.4086 329.75C52.7024 333.222 46.0458 334.97 44.0938 334.07C43.8035 333.936 41.9374 332.968 41.1941 333.786C40.9994 333.999 40.9414 334.277 40.9164 334.355C40.5422 335.491 41.1499 336.373 42.1276 336.217C48.1806 335.261 53.2372 333.475 56.7523 332ZM58.0979 313.283L58.0987 313.281C59.4423 312.732 61.2615 312.072 63.4567 311.517C64.9671 311.135 66.3043 310.804 68.0575 310.726C69.8457 310.647 74.3549 310.429 75.2084 312.726C75.662 313.944 74.9576 315.41 74.3838 316.571C73.2114 318.954 71.339 321.19 69.0831 323.221C63.6151 325.67 58.4737 323.477 57.2326 322.867C58.7334 321.76 60.2644 320.586 61.8196 319.346C63.4851 318.016 65.0755 316.687 66.5936 315.367C66.6553 315.315 66.716 315.263 66.7765 315.21C66.7765 315.21 67.1591 314.877 67.4241 314.415C67.4968 314.288 67.5619 314.15 67.5619 314.15C67.6135 314.039 67.653 313.942 67.682 313.863C67.7032 313.798 67.7497 313.638 67.704 313.485C67.6349 313.255 67.3906 313.147 67.2234 313.247C67.2224 313.247 67.2224 313.247 67.2224 313.247C67.0659 313.331 66.172 313.768 65.8082 314.353C65.7995 314.369 65.7897 314.384 65.78 314.4C65.5798 314.73 65.272 315.198 64.846 315.711C64.846 315.711 64.7035 315.879 64.5519 316.051C61.1207 319.944 57.1516 322.701 53.336 324.655C55.0616 317.685 57.0486 314.546 58.0979 313.283ZM50.0765 327.149C50.5276 326.931 50.9573 326.715 51.3647 326.503C54.2553 325.005 56.0072 323.752 56.0072 323.752C56.2619 323.57 56.5232 323.383 56.79 323.188C61.1654 325.167 65.5602 324.751 67.7926 324.326C65.6721 326.058 63.2946 327.618 60.8802 328.961L60.8792 328.962C55.9299 330.196 51.6583 328.092 50.0765 327.149Z" fill="white"/>
<path d="M68.0063 901.951C76.3657 899.363 81.8299 896.48 86.1859 892.879C89.8895 889.821 92.4037 886.875 93.7207 884.045C94.1881 883.041 95.0875 881.018 94.8334 879.001C94.8334 879.001 94.6449 877.507 93.5588 876.321C91.7277 874.319 86.1269 873.612 78.4604 874.76C75.032 875.139 71.491 876.093 68.8044 876.955C66.1205 877.814 64.2936 878.579 64.2936 878.579C64.2936 878.579 49.0325 884.969 46.7197 890.285C46.7094 890.313 46.6979 890.343 46.6979 890.343C46.5917 890.685 46.8127 891.045 47.1778 891.303C47.6974 891.672 48.2476 891.691 48.5093 891.657C51.1416 891.317 53.4726 887.801 53.4726 887.801C55.0361 885.442 59.1755 882.253 70.7678 878.833C66.2991 883.692 64.0206 892.469 64.0206 892.469C57.4646 894.978 49.3353 895.884 44.425 896.255C44.1576 896.233 43.9009 896.241 43.6849 896.309C43.6082 896.333 43.538 896.363 43.4743 896.404C43.2912 896.521 43.2243 896.675 43.1959 896.717C43.0061 897.019 43.0194 897.295 43.1795 897.493C43.3489 897.699 43.6541 897.735 44.1458 897.795C44.1458 897.795 44.3884 897.826 44.7168 897.812C44.7207 897.812 44.7259 897.812 44.7311 897.809C44.8979 897.795 45.0555 897.78 45.2014 897.764C46.1914 897.664 46.7488 897.594 46.7488 897.594C50.1535 897.171 54.4858 896.469 59.5059 895.239C63.902 898.349 68.6983 899.217 71.64 899.433C62.7375 902.999 54.1092 904.391 51.7526 903.014C51.4021 902.808 49.1623 901.356 48.1224 902.298C47.8501 902.544 47.7426 902.888 47.7014 902.984C47.089 904.374 47.7489 905.563 49.0036 905.486C56.7718 905.021 63.3823 903.384 68.0063 901.951ZM72.0051 878.46L72.0064 878.457C73.7721 877.928 76.1525 877.318 78.9953 876.886C80.9513 876.588 82.682 876.334 84.9076 876.45C87.1775 876.57 92.9037 876.848 93.7004 879.856C94.1241 881.451 93.0538 883.218 92.186 884.615C90.4117 887.483 87.7703 890.08 84.6697 892.369C77.4577 894.794 71.2286 891.39 69.7348 890.467C71.7676 889.252 73.8469 887.956 75.9648 886.579C78.2333 885.103 80.4066 883.618 82.4874 882.136C82.5718 882.078 82.6549 882.021 82.738 881.96C82.738 881.96 83.2624 881.587 83.6541 881.035C83.7615 880.884 83.8608 880.717 83.8608 880.717C83.9396 880.583 84.0015 880.466 84.0478 880.369C84.0826 880.289 84.1609 880.093 84.122 879.894C84.0629 879.595 83.7674 879.428 83.5438 879.534C83.5425 879.534 83.5425 879.534 83.5425 879.534C83.3345 879.621 82.1509 880.063 81.6192 880.758C81.6063 880.778 81.5921 880.795 81.5779 880.815C81.2843 881.207 80.8378 881.761 80.2364 882.356C80.2364 882.356 80.0355 882.552 79.8229 882.75C75.0081 887.25 69.6528 890.247 64.5902 892.248C67.627 883.651 70.5238 879.927 72.0051 878.46ZM60.1641 895C60.7611 894.78 61.3307 894.56 61.8716 894.343C65.7091 892.803 68.0773 891.436 68.0773 891.436C68.4215 891.237 68.7749 891.031 69.136 890.818C74.4232 893.857 80.0292 893.87 82.9029 893.607C80.0101 895.536 76.8134 897.216 73.5969 898.618L73.5956 898.618C67.1884 899.57 62.0477 896.387 60.1641 895Z" fill="white"/>
<path d="M159.534 505.988C153.087 500.071 147.843 496.803 142.539 494.854C138.031 493.195 134.22 492.507 131.111 492.796C130.009 492.897 127.808 493.14 126.194 494.375C126.194 494.375 124.998 495.291 124.52 496.826C123.714 499.417 125.925 504.611 130.779 510.655C132.832 513.426 135.441 516.004 137.539 517.891C139.632 519.777 141.214 520.97 141.214 520.97C141.214 520.97 154.422 530.934 160.179 530.253C160.208 530.248 160.24 530.243 160.24 530.243C160.589 530.163 160.789 529.791 160.828 529.345C160.885 528.71 160.624 528.226 160.462 528.017C158.843 525.914 154.632 525.671 154.632 525.671C151.806 525.509 146.966 523.54 138.172 515.249C144.621 516.661 153.35 514.208 153.35 514.208C158.82 518.607 163.698 525.174 166.492 529.228C166.608 529.47 166.744 529.688 166.912 529.841C166.971 529.895 167.032 529.94 167.1 529.975C167.293 530.074 167.46 530.054 167.51 530.057C167.867 530.069 168.099 529.919 168.189 529.681C168.282 529.431 168.159 529.149 167.963 528.694C167.963 528.694 167.868 528.469 167.69 528.192C167.688 528.189 167.686 528.184 167.681 528.181C167.585 528.044 167.492 527.915 167.404 527.798C166.82 526.993 166.479 526.546 166.479 526.546C164.398 523.819 161.609 520.429 158.017 516.713C158.49 511.348 156.823 506.768 155.528 504.118C163.093 510.012 168.642 516.764 168.639 519.494C168.639 519.9 168.513 522.566 169.85 522.99C170.199 523.102 170.551 523.021 170.654 523.008C172.164 522.837 172.858 521.668 172.16 520.623C167.845 514.147 163.101 509.261 159.534 505.988ZM137.226 514.368L137.224 514.368C135.877 513.109 134.15 511.361 132.345 509.123C131.102 507.583 130.011 506.216 128.99 504.235C127.95 502.213 125.306 497.127 127.503 494.923C128.668 493.754 130.733 493.788 132.377 493.834C135.748 493.922 139.322 494.896 142.862 496.421C148.589 501.429 148.787 508.525 148.742 510.281C146.669 509.136 144.502 507.993 142.246 506.857C139.827 505.641 137.45 504.512 135.122 503.461C135.029 503.417 134.937 503.374 134.843 503.333C134.843 503.333 134.257 503.068 133.582 503.008C133.398 502.991 133.204 502.989 133.204 502.989C133.049 502.989 132.916 502.994 132.809 503.003C132.723 503.013 132.514 503.044 132.361 503.178C132.132 503.38 132.138 503.719 132.341 503.859C132.342 503.86 132.342 503.86 132.342 503.86C132.522 503.996 133.5 504.796 134.369 504.905C134.392 504.906 134.414 504.91 134.438 504.912C134.925 504.968 135.629 505.075 136.446 505.294C136.446 505.294 136.716 505.369 136.994 505.453C143.306 507.346 148.593 510.462 152.873 513.827C143.916 515.535 139.24 514.908 137.226 514.368ZM157.48 516.264C156.989 515.859 156.511 515.479 156.051 515.121C152.789 512.581 150.414 511.224 150.414 511.224C150.069 511.027 149.713 510.825 149.347 510.621C149.309 504.523 146.496 499.673 144.822 497.323C147.945 498.851 151.007 500.766 153.838 502.838L153.838 502.839C157.888 507.895 157.728 513.939 157.48 516.264Z" fill="white"/>
<path d="M171.534 605.988C165.087 600.071 159.843 596.803 154.539 594.854C150.031 593.195 146.22 592.507 143.111 592.796C142.009 592.897 139.808 593.14 138.194 594.375C138.194 594.375 136.998 595.291 136.52 596.826C135.714 599.417 137.925 604.611 142.779 610.655C144.832 613.426 147.441 616.004 149.539 617.891C151.632 619.777 153.214 620.97 153.214 620.97C153.214 620.97 166.422 630.934 172.179 630.253C172.208 630.248 172.24 630.243 172.24 630.243C172.589 630.163 172.789 629.791 172.828 629.345C172.885 628.71 172.624 628.226 172.462 628.017C170.843 625.914 166.632 625.671 166.632 625.671C163.806 625.509 158.966 623.54 150.172 615.249C156.621 616.661 165.35 614.208 165.35 614.208C170.82 618.607 175.698 625.174 178.492 629.228C178.608 629.47 178.744 629.688 178.912 629.841C178.971 629.895 179.032 629.94 179.1 629.975C179.293 630.074 179.46 630.054 179.51 630.057C179.867 630.069 180.099 629.919 180.189 629.681C180.282 629.431 180.159 629.149 179.963 628.694C179.963 628.694 179.868 628.469 179.69 628.192C179.688 628.189 179.686 628.184 179.681 628.181C179.585 628.044 179.492 627.915 179.404 627.798C178.82 626.993 178.479 626.546 178.479 626.546C176.398 623.819 173.609 620.429 170.017 616.713C170.49 611.348 168.823 606.768 167.528 604.118C175.093 610.012 180.642 616.764 180.639 619.494C180.639 619.9 180.513 622.566 181.85 622.99C182.199 623.102 182.551 623.021 182.654 623.008C184.164 622.837 184.858 621.668 184.16 620.623C179.845 614.147 175.101 609.261 171.534 605.988ZM149.226 614.368L149.224 614.368C147.877 613.109 146.15 611.361 144.345 609.123C143.102 607.583 142.011 606.216 140.99 604.235C139.95 602.213 137.306 597.127 139.503 594.923C140.668 593.754 142.733 593.788 144.377 593.834C147.748 593.922 151.322 594.896 154.862 596.421C160.589 601.429 160.787 608.525 160.742 610.281C158.669 609.136 156.502 607.993 154.246 606.857C151.827 605.641 149.45 604.512 147.122 603.461C147.029 603.417 146.937 603.374 146.843 603.333C146.843 603.333 146.257 603.068 145.582 603.008C145.398 602.991 145.204 602.989 145.204 602.989C145.049 602.989 144.916 602.994 144.809 603.003C144.723 603.013 144.514 603.044 144.361 603.178C144.132 603.38 144.138 603.719 144.341 603.859C144.342 603.86 144.342 603.86 144.342 603.86C144.522 603.996 145.5 604.796 146.369 604.905C146.392 604.906 146.414 604.91 146.438 604.912C146.925 604.968 147.629 605.075 148.446 605.294C148.446 605.294 148.716 605.369 148.994 605.453C155.306 607.346 160.593 610.462 164.873 613.827C155.916 615.535 151.24 614.908 149.226 614.368ZM169.48 616.264C168.989 615.859 168.511 615.479 168.051 615.121C164.789 612.581 162.414 611.224 162.414 611.224C162.069 611.027 161.713 610.825 161.347 610.621C161.309 604.523 158.496 599.673 156.822 597.323C159.945 598.851 163.007 600.766 165.838 602.838L165.838 602.839C169.888 607.895 169.728 613.939 169.48 616.264Z" fill="white" fill-opacity="0.2"/>
<path d="M140.081 982.798C148.44 980.21 153.904 977.326 158.26 973.726C161.964 970.668 164.478 967.722 165.795 964.891C166.262 963.888 167.162 961.865 166.908 959.847C166.908 959.847 166.719 958.354 165.633 957.167C163.802 955.165 158.201 954.459 150.535 955.607C147.106 955.985 143.565 956.94 140.879 957.802C138.195 958.66 136.368 959.425 136.368 959.425C136.368 959.425 121.107 965.815 118.794 971.132C118.784 971.159 118.772 971.19 118.772 971.19C118.666 971.532 118.887 971.891 119.252 972.15C119.772 972.518 120.322 972.537 120.584 972.503C123.216 972.164 125.547 968.648 125.547 968.648C127.11 966.289 131.25 963.099 142.842 959.68C138.373 964.539 136.095 973.316 136.095 973.316C129.539 975.825 121.41 976.731 116.499 977.102C116.232 977.08 115.975 977.088 115.759 977.155C115.682 977.179 115.612 977.21 115.549 977.251C115.365 977.368 115.299 977.522 115.27 977.564C115.08 977.866 115.094 978.142 115.254 978.339C115.423 978.546 115.728 978.582 116.22 978.641C116.22 978.641 116.463 978.672 116.791 978.659C116.795 978.659 116.8 978.659 116.805 978.656C116.972 978.642 117.13 978.627 117.276 978.61C118.266 978.511 118.823 978.441 118.823 978.441C122.228 978.017 126.56 977.316 131.58 976.085C135.976 979.196 140.773 980.064 143.714 980.28C134.812 983.845 126.183 985.237 123.827 983.86C123.476 983.655 121.236 982.203 120.197 983.145C119.924 983.39 119.817 983.735 119.776 983.83C119.163 985.221 119.823 986.409 121.078 986.333C128.846 985.867 135.457 984.231 140.081 982.798ZM144.079 959.307L144.081 959.304C145.846 958.775 148.227 958.164 151.07 957.732C153.026 957.434 154.756 957.181 156.982 957.297C159.252 957.417 164.978 957.695 165.775 960.703C166.198 962.298 165.128 964.065 164.26 965.462C162.486 968.329 159.845 970.926 156.744 973.216C149.532 975.64 143.303 972.237 141.809 971.313C143.842 970.099 145.921 968.803 148.039 967.426C150.308 965.949 152.481 964.465 154.562 962.983C154.646 962.925 154.729 962.867 154.812 962.807C154.812 962.807 155.337 962.434 155.728 961.881C155.836 961.731 155.935 961.563 155.935 961.563C156.014 961.43 156.076 961.312 156.122 961.216C156.157 961.136 156.235 960.94 156.196 960.741C156.137 960.441 155.842 960.275 155.618 960.381C155.617 960.381 155.617 960.381 155.617 960.381C155.409 960.468 154.225 960.91 153.693 961.605C153.681 961.625 153.666 961.642 153.652 961.661C153.358 962.054 152.912 962.608 152.311 963.203C152.311 963.203 152.11 963.399 151.897 963.597C147.082 968.096 141.727 971.094 136.664 973.095C139.701 964.497 142.598 960.774 144.079 959.307ZM132.238 975.847C132.835 975.627 133.405 975.406 133.946 975.189C137.783 973.65 140.152 972.282 140.152 972.282C140.496 972.083 140.849 971.878 141.21 971.665C146.497 974.704 152.103 974.717 154.977 974.454C152.084 976.383 148.888 978.063 145.671 979.464L145.67 979.464C139.263 980.416 134.122 977.233 132.238 975.847Z" fill="white"/>
<path d="M75.8365 792.413C86.7405 789.037 93.8679 785.276 99.5499 780.58C104.381 776.59 107.66 772.748 109.378 769.056C109.988 767.746 111.161 765.108 110.83 762.476C110.83 762.476 110.584 760.528 109.167 758.98C106.779 756.369 99.4729 755.447 89.4727 756.945C85.0008 757.438 80.3819 758.684 76.8776 759.808C73.3766 760.928 70.9937 761.926 70.9937 761.926C70.9937 761.926 51.0871 770.261 48.0703 777.196C48.0569 777.232 48.0418 777.271 48.0418 777.271C47.9033 777.717 48.1916 778.186 48.6679 778.524C49.3456 779.004 50.0632 779.029 50.4047 778.985C53.8381 778.541 56.8788 773.956 56.8788 773.956C58.9182 770.879 64.3176 766.718 79.4385 762.258C73.6096 768.596 70.6375 780.044 70.6375 780.044C62.0859 783.317 51.4821 784.499 45.077 784.983C44.7283 784.954 44.3935 784.965 44.1118 785.053C44.0116 785.084 43.9201 785.124 43.8371 785.177C43.5982 785.33 43.511 785.531 43.4739 785.585C43.2262 785.979 43.2436 786.34 43.4525 786.597C43.6734 786.866 44.0715 786.913 44.7129 786.991C44.7129 786.991 45.0294 787.032 45.4577 787.014C45.4628 787.014 45.4696 787.014 45.4764 787.01C45.6939 786.992 45.8995 786.972 46.0898 786.951C47.3812 786.821 48.1083 786.73 48.1083 786.73C52.5493 786.177 58.2004 785.262 64.7486 783.657C70.4828 787.714 76.7391 788.846 80.5763 789.128C68.9639 793.779 57.7092 795.595 54.6352 793.799C54.178 793.531 51.2564 791.637 49.9 792.865C49.5448 793.185 49.4046 793.635 49.3509 793.759C48.5521 795.573 49.4128 797.124 51.0495 797.024C61.1822 796.416 69.805 794.282 75.8365 792.413ZM81.0526 761.771L81.0542 761.768C83.3574 761.078 86.4623 760.281 90.1705 759.717C92.7219 759.329 94.9795 758.998 97.8825 759.149C100.843 759.306 108.313 759.669 109.352 763.592C109.904 765.673 108.508 767.978 107.376 769.8C105.062 773.54 101.617 776.928 97.5722 779.914C88.1648 783.076 80.0397 778.637 78.0912 777.432C80.7428 775.848 83.4549 774.158 86.2175 772.362C89.1766 770.435 92.0114 768.5 94.7256 766.566C94.8357 766.491 94.9441 766.415 95.0524 766.337C95.0524 766.337 95.7365 765.85 96.2475 765.129C96.3874 764.933 96.5171 764.715 96.5171 764.715C96.6198 764.541 96.7005 764.387 96.761 764.261C96.8063 764.157 96.9085 763.901 96.8577 763.642C96.7807 763.251 96.3952 763.034 96.1036 763.172C96.1019 763.172 96.1019 763.172 96.1019 763.172C95.8305 763.285 94.2867 763.862 93.5932 764.769C93.5763 764.795 93.5577 764.817 93.5392 764.842C93.1562 765.355 92.5738 766.077 91.7894 766.854C91.7894 766.854 91.5274 767.108 91.25 767.367C84.9696 773.236 77.9841 777.146 71.3805 779.756C75.3417 768.541 79.1203 763.685 81.0526 761.771ZM65.6071 783.346C66.3858 783.059 67.1288 782.771 67.8344 782.488C72.84 780.48 75.9291 778.696 75.9291 778.696C76.3781 778.437 76.839 778.169 77.31 777.891C84.2066 781.855 91.5191 781.872 95.2676 781.529C91.4942 784.045 87.3245 786.237 83.1289 788.065L83.1272 788.065C74.7696 789.306 68.064 785.154 65.6071 783.346Z" fill="white" fill-opacity="0.2"/>
<path d="M101.776 467.567C110.598 460.323 115.777 454.15 119.265 447.656C122.233 442.138 123.818 437.341 124.015 433.274C124.085 431.831 124.175 428.945 122.875 426.634C122.875 426.634 121.911 424.922 120.015 424.024C116.817 422.508 109.704 424.413 101.01 429.576C97.0555 431.721 93.2489 434.619 90.4282 436.982C87.6094 439.341 85.7797 441.165 85.7797 441.165C85.7797 441.165 70.494 456.4 70.3191 463.961C70.3202 463.999 70.3211 464.041 70.3211 464.041C70.3613 464.506 70.8054 464.832 71.3738 464.965C72.1829 465.154 72.8567 464.906 73.1561 464.736C76.1681 463.029 77.252 457.634 77.252 457.634C77.9786 454.015 81.4073 448.124 93.7248 438.284C90.7204 446.354 92.2912 458.077 92.2912 458.077C85.6085 464.337 76.2358 469.435 70.4877 472.301C70.154 472.406 69.8479 472.543 69.6203 472.731C69.5394 472.797 69.4696 472.869 69.4128 472.949C69.2493 473.181 69.2444 473.4 69.2307 473.465C69.1502 473.923 69.3024 474.25 69.5929 474.409C69.899 474.575 70.2854 474.468 70.9088 474.298C70.9088 474.298 71.2172 474.217 71.6071 474.038C71.6118 474.036 71.6181 474.034 71.623 474.028C71.8176 473.929 72.0004 473.833 72.1685 473.741C73.3153 473.133 73.9543 472.775 73.9543 472.775C77.8578 470.586 82.7451 467.605 88.2024 463.646C95.0442 465.238 101.265 463.924 104.924 462.736C95.9276 471.427 86.1918 477.358 82.667 476.856C82.1426 476.78 78.7221 476.13 77.93 477.779C77.7219 478.21 77.7619 478.679 77.7591 478.815C77.7042 480.795 79.0867 481.906 80.5647 481.196C89.7179 476.807 96.8965 471.576 101.776 467.567ZM95.0355 437.224L95.0357 437.22C96.9079 435.712 99.4822 433.802 102.703 431.879C104.919 430.556 106.884 429.397 109.63 428.441C112.43 427.468 119.484 424.984 121.927 428.224C123.225 429.943 122.802 432.604 122.442 434.719C121.711 439.056 119.8 443.494 117.183 447.786C109.666 454.267 100.466 453.224 98.2069 452.844C100.064 450.376 101.937 447.786 103.817 445.08C105.83 442.179 107.724 439.316 109.507 436.501C109.58 436.39 109.652 436.279 109.723 436.165C109.723 436.165 110.173 435.456 110.374 434.596C110.429 434.362 110.467 434.11 110.467 434.11C110.496 433.911 110.513 433.738 110.521 433.598C110.524 433.485 110.522 433.21 110.377 432.988C110.158 432.656 109.719 432.6 109.501 432.838C109.5 432.838 109.5 432.838 109.5 432.838C109.291 433.046 108.08 434.163 107.78 435.265C107.774 435.295 107.765 435.322 107.757 435.353C107.596 435.972 107.33 436.861 106.897 437.876C106.897 437.876 106.75 438.211 106.591 438.555C102.992 446.361 97.9995 452.619 92.8704 457.53C92.3039 445.649 93.9688 439.725 95.0355 437.224ZM88.8799 463.034C89.4927 462.474 90.0719 461.927 90.6185 461.398C94.4954 457.649 96.6821 454.831 96.6821 454.831C97 454.421 97.3256 453.999 97.6567 453.564C105.54 454.63 112.317 451.885 115.659 450.152C113.115 453.906 110.081 457.51 106.886 460.787L106.885 460.788C99.6148 465.093 91.8378 463.781 88.8799 463.034Z" fill="white" fill-opacity="0.2"/>
<path d="M133.715 1050.26C144.619 1046.88 151.747 1043.12 157.429 1038.43C162.26 1034.44 165.539 1030.59 167.257 1026.9C167.867 1025.59 169.04 1022.95 168.709 1020.32C168.709 1020.32 168.463 1018.37 167.046 1016.83C164.658 1014.22 157.352 1013.29 147.352 1014.79C142.88 1015.29 138.261 1016.53 134.756 1017.65C131.256 1018.77 128.873 1019.77 128.873 1019.77C128.873 1019.77 108.966 1028.11 105.949 1035.04C105.936 1035.08 105.921 1035.12 105.921 1035.12C105.782 1035.56 106.071 1036.03 106.547 1036.37C107.225 1036.85 107.942 1036.88 108.284 1036.83C111.717 1036.39 114.758 1031.8 114.758 1031.8C116.797 1028.73 122.197 1024.56 137.317 1020.1C131.488 1026.44 128.516 1037.89 128.516 1037.89C119.965 1041.16 109.361 1042.35 102.956 1042.83C102.607 1042.8 102.272 1042.81 101.991 1042.9C101.891 1042.93 101.799 1042.97 101.716 1043.02C101.477 1043.18 101.39 1043.38 101.353 1043.43C101.105 1043.83 101.123 1044.19 101.331 1044.44C101.552 1044.71 101.95 1044.76 102.592 1044.84C102.592 1044.84 102.908 1044.88 103.337 1044.86C103.342 1044.86 103.349 1044.86 103.355 1044.86C103.573 1044.84 103.778 1044.82 103.969 1044.8C105.26 1044.67 105.987 1044.58 105.987 1044.58C110.428 1044.02 116.079 1043.11 122.628 1041.5C128.362 1045.56 134.618 1046.69 138.455 1046.98C126.843 1051.63 115.588 1053.44 112.514 1051.65C112.057 1051.38 109.135 1049.48 107.779 1050.71C107.424 1051.03 107.283 1051.48 107.23 1051.61C106.431 1053.42 107.292 1054.97 108.928 1054.87C119.061 1054.26 127.684 1052.13 133.715 1050.26ZM138.931 1019.62L138.933 1019.61C141.236 1018.92 144.341 1018.13 148.049 1017.56C150.601 1017.18 152.858 1016.84 155.761 1017C158.722 1017.15 166.191 1017.52 167.231 1021.44C167.783 1023.52 166.387 1025.82 165.255 1027.65C162.941 1031.39 159.496 1034.77 155.451 1037.76C146.044 1040.92 137.919 1036.48 135.97 1035.28C138.622 1033.69 141.334 1032 144.096 1030.21C147.055 1028.28 149.89 1026.35 152.605 1024.41C152.715 1024.34 152.823 1024.26 152.931 1024.18C152.931 1024.18 153.615 1023.7 154.126 1022.98C154.266 1022.78 154.396 1022.56 154.396 1022.56C154.499 1022.39 154.579 1022.23 154.64 1022.11C154.685 1022 154.787 1021.75 154.737 1021.49C154.66 1021.1 154.274 1020.88 153.982 1021.02C153.981 1021.02 153.981 1021.02 153.981 1021.02C153.709 1021.13 152.166 1021.71 151.472 1022.62C151.455 1022.64 151.437 1022.66 151.418 1022.69C151.035 1023.2 150.453 1023.92 149.668 1024.7C149.668 1024.7 149.406 1024.96 149.129 1025.21C142.848 1031.08 135.863 1034.99 129.259 1037.6C133.221 1026.39 136.999 1021.53 138.931 1019.62ZM123.486 1041.19C124.265 1040.91 125.008 1040.62 125.713 1040.33C130.719 1038.33 133.808 1036.54 133.808 1036.54C134.257 1036.28 134.718 1036.02 135.189 1035.74C142.086 1039.7 149.398 1039.72 153.147 1039.38C149.373 1041.89 145.203 1044.08 141.008 1045.91L141.006 1045.91C132.649 1047.15 125.943 1043 123.486 1041.19Z" fill="white" fill-opacity="0.2"/>
<path d="M11.8365 751.413C22.7405 748.037 29.8679 744.276 35.5499 739.58C40.3808 735.59 43.6603 731.748 45.3783 728.056C45.9879 726.746 47.161 724.108 46.8296 721.476C46.8296 721.476 46.5838 719.528 45.1671 717.98C42.7786 715.369 35.4729 714.447 25.4727 715.945C21.0008 716.438 16.3819 717.684 12.8776 718.808C9.37662 719.928 6.99367 720.926 6.99367 720.926C6.99367 720.926 -12.9129 729.261 -15.9297 736.196C-15.9431 736.232 -15.9582 736.271 -15.9582 736.271C-16.0967 736.717 -15.8084 737.186 -15.3321 737.524C-14.6544 738.004 -13.9368 738.029 -13.5953 737.985C-10.1619 737.541 -7.12125 732.956 -7.12125 732.956C-5.08182 729.879 0.317642 725.718 15.4385 721.258C9.60959 727.596 6.63749 739.044 6.63749 739.044C-1.91407 742.317 -12.5179 743.499 -18.923 743.983C-19.2717 743.954 -19.6065 743.965 -19.8882 744.053C-19.9884 744.084 -20.0799 744.124 -20.1629 744.177C-20.4018 744.33 -20.489 744.531 -20.5261 744.585C-20.7738 744.979 -20.7564 745.34 -20.5475 745.597C-20.3266 745.866 -19.9285 745.913 -19.2871 745.991C-19.2871 745.991 -18.9706 746.032 -18.5423 746.014C-18.5372 746.014 -18.5304 746.014 -18.5236 746.01C-18.3061 745.992 -18.1005 745.972 -17.9102 745.951C-16.6188 745.821 -15.8917 745.73 -15.8917 745.73C-11.4507 745.177 -5.79959 744.262 0.748618 742.657C6.48283 746.714 12.7391 747.846 16.5763 748.128C4.96389 752.779 -6.29081 754.595 -9.36485 752.799C-9.82203 752.531 -12.7436 750.637 -14.1 751.865C-14.4552 752.185 -14.5954 752.635 -14.6491 752.759C-15.4479 754.573 -14.5872 756.124 -12.9505 756.024C-2.81777 755.416 5.80497 753.282 11.8365 751.413ZM17.0526 720.771L17.0542 720.768C19.3574 720.078 22.4623 719.281 26.1705 718.717C28.7219 718.329 30.9795 717.998 33.8825 718.149C36.8434 718.306 44.3125 718.669 45.3518 722.592C45.9045 724.673 44.5084 726.978 43.3764 728.8C41.062 732.54 37.6166 735.928 33.5722 738.914C24.1648 742.076 16.0397 737.637 14.0912 736.432C16.7428 734.848 19.4549 733.158 22.2175 731.362C25.1766 729.435 28.0114 727.5 30.7256 725.566C30.8357 725.491 30.9441 725.415 31.0524 725.337C31.0524 725.337 31.7365 724.85 32.2475 724.129C32.3874 723.933 32.5171 723.715 32.5171 723.715C32.6198 723.541 32.7005 723.387 32.761 723.261C32.8063 723.157 32.9085 722.901 32.8577 722.642C32.7807 722.251 32.3952 722.034 32.1036 722.172C32.1019 722.172 32.1019 722.172 32.1019 722.172C31.8305 722.285 30.2867 722.862 29.5932 723.769C29.5763 723.795 29.5577 723.817 29.5392 723.842C29.1562 724.355 28.5738 725.077 27.7894 725.854C27.7894 725.854 27.5274 726.108 27.25 726.367C20.9696 732.236 13.9841 736.146 7.38049 738.756C11.3417 727.541 15.1203 722.685 17.0526 720.771ZM1.6071 742.346C2.38581 742.059 3.12881 741.771 3.83445 741.488C8.84 739.48 11.9291 737.696 11.9291 737.696C12.3781 737.437 12.839 737.169 13.31 736.891C20.2066 740.855 27.5191 740.872 31.2676 740.529C27.4942 743.045 23.3245 745.237 19.1289 747.065L19.1272 747.065C10.7696 748.306 4.06405 744.154 1.6071 742.346Z" fill="white"/>
<path d="M40.7154 1054.26C51.6194 1050.88 58.7468 1047.12 64.4288 1042.43C69.2597 1038.44 72.5392 1034.59 74.2572 1030.9C74.8668 1029.59 76.0399 1026.95 75.7085 1024.32C75.7085 1024.32 75.4627 1022.37 74.046 1020.83C71.6575 1018.22 64.3518 1017.29 54.3517 1018.79C49.8797 1019.29 45.2608 1020.53 41.7565 1021.65C38.2555 1022.77 35.8726 1023.77 35.8726 1023.77C35.8726 1023.77 15.966 1032.11 12.9492 1039.04C12.9358 1039.08 12.9207 1039.12 12.9207 1039.12C12.7822 1039.56 13.0705 1040.03 13.5468 1040.37C14.2245 1040.85 14.9421 1040.88 15.2836 1040.83C18.7171 1040.39 21.7577 1035.8 21.7577 1035.8C23.7971 1032.73 29.1965 1028.56 44.3174 1024.1C38.4885 1030.44 35.5164 1041.89 35.5164 1041.89C26.9648 1045.16 16.361 1046.35 9.95595 1046.83C9.60726 1046.8 9.27239 1046.81 8.99067 1046.9C8.89055 1046.93 8.79897 1046.97 8.71597 1047.02C8.47713 1047.18 8.38988 1047.38 8.3528 1047.43C8.10514 1047.83 8.12253 1048.19 8.33143 1048.44C8.5523 1048.71 8.9504 1048.76 9.59181 1048.84C9.59181 1048.84 9.90827 1048.88 10.3366 1048.86C10.3417 1048.86 10.3485 1048.86 10.3553 1048.86C10.5728 1048.84 10.7784 1048.82 10.9687 1048.8C12.2601 1048.67 12.9872 1048.58 12.9872 1048.58C17.4282 1048.02 23.0793 1047.11 29.6275 1045.5C35.3617 1049.56 41.618 1050.69 45.4552 1050.98C33.8428 1055.63 22.5881 1057.44 19.5141 1055.65C19.0569 1055.38 16.1353 1053.48 14.7789 1054.71C14.4237 1055.03 14.2835 1055.48 14.2298 1055.61C13.431 1057.42 14.2917 1058.97 15.9284 1058.87C26.0611 1058.26 34.6839 1056.13 40.7154 1054.26ZM45.9315 1023.62L45.9331 1023.61C48.2363 1022.92 51.3412 1022.13 55.0494 1021.56C57.6008 1021.18 59.8584 1020.84 62.7614 1021C65.7223 1021.15 73.1914 1021.52 74.2307 1025.44C74.7834 1027.52 73.3873 1029.82 72.2553 1031.65C69.9409 1035.39 66.4955 1038.77 62.4511 1041.76C53.0437 1044.92 44.9186 1040.48 42.9701 1039.28C45.6217 1037.69 48.3338 1036 51.0964 1034.21C54.0555 1032.28 56.8903 1030.35 59.6045 1028.41C59.7146 1028.34 59.823 1028.26 59.9313 1028.18C59.9313 1028.18 60.6154 1027.7 61.1264 1026.98C61.2663 1026.78 61.396 1026.56 61.396 1026.56C61.4987 1026.39 61.5794 1026.23 61.6399 1026.11C61.6852 1026 61.7874 1025.75 61.7366 1025.49C61.6596 1025.1 61.2741 1024.88 60.9825 1025.02C60.9808 1025.02 60.9808 1025.02 60.9808 1025.02C60.7094 1025.13 59.1656 1025.71 58.4721 1026.62C58.4552 1026.64 58.4366 1026.66 58.4181 1026.69C58.0351 1027.2 57.4527 1027.92 56.6683 1028.7C56.6683 1028.7 56.4063 1028.96 56.1289 1029.21C49.8485 1035.08 42.863 1038.99 36.2594 1041.6C40.2206 1030.39 43.9992 1025.53 45.9315 1023.62ZM30.486 1045.19C31.2647 1044.91 32.0077 1044.62 32.7134 1044.33C37.7189 1042.33 40.808 1040.54 40.808 1040.54C41.257 1040.28 41.7179 1040.02 42.1889 1039.74C49.0855 1043.7 56.398 1043.72 60.1465 1043.38C56.3731 1045.89 52.2034 1048.08 48.0078 1049.91L48.0061 1049.91C39.6485 1051.15 32.943 1047 30.486 1045.19Z" fill="white"/>
<path d="M122.837 62.4132C133.74 59.0367 140.868 55.2758 146.55 50.5796C151.381 46.5905 154.66 42.748 156.378 39.0557C156.988 37.7465 158.161 35.1079 157.83 32.4764C157.83 32.4764 157.584 30.5278 156.167 28.9804C153.779 26.3692 146.473 25.4474 136.473 26.9451C132.001 27.4384 127.382 28.684 123.878 29.8076C120.377 30.9278 117.994 31.9259 117.994 31.9259C117.994 31.9259 98.0871 40.2608 95.0703 47.1959C95.0569 47.2317 95.0418 47.2709 95.0418 47.2709C94.9033 47.7171 95.1916 48.1864 95.6679 48.5237C96.3456 49.0043 97.0632 49.029 97.4047 48.9846C100.838 48.5414 103.879 43.9557 103.879 43.9557C105.918 40.8786 111.318 36.7179 126.439 32.258C120.61 38.5956 117.637 50.0443 117.637 50.0443C109.086 53.317 98.4821 54.4986 92.077 54.9827C91.7283 54.9541 91.3935 54.9645 91.1118 55.0529C91.0116 55.084 90.9201 55.1237 90.8371 55.1769C90.5982 55.3295 90.511 55.5307 90.4739 55.5853C90.2262 55.9794 90.2436 56.3397 90.4525 56.597C90.6734 56.866 91.0715 56.913 91.7129 56.9909C91.7129 56.9909 92.0294 57.0316 92.4577 57.0138C92.4628 57.0138 92.4696 57.0137 92.4764 57.0103C92.6939 56.992 92.8995 56.9722 93.0898 56.9507C94.3812 56.8208 95.1083 56.7299 95.1083 56.7299C99.5493 56.1772 105.2 55.2623 111.749 53.657C117.483 57.7144 123.739 58.8462 127.576 59.1284C115.964 63.7789 104.709 65.595 101.635 63.7987C101.178 63.531 98.2564 61.6369 96.9 62.8654C96.5448 63.1854 96.4046 63.6351 96.3509 63.7595C95.5521 65.573 96.4128 67.1236 98.0495 67.0241C108.182 66.4165 116.805 64.2824 122.837 62.4132ZM128.053 31.771L128.054 31.7675C130.357 31.0776 133.462 30.281 137.171 29.7173C139.722 29.3286 141.979 28.9976 144.882 29.1492C147.843 29.3055 155.313 29.6687 156.352 33.5917C156.904 35.6728 155.508 37.9777 154.376 39.8C152.062 43.5399 148.617 46.9277 144.572 49.9144C135.165 53.0764 127.04 48.6367 125.091 47.4324C127.743 45.8479 130.455 44.1577 133.218 42.3617C136.177 40.4354 139.011 38.4996 141.726 36.5663C141.836 36.4908 141.944 36.4154 142.052 36.3366C142.052 36.3366 142.736 35.8498 143.247 35.1294C143.387 34.9331 143.517 34.7147 143.517 34.7147C143.62 34.5407 143.701 34.3872 143.761 34.2611C143.806 34.1571 143.909 33.9015 143.858 33.6417C143.781 33.2511 143.395 33.034 143.104 33.1717C143.102 33.1717 143.102 33.1717 143.102 33.1717C142.83 33.2855 141.287 33.8622 140.593 34.769C140.576 34.7946 140.558 34.8168 140.539 34.8424C140.156 35.3546 139.574 36.0771 138.789 36.8535C138.789 36.8535 138.527 37.1083 138.25 37.3667C131.97 43.236 124.984 47.1457 118.38 49.7561C122.342 38.5414 126.12 33.6845 128.053 31.771ZM112.607 53.346C113.386 53.0593 114.129 52.7711 114.834 52.4882C119.84 50.4804 122.929 48.6962 122.929 48.6962C123.378 48.4369 123.839 48.169 124.31 47.8909C131.207 51.8548 138.519 51.8721 142.268 51.5292C138.494 54.045 134.324 56.2367 130.129 58.0647L130.127 58.0647C121.77 59.3064 115.064 55.1544 112.607 53.346Z" fill="white" fill-opacity="0.2"/>
<path d="M0.822784 820.145C7.09034 818.19 11.1871 816.013 14.453 813.295C17.2298 810.985 19.1147 808.761 20.1021 806.623C20.4525 805.865 21.1268 804.338 20.9362 802.814C20.9362 802.814 20.7949 801.686 19.9805 800.79C18.6076 799.278 14.4082 798.744 8.66009 799.611C6.08961 799.897 3.43467 800.618 1.4204 801.268C-0.591921 801.917 -1.96163 802.494 -1.96163 802.494C-1.96163 802.494 -13.4038 807.319 -15.1377 811.334C-15.1454 811.355 -15.1541 811.378 -15.1541 811.378C-15.2337 811.636 -15.0679 811.908 -14.7942 812.103C-14.4046 812.381 -13.9921 812.396 -13.7958 812.37C-11.8223 812.113 -10.0746 809.459 -10.0746 809.459C-8.90245 807.677 -5.79891 805.269 2.89251 802.687C-0.457829 806.356 -2.16593 812.984 -2.16593 812.984C-7.08132 814.879 -13.1764 815.562 -16.858 815.842C-17.0585 815.826 -17.2509 815.832 -17.4129 815.883C-17.4704 815.901 -17.5231 815.924 -17.5708 815.955C-17.7081 816.043 -17.7582 816.16 -17.7795 816.191C-17.9219 816.419 -17.9119 816.628 -17.7918 816.777C-17.6648 816.933 -17.436 816.96 -17.0673 817.005C-17.0673 817.005 -16.8854 817.029 -16.6392 817.018C-16.6363 817.018 -16.6323 817.018 -16.6284 817.016C-16.5034 817.006 -16.3852 816.994 -16.2759 816.982C-15.5336 816.907 -15.1156 816.854 -15.1156 816.854C-12.5629 816.534 -9.31468 816.005 -5.55078 815.075C-2.25464 817.425 1.34151 818.08 3.54713 818.243C-3.12759 820.936 -9.59679 821.987 -11.3638 820.947C-11.6266 820.792 -13.306 819.695 -14.0856 820.406C-14.2898 820.591 -14.3704 820.852 -14.4012 820.924C-14.8603 821.974 -14.3655 822.871 -13.4248 822.814C-7.60045 822.462 -2.64412 821.227 0.822784 820.145ZM3.82025 802.405L3.82122 802.403C5.14504 802.004 6.92977 801.542 9.06123 801.216C10.5278 800.991 11.8254 800.8 13.4941 800.887C15.196 800.978 19.4893 801.188 20.0868 803.46C20.4045 804.665 19.6021 805.999 18.9515 807.054C17.6212 809.219 15.6409 811.18 13.3162 812.909C7.90891 814.74 3.23845 812.169 2.11841 811.472C3.64251 810.555 5.20144 809.576 6.78934 808.537C8.49016 807.421 10.1196 806.301 11.6797 805.181C11.743 805.138 11.8052 805.094 11.8675 805.048C11.8675 805.048 12.2607 804.767 12.5544 804.35C12.6349 804.236 12.7094 804.11 12.7094 804.11C12.7684 804.009 12.8148 803.92 12.8496 803.847C12.8756 803.787 12.9344 803.639 12.9052 803.488C12.8609 803.262 12.6393 803.137 12.4716 803.216C12.4707 803.216 12.4707 803.216 12.4707 803.216C12.3147 803.282 11.4273 803.616 11.0287 804.141C11.019 804.156 11.0083 804.169 10.9977 804.183C10.7775 804.48 10.4428 804.898 9.99196 805.348C9.99196 805.348 9.84133 805.495 9.68193 805.645C6.07203 809.043 2.05686 811.306 -1.73885 812.817C0.537809 806.325 2.70965 803.513 3.82025 802.405ZM-5.05733 814.895C-4.60973 814.729 -4.18266 814.563 -3.77707 814.399C-0.899909 813.237 0.875659 812.204 0.875659 812.204C1.13376 812.053 1.39868 811.898 1.66943 811.737C5.6337 814.032 9.83691 814.043 11.9916 813.844C9.82267 815.301 7.42595 816.569 5.01434 817.628L5.01337 817.628C0.209442 818.346 -3.64503 815.942 -5.05733 814.895Z" fill="white"/>
<path d="M127.805 924.992C134.073 923.037 138.17 920.86 141.435 918.141C144.212 915.832 146.097 913.607 147.085 911.47C147.435 910.712 148.109 909.184 147.919 907.661C147.919 907.661 147.777 906.533 146.963 905.637C145.59 904.125 141.391 903.591 135.643 904.458C133.072 904.743 130.417 905.464 128.403 906.115C126.391 906.763 125.021 907.341 125.021 907.341C125.021 907.341 113.579 912.166 111.845 916.181C111.837 916.202 111.828 916.224 111.828 916.224C111.749 916.483 111.914 916.754 112.188 916.95C112.578 917.228 112.99 917.242 113.187 917.217C115.16 916.96 116.908 914.305 116.908 914.305C118.08 912.524 121.184 910.115 129.875 907.534C126.525 911.203 124.816 917.831 124.816 917.831C119.901 919.725 113.806 920.409 110.124 920.689C109.924 920.673 109.731 920.679 109.57 920.73C109.512 920.748 109.459 920.771 109.412 920.801C109.274 920.89 109.224 921.006 109.203 921.038C109.061 921.266 109.071 921.475 109.191 921.624C109.318 921.779 109.546 921.807 109.915 921.852C109.915 921.852 110.097 921.875 110.343 921.865C110.346 921.865 110.35 921.865 110.354 921.863C110.479 921.852 110.597 921.841 110.707 921.828C111.449 921.753 111.867 921.701 111.867 921.701C114.419 921.381 117.668 920.851 121.432 919.922C124.728 922.271 128.324 922.927 130.53 923.09C123.855 925.782 117.386 926.833 115.619 925.793C115.356 925.638 113.676 924.542 112.897 925.253C112.693 925.438 112.612 925.698 112.581 925.771C112.122 926.82 112.617 927.718 113.558 927.661C119.382 927.309 124.338 926.074 127.805 924.992ZM130.803 907.252L130.804 907.25C132.127 906.85 133.912 906.389 136.044 906.063C137.51 905.838 138.808 905.646 140.477 905.734C142.178 905.825 146.472 906.035 147.069 908.306C147.387 909.511 146.585 910.846 145.934 911.901C144.604 914.066 142.623 916.027 140.299 917.756C134.891 919.587 130.221 917.016 129.101 916.319C130.625 915.401 132.184 914.423 133.772 913.383C135.473 912.268 137.102 911.147 138.662 910.028C138.725 909.984 138.788 909.941 138.85 909.895C138.85 909.895 139.243 909.613 139.537 909.196C139.617 909.083 139.692 908.956 139.692 908.956C139.751 908.856 139.797 908.767 139.832 908.694C139.858 908.633 139.917 908.485 139.888 908.335C139.843 908.109 139.622 907.983 139.454 908.063C139.453 908.063 139.453 908.063 139.453 908.063C139.297 908.129 138.41 908.463 138.011 908.988C138.001 909.002 137.991 909.015 137.98 909.03C137.76 909.327 137.425 909.745 136.974 910.194C136.974 910.194 136.824 910.342 136.664 910.491C133.054 913.889 129.039 916.153 125.244 917.664C127.52 911.171 129.692 908.359 130.803 907.252ZM121.925 919.742C122.373 919.576 122.8 919.409 123.205 919.245C126.083 918.083 127.858 917.05 127.858 917.05C128.116 916.9 128.381 916.745 128.652 916.584C132.616 918.879 136.819 918.889 138.974 918.691C136.805 920.147 134.408 921.416 131.997 922.474L131.996 922.474C127.192 923.193 123.337 920.789 121.925 919.742Z" fill="white"/>
<path d="M81.8052 565.992C88.0728 564.037 92.1695 561.86 95.4355 559.141C98.2122 556.832 100.097 554.607 101.085 552.47C101.435 551.712 102.109 550.184 101.919 548.661C101.919 548.661 101.777 547.533 100.963 546.637C99.59 545.125 95.3906 544.591 89.6425 545.458C87.072 545.743 84.4171 546.464 82.4028 547.115C80.3905 547.763 79.0208 548.341 79.0208 548.341C79.0208 548.341 67.5786 553.166 65.8447 557.181C65.837 557.202 65.8284 557.224 65.8284 557.224C65.7487 557.483 65.9145 557.754 66.1883 557.95C66.5778 558.228 66.9903 558.242 67.1866 558.217C69.1601 557.96 70.9078 555.305 70.9078 555.305C72.08 553.524 75.1835 551.115 83.8749 548.534C80.5246 552.203 78.8165 558.831 78.8165 558.831C73.9011 560.725 67.806 561.409 64.1244 561.689C63.924 561.673 63.7315 561.679 63.5695 561.73C63.512 561.748 63.4594 561.771 63.4116 561.801C63.2744 561.89 63.2242 562.006 63.2029 562.038C63.0606 562.266 63.0706 562.475 63.1906 562.624C63.3176 562.779 63.5464 562.807 63.9151 562.852C63.9151 562.852 64.097 562.875 64.3432 562.865C64.3462 562.865 64.3501 562.865 64.354 562.863C64.479 562.852 64.5972 562.841 64.7066 562.828C65.4488 562.753 65.8668 562.701 65.8668 562.701C68.4195 562.381 71.6677 561.851 75.4316 560.922C78.7278 563.271 82.3239 563.927 84.5296 564.09C77.8548 566.782 71.3856 567.833 69.6186 566.793C69.3558 566.638 67.6764 565.542 66.8968 566.253C66.6926 566.438 66.6121 566.698 66.5812 566.771C66.1221 567.82 66.6169 568.718 67.5576 568.661C73.382 568.309 78.3383 567.074 81.8052 565.992ZM84.8027 548.252L84.8036 548.25C86.1275 547.85 87.9122 547.389 90.0436 547.063C91.5102 546.838 92.8078 546.646 94.4765 546.734C96.1784 546.825 100.472 547.035 101.069 549.306C101.387 550.511 100.585 551.846 99.9339 552.901C98.6036 555.066 96.6233 557.027 94.2986 558.756C88.8913 560.587 84.2209 558.016 83.1008 557.319C84.6249 556.401 86.1839 555.423 87.7718 554.383C89.4726 553.268 91.102 552.147 92.6621 551.028C92.7254 550.984 92.7877 550.941 92.85 550.895C92.85 550.895 93.2431 550.613 93.5368 550.196C93.6173 550.083 93.6918 549.956 93.6918 549.956C93.7508 549.856 93.7972 549.767 93.832 549.694C93.858 549.633 93.9168 549.485 93.8876 549.335C93.8433 549.109 93.6217 548.983 93.4541 549.063C93.4531 549.063 93.4531 549.063 93.4531 549.063C93.2971 549.129 92.4097 549.463 92.0111 549.988C92.0014 550.002 91.9908 550.015 91.9801 550.03C91.76 550.327 91.4252 550.745 90.9744 551.194C90.9744 551.194 90.8238 551.342 90.6643 551.491C87.0544 554.889 83.0393 557.153 79.2436 558.664C81.5202 552.171 83.6921 549.359 84.8027 548.252ZM75.9251 560.742C76.3727 560.576 76.7998 560.409 77.2054 560.245C80.0825 559.083 81.8581 558.05 81.8581 558.05C82.1162 557.9 82.3811 557.745 82.6518 557.584C86.6161 559.879 90.8193 559.889 92.974 559.691C90.8051 561.147 88.4084 562.416 85.9968 563.474L85.9958 563.474C81.1919 564.193 77.3374 561.789 75.9251 560.742Z" fill="white"/>
<path d="M7.93708 935.963C15.4067 933.653 20.2893 931.079 24.1817 927.866C27.4911 925.137 29.7377 922.508 30.9146 919.981C31.3322 919.085 32.1359 917.28 31.9089 915.48C31.9089 915.48 31.7405 914.146 30.77 913.088C29.1338 911.301 24.1291 910.67 17.2786 911.695C14.2151 912.033 11.051 912.885 8.6504 913.654C6.25211 914.42 4.61969 915.103 4.61969 915.103C4.61969 915.103 -9.01712 920.806 -11.0838 925.551C-11.093 925.576 -11.1033 925.602 -11.1033 925.602C-11.1982 925.908 -11.0007 926.229 -10.6744 926.46C-10.2102 926.788 -9.71857 926.805 -9.48464 926.775C-7.1326 926.472 -5.04964 923.334 -5.04964 923.334C-3.65254 921.229 0.046324 918.382 10.4047 915.33C6.41166 919.667 4.3756 927.5 4.3756 927.5C-1.48257 929.739 -8.7466 930.548 -13.1343 930.879C-13.3732 930.859 -13.6026 930.867 -13.7956 930.927C-13.8642 930.948 -13.9269 930.975 -13.9838 931.012C-14.1474 931.116 -14.2072 931.254 -14.2326 931.291C-14.4022 931.561 -14.3903 931.808 -14.2472 931.983C-14.0959 932.168 -13.8232 932.2 -13.3838 932.253C-13.3838 932.253 -13.167 932.281 -12.8736 932.269C-12.8701 932.269 -12.8654 932.269 -12.8608 932.266C-12.7118 932.254 -12.5709 932.24 -12.4406 932.225C-11.5559 932.137 -11.0578 932.074 -11.0578 932.074C-8.01555 931.696 -4.14431 931.07 0.341477 929.972C4.26962 932.748 8.55541 933.522 11.184 933.715C3.22906 936.897 -4.48087 938.14 -6.58669 936.911C-6.89988 936.728 -8.90127 935.432 -9.83048 936.272C-10.0738 936.491 -10.1699 936.799 -10.2066 936.884C-10.7539 938.125 -10.1642 939.186 -9.04305 939.118C-2.1017 938.702 3.80523 937.242 7.93708 935.963ZM11.5104 914.997L11.5116 914.995C13.0893 914.523 15.2163 913.978 17.7566 913.592C19.5044 913.326 21.0509 913.099 23.0396 913.203C25.0679 913.31 30.1846 913.559 30.8965 916.243C31.2751 917.667 30.3187 919.244 29.5432 920.491C27.9577 923.049 25.5975 925.367 22.8269 927.411C16.3825 929.575 10.8165 926.537 9.48168 925.713C11.2981 924.629 13.1561 923.472 15.0486 922.243C17.0756 920.925 19.0177 919.601 20.877 918.278C20.9524 918.226 21.0266 918.175 21.1009 918.121C21.1009 918.121 21.5695 917.788 21.9195 917.295C22.0154 917.161 22.1042 917.011 22.1042 917.011C22.1746 916.892 22.2299 916.787 22.2713 916.701C22.3023 916.63 22.3724 916.455 22.3376 916.277C22.2848 916.01 22.0207 915.861 21.8209 915.955C21.8198 915.955 21.8198 915.955 21.8198 915.955C21.6339 916.033 20.5763 916.428 20.1012 917.048C20.0897 917.066 20.0769 917.081 20.0642 917.099C19.8019 917.449 19.4029 917.943 18.8656 918.475C18.8656 918.475 18.6861 918.649 18.4961 918.826C14.1937 922.842 9.40834 925.517 4.88459 927.303C7.59825 919.63 10.1868 916.306 11.5104 914.997ZM0.92957 929.759C1.46302 929.563 1.97201 929.366 2.4554 929.172C5.8844 927.798 8.00055 926.578 8.00055 926.578C8.30816 926.4 8.6239 926.217 8.94658 926.027C13.671 928.739 18.6803 928.75 21.2482 928.516C18.6632 930.237 15.8068 931.737 12.9326 932.988L12.9315 932.988C7.20621 933.837 2.61267 930.996 0.92957 929.759Z" fill="white"/>
<path d="M6.41169 142.978C13.8814 140.668 18.7639 138.095 22.6563 134.882C25.9657 132.152 28.2123 129.523 29.3892 126.997C29.8068 126.101 30.6105 124.296 30.3835 122.495C30.3835 122.495 30.2151 121.162 29.2446 120.103C27.6084 118.317 22.6037 117.686 15.7532 118.711C12.6898 119.048 9.52561 119.901 7.12501 120.669C4.72672 121.436 3.0943 122.119 3.0943 122.119C3.0943 122.119 -10.5425 127.822 -12.6092 132.567C-12.6184 132.591 -12.6287 132.618 -12.6287 132.618C-12.7236 132.923 -12.5261 133.245 -12.1998 133.475C-11.7355 133.804 -11.244 133.821 -11.01 133.791C-8.65799 133.487 -6.57503 130.35 -6.57503 130.35C-5.17793 128.244 -1.47907 125.398 8.87936 122.346C4.88627 126.682 2.85021 134.516 2.85021 134.516C-3.00796 136.755 -10.272 137.563 -14.6597 137.895C-14.8986 137.875 -15.128 137.882 -15.321 137.943C-15.3896 137.964 -15.4523 137.991 -15.5092 138.027C-15.6728 138.132 -15.7325 138.27 -15.7579 138.307C-15.9276 138.577 -15.9157 138.823 -15.7726 138.999C-15.6213 139.183 -15.3486 139.215 -14.9092 139.269C-14.9092 139.269 -14.6924 139.296 -14.399 139.284C-14.3955 139.284 -14.3908 139.284 -14.3862 139.282C-14.2372 139.269 -14.0963 139.256 -13.966 139.241C-13.0813 139.152 -12.5832 139.09 -12.5832 139.09C-9.54094 138.712 -5.6697 138.086 -1.18391 136.987C2.74423 139.764 7.03002 140.538 9.65863 140.731C1.70367 143.913 -6.00626 145.156 -8.11208 143.927C-8.42527 143.743 -10.4267 142.447 -11.3559 143.288C-11.5992 143.507 -11.6952 143.815 -11.732 143.9C-12.2792 145.141 -11.6896 146.202 -10.5684 146.133C-3.62709 145.718 2.27984 144.257 6.41169 142.978ZM9.98503 122.013L9.98618 122.01C11.5639 121.538 13.6909 120.993 16.2312 120.608C17.979 120.342 19.5255 120.115 21.5142 120.219C23.5425 120.326 28.6592 120.574 29.3711 123.258C29.7497 124.682 28.7933 126.259 28.0178 127.506C26.4324 130.065 24.0721 132.383 21.3015 134.427C14.8571 136.59 9.29109 133.552 7.95629 132.728C9.77274 131.644 11.6307 130.488 13.5232 129.259C15.5503 127.941 17.4923 126.617 19.3516 125.294C19.427 125.242 19.5012 125.19 19.5755 125.136C19.5755 125.136 20.0441 124.803 20.3941 124.311C20.49 124.176 20.5788 124.027 20.5788 124.027C20.6492 123.908 20.7045 123.803 20.7459 123.716C20.777 123.645 20.847 123.47 20.8122 123.293C20.7594 123.025 20.4953 122.877 20.2955 122.971C20.2944 122.971 20.2944 122.971 20.2944 122.971C20.1085 123.049 19.0509 123.444 18.5758 124.064C18.5643 124.081 18.5515 124.097 18.5388 124.114C18.2765 124.465 17.8775 124.959 17.3402 125.49C17.3402 125.49 17.1607 125.665 16.9707 125.841C12.6683 129.857 7.88295 132.532 3.3592 134.318C6.07286 126.645 8.66137 123.322 9.98503 122.013ZM-0.595821 136.775C-0.0623692 136.579 0.44662 136.381 0.930006 136.188C4.35901 134.814 6.47516 133.593 6.47516 133.593C6.78277 133.416 7.0985 133.232 7.42118 133.042C12.1456 135.754 17.1549 135.766 19.7228 135.531C17.1379 137.253 14.2814 138.752 11.4073 140.003L11.4061 140.003C5.68082 140.853 1.08728 138.012 -0.595821 136.775Z" fill="white"/>
</svg>
