<svg width="1274" height="703" viewBox="0 0 1274 703" fill="none" xmlns="http://www.w3.org/2000/svg">
<path d="M1170.16 261.614C1165.17 271.881 1163.04 279.654 1162.58 287.011C1162.19 293.264 1162.75 298.284 1164.27 302.062C1164.81 303.402 1165.94 306.062 1168.08 307.619C1168.08 307.619 1169.67 308.772 1171.77 308.795C1175.31 308.837 1180.98 304.135 1186.72 295.813C1189.42 292.212 1191.67 287.989 1193.24 284.663C1194.82 281.342 1195.72 278.921 1195.72 278.921C1195.72 278.921 1203.24 258.694 1200.24 251.751C1200.23 251.717 1200.21 251.679 1200.21 251.679C1199.98 251.273 1199.44 251.163 1198.87 251.28C1198.05 251.446 1197.54 251.953 1197.34 252.233C1195.32 255.041 1196.59 260.395 1196.59 260.395C1197.44 263.987 1196.78 270.772 1189.7 284.857C1189.06 276.271 1182.74 266.275 1182.74 266.275C1186.19 257.796 1192.58 249.249 1196.61 244.244C1196.87 244.009 1197.09 243.757 1197.21 243.491C1197.26 243.397 1197.29 243.303 1197.31 243.206C1197.36 242.927 1197.28 242.726 1197.26 242.662C1197.14 242.212 1196.87 241.978 1196.54 241.955C1196.19 241.932 1195.88 242.19 1195.39 242.605C1195.39 242.605 1195.14 242.808 1194.86 243.133C1194.86 243.137 1194.86 243.142 1194.85 243.149C1194.72 243.32 1194.59 243.484 1194.48 243.638C1193.69 244.669 1193.26 245.262 1193.26 245.262C1190.63 248.881 1187.43 253.631 1184.13 259.507C1177.24 260.919 1172.14 264.711 1169.31 267.319C1173.86 255.665 1180.23 246.209 1183.64 245.193C1184.15 245.042 1187.53 244.205 1187.56 242.375C1187.57 241.897 1187.33 241.487 1187.28 241.363C1186.5 239.54 1184.78 239.109 1183.73 240.371C1177.25 248.182 1172.91 255.934 1170.16 261.614ZM1188.95 286.368L1188.96 286.372C1187.88 288.524 1186.34 291.335 1184.22 294.427C1182.76 296.555 1181.46 298.429 1179.36 300.444C1177.22 302.498 1171.85 307.701 1168.28 305.778C1166.38 304.759 1165.66 302.164 1165.1 300.092C1163.95 295.846 1163.83 291.016 1164.42 286.022C1168.54 276.995 1177.34 274.099 1179.55 273.501C1178.89 276.519 1178.27 279.654 1177.69 282.898C1177.08 286.375 1176.55 289.767 1176.11 293.07C1176.09 293.201 1176.07 293.332 1176.05 293.465C1176.05 293.465 1175.94 294.297 1176.12 295.162C1176.16 295.399 1176.23 295.643 1176.23 295.643C1176.29 295.837 1176.35 296 1176.4 296.131C1176.44 296.235 1176.56 296.484 1176.78 296.625C1177.12 296.836 1177.54 296.703 1177.64 296.396C1177.64 296.394 1177.64 296.394 1177.64 296.394C1177.75 296.119 1178.38 294.598 1178.19 293.472C1178.19 293.442 1178.18 293.413 1178.18 293.382C1178.06 292.752 1177.94 291.833 1177.9 290.73C1177.9 290.73 1177.9 290.365 1177.9 289.986C1177.91 281.39 1179.83 273.619 1182.44 267.014C1187.92 277.572 1188.88 283.65 1188.95 286.368ZM1183.77 260.347C1183.44 261.111 1183.15 261.85 1182.87 262.559C1180.91 267.584 1180.1 271.059 1180.1 271.059C1179.99 271.564 1179.87 272.083 1179.75 272.617C1172.14 274.941 1167.13 280.266 1164.82 283.236C1165.56 278.763 1166.81 274.221 1168.34 269.909L1168.35 269.908C1173.15 262.959 1180.77 260.904 1183.77 260.347Z" fill="white"/>
<path d="M1156.21 111.892C1151.22 122.158 1149.09 129.931 1148.63 137.288C1148.24 143.541 1148.81 148.561 1150.33 152.339C1150.86 153.679 1151.99 156.339 1154.14 157.896C1154.14 157.896 1155.73 159.049 1157.82 159.073C1161.36 159.115 1167.03 154.413 1172.77 146.09C1175.47 142.489 1177.72 138.266 1179.29 134.941C1180.87 131.62 1181.77 129.198 1181.77 129.198C1181.77 129.198 1189.29 108.972 1186.29 102.029C1186.28 101.995 1186.26 101.957 1186.26 101.957C1186.03 101.551 1185.49 101.44 1184.92 101.557C1184.1 101.723 1183.59 102.23 1183.39 102.51C1181.37 105.319 1182.64 110.673 1182.64 110.673C1183.49 114.265 1182.84 121.05 1175.75 135.135C1175.11 126.548 1168.79 116.552 1168.79 116.552C1172.25 108.074 1178.63 99.5268 1182.66 94.5212C1182.92 94.2862 1183.14 94.0347 1183.27 93.7687C1183.31 93.6743 1183.35 93.5803 1183.36 93.4834C1183.42 93.2047 1183.33 93.0036 1183.31 92.9392C1183.2 92.489 1182.92 92.2553 1182.59 92.232C1182.24 92.2092 1181.94 92.4677 1181.44 92.8825C1181.44 92.8825 1181.2 93.0857 1180.92 93.4105C1180.91 93.4142 1180.91 93.4192 1180.9 93.4265C1180.77 93.5978 1180.64 93.7614 1180.53 93.915C1179.74 94.9463 1179.31 95.5391 1179.31 95.5391C1176.68 99.1582 1173.48 103.908 1170.18 109.785C1163.3 111.196 1158.19 114.989 1155.36 117.596C1159.91 105.942 1166.28 96.4862 1169.69 95.4705C1170.2 95.3198 1173.58 94.4823 1173.61 92.6525C1173.62 92.1745 1173.38 91.7648 1173.33 91.6406C1172.55 89.8178 1170.83 89.386 1169.79 90.6486C1163.3 98.4594 1158.97 106.212 1156.21 111.892ZM1175.01 136.646L1175.01 136.649C1173.94 138.802 1172.4 141.612 1170.27 144.704C1168.81 146.832 1167.51 148.706 1165.41 150.721C1163.28 152.775 1157.91 157.978 1154.33 156.055C1152.43 155.036 1151.71 152.441 1151.15 150.369C1150 146.124 1149.89 141.293 1150.47 136.3C1154.59 127.272 1163.39 124.377 1165.6 123.778C1164.94 126.796 1164.32 129.931 1163.75 133.175C1163.13 136.652 1162.6 140.044 1162.16 143.347C1162.14 143.479 1162.12 143.609 1162.1 143.742C1162.1 143.742 1161.99 144.574 1162.17 145.44C1162.22 145.676 1162.29 145.92 1162.29 145.92C1162.34 146.114 1162.4 146.278 1162.45 146.408C1162.5 146.512 1162.61 146.762 1162.84 146.902C1163.17 147.113 1163.6 146.98 1163.69 146.673C1163.7 146.672 1163.7 146.672 1163.7 146.672C1163.8 146.396 1164.43 144.875 1164.25 143.749C1164.24 143.719 1164.23 143.69 1164.23 143.659C1164.12 143.03 1163.99 142.111 1163.96 141.007C1163.96 141.007 1163.95 140.642 1163.95 140.263C1163.96 131.667 1165.88 123.896 1168.49 117.292C1173.97 127.849 1174.93 133.927 1175.01 136.646ZM1169.82 110.624C1169.49 111.388 1169.2 112.128 1168.92 112.836C1166.96 117.862 1166.16 121.336 1166.16 121.336C1166.04 121.841 1165.92 122.361 1165.8 122.895C1158.19 125.218 1153.18 130.543 1150.87 133.514C1151.61 129.04 1152.86 124.498 1154.4 120.186L1154.4 120.185C1159.2 113.237 1166.82 111.181 1169.82 110.624Z" fill="white"/>
<path d="M1284.68 148.902C1279.69 159.169 1277.57 166.942 1277.11 174.299C1276.72 180.552 1277.28 185.572 1278.8 189.35C1279.34 190.69 1280.46 193.35 1282.61 194.907C1282.61 194.907 1284.2 196.06 1286.3 196.084C1289.84 196.125 1295.51 191.423 1301.25 183.101C1303.95 179.5 1306.19 175.277 1307.77 171.951C1309.35 168.63 1310.25 166.209 1310.25 166.209C1310.25 166.209 1317.77 145.982 1314.77 139.04C1314.75 139.005 1314.74 138.968 1314.74 138.968C1314.51 138.561 1313.97 138.451 1313.39 138.568C1312.58 138.734 1312.07 139.241 1311.87 139.521C1309.85 142.329 1311.11 147.683 1311.11 147.683C1311.97 151.275 1311.31 158.061 1304.23 172.145C1303.59 163.559 1297.27 153.563 1297.27 153.563C1300.72 145.085 1307.11 136.538 1311.13 131.532C1311.39 131.297 1311.61 131.045 1311.74 130.779C1311.79 130.685 1311.82 130.591 1311.84 130.494C1311.89 130.215 1311.81 130.014 1311.79 129.95C1311.67 129.5 1311.4 129.266 1311.07 129.243C1310.72 129.22 1310.41 129.478 1309.92 129.893C1309.92 129.893 1309.67 130.096 1309.39 130.421C1309.39 130.425 1309.38 130.43 1309.38 130.437C1309.25 130.608 1309.12 130.772 1309.01 130.926C1308.22 131.957 1307.79 132.55 1307.79 132.55C1305.15 136.169 1301.96 140.919 1298.65 146.795C1291.77 148.207 1286.67 151.999 1283.84 154.607C1288.39 142.953 1294.75 133.497 1298.17 132.481C1298.67 132.331 1302.05 131.493 1302.08 129.663C1302.09 129.185 1301.86 128.776 1301.81 128.651C1301.03 126.829 1299.31 126.397 1298.26 127.659C1291.78 135.47 1287.44 143.222 1284.68 148.902ZM1303.48 173.656L1303.48 173.66C1302.41 175.812 1300.87 178.623 1298.75 181.715C1297.29 183.843 1295.99 185.717 1293.89 187.732C1291.75 189.786 1286.38 194.989 1282.81 193.066C1280.91 192.047 1280.18 189.452 1279.63 187.38C1278.48 183.134 1278.36 178.304 1278.95 173.31C1283.07 164.283 1291.87 161.388 1294.08 160.789C1293.42 163.807 1292.8 166.942 1292.22 170.186C1291.61 173.663 1291.08 177.055 1290.64 180.358C1290.62 180.49 1290.6 180.62 1290.58 180.753C1290.58 180.753 1290.47 181.585 1290.64 182.451C1290.69 182.687 1290.76 182.931 1290.76 182.931C1290.82 183.125 1290.88 183.289 1290.93 183.419C1290.97 183.523 1291.09 183.772 1291.31 183.913C1291.65 184.124 1292.07 183.991 1292.17 183.684C1292.17 183.683 1292.17 183.683 1292.17 183.683C1292.27 183.407 1292.91 181.886 1292.72 180.76C1292.71 180.73 1292.71 180.701 1292.7 180.67C1292.59 180.04 1292.46 179.121 1292.43 178.018C1292.43 178.018 1292.43 177.653 1292.43 177.274C1292.44 168.678 1294.36 160.907 1296.97 154.302C1302.44 164.86 1303.41 170.938 1303.48 173.656ZM1298.29 147.635C1297.97 148.399 1297.67 149.138 1297.4 149.847C1295.44 154.873 1294.63 158.347 1294.63 158.347C1294.51 158.852 1294.39 159.371 1294.28 159.905C1286.67 162.229 1281.66 167.554 1279.34 170.524C1280.09 166.051 1281.34 161.509 1282.87 157.197L1282.87 157.196C1287.68 150.247 1295.3 148.192 1298.29 147.635Z" fill="white"/>
<path d="M1201.97 166.803C1196.99 177.069 1194.86 184.842 1194.4 192.199C1194.01 198.452 1194.57 203.473 1196.09 207.25C1196.63 208.59 1197.76 211.25 1199.9 212.807C1199.9 212.807 1201.49 213.96 1203.59 213.984C1207.13 214.026 1212.8 209.324 1218.54 201.001C1221.24 197.4 1223.48 193.177 1225.06 189.852C1226.64 186.531 1227.54 184.109 1227.54 184.109C1227.54 184.109 1235.06 163.883 1232.06 156.94C1232.05 156.906 1232.03 156.868 1232.03 156.868C1231.8 156.462 1231.26 156.351 1230.68 156.468C1229.87 156.635 1229.36 157.141 1229.16 157.421C1227.14 160.23 1228.41 165.584 1228.41 165.584C1229.26 169.176 1228.6 175.961 1221.52 190.046C1220.88 181.459 1214.56 171.464 1214.56 171.464C1218.01 162.985 1224.4 154.438 1228.43 149.432C1228.68 149.197 1228.91 148.946 1229.03 148.68C1229.08 148.585 1229.11 148.491 1229.13 148.395C1229.18 148.116 1229.1 147.915 1229.08 147.85C1228.96 147.4 1228.69 147.166 1228.36 147.143C1228.01 147.12 1227.7 147.379 1227.21 147.794C1227.21 147.794 1226.96 147.997 1226.68 148.322C1226.68 148.325 1226.67 148.33 1226.67 148.338C1226.54 148.509 1226.41 148.673 1226.3 148.826C1225.51 149.857 1225.08 150.45 1225.08 150.45C1222.45 154.069 1219.25 158.819 1215.95 164.696C1209.06 166.107 1203.96 169.9 1201.13 172.507C1205.68 160.853 1212.04 151.397 1215.46 150.382C1215.96 150.231 1219.34 149.393 1219.38 147.564C1219.38 147.086 1219.15 146.676 1219.1 146.552C1218.32 144.729 1216.6 144.297 1215.55 145.56C1209.07 153.371 1204.73 161.123 1201.97 166.803ZM1220.77 191.557L1220.77 191.56C1219.7 193.713 1218.16 196.524 1216.04 199.615C1214.58 201.743 1213.28 203.617 1211.18 205.632C1209.04 207.687 1203.67 212.89 1200.1 210.966C1198.2 209.947 1197.47 207.352 1196.92 205.281C1195.77 201.035 1195.65 196.204 1196.24 191.211C1200.36 182.183 1209.16 179.288 1211.37 178.689C1210.71 181.708 1210.09 184.843 1209.51 188.087C1208.9 191.563 1208.37 194.955 1207.93 198.258C1207.91 198.39 1207.89 198.521 1207.87 198.654C1207.87 198.654 1207.76 199.486 1207.94 200.351C1207.98 200.587 1208.05 200.831 1208.05 200.831C1208.11 201.025 1208.17 201.189 1208.22 201.319C1208.26 201.423 1208.38 201.673 1208.6 201.813C1208.94 202.024 1209.36 201.891 1209.46 201.584C1209.46 201.583 1209.46 201.583 1209.46 201.583C1209.57 201.307 1210.2 199.786 1210.01 198.66C1210.01 198.63 1210 198.602 1210 198.57C1209.88 197.941 1209.75 197.022 1209.72 195.919C1209.72 195.919 1209.72 195.553 1209.72 195.174C1209.73 186.578 1211.65 178.807 1214.26 172.203C1219.74 182.76 1220.7 188.838 1220.77 191.557ZM1215.59 165.535C1215.26 166.299 1214.96 167.039 1214.69 167.747C1212.73 172.773 1211.92 176.247 1211.92 176.247C1211.81 176.752 1211.69 177.272 1211.57 177.806C1203.96 180.129 1198.95 185.455 1196.64 188.425C1197.38 183.951 1198.63 179.409 1200.16 175.098L1200.16 175.096C1204.97 168.148 1212.59 166.092 1215.59 165.535Z" fill="white"/>
<path d="M1233.21 25.8915C1228.22 36.158 1226.09 43.9309 1225.63 51.2883C1225.24 57.5411 1225.81 62.5614 1227.33 66.3394C1227.86 67.6793 1228.99 70.3392 1231.14 71.8963C1231.14 71.8963 1232.73 73.0489 1234.82 73.0728C1238.36 73.1145 1244.03 68.4126 1249.77 60.0901C1252.47 56.489 1254.72 52.2664 1256.29 48.9406C1257.87 45.6197 1258.77 43.1982 1258.77 43.1982C1258.77 43.1982 1266.29 22.9716 1263.29 16.0288C1263.28 15.9946 1263.26 15.9568 1263.26 15.9568C1263.03 15.5506 1262.49 15.4403 1261.92 15.5574C1261.1 15.7234 1260.59 16.2303 1260.39 16.5099C1258.37 19.3187 1259.64 24.6728 1259.64 24.6728C1260.49 28.2647 1259.84 35.0498 1252.75 49.1347C1252.11 40.548 1245.79 30.5524 1245.79 30.5524C1249.25 22.0738 1255.63 13.5268 1259.66 8.52115C1259.92 8.2862 1260.14 8.03467 1260.27 7.76867C1260.31 7.67428 1260.35 7.58035 1260.36 7.48341C1260.42 7.20472 1260.33 7.00356 1260.31 6.93915C1260.2 6.48896 1259.92 6.25533 1259.59 6.23196C1259.24 6.20925 1258.94 6.46767 1258.44 6.88255C1258.44 6.88255 1258.2 7.08571 1257.92 7.41048C1257.91 7.41423 1257.91 7.41922 1257.9 7.42652C1257.77 7.59775 1257.64 7.76141 1257.53 7.91499C1256.74 8.94627 1256.31 9.53911 1256.31 9.53911C1253.68 13.1582 1250.48 17.9081 1247.18 23.7848C1240.3 25.1963 1235.19 28.9887 1232.36 31.5963C1236.91 19.9419 1243.28 10.4862 1246.69 9.47051C1247.2 9.31982 1250.58 8.48228 1250.61 6.65248C1250.62 6.17451 1250.38 5.7648 1250.33 5.64056C1249.55 3.81782 1247.83 3.386 1246.79 4.64859C1240.3 12.4594 1235.97 20.2116 1233.21 25.8915ZM1252.01 50.6456L1252.01 50.6492C1250.94 52.8018 1249.4 55.6125 1247.27 58.7043C1245.81 60.8321 1244.51 62.7061 1242.41 64.7213C1240.28 66.7754 1234.91 71.9785 1231.33 70.0553C1229.43 69.036 1228.71 66.4414 1228.15 64.3695C1227 60.1236 1226.89 55.2931 1227.47 50.2996C1231.59 41.272 1240.39 38.3768 1242.6 37.778C1241.94 40.7964 1241.32 43.9314 1240.75 47.1754C1240.13 50.6519 1239.6 54.0442 1239.16 57.3469C1239.14 57.4788 1239.12 57.6094 1239.1 57.7424C1239.1 57.7424 1238.99 58.5744 1239.17 59.4398C1239.22 59.6762 1239.29 59.9201 1239.29 59.9201C1239.34 60.114 1239.4 60.2778 1239.45 60.4082C1239.5 60.5124 1239.61 60.7617 1239.84 60.9022C1240.17 61.113 1240.6 60.9801 1240.69 60.6731C1240.7 60.6718 1240.7 60.6718 1240.7 60.6718C1240.8 60.396 1241.43 58.875 1241.25 57.7489C1241.24 57.7191 1241.23 57.6904 1241.23 57.6594C1241.12 57.0297 1240.99 56.1107 1240.96 55.0075C1240.96 55.0075 1240.95 54.642 1240.95 54.263C1240.96 45.6669 1242.88 37.8958 1245.49 31.2917C1250.97 41.8492 1251.93 47.9273 1252.01 50.6456ZM1246.82 24.6239C1246.49 25.3882 1246.2 26.1275 1245.92 26.8359C1243.96 31.8618 1243.16 35.3361 1243.16 35.3361C1243.04 35.8411 1242.92 36.3606 1242.8 36.8945C1235.19 39.2182 1230.18 44.5434 1227.87 47.5137C1228.61 43.0399 1229.86 38.4983 1231.4 34.1865L1231.4 34.1852C1236.2 27.2366 1243.82 25.1809 1246.82 24.6239Z" fill="white"/>
<path d="M1292.09 56.9189C1287.1 67.1853 1284.97 74.9583 1284.51 82.3156C1284.12 88.5685 1284.68 93.5888 1286.2 97.3667C1286.74 98.7066 1287.87 101.367 1290.01 102.924C1290.01 102.924 1291.6 104.076 1293.7 104.1C1297.24 104.142 1302.91 99.4399 1308.65 91.1175C1311.35 87.5163 1313.6 83.2937 1315.17 79.968C1316.75 76.647 1317.65 74.2255 1317.65 74.2255C1317.65 74.2255 1325.17 53.9989 1322.17 47.0562C1322.16 47.0219 1322.14 46.9841 1322.14 46.9841C1321.91 46.578 1321.37 46.4676 1320.8 46.5847C1319.98 46.7508 1319.47 47.2576 1319.27 47.5372C1317.25 50.3461 1318.52 55.7001 1318.52 55.7001C1319.37 59.2921 1318.71 66.0772 1311.63 80.162C1310.99 71.5753 1304.67 61.5798 1304.67 61.5798C1308.13 53.1011 1314.51 44.5542 1318.54 39.5485C1318.8 39.3135 1319.02 39.062 1319.15 38.796C1319.19 38.7016 1319.22 38.6077 1319.24 38.5108C1319.29 38.2321 1319.21 38.0309 1319.19 37.9665C1319.07 37.5163 1318.8 37.2827 1318.47 37.2593C1318.12 37.2366 1317.82 37.495 1317.32 37.9099C1317.32 37.9099 1317.07 38.1131 1316.79 38.4378C1316.79 38.4416 1316.79 38.4466 1316.78 38.4539C1316.65 38.6251 1316.52 38.7887 1316.41 38.9423C1315.62 39.9736 1315.19 40.5665 1315.19 40.5665C1312.56 44.1855 1309.36 48.9355 1306.06 54.8121C1299.18 56.2236 1294.07 60.016 1291.24 62.6237C1295.79 50.9692 1302.16 41.5135 1305.57 40.4979C1306.08 40.3472 1309.46 39.5096 1309.49 37.6798C1309.5 37.2019 1309.26 36.7921 1309.21 36.6679C1308.43 34.8452 1306.71 34.4133 1305.67 35.6759C1299.18 43.4867 1294.85 51.2389 1292.09 56.9189ZM1310.88 81.673L1310.89 81.6765C1309.82 83.8291 1308.27 86.6398 1306.15 89.7316C1304.69 91.8595 1303.39 93.7334 1301.29 95.7486C1299.16 97.8027 1293.78 103.006 1290.21 101.083C1288.31 100.063 1287.59 97.4687 1287.03 95.3968C1285.88 91.151 1285.76 86.3205 1286.35 81.327C1290.47 72.2993 1299.27 69.4042 1301.48 68.8053C1300.82 71.8238 1300.2 74.9587 1299.62 78.2027C1299.01 81.6792 1298.48 85.0716 1298.04 88.3742C1298.02 88.5061 1298 88.6368 1297.98 88.7697C1297.98 88.7697 1297.87 89.6018 1298.05 90.4672C1298.09 90.7035 1298.16 90.9474 1298.16 90.9474C1298.22 91.1413 1298.28 91.3052 1298.33 91.4356C1298.37 91.5397 1298.49 91.789 1298.72 91.9296C1299.05 92.1403 1299.47 92.0074 1299.57 91.7004C1299.57 91.6992 1299.57 91.6992 1299.57 91.6992C1299.68 91.4233 1300.31 89.9023 1300.12 88.7763C1300.12 88.7465 1300.11 88.7177 1300.11 88.6867C1300 88.057 1299.87 87.1381 1299.84 86.0348C1299.84 86.0348 1299.83 85.6694 1299.83 85.2904C1299.84 76.6943 1301.76 68.9232 1304.37 62.3191C1309.85 72.8766 1310.81 78.9546 1310.88 81.673ZM1305.7 55.6512C1305.37 56.4156 1305.08 57.1549 1304.8 57.8633C1302.84 62.8891 1302.03 66.3634 1302.03 66.3634C1301.92 66.8684 1301.8 67.3879 1301.68 67.9218C1294.07 70.2456 1289.06 75.5707 1286.75 78.5411C1287.49 74.0672 1288.74 69.5257 1290.27 65.2138L1290.28 65.2126C1295.08 58.264 1302.7 56.2083 1305.7 55.6512Z" fill="white"/>
<path d="M1108.71 194.547C1103.72 204.813 1101.59 212.586 1101.13 219.944C1100.74 226.196 1101.3 231.217 1102.82 234.995C1103.36 236.335 1104.49 238.994 1106.63 240.552C1106.63 240.552 1108.22 241.704 1110.32 241.728C1113.86 241.77 1119.53 237.068 1125.27 228.745C1127.97 225.144 1130.22 220.922 1131.79 217.596C1133.37 214.275 1134.27 211.853 1134.27 211.853C1134.27 211.853 1141.79 191.627 1138.79 184.684C1138.78 184.65 1138.76 184.612 1138.76 184.612C1138.53 184.206 1137.99 184.096 1137.42 184.213C1136.6 184.379 1136.09 184.886 1135.89 185.165C1133.87 187.974 1135.14 193.328 1135.14 193.328C1135.99 196.92 1135.33 203.705 1128.25 217.79C1127.61 209.203 1121.29 199.208 1121.29 199.208C1124.74 190.729 1131.13 182.182 1135.16 177.176C1135.42 176.941 1135.64 176.69 1135.76 176.424C1135.81 176.33 1135.84 176.236 1135.86 176.139C1135.91 175.86 1135.83 175.659 1135.81 175.594C1135.69 175.144 1135.42 174.911 1135.09 174.887C1134.74 174.865 1134.43 175.123 1133.94 175.538C1133.94 175.538 1133.69 175.741 1133.41 176.066C1133.41 176.07 1133.41 176.074 1133.4 176.082C1133.27 176.253 1133.14 176.417 1133.03 176.57C1132.24 177.602 1131.81 178.194 1131.81 178.194C1129.18 181.813 1125.98 186.563 1122.68 192.44C1115.79 193.852 1110.69 197.644 1107.86 200.252C1112.41 188.597 1118.78 179.141 1122.19 178.126C1122.7 177.975 1126.08 177.138 1126.11 175.308C1126.11 174.83 1125.88 174.42 1125.83 174.296C1125.05 172.473 1123.33 172.041 1122.28 173.304C1115.8 181.115 1111.46 188.867 1108.71 194.547ZM1127.5 219.301L1127.51 219.304C1126.43 221.457 1124.89 224.268 1122.77 227.36C1121.31 229.487 1120.01 231.361 1117.91 233.377C1115.77 235.431 1110.4 240.634 1106.83 238.711C1104.93 237.691 1104.21 235.097 1103.65 233.025C1102.5 228.779 1102.38 223.948 1102.97 218.955C1107.09 209.927 1115.89 207.032 1118.1 206.433C1117.44 209.452 1116.82 212.587 1116.24 215.831C1115.63 219.307 1115.1 222.7 1114.66 226.002C1114.64 226.134 1114.62 226.265 1114.6 226.398C1114.6 226.398 1114.49 227.23 1114.67 228.095C1114.71 228.331 1114.78 228.575 1114.78 228.575C1114.84 228.769 1114.9 228.933 1114.95 229.063C1114.99 229.168 1115.11 229.417 1115.33 229.558C1115.67 229.768 1116.09 229.635 1116.19 229.328C1116.19 229.327 1116.19 229.327 1116.19 229.327C1116.3 229.051 1116.93 227.53 1116.74 226.404C1116.74 226.374 1116.73 226.346 1116.73 226.315C1116.61 225.685 1116.49 224.766 1116.45 223.663C1116.45 223.663 1116.45 223.297 1116.45 222.918C1116.46 214.322 1118.38 206.551 1120.99 199.947C1126.47 210.504 1127.43 216.583 1127.5 219.301ZM1122.32 193.279C1121.99 194.044 1121.7 194.783 1121.42 195.491C1119.46 200.517 1118.65 203.991 1118.65 203.991C1118.54 204.496 1118.42 205.016 1118.3 205.55C1110.69 207.873 1105.68 213.199 1103.37 216.169C1104.11 211.695 1105.36 207.154 1106.89 202.842L1106.9 202.841C1111.7 195.892 1119.32 193.836 1122.32 193.279Z" fill="white"/>
<path d="M1108.21 25.8915C1103.22 36.158 1101.09 43.9309 1100.63 51.2883C1100.24 57.5411 1100.81 62.5614 1102.33 66.3394C1102.86 67.6793 1103.99 70.3392 1106.14 71.8963C1106.14 71.8963 1107.73 73.0489 1109.82 73.0728C1113.36 73.1145 1119.03 68.4126 1124.77 60.0901C1127.47 56.489 1129.72 52.2664 1131.29 48.9406C1132.87 45.6197 1133.77 43.1982 1133.77 43.1982C1133.77 43.1982 1141.29 22.9716 1138.29 16.0288C1138.28 15.9946 1138.26 15.9568 1138.26 15.9568C1138.03 15.5506 1137.49 15.4403 1136.92 15.5574C1136.1 15.7234 1135.59 16.2303 1135.39 16.5099C1133.37 19.3187 1134.64 24.6728 1134.64 24.6728C1135.49 28.2647 1134.84 35.0498 1127.75 49.1347C1127.11 40.548 1120.79 30.5524 1120.79 30.5524C1124.25 22.0738 1130.63 13.5268 1134.66 8.52115C1134.92 8.2862 1135.14 8.03467 1135.27 7.76867C1135.31 7.67428 1135.35 7.58035 1135.36 7.48341C1135.42 7.20472 1135.33 7.00356 1135.31 6.93915C1135.2 6.48896 1134.92 6.25533 1134.59 6.23196C1134.24 6.20925 1133.94 6.46767 1133.44 6.88255C1133.44 6.88255 1133.2 7.08571 1132.92 7.41048C1132.91 7.41423 1132.91 7.41922 1132.9 7.42652C1132.77 7.59775 1132.64 7.76141 1132.53 7.91499C1131.74 8.94627 1131.31 9.53911 1131.31 9.53911C1128.68 13.1582 1125.48 17.9081 1122.18 23.7848C1115.3 25.1963 1110.19 28.9887 1107.36 31.5963C1111.91 19.9419 1118.28 10.4862 1121.69 9.47051C1122.2 9.31982 1125.58 8.48228 1125.61 6.65248C1125.62 6.17451 1125.38 5.7648 1125.33 5.64056C1124.55 3.81782 1122.83 3.386 1121.79 4.64859C1115.3 12.4594 1110.97 20.2116 1108.21 25.8915ZM1127.01 50.6456L1127.01 50.6492C1125.94 52.8018 1124.4 55.6125 1122.27 58.7043C1120.81 60.8321 1119.51 62.7061 1117.41 64.7213C1115.28 66.7754 1109.91 71.9785 1106.33 70.0553C1104.43 69.036 1103.71 66.4414 1103.15 64.3695C1102 60.1236 1101.89 55.2931 1102.47 50.2996C1106.59 41.272 1115.39 38.3768 1117.6 37.778C1116.94 40.7964 1116.32 43.9314 1115.75 47.1754C1115.13 50.6519 1114.6 54.0442 1114.16 57.3469C1114.14 57.4788 1114.12 57.6094 1114.1 57.7424C1114.1 57.7424 1113.99 58.5744 1114.17 59.4398C1114.22 59.6762 1114.29 59.9201 1114.29 59.9201C1114.34 60.114 1114.4 60.2778 1114.45 60.4082C1114.5 60.5124 1114.61 60.7617 1114.84 60.9022C1115.17 61.113 1115.6 60.9801 1115.69 60.6731C1115.7 60.6718 1115.7 60.6718 1115.7 60.6718C1115.8 60.396 1116.43 58.875 1116.25 57.7489C1116.24 57.7191 1116.23 57.6904 1116.23 57.6594C1116.12 57.0297 1115.99 56.1107 1115.96 55.0075C1115.96 55.0075 1115.95 54.642 1115.95 54.263C1115.96 45.6669 1117.88 37.8958 1120.49 31.2917C1125.97 41.8492 1126.93 47.9273 1127.01 50.6456ZM1121.82 24.6239C1121.49 25.3882 1121.2 26.1275 1120.92 26.8359C1118.96 31.8618 1118.16 35.3361 1118.16 35.3361C1118.04 35.8411 1117.92 36.3606 1117.8 36.8945C1110.19 39.2182 1105.18 44.5434 1102.87 47.5137C1103.61 43.0399 1104.86 38.4983 1106.4 34.1865L1106.4 34.1852C1111.2 27.2366 1118.82 25.1809 1121.82 24.6239Z" fill="white"/>
<path d="M1086.3 112.001C1081.67 121.551 1079.71 128.786 1079.3 135.638C1078.95 141.461 1079.49 146.139 1080.92 149.662C1081.42 150.911 1082.48 153.392 1084.48 154.848C1084.48 154.848 1085.97 155.925 1087.92 155.953C1091.22 156.001 1096.49 151.635 1101.82 143.898C1104.32 140.55 1106.41 136.622 1107.87 133.529C1109.33 130.439 1110.16 128.186 1110.16 128.186C1110.16 128.186 1117.12 109.364 1114.31 102.89C1114.29 102.858 1114.27 102.823 1114.27 102.823C1114.06 102.444 1113.56 102.34 1113.02 102.447C1112.26 102.6 1111.79 103.071 1111.61 103.331C1109.73 105.942 1110.92 110.932 1110.92 110.932C1111.73 114.28 1111.13 120.599 1104.57 133.7C1103.95 125.7 1098.03 116.374 1098.03 116.374C1101.23 108.485 1107.16 100.54 1110.9 95.8873C1111.14 95.6691 1111.35 95.4354 1111.47 95.188C1111.51 95.1002 1111.54 95.0127 1111.55 94.9225C1111.6 94.663 1111.52 94.4754 1111.51 94.4154C1111.4 93.9958 1111.14 93.7774 1110.83 93.7548C1110.51 93.7328 1110.22 93.9728 1109.76 94.3579C1109.76 94.3579 1109.53 94.5466 1109.27 94.8484C1109.27 94.8519 1109.27 94.8565 1109.26 94.8633C1109.14 95.0224 1109.02 95.1746 1108.91 95.3173C1108.18 96.2759 1107.78 96.8271 1107.78 96.8271C1105.34 100.192 1102.37 104.608 1099.31 110.073C1092.9 111.371 1088.15 114.89 1085.52 117.312C1089.73 106.468 1095.64 97.6763 1098.82 96.7388C1099.29 96.5998 1102.44 95.8282 1102.46 94.1238C1102.47 93.6786 1102.25 93.2964 1102.2 93.1805C1101.47 91.4807 1099.87 91.0741 1098.9 92.2476C1092.87 99.5067 1088.85 106.717 1086.3 112.001ZM1103.88 135.106L1103.88 135.109C1102.88 137.112 1101.46 139.726 1099.48 142.6C1098.13 144.579 1096.92 146.321 1094.97 148.193C1092.99 150.101 1087.99 154.934 1084.66 153.133C1082.89 152.179 1082.2 149.76 1081.68 147.829C1080.6 143.871 1080.48 139.371 1081.01 134.722C1084.83 126.323 1093.02 123.648 1095.08 123.096C1094.47 125.906 1093.9 128.825 1093.37 131.845C1092.81 135.082 1092.33 138.24 1091.92 141.315C1091.9 141.438 1091.89 141.56 1091.87 141.684C1091.87 141.684 1091.77 142.459 1091.93 143.265C1091.98 143.485 1092.05 143.713 1092.05 143.713C1092.1 143.893 1092.15 144.046 1092.2 144.168C1092.24 144.265 1092.35 144.497 1092.56 144.629C1092.88 144.826 1093.27 144.703 1093.36 144.418C1093.36 144.417 1093.36 144.417 1093.36 144.417C1093.46 144.16 1094.04 142.745 1093.87 141.695C1093.86 141.668 1093.86 141.641 1093.85 141.612C1093.74 141.025 1093.62 140.169 1093.59 139.141C1093.59 139.141 1093.58 138.801 1093.58 138.448C1093.57 130.44 1095.34 123.207 1097.76 117.062C1102.89 126.91 1103.8 132.574 1103.88 135.106ZM1098.98 110.854C1098.68 111.565 1098.4 112.253 1098.15 112.912C1096.34 117.589 1095.59 120.823 1095.59 120.823C1095.48 121.293 1095.37 121.777 1095.26 122.274C1088.18 124.419 1083.52 129.367 1081.37 132.128C1082.06 127.962 1083.21 123.735 1084.63 119.722L1084.63 119.721C1089.09 113.261 1096.18 111.365 1098.98 110.854Z" fill="white"/>
<path d="M1239.65 110.87C1236.71 116.936 1235.46 121.531 1235.19 125.88C1234.96 129.577 1235.3 132.546 1236.2 134.781C1236.52 135.574 1237.19 137.147 1238.46 138.069C1238.46 138.069 1239.4 138.752 1240.64 138.768C1242.74 138.795 1246.08 136.02 1249.47 131.103C1251.07 128.976 1252.39 126.481 1253.32 124.516C1254.25 122.554 1254.78 121.123 1254.78 121.123C1254.78 121.123 1259.22 109.169 1257.44 105.062C1257.43 105.042 1257.41 105.019 1257.41 105.019C1257.28 104.779 1256.96 104.713 1256.62 104.782C1256.14 104.879 1255.84 105.179 1255.72 105.344C1254.53 107.003 1255.28 110.17 1255.28 110.17C1255.79 112.294 1255.4 116.306 1251.23 124.628C1250.84 119.55 1247.09 113.636 1247.09 113.636C1249.13 108.625 1252.9 103.576 1255.28 100.62C1255.43 100.481 1255.56 100.333 1255.64 100.175C1255.67 100.12 1255.69 100.064 1255.7 100.007C1255.73 99.8421 1255.67 99.7231 1255.67 99.685C1255.6 99.4187 1255.43 99.2804 1255.24 99.2663C1255.03 99.2526 1254.85 99.4052 1254.56 99.6501C1254.56 99.6501 1254.41 99.77 1254.25 99.9618C1254.25 99.964 1254.24 99.967 1254.24 99.9713C1254.16 100.072 1254.09 100.169 1254.02 100.26C1253.55 100.869 1253.3 101.219 1253.3 101.219C1251.75 103.357 1249.86 106.163 1247.91 109.635C1243.84 110.464 1240.83 112.703 1239.16 114.242C1241.83 107.355 1245.59 101.769 1247.61 101.171C1247.91 101.082 1249.91 100.59 1249.93 99.508C1249.93 99.2254 1249.79 98.983 1249.76 98.9095C1249.3 97.8311 1248.28 97.5745 1247.66 98.3202C1243.84 102.933 1241.28 107.514 1239.65 110.87ZM1250.79 125.521L1250.79 125.523C1250.16 126.795 1249.25 128.456 1247.99 130.282C1247.13 131.539 1246.36 132.646 1245.13 133.836C1243.86 135.049 1240.69 138.121 1238.58 136.981C1237.45 136.377 1237.02 134.842 1236.69 133.617C1236.01 131.105 1235.93 128.249 1236.28 125.297C1238.71 119.963 1243.91 118.258 1245.21 117.905C1244.83 119.69 1244.46 121.543 1244.12 123.46C1243.76 125.515 1243.45 127.521 1243.19 129.473C1243.18 129.551 1243.17 129.628 1243.16 129.707C1243.16 129.707 1243.1 130.199 1243.2 130.711C1243.23 130.85 1243.27 130.995 1243.27 130.995C1243.31 131.109 1243.34 131.206 1243.37 131.283C1243.4 131.345 1243.46 131.493 1243.6 131.576C1243.8 131.701 1244.05 131.622 1244.11 131.441C1244.11 131.44 1244.11 131.44 1244.11 131.44C1244.17 131.277 1244.54 130.378 1244.43 129.712C1244.42 129.695 1244.42 129.678 1244.42 129.659C1244.35 129.287 1244.27 128.744 1244.26 128.091C1244.26 128.091 1244.25 127.875 1244.25 127.651C1244.25 122.569 1245.38 117.975 1246.92 114.072C1250.17 120.319 1250.74 123.913 1250.79 125.521ZM1247.7 110.131C1247.51 110.583 1247.33 111.02 1247.17 111.438C1246.02 114.408 1245.54 116.462 1245.54 116.462C1245.47 116.76 1245.4 117.067 1245.33 117.383C1240.83 118.751 1237.87 121.896 1236.51 123.65C1236.95 121.006 1237.68 118.321 1238.59 115.773L1238.59 115.772C1241.42 111.668 1245.92 110.458 1247.7 110.131Z" fill="white"/>
<path d="M924.207 26.8915C919.218 37.158 917.09 44.9309 916.634 52.2883C916.243 58.5411 916.805 63.5614 918.326 67.3394C918.864 68.6793 919.988 71.3392 922.135 72.8963C922.135 72.8963 923.726 74.0489 925.823 74.0728C929.362 74.1145 935.029 69.4126 940.772 61.0901C943.469 57.489 945.717 53.2664 947.293 49.9406C948.869 46.6197 949.769 44.1982 949.769 44.1982C949.769 44.1982 957.294 23.9716 954.295 17.0288C954.278 16.9946 954.26 16.9568 954.26 16.9568C954.029 16.5506 953.489 16.4403 952.917 16.5574C952.103 16.7234 951.595 17.2303 951.394 17.5099C949.37 20.3187 950.638 25.6728 950.638 25.6728C951.49 29.2647 950.835 36.0498 943.754 50.1347C943.113 41.548 936.789 31.5524 936.789 31.5524C940.246 23.0738 946.633 14.5268 950.658 9.52115C950.917 9.2862 951.138 9.03467 951.266 8.76867C951.312 8.67428 951.346 8.58035 951.364 8.48341C951.416 8.20472 951.328 8.00356 951.314 7.93915C951.196 7.48896 950.921 7.25533 950.59 7.23196C950.243 7.20925 949.936 7.46767 949.441 7.88255C949.441 7.88255 949.195 8.08571 948.915 8.41048C948.912 8.41423 948.907 8.41922 948.905 8.42652C948.77 8.59775 948.644 8.76141 948.529 8.91499C947.741 9.94627 947.31 10.5391 947.31 10.5391C944.678 14.1582 941.483 18.9081 938.178 24.7848C931.297 26.1963 926.194 29.9887 923.365 32.5963C927.909 20.9419 934.277 11.4862 937.689 10.4705C938.197 10.3198 941.577 9.48228 941.608 7.65248C941.617 7.17451 941.385 6.7648 941.33 6.64056C940.553 4.81782 938.833 4.386 937.787 5.64859C931.303 13.4594 926.966 21.2116 924.207 26.8915ZM943.006 51.6456L943.007 51.6492C941.936 53.8018 940.395 56.6125 938.272 59.7043C936.811 61.8321 935.51 63.7061 933.414 65.7213C931.276 67.7754 925.905 72.9785 922.332 71.0553C920.435 70.036 919.707 67.4414 919.151 65.3695C918.003 61.1236 917.886 56.2931 918.471 51.2996C922.594 42.272 931.389 39.3768 933.6 38.778C932.944 41.7964 932.323 44.9314 931.745 48.1754C931.129 51.6519 930.603 55.0442 930.159 58.3469C930.139 58.4788 930.12 58.6094 930.103 58.7424C930.103 58.7424 929.991 59.5744 930.167 60.4398C930.215 60.6762 930.286 60.9201 930.286 60.9201C930.343 61.114 930.399 61.2778 930.45 61.4082C930.495 61.5124 930.612 61.7617 930.836 61.9022C931.174 62.113 931.596 61.9801 931.695 61.6731C931.696 61.6718 931.696 61.6718 931.696 61.6718C931.798 61.396 932.433 59.875 932.245 58.7489C932.238 58.7191 932.234 58.6904 932.228 58.6594C932.116 58.0297 931.987 57.1107 931.957 56.0075C931.957 56.0075 931.95 55.642 931.951 55.263C931.96 46.6669 933.882 38.8958 936.491 32.2917C941.968 42.8492 942.93 48.9273 943.006 51.6456ZM937.818 25.6239C937.495 26.3882 937.197 27.1275 936.921 27.8359C934.965 32.8618 934.155 36.3361 934.155 36.3361C934.038 36.8411 933.918 37.3606 933.799 37.8945C926.192 40.2182 921.18 45.5434 918.868 48.5137C919.611 44.0399 920.862 39.4983 922.396 35.1865L922.397 35.1852C927.204 28.2366 934.818 26.1809 937.818 25.6239Z" fill="white"/>
<path d="M1045.59 192.07C1040.6 202.337 1038.47 210.11 1038.02 217.467C1037.63 223.72 1038.19 228.74 1039.71 232.518C1040.25 233.858 1041.37 236.518 1043.52 238.075C1043.52 238.075 1045.11 239.228 1047.21 239.251C1050.74 239.293 1056.41 234.591 1062.15 226.269C1064.85 222.668 1067.1 218.445 1068.68 215.119C1070.25 211.798 1071.15 209.377 1071.15 209.377C1071.15 209.377 1078.68 189.15 1075.68 182.208C1075.66 182.173 1075.64 182.136 1075.64 182.136C1075.41 181.729 1074.87 181.619 1074.3 181.736C1073.49 181.902 1072.98 182.409 1072.78 182.689C1070.75 185.497 1072.02 190.851 1072.02 190.851C1072.87 194.443 1072.22 201.229 1065.14 215.313C1064.5 206.727 1058.17 196.731 1058.17 196.731C1061.63 188.252 1068.02 179.706 1072.04 174.7C1072.3 174.465 1072.52 174.213 1072.65 173.947C1072.69 173.853 1072.73 173.759 1072.75 173.662C1072.8 173.383 1072.71 173.182 1072.7 173.118C1072.58 172.668 1072.3 172.434 1071.97 172.411C1071.63 172.388 1071.32 172.646 1070.82 173.061C1070.82 173.061 1070.58 173.264 1070.3 173.589C1070.29 173.593 1070.29 173.598 1070.29 173.605C1070.15 173.776 1070.03 173.94 1069.91 174.094C1069.12 175.125 1068.69 175.718 1068.69 175.718C1066.06 179.337 1062.87 184.087 1059.56 189.963C1052.68 191.375 1047.58 195.167 1044.75 197.775C1049.29 186.121 1055.66 176.665 1059.07 175.649C1059.58 175.499 1062.96 174.661 1062.99 172.831C1063 172.353 1062.77 171.944 1062.71 171.819C1061.94 169.997 1060.22 169.565 1059.17 170.827C1052.69 178.638 1048.35 186.39 1045.59 192.07ZM1064.39 216.824L1064.39 216.828C1063.32 218.98 1061.78 221.791 1059.65 224.883C1058.19 227.011 1056.89 228.885 1054.8 230.9C1052.66 232.954 1047.29 238.157 1043.71 236.234C1041.82 235.215 1041.09 232.62 1040.53 230.548C1039.39 226.302 1039.27 221.472 1039.85 216.478C1043.98 207.451 1052.77 204.556 1054.98 203.957C1054.33 206.975 1053.71 210.11 1053.13 213.354C1052.51 216.831 1051.99 220.223 1051.54 223.526C1051.52 223.657 1051.5 223.788 1051.49 223.921C1051.49 223.921 1051.37 224.753 1051.55 225.619C1051.6 225.855 1051.67 226.099 1051.67 226.099C1051.73 226.293 1051.78 226.457 1051.83 226.587C1051.88 226.691 1051.99 226.94 1052.22 227.081C1052.56 227.292 1052.98 227.159 1053.08 226.852C1053.08 226.851 1053.08 226.851 1053.08 226.851C1053.18 226.575 1053.82 225.054 1053.63 223.928C1053.62 223.898 1053.62 223.869 1053.61 223.838C1053.5 223.208 1053.37 222.289 1053.34 221.186C1053.34 221.186 1053.33 220.821 1053.33 220.442C1053.34 211.846 1055.27 204.075 1057.87 197.47C1063.35 208.028 1064.31 214.106 1064.39 216.824ZM1059.2 190.803C1058.88 191.567 1058.58 192.306 1058.3 193.015C1056.35 198.041 1055.54 201.515 1055.54 201.515C1055.42 202.02 1055.3 202.539 1055.18 203.073C1047.57 205.397 1042.56 210.722 1040.25 213.692C1040.99 209.219 1042.24 204.677 1043.78 200.365L1043.78 200.364C1048.59 193.415 1056.2 191.36 1059.2 190.803Z" fill="white"/>
<path d="M1044.21 56.8915C1039.22 67.158 1037.09 74.9309 1036.63 82.2883C1036.24 88.5411 1036.81 93.5614 1038.33 97.3394C1038.86 98.6793 1039.99 101.339 1042.14 102.896C1042.14 102.896 1043.73 104.049 1045.82 104.073C1049.36 104.115 1055.03 99.4126 1060.77 91.0901C1063.47 87.489 1065.72 83.2664 1067.29 79.9406C1068.87 76.6197 1069.77 74.1982 1069.77 74.1982C1069.77 74.1982 1077.29 53.9716 1074.29 47.0288C1074.28 46.9946 1074.26 46.9568 1074.26 46.9568C1074.03 46.5506 1073.49 46.4403 1072.92 46.5574C1072.1 46.7234 1071.59 47.2303 1071.39 47.5099C1069.37 50.3187 1070.64 55.6728 1070.64 55.6728C1071.49 59.2647 1070.84 66.0498 1063.75 80.1347C1063.11 71.548 1056.79 61.5524 1056.79 61.5524C1060.25 53.0738 1066.63 44.5268 1070.66 39.5212C1070.92 39.2862 1071.14 39.0347 1071.27 38.7687C1071.31 38.6743 1071.35 38.5803 1071.36 38.4834C1071.42 38.2047 1071.33 38.0036 1071.31 37.9392C1071.2 37.489 1070.92 37.2553 1070.59 37.232C1070.24 37.2092 1069.94 37.4677 1069.44 37.8825C1069.44 37.8825 1069.2 38.0857 1068.92 38.4105C1068.91 38.4142 1068.91 38.4192 1068.9 38.4265C1068.77 38.5978 1068.64 38.7614 1068.53 38.915C1067.74 39.9463 1067.31 40.5391 1067.31 40.5391C1064.68 44.1582 1061.48 48.9081 1058.18 54.7848C1051.3 56.1963 1046.19 59.9887 1043.36 62.5963C1047.91 50.9419 1054.28 41.4862 1057.69 40.4705C1058.2 40.3198 1061.58 39.4823 1061.61 37.6525C1061.62 37.1745 1061.38 36.7648 1061.33 36.6406C1060.55 34.8178 1058.83 34.386 1057.79 35.6486C1051.3 43.4594 1046.97 51.2116 1044.21 56.8915ZM1063.01 81.6456L1063.01 81.6492C1061.94 83.8018 1060.4 86.6125 1058.27 89.7043C1056.81 91.8321 1055.51 93.7061 1053.41 95.7213C1051.28 97.7754 1045.91 102.978 1042.33 101.055C1040.43 100.036 1039.71 97.4414 1039.15 95.3695C1038 91.1236 1037.89 86.2931 1038.47 81.2996C1042.59 72.272 1051.39 69.3768 1053.6 68.778C1052.94 71.7964 1052.32 74.9314 1051.75 78.1754C1051.13 81.6519 1050.6 85.0442 1050.16 88.3469C1050.14 88.4788 1050.12 88.6094 1050.1 88.7424C1050.1 88.7424 1049.99 89.5744 1050.17 90.4398C1050.22 90.6762 1050.29 90.9201 1050.29 90.9201C1050.34 91.114 1050.4 91.2778 1050.45 91.4082C1050.5 91.5124 1050.61 91.7617 1050.84 91.9022C1051.17 92.113 1051.6 91.9801 1051.69 91.6731C1051.7 91.6718 1051.7 91.6718 1051.7 91.6718C1051.8 91.396 1052.43 89.875 1052.25 88.7489C1052.24 88.7191 1052.23 88.6904 1052.23 88.6594C1052.12 88.0297 1051.99 87.1107 1051.96 86.0075C1051.96 86.0075 1051.95 85.642 1051.95 85.263C1051.96 76.6669 1053.88 68.8958 1056.49 62.2917C1061.97 72.8492 1062.93 78.9273 1063.01 81.6456ZM1057.82 55.6239C1057.49 56.3882 1057.2 57.1275 1056.92 57.8359C1054.96 62.8618 1054.16 66.3361 1054.16 66.3361C1054.04 66.8411 1053.92 67.3606 1053.8 67.8945C1046.19 70.2182 1041.18 75.5434 1038.87 78.5137C1039.61 74.0399 1040.86 69.4983 1042.4 65.1865L1042.4 65.1852C1047.2 58.2366 1054.82 56.1809 1057.82 55.6239Z" fill="white"/>
<path d="M1217.8 332.611C1212.81 342.878 1210.68 350.651 1210.22 358.008C1209.83 364.261 1210.39 369.281 1211.91 373.059C1212.45 374.399 1213.58 377.059 1215.72 378.616C1215.72 378.616 1217.31 379.769 1219.41 379.792C1222.95 379.834 1228.62 375.132 1234.36 366.81C1237.06 363.209 1239.31 358.986 1240.88 355.66C1242.46 352.339 1243.36 349.918 1243.36 349.918C1243.36 349.918 1250.88 329.691 1247.88 322.749C1247.87 322.714 1247.85 322.677 1247.85 322.677C1247.62 322.27 1247.08 322.16 1246.51 322.277C1245.69 322.443 1245.18 322.95 1244.98 323.23C1242.96 326.038 1244.23 331.392 1244.23 331.392C1245.08 334.984 1244.42 341.77 1237.34 355.854C1236.7 347.268 1230.38 337.272 1230.38 337.272C1233.83 328.794 1240.22 320.247 1244.25 315.241C1244.5 315.006 1244.73 314.754 1244.85 314.488C1244.9 314.394 1244.93 314.3 1244.95 314.203C1245 313.924 1244.92 313.723 1244.9 313.659C1244.78 313.209 1244.51 312.975 1244.18 312.952C1243.83 312.929 1243.52 313.187 1243.03 313.602C1243.03 313.602 1242.78 313.805 1242.5 314.13C1242.5 314.134 1242.49 314.139 1242.49 314.146C1242.36 314.317 1242.23 314.481 1242.12 314.635C1241.33 315.666 1240.9 316.259 1240.9 316.259C1238.27 319.878 1235.07 324.628 1231.77 330.504C1224.88 331.916 1219.78 335.708 1216.95 338.316C1221.5 326.662 1227.86 317.206 1231.28 316.19C1231.79 316.04 1235.16 315.202 1235.2 313.372C1235.2 312.894 1234.97 312.485 1234.92 312.36C1234.14 310.538 1232.42 310.106 1231.37 311.368C1224.89 319.179 1220.55 326.931 1217.8 332.611ZM1236.59 357.365L1236.6 357.369C1235.52 359.521 1233.98 362.332 1231.86 365.424C1230.4 367.552 1229.1 369.426 1227 371.441C1224.86 373.495 1219.49 378.698 1215.92 376.775C1214.02 375.756 1213.29 373.161 1212.74 371.089C1211.59 366.843 1211.47 362.013 1212.06 357.019C1216.18 347.992 1224.98 345.097 1227.19 344.498C1226.53 347.516 1225.91 350.651 1225.33 353.895C1224.72 357.372 1224.19 360.764 1223.75 364.067C1223.73 364.198 1223.71 364.329 1223.69 364.462C1223.69 364.462 1223.58 365.294 1223.76 366.16C1223.8 366.396 1223.87 366.64 1223.87 366.64C1223.93 366.834 1223.99 366.998 1224.04 367.128C1224.08 367.232 1224.2 367.481 1224.42 367.622C1224.76 367.833 1225.18 367.7 1225.28 367.393C1225.28 367.392 1225.28 367.392 1225.28 367.392C1225.39 367.116 1226.02 365.595 1225.83 364.469C1225.83 364.439 1225.82 364.41 1225.82 364.379C1225.7 363.749 1225.57 362.83 1225.54 361.727C1225.54 361.727 1225.54 361.362 1225.54 360.983C1225.55 352.387 1227.47 344.616 1230.08 338.011C1235.56 348.569 1236.52 354.647 1236.59 357.365ZM1231.41 331.344C1231.08 332.108 1230.79 332.847 1230.51 333.556C1228.55 338.582 1227.74 342.056 1227.74 342.056C1227.63 342.561 1227.51 343.08 1227.39 343.614C1219.78 345.938 1214.77 351.263 1212.46 354.233C1213.2 349.76 1214.45 345.218 1215.98 340.906L1215.99 340.905C1220.79 333.956 1228.41 331.901 1231.41 331.344Z" fill="white"/>
<path d="M847.207 26.8915C842.218 37.158 840.09 44.9309 839.634 52.2883C839.243 58.5411 839.805 63.5614 841.326 67.3394C841.864 68.6793 842.988 71.3392 845.135 72.8963C845.135 72.8963 846.726 74.0489 848.823 74.0728C852.362 74.1145 858.029 69.4126 863.772 61.0901C866.469 57.489 868.717 53.2664 870.293 49.9406C871.869 46.6197 872.769 44.1982 872.769 44.1982C872.769 44.1982 880.294 23.9716 877.295 17.0288C877.278 16.9946 877.26 16.9568 877.26 16.9568C877.029 16.5506 876.489 16.4403 875.917 16.5574C875.103 16.7234 874.595 17.2303 874.394 17.5099C872.37 20.3187 873.638 25.6728 873.638 25.6728C874.49 29.2647 873.835 36.0498 866.754 50.1347C866.113 41.548 859.789 31.5524 859.789 31.5524C863.246 23.0738 869.633 14.5268 873.658 9.52115C873.917 9.2862 874.138 9.03467 874.266 8.76867C874.312 8.67428 874.346 8.58035 874.364 8.48341C874.416 8.20472 874.328 8.00356 874.314 7.93915C874.196 7.48896 873.921 7.25533 873.59 7.23196C873.243 7.20925 872.936 7.46767 872.441 7.88255C872.441 7.88255 872.195 8.08571 871.915 8.41048C871.912 8.41423 871.907 8.41922 871.905 8.42652C871.77 8.59775 871.644 8.76141 871.529 8.91499C870.741 9.94627 870.31 10.5391 870.31 10.5391C867.678 14.1582 864.483 18.9081 861.178 24.7848C854.297 26.1963 849.194 29.9887 846.365 32.5963C850.909 20.9419 857.277 11.4862 860.689 10.4705C861.197 10.3198 864.577 9.48228 864.608 7.65248C864.617 7.17451 864.385 6.7648 864.33 6.64056C863.553 4.81782 861.833 4.386 860.787 5.64859C854.303 13.4594 849.966 21.2116 847.207 26.8915ZM866.006 51.6456L866.007 51.6492C864.936 53.8018 863.395 56.6125 861.272 59.7043C859.811 61.8321 858.51 63.7061 856.414 65.7213C854.276 67.7754 848.905 72.9785 845.332 71.0553C843.435 70.036 842.707 67.4414 842.151 65.3695C841.003 61.1236 840.886 56.2931 841.471 51.2996C845.594 42.272 854.389 39.3768 856.6 38.778C855.944 41.7964 855.323 44.9314 854.745 48.1754C854.129 51.6519 853.603 55.0442 853.159 58.3469C853.139 58.4788 853.12 58.6094 853.103 58.7424C853.103 58.7424 852.991 59.5744 853.167 60.4398C853.215 60.6762 853.286 60.9201 853.286 60.9201C853.343 61.114 853.399 61.2778 853.45 61.4082C853.495 61.5124 853.612 61.7617 853.836 61.9022C854.174 62.113 854.596 61.9801 854.695 61.6731C854.696 61.6718 854.696 61.6718 854.696 61.6718C854.798 61.396 855.433 59.875 855.245 58.7489C855.238 58.7191 855.234 58.6904 855.228 58.6594C855.116 58.0297 854.987 57.1107 854.957 56.0075C854.957 56.0075 854.95 55.642 854.951 55.263C854.96 46.6669 856.882 38.8958 859.491 32.2917C864.968 42.8492 865.93 48.9273 866.006 51.6456ZM860.818 25.6239C860.495 26.3882 860.197 27.1275 859.921 27.8359C857.965 32.8618 857.155 36.3361 857.155 36.3361C857.038 36.8411 856.918 37.3606 856.799 37.8945C849.192 40.2182 844.18 45.5434 841.868 48.5137C842.611 44.0399 843.862 39.4983 845.396 35.1865L845.397 35.1852C850.204 28.2366 857.818 26.1809 860.818 25.6239Z" fill="white"/>
<path d="M778.207 40.8915C773.218 51.158 771.09 58.9309 770.634 66.2883C770.243 72.5411 770.805 77.5614 772.326 81.3394C772.864 82.6793 773.988 85.3392 776.135 86.8963C776.135 86.8963 777.726 88.0489 779.823 88.0728C783.362 88.1145 789.029 83.4126 794.772 75.0901C797.469 71.489 799.717 67.2664 801.293 63.9406C802.869 60.6197 803.769 58.1982 803.769 58.1982C803.769 58.1982 811.294 37.9716 808.295 31.0288C808.278 30.9946 808.26 30.9568 808.26 30.9568C808.029 30.5506 807.489 30.4403 806.917 30.5574C806.103 30.7234 805.595 31.2303 805.394 31.5099C803.37 34.3187 804.638 39.6728 804.638 39.6728C805.49 43.2647 804.835 50.0498 797.754 64.1347C797.113 55.548 790.789 45.5524 790.789 45.5524C794.246 37.0738 800.633 28.5268 804.658 23.5212C804.917 23.2862 805.138 23.0347 805.266 22.7687C805.312 22.6743 805.346 22.5803 805.364 22.4834C805.416 22.2047 805.328 22.0036 805.314 21.9392C805.196 21.489 804.921 21.2553 804.59 21.232C804.243 21.2092 803.936 21.4677 803.441 21.8825C803.441 21.8825 803.195 22.0857 802.915 22.4105C802.912 22.4142 802.907 22.4192 802.905 22.4265C802.77 22.5978 802.644 22.7614 802.529 22.915C801.741 23.9463 801.31 24.5391 801.31 24.5391C798.678 28.1582 795.483 32.9081 792.178 38.7848C785.297 40.1963 780.194 43.9887 777.365 46.5963C781.909 34.9419 788.277 25.4862 791.689 24.4705C792.197 24.3198 795.577 23.4823 795.608 21.6525C795.617 21.1745 795.385 20.7648 795.33 20.6406C794.553 18.8178 792.833 18.386 791.787 19.6486C785.303 27.4594 780.966 35.2116 778.207 40.8915ZM797.006 65.6456L797.007 65.6492C795.936 67.8018 794.395 70.6125 792.272 73.7043C790.811 75.8321 789.51 77.7061 787.414 79.7213C785.276 81.7754 779.905 86.9785 776.332 85.0553C774.435 84.036 773.707 81.4414 773.151 79.3695C772.003 75.1236 771.886 70.2931 772.471 65.2996C776.594 56.272 785.389 53.3768 787.6 52.778C786.944 55.7964 786.323 58.9314 785.745 62.1754C785.129 65.6519 784.603 69.0442 784.159 72.3469C784.139 72.4788 784.12 72.6094 784.103 72.7424C784.103 72.7424 783.991 73.5744 784.167 74.4398C784.215 74.6762 784.286 74.9201 784.286 74.9201C784.343 75.114 784.399 75.2778 784.45 75.4082C784.495 75.5124 784.612 75.7617 784.836 75.9022C785.174 76.113 785.596 75.9801 785.695 75.6731C785.696 75.6718 785.696 75.6718 785.696 75.6718C785.798 75.396 786.433 73.875 786.245 72.7489C786.238 72.7191 786.234 72.6904 786.228 72.6594C786.116 72.0297 785.987 71.1107 785.957 70.0075C785.957 70.0075 785.95 69.642 785.951 69.263C785.96 60.6669 787.882 52.8958 790.491 46.2917C795.968 56.8492 796.93 62.9273 797.006 65.6456ZM791.818 39.6239C791.495 40.3882 791.197 41.1275 790.921 41.8359C788.965 46.8618 788.155 50.3361 788.155 50.3361C788.038 50.8411 787.918 51.3606 787.799 51.8945C780.192 54.2182 775.18 59.5434 772.868 62.5137C773.611 58.0399 774.862 53.4983 776.396 49.1865L776.397 49.1852C781.204 42.2366 788.818 40.1809 791.818 39.6239Z" fill="white"/>
<path d="M961.733 72.2783C956.743 82.5447 954.616 90.3177 954.159 97.675C953.768 103.928 954.331 108.948 955.851 112.726C956.39 114.066 957.514 116.726 959.661 118.283C959.661 118.283 961.251 119.436 963.349 119.459C966.887 119.501 972.554 114.799 978.297 106.477C980.994 102.876 983.243 98.6531 984.818 95.3273C986.394 92.0064 987.295 89.5849 987.295 89.5849C987.295 89.5849 994.819 69.3583 991.82 62.4155C991.803 62.3813 991.785 62.3435 991.785 62.3435C991.554 61.9374 991.014 61.827 990.443 61.9441C989.629 62.1102 989.12 62.617 988.919 62.8966C986.895 65.7055 988.164 71.0595 988.164 71.0595C989.015 74.6514 988.361 81.4365 981.279 95.5214C980.638 86.9347 974.314 76.9391 974.314 76.9391C977.772 68.4605 984.158 59.9136 988.183 54.9079C988.442 54.6729 988.664 54.4214 988.792 54.1554C988.838 54.061 988.871 53.9671 988.889 53.8701C988.941 53.5914 988.854 53.3903 988.839 53.3259C988.721 52.8757 988.446 52.642 988.116 52.6187C987.768 52.596 987.462 52.8544 986.966 53.2693C986.966 53.2693 986.72 53.4724 986.441 53.7972C986.437 53.8009 986.432 53.8059 986.43 53.8132C986.295 53.9845 986.169 54.1481 986.055 54.3017C985.267 55.333 984.836 55.9258 984.836 55.9258C982.203 59.5449 979.008 64.2949 975.703 70.1715C968.822 71.583 963.719 75.3754 960.89 77.9831C965.434 66.3286 971.802 56.8729 975.215 55.8572C975.723 55.7065 979.102 54.869 979.133 53.0392C979.142 52.5612 978.91 52.1515 978.856 52.0273C978.078 50.2045 976.358 49.7727 975.312 51.0353C968.829 58.8461 964.492 66.5983 961.733 72.2783ZM980.531 97.0323L980.533 97.0359C979.462 99.1885 977.921 101.999 975.797 105.091C974.337 107.219 973.035 109.093 970.94 111.108C968.802 113.162 963.431 118.365 959.857 116.442C957.96 115.423 957.232 112.828 956.676 110.756C955.529 106.51 955.411 101.68 955.996 96.6863C960.119 87.6587 968.914 84.7636 971.125 84.1647C970.469 87.1832 969.849 90.3181 969.271 93.5621C968.654 97.0386 968.129 100.431 967.684 103.734C967.664 103.865 967.645 103.996 967.629 104.129C967.629 104.129 967.516 104.961 967.693 105.827C967.74 106.063 967.811 106.307 967.811 106.307C967.868 106.501 967.925 106.665 967.976 106.795C968.02 106.899 968.137 107.148 968.361 107.289C968.699 107.5 969.121 107.367 969.22 107.06C969.221 107.059 969.221 107.059 969.221 107.059C969.324 106.783 969.958 105.262 969.77 104.136C969.763 104.106 969.76 104.077 969.754 104.046C969.642 103.416 969.512 102.497 969.482 101.394C969.482 101.394 969.475 101.029 969.476 100.65C969.486 92.0536 971.408 84.2826 974.017 77.6784C979.494 88.2359 980.456 94.314 980.531 97.0323ZM975.343 71.0106C975.02 71.775 974.723 72.5143 974.447 73.2227C972.49 78.2485 971.681 81.7228 971.681 81.7228C971.563 82.2278 971.444 82.7473 971.325 83.2812C963.717 85.6049 958.705 90.9301 956.393 93.9004C957.137 89.4266 958.387 84.885 959.921 80.5732L959.923 80.572C964.73 73.6233 972.344 71.5676 975.343 71.0106Z" fill="white"/>
<path d="M1177.79 21.6261C1174.88 27.1399 1173.53 31.2617 1173.06 35.1131C1172.66 38.3864 1172.79 40.9863 1173.45 42.9077C1173.69 43.5891 1174.18 44.9402 1175.24 45.6833C1175.24 45.6833 1176.02 46.2334 1177.11 46.1786C1178.93 46.0869 1182.01 43.4531 1185.24 38.9289C1186.75 36.9644 1188.05 34.6903 1188.97 32.9054C1189.89 31.1231 1190.43 29.8314 1190.43 29.8314C1190.43 29.8314 1194.97 19.0422 1193.64 15.5178C1193.64 15.5005 1193.63 15.4814 1193.63 15.4814C1193.52 15.277 1193.25 15.2368 1192.95 15.3162C1192.52 15.4289 1192.24 15.7095 1192.13 15.8618C1190.99 17.3914 1191.48 20.1428 1191.48 20.1428C1191.8 21.9886 1191.25 25.5479 1187.14 33.1201C1187.08 28.6628 1184.13 23.6532 1184.13 23.6532C1186.19 19.1208 1189.77 14.4588 1192.01 11.7193C1192.15 11.5885 1192.27 11.4502 1192.34 11.3074C1192.37 11.2567 1192.39 11.2067 1192.4 11.1555C1192.44 11.0085 1192.4 10.9064 1192.39 10.8733C1192.35 10.6423 1192.21 10.5293 1192.04 10.5277C1191.86 10.527 1191.7 10.6716 1191.43 10.9039C1191.43 10.9039 1191.3 11.0177 1191.14 11.196C1191.14 11.1981 1191.14 11.2009 1191.13 11.2047C1191.06 11.2984 1190.99 11.3878 1190.92 11.4715C1190.48 12.0346 1190.24 12.3576 1190.24 12.3576C1188.77 14.3293 1186.96 16.9088 1185.07 20.0794C1181.47 21.0362 1178.71 23.1775 1177.17 24.6281C1179.89 18.4048 1183.48 13.2695 1185.28 12.6304C1185.54 12.5355 1187.32 11.9903 1187.39 11.0351C1187.41 10.7856 1187.3 10.5794 1187.28 10.5163C1186.94 9.59074 1186.06 9.42073 1185.48 10.1127C1181.88 14.3939 1179.39 18.5756 1177.79 21.6261ZM1186.7 33.932L1186.7 33.9339C1186.08 35.0907 1185.19 36.6059 1184 38.2863C1183.18 39.4428 1182.44 40.4618 1181.3 41.5799C1180.13 42.7197 1177.18 45.6053 1175.4 44.717C1174.45 44.2463 1174.16 42.9166 1173.94 41.854C1173.48 39.6766 1173.58 37.1613 1174.04 34.5385C1176.46 29.6985 1181.09 27.9067 1182.26 27.5235C1181.82 29.1186 1181.4 30.7733 1181 32.4835C1180.57 34.3163 1180.19 36.1022 1179.85 37.8387C1179.84 37.9081 1179.82 37.9769 1179.81 38.0467C1179.81 38.0467 1179.72 38.4842 1179.79 38.9299C1179.8 39.0516 1179.83 39.1765 1179.83 39.1765C1179.86 39.2758 1179.88 39.3594 1179.9 39.4258C1179.92 39.4787 1179.97 39.605 1180.09 39.6711C1180.25 39.7701 1180.48 39.6873 1180.54 39.524C1180.54 39.5233 1180.54 39.5233 1180.54 39.5233C1180.6 39.3762 1180.98 38.5627 1180.92 37.9815C1180.91 37.9662 1180.91 37.9513 1180.91 37.9353C1180.87 37.6105 1180.83 37.1354 1180.85 36.5611C1180.85 36.5611 1180.86 36.3707 1180.88 36.1731C1181.16 31.69 1182.4 27.5759 1183.96 24.0482C1186.45 29.3781 1186.75 32.5169 1186.7 33.932ZM1184.86 20.5285C1184.66 20.9375 1184.49 21.3326 1184.32 21.7108C1183.15 24.3945 1182.62 26.2322 1182.62 26.2322C1182.54 26.4993 1182.47 26.7741 1182.39 27.0563C1178.38 28.5121 1175.62 31.4499 1174.33 33.073C1174.86 30.7161 1175.65 28.3077 1176.58 26.0099L1176.58 26.0092C1179.29 22.2314 1183.29 20.9152 1184.86 20.5285Z" fill="white"/>
<path d="M1256.09 239.437C1251.1 249.704 1248.98 257.477 1248.52 264.834C1248.13 271.087 1248.69 276.107 1250.21 279.885C1250.75 281.225 1251.87 283.885 1254.02 285.442C1254.02 285.442 1255.61 286.595 1257.71 286.619C1261.25 286.66 1266.92 281.958 1272.66 273.636C1275.36 270.035 1277.6 265.812 1279.18 262.487C1280.76 259.166 1281.66 256.744 1281.66 256.744C1281.66 256.744 1289.18 236.517 1286.18 229.575C1286.16 229.54 1286.15 229.503 1286.15 229.503C1285.92 229.097 1285.38 228.986 1284.8 229.103C1283.99 229.269 1283.48 229.776 1283.28 230.056C1281.26 232.865 1282.52 238.219 1282.52 238.219C1283.38 241.811 1282.72 248.596 1275.64 262.681C1275 254.094 1268.68 244.098 1268.68 244.098C1272.13 235.62 1278.52 227.073 1282.54 222.067C1282.8 221.832 1283.03 221.581 1283.15 221.315C1283.2 221.22 1283.23 221.126 1283.25 221.029C1283.3 220.751 1283.22 220.549 1283.2 220.485C1283.08 220.035 1282.81 219.801 1282.48 219.778C1282.13 219.755 1281.82 220.014 1281.33 220.428C1281.33 220.428 1281.08 220.632 1280.8 220.956C1280.8 220.96 1280.79 220.965 1280.79 220.972C1280.66 221.144 1280.53 221.307 1280.42 221.461C1279.63 222.492 1279.2 223.085 1279.2 223.085C1276.56 226.704 1273.37 231.454 1270.06 237.331C1263.18 238.742 1258.08 242.535 1255.25 245.142C1259.8 233.488 1266.16 224.032 1269.58 223.016C1270.08 222.866 1273.46 222.028 1273.49 220.198C1273.5 219.72 1273.27 219.311 1273.22 219.186C1272.44 217.364 1270.72 216.932 1269.67 218.194C1263.19 226.005 1258.85 233.757 1256.09 239.437ZM1274.89 264.192L1274.89 264.195C1273.82 266.348 1272.28 269.158 1270.16 272.25C1268.7 274.378 1267.4 276.252 1265.3 278.267C1263.16 280.321 1257.79 285.524 1254.22 283.601C1252.32 282.582 1251.59 279.987 1251.04 277.915C1249.89 273.67 1249.77 268.839 1250.36 263.846C1254.48 254.818 1263.28 251.923 1265.49 251.324C1264.83 254.342 1264.21 257.477 1263.63 260.721C1263.02 264.198 1262.49 267.59 1262.05 270.893C1262.03 271.025 1262.01 271.155 1261.99 271.288C1261.99 271.288 1261.88 272.12 1262.05 272.986C1262.1 273.222 1262.17 273.466 1262.17 273.466C1262.23 273.66 1262.29 273.824 1262.34 273.954C1262.38 274.058 1262.5 274.308 1262.72 274.448C1263.06 274.659 1263.48 274.526 1263.58 274.219C1263.58 274.218 1263.58 274.218 1263.58 274.218C1263.69 273.942 1264.32 272.421 1264.13 271.295C1264.12 271.265 1264.12 271.236 1264.12 271.205C1264 270.576 1263.87 269.657 1263.84 268.553C1263.84 268.553 1263.84 268.188 1263.84 267.809C1263.85 259.213 1265.77 251.442 1268.38 244.838C1273.86 255.395 1274.82 261.473 1274.89 264.192ZM1269.7 238.17C1269.38 238.934 1269.08 239.673 1268.81 240.382C1266.85 245.408 1266.04 248.882 1266.04 248.882C1265.92 249.387 1265.8 249.906 1265.69 250.44C1258.08 252.764 1253.07 258.089 1250.75 261.06C1251.5 256.586 1252.75 252.044 1254.28 247.732L1254.28 247.731C1259.09 240.783 1266.71 238.727 1269.7 238.17Z" fill="white"/>
<path d="M1014.81 132.18C1011.39 139.211 1009.93 144.533 1009.62 149.571C1009.35 153.852 1009.73 157.289 1010.77 159.875C1011.14 160.792 1011.91 162.613 1013.38 163.678C1013.38 163.678 1014.46 164.467 1015.9 164.482C1018.32 164.509 1022.2 161.288 1026.14 155.587C1027.99 153.121 1029.53 150.229 1030.61 147.951C1031.69 145.677 1032.31 144.018 1032.31 144.018C1032.31 144.018 1037.47 130.167 1035.42 125.415C1035.4 125.391 1035.39 125.365 1035.39 125.365C1035.23 125.087 1034.86 125.012 1034.47 125.092C1033.92 125.207 1033.57 125.554 1033.43 125.745C1032.04 127.669 1032.91 131.334 1032.91 131.334C1033.49 133.793 1033.04 138.439 1028.19 148.085C1027.75 142.207 1023.43 135.366 1023.43 135.366C1025.8 129.559 1030.17 123.705 1032.93 120.276C1033.11 120.115 1033.26 119.943 1033.35 119.761C1033.38 119.696 1033.4 119.632 1033.41 119.565C1033.45 119.374 1033.39 119.237 1033.38 119.193C1033.3 118.884 1033.11 118.725 1032.88 118.709C1032.65 118.693 1032.44 118.87 1032.1 119.155C1032.1 119.155 1031.93 119.294 1031.74 119.516C1031.73 119.519 1031.73 119.522 1031.73 119.527C1031.64 119.645 1031.55 119.757 1031.47 119.862C1030.93 120.568 1030.64 120.974 1030.64 120.974C1028.83 123.453 1026.64 126.707 1024.38 130.732C1019.67 131.701 1016.17 134.299 1014.23 136.086C1017.35 128.105 1021.71 121.628 1024.05 120.931C1024.4 120.828 1026.71 120.253 1026.73 119C1026.74 118.673 1026.58 118.393 1026.54 118.308C1026.01 117.06 1024.84 116.765 1024.12 117.63C1019.68 122.98 1016.7 128.29 1014.81 132.18ZM1027.67 149.12L1027.67 149.122C1026.94 150.597 1025.88 152.522 1024.43 154.639C1023.43 156.097 1022.54 157.38 1021.1 158.761C1019.64 160.168 1015.96 163.733 1013.51 162.417C1012.21 161.72 1011.72 159.944 1011.34 158.526C1010.55 155.619 1010.47 152.312 1010.88 148.893C1013.7 142.711 1019.73 140.725 1021.24 140.314C1020.79 142.381 1020.36 144.527 1019.97 146.749C1019.54 149.129 1019.18 151.452 1018.88 153.713C1018.86 153.804 1018.85 153.893 1018.84 153.984C1018.84 153.984 1018.76 154.554 1018.88 155.146C1018.91 155.308 1018.96 155.475 1018.96 155.475C1019 155.608 1019.04 155.72 1019.07 155.809C1019.1 155.88 1019.18 156.051 1019.34 156.147C1019.57 156.291 1019.86 156.2 1019.93 155.99C1019.93 155.989 1019.93 155.989 1019.93 155.989C1020 155.8 1020.43 154.759 1020.3 153.988C1020.3 153.967 1020.3 153.948 1020.29 153.926C1020.22 153.495 1020.13 152.866 1020.11 152.111C1020.11 152.111 1020.1 151.861 1020.1 151.601C1020.11 145.716 1021.43 140.395 1023.22 135.872C1026.97 143.098 1027.62 147.259 1027.67 149.12ZM1024.13 131.306C1023.91 131.83 1023.71 132.336 1023.52 132.821C1022.18 136.263 1021.62 138.642 1021.62 138.642C1021.54 138.988 1021.46 139.343 1021.38 139.709C1016.17 141.303 1012.73 144.951 1011.15 146.986C1011.66 143.922 1012.52 140.812 1013.57 137.86L1013.57 137.859C1016.86 133.099 1022.08 131.689 1024.13 131.306Z" fill="white"/>
<path d="M1009.87 22.6471C1006.42 29.7708 1004.96 35.1681 1004.66 40.2802C1004.4 44.6249 1004.8 48.1151 1005.87 50.744C1006.24 51.6764 1007.03 53.5275 1008.53 54.6144C1008.53 54.6144 1009.64 55.4189 1011.1 55.4402C1013.56 55.4771 1017.49 52.2219 1021.46 46.4508C1023.33 43.9542 1024.88 41.0245 1025.97 38.7168C1027.06 36.4123 1027.68 34.7314 1027.68 34.7314C1027.68 34.7314 1032.87 20.6913 1030.77 15.8596C1030.75 15.8358 1030.74 15.8095 1030.74 15.8095C1030.58 15.5267 1030.2 15.4488 1029.81 15.5289C1029.24 15.6425 1028.89 15.9936 1028.75 16.1875C1027.35 18.1351 1028.24 21.8588 1028.24 21.8588C1028.84 24.357 1028.4 29.0709 1023.51 38.8437C1023.04 32.8748 1018.63 25.9142 1018.63 25.9142C1021.01 20.0295 1025.43 14.1038 1028.22 10.6339C1028.4 10.4712 1028.55 10.2969 1028.64 10.1123C1028.67 10.0468 1028.7 9.98162 1028.71 9.91429C1028.74 9.72072 1028.68 9.58073 1028.67 9.53594C1028.59 9.2228 1028.4 9.05983 1028.17 9.04286C1027.93 9.0263 1027.71 9.20521 1027.37 9.49244C1027.37 9.49244 1027.2 9.63309 1027.01 9.85817C1027 9.86077 1027 9.86422 1027 9.86929C1026.9 9.98799 1026.82 10.1015 1026.74 10.2079C1026.19 10.9229 1025.89 11.3339 1025.89 11.3339C1024.07 13.8432 1021.86 17.1372 1019.58 21.2139C1014.79 22.1796 1011.25 24.8039 1009.29 26.6099C1012.43 18.5205 1016.83 11.9632 1019.2 11.2649C1019.56 11.1613 1021.91 10.5867 1021.92 9.31515C1021.93 8.983 1021.77 8.69775 1021.73 8.61128C1021.18 7.34281 1019.99 7.03889 1019.26 7.91402C1014.77 13.3279 1011.77 18.7058 1009.87 22.6471ZM1022.99 39.8922L1022.99 39.8946C1022.25 41.3882 1021.19 43.3382 1019.72 45.4821C1018.71 46.9577 1017.81 48.2572 1016.36 49.653C1014.87 51.0758 1011.15 54.6798 1008.66 53.3354C1007.34 52.6227 1006.83 50.818 1006.44 49.3768C1005.63 46.4235 1005.54 43.0662 1005.93 39.5972C1008.78 33.3324 1014.89 31.3399 1016.42 30.9287C1015.97 33.0249 1015.55 35.2022 1015.16 37.4554C1014.73 39.8701 1014.38 42.2265 1014.08 44.5208C1014.06 44.6124 1014.05 44.7032 1014.04 44.7955C1014.04 44.7955 1013.96 45.3735 1014.09 45.9753C1014.12 46.1397 1014.17 46.3094 1014.17 46.3094C1014.21 46.4443 1014.25 46.5583 1014.28 46.649C1014.32 46.7214 1014.4 46.895 1014.55 46.9932C1014.79 47.1404 1015.08 47.0489 1015.15 46.8358C1015.15 46.8349 1015.15 46.8349 1015.15 46.8349C1015.22 46.6435 1015.66 45.5878 1015.53 44.8048C1015.52 44.7841 1015.52 44.7641 1015.51 44.7426C1015.44 44.3047 1015.34 43.6658 1015.32 42.899C1015.32 42.899 1015.31 42.645 1015.31 42.3816C1015.3 36.4076 1016.62 31.0112 1018.42 26.4273C1022.25 33.7766 1022.93 38.0028 1022.99 39.8922ZM1019.33 21.7963C1019.1 22.3268 1018.9 22.8399 1018.71 23.3316C1017.36 26.8201 1016.81 29.2328 1016.81 29.2328C1016.72 29.5835 1016.64 29.9443 1016.56 30.3151C1011.28 31.9131 1007.8 35.6028 1006.2 37.662C1006.71 34.5544 1007.57 31.401 1008.63 28.4078L1008.63 28.4069C1011.95 23.5885 1017.24 22.1768 1019.33 21.7963Z" fill="white"/>
<path d="M894.635 101.419C891.215 108.45 889.755 113.773 889.44 118.81C889.169 123.091 889.552 126.528 890.592 129.114C890.96 130.031 891.728 131.852 893.198 132.917C893.198 132.917 894.286 133.706 895.722 133.721C898.144 133.748 902.026 130.527 905.961 124.826C907.809 122.36 909.35 119.468 910.43 117.19C911.51 114.916 912.127 113.258 912.127 113.258C912.127 113.258 917.287 99.4061 915.237 94.654C915.225 94.6305 915.213 94.6047 915.213 94.6047C915.055 94.3267 914.685 94.2514 914.294 94.3317C913.737 94.4458 913.388 94.793 913.25 94.9845C911.864 96.9085 912.73 100.574 912.73 100.574C913.312 103.033 912.861 107.678 908.007 117.324C907.572 111.446 903.246 104.605 903.246 104.605C905.617 98.7985 909.992 92.9441 912.75 89.5153C912.928 89.3543 913.079 89.182 913.167 88.9998C913.198 88.9352 913.222 88.8709 913.234 88.8045C913.269 88.6137 913.21 88.476 913.2 88.4319C913.119 88.1237 912.931 87.9639 912.705 87.948C912.467 87.9326 912.257 88.1097 911.918 88.3939C911.918 88.3939 911.749 88.5331 911.558 88.7556C911.555 88.7582 911.552 88.7616 911.551 88.7666C911.458 88.8839 911.371 88.996 911.293 89.1012C910.753 89.8076 910.458 90.2136 910.458 90.2136C908.654 92.6925 906.465 95.9459 904.2 99.9708C899.489 100.94 895.994 103.539 894.056 105.325C897.172 97.344 901.535 90.8674 903.872 90.1706C904.219 90.0673 906.533 89.4924 906.555 88.2396C906.562 87.9124 906.403 87.632 906.366 87.5469C905.834 86.2993 904.657 86.0044 903.94 86.8692C899.498 92.2196 896.526 97.529 894.635 101.419ZM907.494 118.359L907.495 118.362C906.761 119.836 905.705 121.761 904.25 123.879C903.249 125.336 902.357 126.62 900.922 128C899.458 129.407 895.778 132.972 893.333 131.657C892.035 130.96 891.537 129.184 891.158 127.765C890.374 124.859 890.295 121.552 890.698 118.132C893.524 111.95 899.546 109.964 901.06 109.553C900.61 111.62 900.184 113.767 899.787 115.988C899.363 118.368 899.002 120.691 898.697 122.953C898.683 123.043 898.67 123.132 898.658 123.223C898.658 123.223 898.581 123.793 898.702 124.386C898.734 124.547 898.782 124.714 898.782 124.714C898.821 124.847 898.86 124.959 898.895 125.048C898.925 125.12 899.005 125.29 899.159 125.387C899.39 125.531 899.679 125.44 899.747 125.229C899.747 125.228 899.747 125.228 899.747 125.228C899.818 125.04 900.253 123.998 900.124 123.227C900.12 123.207 900.117 123.187 900.113 123.166C900.037 122.735 899.949 122.106 899.928 121.35C899.928 121.35 899.924 121.1 899.925 120.841C899.935 114.955 901.254 109.634 903.042 105.111C906.788 112.337 907.444 116.498 907.494 118.359ZM903.953 100.545C903.732 101.069 903.528 101.575 903.339 102.06C901.997 105.502 901.442 107.881 901.442 107.881C901.361 108.227 901.279 108.583 901.197 108.948C895.988 110.542 892.555 114.19 890.971 116.225C891.482 113.162 892.34 110.052 893.392 107.099L893.392 107.098C896.686 102.339 901.9 100.928 903.953 100.545Z" fill="white"/>
<path d="M1113.39 299.765C1110.48 305.279 1109.13 309.4 1108.66 313.252C1108.26 316.525 1108.39 319.125 1109.05 321.046C1109.29 321.728 1109.78 323.079 1110.84 323.822C1110.84 323.822 1111.62 324.372 1112.71 324.317C1114.53 324.226 1117.61 321.592 1120.85 317.068C1122.35 315.103 1123.65 312.829 1124.57 311.044C1125.49 309.262 1126.03 307.97 1126.03 307.97C1126.03 307.97 1130.57 297.181 1129.24 293.657C1129.24 293.639 1129.23 293.62 1129.23 293.62C1129.12 293.416 1128.85 293.375 1128.55 293.455C1128.12 293.568 1127.84 293.848 1127.73 294C1126.59 295.53 1127.08 298.281 1127.08 298.281C1127.4 300.127 1126.85 303.687 1122.74 311.259C1122.68 306.802 1119.74 301.792 1119.74 301.792C1121.79 297.259 1125.37 292.598 1127.61 289.858C1127.75 289.727 1127.87 289.589 1127.94 289.446C1127.97 289.395 1127.99 289.345 1128 289.294C1128.04 289.147 1128 289.045 1128 289.012C1127.95 288.781 1127.81 288.668 1127.64 288.666C1127.47 288.666 1127.3 288.81 1127.03 289.043C1127.03 289.043 1126.9 289.156 1126.74 289.335C1126.74 289.337 1126.74 289.34 1126.74 289.343C1126.66 289.437 1126.59 289.526 1126.53 289.61C1126.09 290.173 1125.84 290.496 1125.84 290.496C1124.37 292.468 1122.57 295.047 1120.67 298.218C1117.07 299.175 1114.31 301.316 1112.77 302.767C1115.49 296.543 1119.08 291.408 1120.88 290.769C1121.14 290.674 1122.92 290.129 1122.99 289.174C1123.01 288.924 1122.9 288.718 1122.88 288.655C1122.54 287.729 1121.66 287.559 1121.08 288.251C1117.48 292.533 1114.99 296.714 1113.39 299.765ZM1122.3 312.071L1122.3 312.073C1121.68 313.229 1120.79 314.745 1119.6 316.425C1118.78 317.582 1118.04 318.601 1116.9 319.719C1115.73 320.858 1112.78 323.744 1111 322.856C1110.05 322.385 1109.76 321.055 1109.54 319.993C1109.08 317.815 1109.18 315.3 1109.64 312.677C1112.06 307.837 1116.69 306.045 1117.86 305.662C1117.42 307.257 1117 308.912 1116.6 310.622C1116.17 312.455 1115.79 314.241 1115.45 315.977C1115.44 316.047 1115.42 316.116 1115.41 316.185C1115.41 316.185 1115.33 316.623 1115.39 317.069C1115.41 317.19 1115.43 317.315 1115.43 317.315C1115.46 317.415 1115.48 317.498 1115.5 317.564C1115.52 317.617 1115.58 317.744 1115.69 317.81C1115.85 317.909 1116.08 317.826 1116.14 317.663C1116.14 317.662 1116.14 317.662 1116.14 317.662C1116.2 317.515 1116.58 316.701 1116.52 316.12C1116.51 316.105 1116.51 316.09 1116.51 316.074C1116.47 315.749 1116.44 315.274 1116.45 314.7C1116.45 314.7 1116.46 314.509 1116.48 314.312C1116.76 309.829 1118 305.715 1119.56 302.187C1122.05 307.517 1122.35 310.656 1122.3 312.071ZM1120.46 298.667C1120.27 299.076 1120.09 299.471 1119.92 299.849C1118.75 302.533 1118.22 304.371 1118.22 304.371C1118.14 304.638 1118.07 304.913 1117.99 305.195C1113.98 306.651 1111.22 309.589 1109.93 311.212C1110.46 308.855 1111.25 306.446 1112.18 304.149L1112.18 304.148C1114.89 300.37 1118.89 299.054 1120.46 298.667Z" fill="white"/>
<path d="M1260.28 435.387C1255.29 445.653 1253.16 453.426 1252.7 460.783C1252.31 467.036 1252.88 472.057 1254.4 475.834C1254.94 477.174 1256.06 479.834 1258.21 481.391C1258.21 481.391 1259.8 482.544 1261.89 482.568C1265.43 482.61 1271.1 477.908 1276.84 469.585C1279.54 465.984 1281.79 461.761 1283.36 458.436C1284.94 455.115 1285.84 452.693 1285.84 452.693C1285.84 452.693 1293.37 432.467 1290.37 425.524C1290.35 425.49 1290.33 425.452 1290.33 425.452C1290.1 425.046 1289.56 424.935 1288.99 425.052C1288.17 425.219 1287.67 425.725 1287.46 426.005C1285.44 428.814 1286.71 434.168 1286.71 434.168C1287.56 437.76 1286.91 444.545 1279.83 458.63C1279.18 450.043 1272.86 440.048 1272.86 440.048C1276.32 431.569 1282.7 423.022 1286.73 418.016C1286.99 417.781 1287.21 417.53 1287.34 417.264C1287.38 417.169 1287.42 417.075 1287.44 416.979C1287.49 416.7 1287.4 416.499 1287.39 416.434C1287.27 415.984 1286.99 415.75 1286.66 415.727C1286.31 415.704 1286.01 415.963 1285.51 416.378C1285.51 416.378 1285.27 416.581 1284.99 416.906C1284.98 416.909 1284.98 416.914 1284.98 416.922C1284.84 417.093 1284.71 417.257 1284.6 417.41C1283.81 418.441 1283.38 419.034 1283.38 419.034C1280.75 422.653 1277.55 427.403 1274.25 433.28C1267.37 434.691 1262.26 438.484 1259.44 441.091C1263.98 429.437 1270.35 419.981 1273.76 418.966C1274.27 418.815 1277.65 417.977 1277.68 416.148C1277.69 415.67 1277.46 415.26 1277.4 415.136C1276.62 413.313 1274.9 412.881 1273.86 414.144C1267.37 421.955 1263.04 429.707 1260.28 435.387ZM1279.08 460.141L1279.08 460.144C1278.01 462.297 1276.47 465.108 1274.34 468.199C1272.88 470.327 1271.58 472.201 1269.49 474.216C1267.35 476.27 1261.98 481.474 1258.4 479.55C1256.51 478.531 1255.78 475.936 1255.22 473.865C1254.07 469.619 1253.96 464.788 1254.54 459.795C1258.67 450.767 1267.46 447.872 1269.67 447.273C1269.01 450.292 1268.39 453.427 1267.82 456.671C1267.2 460.147 1266.67 463.539 1266.23 466.842C1266.21 466.974 1266.19 467.105 1266.17 467.238C1266.17 467.238 1266.06 468.07 1266.24 468.935C1266.29 469.171 1266.36 469.415 1266.36 469.415C1266.41 469.609 1266.47 469.773 1266.52 469.903C1266.57 470.007 1266.68 470.257 1266.91 470.397C1267.25 470.608 1267.67 470.475 1267.77 470.168C1267.77 470.167 1267.77 470.167 1267.77 470.167C1267.87 469.891 1268.5 468.37 1268.32 467.244C1268.31 467.214 1268.31 467.186 1268.3 467.154C1268.19 466.525 1268.06 465.606 1268.03 464.503C1268.03 464.503 1268.02 464.137 1268.02 463.758C1268.03 455.162 1269.95 447.391 1272.56 440.787C1278.04 451.344 1279 457.422 1279.08 460.141ZM1273.89 434.119C1273.57 434.883 1273.27 435.623 1272.99 436.331C1271.04 441.357 1270.23 444.831 1270.23 444.831C1270.11 445.336 1269.99 445.856 1269.87 446.39C1262.26 448.713 1257.25 454.039 1254.94 457.009C1255.68 452.535 1256.93 447.993 1258.47 443.682L1258.47 443.68C1263.28 436.732 1270.89 434.676 1273.89 434.119Z" fill="white"/>
</svg>
