<svg width="184" height="306" viewBox="0 0 184 306" fill="none" xmlns="http://www.w3.org/2000/svg">
<path d="M66.8075 139.76C63.7008 129.599 60.2131 122.949 55.8407 117.639C52.1267 113.123 48.5418 110.052 45.0892 108.434C43.865 107.86 41.3975 106.755 38.9284 107.049C38.9284 107.049 37.1 107.267 35.6415 108.577C33.1804 110.784 32.2766 117.575 33.6267 126.886C34.0651 131.048 35.208 135.351 36.2425 138.617C37.2738 141.88 38.1967 144.102 38.1967 144.102C38.1967 144.102 45.9037 162.664 52.3897 165.507C52.4232 165.52 52.4598 165.534 52.4598 165.534C52.8775 165.665 53.319 165.4 53.6378 164.958C54.0921 164.331 54.1192 163.663 54.0794 163.345C53.6824 160.149 49.3994 157.296 49.3994 157.296C46.5254 155.382 42.6535 150.337 38.5538 136.248C44.4643 141.704 55.1824 144.53 55.1824 144.53C58.2046 152.503 59.2551 162.373 59.6743 168.333C59.6456 168.657 59.6536 168.969 59.7349 169.232C59.7636 169.325 59.8002 169.41 59.8496 169.488C59.9915 169.711 60.1796 169.793 60.2306 169.828C60.5988 170.06 60.9368 170.046 61.179 169.853C61.4325 169.649 61.4787 169.279 61.5552 168.683C61.5552 168.683 61.5951 168.389 61.5807 167.99C61.5807 167.985 61.5807 167.979 61.5775 167.973C61.5616 167.77 61.5441 167.579 61.5249 167.402C61.4102 166.2 61.3289 165.523 61.3289 165.523C60.8347 161.389 60.0075 156.127 58.5378 150.028C62.373 144.715 63.468 138.902 63.7534 135.334C68.0508 146.161 69.6926 156.64 67.9918 159.49C67.7384 159.913 65.9467 162.621 67.0912 163.889C67.3893 164.221 67.8101 164.354 67.9265 164.405C69.6225 165.158 71.081 164.365 70.9965 162.842C70.4816 153.413 68.5274 145.381 66.8075 139.76ZM38.1058 134.744L38.1027 134.742C37.4682 132.596 36.7382 129.704 36.2297 126.251C35.879 123.876 35.5809 121.774 35.7388 119.075C35.9013 116.321 36.2823 109.375 39.9661 108.43C41.9203 107.927 44.0738 109.238 45.7762 110.3C49.2702 112.473 52.428 115.696 55.2063 119.475C58.1202 128.242 53.9136 135.777 52.7739 137.583C51.3026 135.108 49.7325 132.576 48.0636 129.996C46.2735 127.233 44.4739 124.586 42.6759 122.051C42.6057 121.948 42.5356 121.847 42.4623 121.746C42.4623 121.746 42.0096 121.107 41.3369 120.628C41.1536 120.496 40.9495 120.375 40.9495 120.375C40.787 120.278 40.6435 120.202 40.5255 120.145C40.4283 120.103 40.1892 120.006 39.9453 120.052C39.5787 120.122 39.3731 120.479 39.5006 120.751C39.5006 120.753 39.5006 120.753 39.5006 120.753C39.6058 121.006 40.1382 122.445 40.9846 123.095C41.0085 123.111 41.0293 123.128 41.0532 123.145C41.5314 123.504 42.2056 124.05 42.9293 124.784C42.9293 124.784 43.1668 125.029 43.4075 125.288C48.8765 131.162 52.5045 137.681 54.9162 143.838C44.4229 140.093 39.8895 136.552 38.1058 134.744ZM58.2509 149.227C57.9863 148.501 57.7201 147.809 57.4586 147.151C55.6032 142.484 53.9471 139.601 53.9471 139.601C53.7064 139.182 53.4577 138.751 53.1995 138.312C56.9533 131.918 57.0091 125.116 56.7079 121.627C59.0463 125.151 61.0786 129.041 62.7699 132.954V132.955C63.8888 140.736 59.9596 146.952 58.2509 149.227Z" fill="#2C4C3F"/>
<path d="M87.3018 223.434C73.9273 206.721 62.4731 196.864 50.3787 190.17C40.1021 184.477 31.1461 181.39 23.5236 180.925C20.8205 180.76 15.4108 180.523 11.0458 182.907C11.0458 182.907 7.81386 184.673 6.08544 188.207C3.16744 194.167 6.57181 207.55 16.0474 223.974C19.9769 231.439 25.3201 238.645 29.6856 243.99C34.0427 249.331 37.4197 252.805 37.4197 252.805C37.4197 252.805 65.6249 281.826 79.7979 282.332C79.8695 282.331 79.9483 282.33 79.9483 282.33C80.8221 282.266 81.4432 281.44 81.7049 280.378C82.0786 278.865 81.6295 277.596 81.3175 277.031C78.1882 271.343 68.099 269.183 68.099 269.183C61.3296 267.735 50.3635 261.167 32.2046 237.839C47.2645 243.663 69.2836 240.994 69.2836 240.994C80.863 253.672 90.2011 271.367 95.4409 282.212C95.6303 282.841 95.8783 283.418 96.2257 283.849C96.3489 284.002 96.4809 284.135 96.6306 284.243C97.061 284.555 97.4718 284.569 97.5926 284.597C98.4504 284.758 99.0673 284.481 99.3728 283.94C99.6908 283.37 99.4996 282.643 99.1955 281.47C99.1955 281.47 99.0493 280.89 98.7244 280.154C98.7208 280.146 98.7161 280.134 98.7054 280.124C98.5243 279.757 98.3485 279.412 98.1804 279.095C97.0677 276.93 96.4101 275.723 96.4101 275.723C92.3983 268.352 86.9239 259.118 79.6292 248.792C82.7752 236.001 80.4576 224.306 78.317 217.416C94.401 234.49 105.293 252.885 104.268 259.483C104.114 260.464 102.814 266.862 105.888 268.387C106.69 268.787 107.571 268.723 107.825 268.731C111.538 268.881 113.654 266.315 112.357 263.527C104.344 246.261 94.7026 232.677 87.3018 223.434ZM30.2471 235.357L30.24 235.356C27.4556 231.81 23.9349 226.938 20.4066 220.854C17.9775 216.668 15.8508 212.955 14.1233 207.785C12.3645 202.51 7.87317 189.226 14.0062 184.721C17.2589 182.328 22.2393 183.183 26.1961 183.908C34.3111 185.381 42.5875 189.069 50.5748 194.078C62.5483 208.325 60.3756 225.552 59.6109 229.778C55.0262 226.238 50.2154 222.665 45.1856 219.076C39.7934 215.234 34.47 211.615 29.2335 208.205C29.0263 208.064 28.8203 207.927 28.6084 207.792C28.6084 207.792 27.2895 206.932 25.6817 206.535C25.243 206.425 24.773 206.349 24.773 206.349C24.3988 206.289 24.0756 206.253 23.8139 206.234C23.6014 206.227 23.0852 206.224 22.6666 206.491C22.0379 206.893 21.9235 207.715 22.3639 208.129C22.3651 208.132 22.3651 208.132 22.3651 208.132C22.7499 208.528 24.8157 210.826 26.874 211.414C26.9303 211.426 26.9818 211.443 27.0392 211.458C28.1959 211.775 29.8564 212.296 31.7496 213.132C31.7496 213.132 32.3741 213.414 33.0152 213.721C47.5676 220.654 59.184 230.162 68.2708 239.895C45.9813 240.677 34.9124 237.416 30.2471 235.357ZM78.4974 247.507C77.4627 246.345 76.4499 245.246 75.472 244.209C68.5334 236.851 63.2999 232.684 63.2999 232.684C62.5393 232.079 61.7555 231.458 60.9469 230.827C63.1324 216.071 58.1449 203.298 54.9742 196.992C61.954 201.851 68.64 207.623 74.7092 213.691L74.7104 213.694C82.6121 227.427 79.9673 241.979 78.4974 247.507Z" fill="#2C4C3F"/>
<path d="M167.424 103.036C168.803 92.1653 168.343 84.4401 166.489 77.6047C164.916 71.7946 162.855 67.3981 160.304 64.4255C159.4 63.371 157.556 61.2944 155.119 60.5348C155.119 60.5348 153.315 59.9727 151.396 60.5933C148.16 61.6387 144.447 67.6528 141.783 76.985C140.436 81.088 139.691 85.6192 139.281 89.1282C138.87 92.6328 138.797 95.1123 138.797 95.1123C138.797 95.1123 138.181 115.824 143.055 121.224C143.081 121.249 143.11 121.278 143.11 121.278C143.445 121.577 143.971 121.512 144.456 121.231C145.146 120.83 145.453 120.213 145.55 119.897C146.527 116.722 143.72 112.238 143.72 112.238C141.836 109.229 140.339 102.854 142.446 87.868C145.679 95.4862 154.524 102.646 154.524 102.646C153.989 111.421 150.808 121.155 148.685 126.942C148.521 127.236 148.397 127.532 148.363 127.814C148.35 127.913 148.348 128.009 148.362 128.103C148.401 128.372 148.542 128.529 148.575 128.583C148.822 128.956 149.144 129.085 149.453 129.005C149.776 128.919 149.976 128.59 150.299 128.061C150.299 128.061 150.46 127.801 150.615 127.42C150.617 127.415 150.62 127.409 150.62 127.402C150.69 127.205 150.754 127.017 150.811 126.842C151.211 125.662 151.42 124.991 151.42 124.991C152.702 120.892 154.148 115.591 155.346 109.231C161.18 105.839 164.659 100.826 166.432 97.5863C165.887 109.584 163.002 120.139 160.207 122.108C159.791 122.401 156.97 124.197 157.507 125.872C157.646 126.31 157.984 126.612 158.071 126.708C159.342 128.129 161.042 127.995 161.606 126.526C165.103 117.433 166.663 109.05 167.424 103.036ZM142.661 86.264L142.659 86.2612C142.97 83.9743 143.507 80.9446 144.488 77.4807C145.162 75.0971 145.77 72.9931 147.057 70.5178C148.371 67.9937 151.659 61.6142 155.509 62.2703C157.551 62.6172 159.014 64.7556 160.16 66.4708C162.516 69.9835 164.113 74.3436 165.12 79.067C164.149 88.545 157.03 93.8724 155.2 95.0944C154.867 92.1465 154.465 89.1036 153.99 85.9745C153.48 82.6218 152.912 79.3738 152.298 76.2322C152.275 76.106 152.252 75.9812 152.227 75.8552C152.227 75.8552 152.072 75.0636 151.644 74.33C151.528 74.1295 151.388 73.9292 151.388 73.9292C151.277 73.7701 151.175 73.6384 151.088 73.5353C151.015 73.4543 150.832 73.2631 150.584 73.2039C150.211 73.1155 149.868 73.3657 149.873 73.6753C149.872 73.6768 149.872 73.6768 149.872 73.6768C149.864 73.9592 149.755 75.5376 150.273 76.5049C150.289 76.5298 150.301 76.5549 150.316 76.5813C150.613 77.1201 151.014 77.9168 151.382 78.9115C151.382 78.9115 151.501 79.242 151.617 79.5872C154.26 87.4131 154.906 95.0736 154.567 101.883C146.32 93.9515 143.569 88.7147 142.661 86.264ZM155.415 108.357C155.474 107.562 155.517 106.798 155.549 106.069C155.781 100.896 155.447 97.4868 155.447 97.4868C155.399 96.9912 155.347 96.4818 155.291 95.9594C161.505 91.5155 164.428 85.135 165.618 81.7239C166.321 86.0229 166.582 90.5389 166.515 94.9326L166.514 94.9341C164.279 102.729 157.976 106.932 155.415 108.357Z" fill="#2C4C3F"/>
<path d="M150.969 22.7834C150.122 16.4338 148.706 12.1368 146.636 8.5511C144.878 5.50286 143.056 3.32657 141.17 2.02819C140.501 1.56756 139.148 0.669869 137.658 0.605066C137.658 0.605066 136.554 0.557336 135.562 1.19503C133.89 2.26997 132.691 6.22409 132.581 11.8967C132.434 14.4168 132.691 17.0891 132.984 19.1333C133.276 21.1754 133.605 22.5876 133.605 22.5876C133.605 22.5876 136.356 34.3844 139.918 36.707C139.937 36.7178 139.957 36.7298 139.957 36.7298C140.191 36.8485 140.479 36.7333 140.711 36.5016C141.041 36.1721 141.122 35.7775 141.13 35.5844C141.207 33.6435 138.949 31.5292 138.949 31.5292C137.435 30.1111 135.635 26.7322 134.584 17.9478C137.55 21.7695 143.62 24.4929 143.62 24.4929C144.631 29.5316 144.289 35.5083 143.955 39.0968C143.906 39.287 143.881 39.4732 143.903 39.6374C143.911 39.6957 143.924 39.7501 143.946 39.801C144.008 39.9475 144.111 40.0147 144.138 40.0404C144.334 40.2145 144.535 40.2389 144.697 40.1476C144.867 40.0508 144.931 39.835 145.034 39.4876C145.034 39.4876 145.087 39.3164 145.117 39.0778C145.118 39.0749 145.118 39.0712 145.117 39.0671C145.127 38.9451 145.136 38.8295 145.142 38.7222C145.191 37.9956 145.209 37.5849 145.209 37.5849C145.32 35.0763 145.344 31.8642 145.07 28.0909C147.859 25.3017 149.076 21.9479 149.593 19.852C151.08 26.7136 151.028 33.1102 149.743 34.6412C149.552 34.8688 148.226 36.3062 148.78 37.1723C148.924 37.399 149.16 37.5189 149.224 37.5604C150.155 38.1732 151.096 37.8433 151.195 36.9286C151.811 31.2666 151.438 26.2959 150.969 22.7834ZM134.466 17.0091L134.464 17.0079C134.298 15.6689 134.148 13.8764 134.184 11.7721C134.209 10.3242 134.237 9.04426 134.595 7.4528C134.96 5.8298 135.864 1.73264 138.137 1.52763C139.343 1.41817 140.49 2.40772 141.394 3.20567C143.251 4.83847 144.806 7.06362 146.081 9.5823C146.95 15.0839 143.724 19.1596 142.873 20.1238C142.243 18.5078 141.561 16.8482 140.825 15.1508C140.035 13.3324 139.228 11.5819 138.411 9.89829C138.38 9.83029 138.348 9.76324 138.314 9.69587C138.314 9.69587 138.109 9.2716 137.757 8.92104C137.662 8.8251 137.553 8.7328 137.553 8.7328C137.466 8.65958 137.388 8.60046 137.324 8.55512C137.271 8.52026 137.139 8.43961 136.99 8.44321C136.766 8.44901 136.609 8.64176 136.658 8.81606C136.658 8.817 136.658 8.817 136.658 8.817C136.695 8.97783 136.87 9.88613 137.308 10.3552C137.32 10.367 137.331 10.3793 137.343 10.392C137.591 10.6522 137.937 11.0424 138.294 11.5495C138.294 11.5495 138.411 11.7185 138.528 11.8962C141.192 15.9235 142.704 20.156 143.53 24.0548C137.683 20.8063 135.345 18.2583 134.466 17.0091ZM144.978 27.5867C144.892 27.1289 144.802 26.6908 144.712 26.2738C144.069 23.3158 143.37 21.4389 143.37 21.4389C143.269 21.1661 143.163 20.8859 143.054 20.5991C145.901 17.1582 146.598 13.1151 146.76 11.0093C147.801 13.3337 148.624 15.8467 149.243 18.3398L149.243 18.3407C149.146 23.0806 146.212 26.3982 144.978 27.5867Z" fill="#2C4C3F"/>
<path d="M120.904 77.3029C121.801 70.2298 121.502 65.2034 120.296 60.7559C119.272 56.9755 117.931 54.1149 116.272 52.1808C115.683 51.4947 114.483 50.1435 112.898 49.6493C112.898 49.6493 111.724 49.2836 110.476 49.6873C108.37 50.3675 105.954 54.2806 104.22 60.3527C103.344 63.0223 102.859 65.9706 102.593 68.2537C102.325 70.534 102.278 72.1473 102.278 72.1473C102.278 72.1473 101.877 85.6231 105.048 89.1367C105.065 89.1535 105.084 89.1723 105.084 89.1723C105.302 89.3668 105.644 89.3246 105.96 89.1414C106.409 88.8809 106.609 88.4794 106.672 88.2738C107.307 86.2075 105.481 83.2899 105.481 83.2899C104.255 81.3326 103.281 77.1846 104.652 67.4338C106.755 72.3906 112.51 77.0494 112.51 77.0494C112.163 82.7586 110.093 89.0918 108.711 92.8577C108.605 93.0484 108.524 93.2415 108.502 93.4245C108.493 93.4895 108.492 93.5518 108.501 93.6128C108.526 93.7881 108.618 93.8899 108.64 93.9251C108.8 94.1681 109.01 94.2517 109.211 94.1997C109.421 94.1439 109.551 93.9299 109.761 93.5855C109.761 93.5855 109.867 93.4162 109.967 93.1682C109.969 93.1653 109.97 93.1614 109.97 93.1566C110.016 93.0283 110.058 92.9063 110.095 92.7925C110.355 92.0249 110.491 91.5881 110.491 91.5881C111.325 88.9207 112.266 85.4715 113.045 81.3335C116.841 79.1268 119.105 75.8647 120.258 73.757C119.904 81.5632 118.027 88.4309 116.208 89.7121C115.937 89.9025 114.102 91.0717 114.451 92.1613C114.542 92.4461 114.762 92.6425 114.819 92.7052C115.645 93.6297 116.752 93.5427 117.118 92.5867C119.394 86.6701 120.409 81.2158 120.904 77.3029ZM104.792 66.3901L104.79 66.3883C104.993 64.9003 105.342 62.929 105.981 60.6752C106.419 59.1243 106.815 57.7554 107.652 56.1447C108.507 54.5025 110.647 50.3516 113.151 50.7785C114.48 51.0042 115.432 52.3955 116.178 53.5116C117.71 55.7971 118.749 58.634 119.405 61.7074C118.773 67.8743 114.141 71.3406 112.95 72.1356C112.733 70.2176 112.472 68.2377 112.163 66.2017C111.831 64.0203 111.462 61.907 111.062 59.8629C111.047 59.7807 111.033 59.6996 111.016 59.6175C111.016 59.6175 110.915 59.1025 110.637 58.6252C110.561 58.4947 110.47 58.3644 110.47 58.3644C110.398 58.2609 110.331 58.1752 110.275 58.1081C110.227 58.0554 110.108 57.931 109.947 57.8925C109.705 57.835 109.481 57.9977 109.484 58.1992C109.484 58.2002 109.484 58.2002 109.484 58.2002C109.478 58.3839 109.408 59.4109 109.745 60.0403C109.755 60.0565 109.763 60.0728 109.773 60.09C109.965 60.4406 110.227 60.959 110.466 61.6062C110.466 61.6062 110.543 61.8212 110.619 62.0458C112.339 67.1378 112.759 72.1221 112.538 76.5524C107.172 71.392 105.382 67.9846 104.792 66.3901ZM113.09 80.7649C113.128 80.2479 113.156 79.7509 113.178 79.2764C113.329 75.9107 113.111 73.6923 113.111 73.6923C113.08 73.3698 113.046 73.0383 113.009 72.6985C117.053 69.807 118.954 65.6555 119.729 63.436C120.186 66.2332 120.356 69.1716 120.313 72.0304L120.312 72.0313C118.857 77.1034 114.756 79.8375 113.09 80.7649Z" fill="#2C4C3F"/>
<path d="M148.615 173.041C142.402 152.557 135.426 139.152 126.681 128.446C119.253 119.344 112.084 113.153 105.178 109.891C102.73 108.734 97.7949 106.506 92.8567 107.099C92.8567 107.099 89.2001 107.539 86.283 110.178C81.3608 114.629 79.5532 128.318 82.2534 147.087C83.1301 155.478 85.4159 164.153 87.4849 170.736C89.5476 177.313 91.3934 181.792 91.3934 181.792C91.3934 181.792 106.807 219.211 119.779 224.943C119.846 224.969 119.92 224.997 119.92 224.997C120.755 225.262 121.638 224.726 122.276 223.837C123.184 222.571 123.238 221.226 123.159 220.585C122.365 214.142 113.799 208.39 113.799 208.39C108.051 204.533 100.307 194.363 92.1075 165.96C103.929 176.959 125.365 182.656 125.365 182.656C131.409 198.727 133.51 218.624 134.349 230.64C134.291 231.294 134.307 231.922 134.47 232.451C134.527 232.639 134.6 232.811 134.699 232.967C134.983 233.417 135.359 233.583 135.461 233.653C136.198 234.121 136.874 234.093 137.358 233.704C137.865 233.293 137.957 232.547 138.11 231.345C138.11 231.345 138.19 230.752 138.161 229.948C138.161 229.939 138.161 229.926 138.155 229.913C138.123 229.505 138.088 229.119 138.05 228.762C137.82 226.339 137.658 224.975 137.658 224.975C136.669 216.641 135.015 206.034 132.076 193.738C139.746 183.029 141.936 171.31 142.507 164.117C151.102 185.943 154.385 207.067 150.984 212.812C150.477 213.667 146.893 219.125 149.182 221.682C149.779 222.351 150.62 222.619 150.853 222.721C154.245 224.238 157.162 222.641 156.993 219.571C155.963 200.564 152.055 184.371 148.615 173.041ZM91.2117 162.928L91.2053 162.925C89.9365 158.599 88.4764 152.768 87.4594 145.808C86.7581 141.02 86.1619 136.783 86.4775 131.341C86.8027 125.79 87.5646 111.788 94.9321 109.882C98.8406 108.868 103.148 111.511 106.552 113.653C113.54 118.034 119.856 124.531 125.413 132.147C131.24 149.822 122.827 165.01 120.548 168.651C117.605 163.662 114.465 158.557 111.127 153.358C107.547 147.788 103.948 142.451 100.352 137.341C100.211 137.134 100.071 136.929 99.9245 136.725C99.9245 136.725 99.0191 135.437 97.6738 134.471C97.3072 134.207 96.8991 133.961 96.8991 133.961C96.5739 133.767 96.287 133.614 96.0511 133.499C95.8566 133.413 95.3784 133.219 94.8907 133.311C94.1574 133.451 93.7462 134.172 94.0012 134.72C94.0012 134.723 94.0012 134.723 94.0012 134.723C94.2116 135.233 95.2764 138.135 96.9692 139.445C97.0171 139.477 97.0585 139.512 97.1063 139.547C98.0627 140.271 99.4112 141.37 100.859 142.85C100.859 142.85 101.334 143.344 101.815 143.867C112.753 155.707 120.009 168.849 124.832 181.26C103.846 173.71 94.7791 166.572 91.2117 162.928ZM131.502 192.125C130.973 190.662 130.44 189.265 129.917 187.939C126.206 178.531 122.894 172.719 122.894 172.719C122.413 171.874 121.915 171.007 121.399 170.121C128.907 157.231 129.018 143.519 128.416 136.486C133.093 143.589 137.157 151.432 140.54 159.319V159.323C142.778 175.008 134.919 187.537 131.502 192.125Z" fill="#2C4C3F"/>
</svg>
