<svg width="95" height="96" viewBox="0 0 95 96" fill="none" xmlns="http://www.w3.org/2000/svg">
<path d="M43.8105 65.2725L56.4058 78.0003L69.0011 65.2725" stroke="#0A0A0A" stroke-width="2" stroke-linecap="round" stroke-linejoin="round"/>
<path d="M56.4062 48V78" stroke="#0A0A0A" stroke-width="2" stroke-linecap="round" stroke-linejoin="round"/>
<path d="M35.6243 78H26.7181C23.771 77.9971 20.8582 77.3608 18.1731 76.1333C15.488 74.9059 13.0919 73.1153 11.1439 70.8805C9.19597 68.6458 7.74066 66.0178 6.87461 63.1712C6.00855 60.3246 5.75156 57.3244 6.12068 54.3697C6.4898 51.4151 7.4766 48.5736 9.01558 46.0338C10.5546 43.494 12.6105 41.314 15.047 39.6385C17.4834 37.9631 20.2447 36.8305 23.1474 36.3159C26.0502 35.8013 29.0281 35.9165 31.8834 36.6538" stroke="#0A0A0A" stroke-width="2" stroke-linecap="round" stroke-linejoin="round"/>
<path d="M29.6875 48C29.688 43.2466 30.8062 38.5614 32.9499 34.3304C35.0937 30.0994 38.2017 26.4437 42.0179 23.6646C45.834 20.8855 50.249 19.0625 54.8991 18.3459C59.5492 17.6292 64.3012 18.0394 68.7637 19.5427C73.2261 21.0459 77.2712 23.5992 80.5656 26.9921C83.86 30.385 86.3094 34.5204 87.712 39.0575C89.1146 43.5947 89.4302 48.4037 88.6329 53.0882C87.8355 57.7728 85.948 62.1989 83.1259 66.0017" stroke="#0A0A0A" stroke-width="2" stroke-linecap="round" stroke-linejoin="round"/>
</svg>
