<svg width="259" height="1080" viewBox="0 0 259 1080" fill="none" xmlns="http://www.w3.org/2000/svg">
<path d="M163.367 145.276C152.463 141.9 145.335 138.139 139.653 133.443C134.822 129.454 131.543 125.611 129.825 121.919C129.215 120.61 128.042 117.971 128.373 115.34C128.373 115.34 128.619 113.391 130.036 111.844C132.424 109.232 139.73 108.311 149.73 109.808C154.202 110.302 158.821 111.547 162.326 112.671C165.827 113.791 168.209 114.789 168.209 114.789C168.209 114.789 188.116 123.124 191.133 130.059C191.146 130.095 191.161 130.134 191.161 130.134C191.3 130.58 191.012 131.05 190.535 131.387C189.858 131.868 189.14 131.892 188.798 131.848C185.365 131.405 182.324 126.819 182.324 126.819C180.285 123.742 174.885 119.581 159.765 115.121C165.594 121.459 168.566 132.908 168.566 132.908C177.117 136.18 187.721 137.362 194.126 137.846C194.475 137.817 194.81 137.828 195.091 137.916C195.191 137.947 195.283 137.987 195.366 138.04C195.605 138.193 195.692 138.394 195.729 138.449C195.977 138.843 195.96 139.203 195.751 139.46C195.53 139.729 195.132 139.776 194.49 139.854C194.49 139.854 194.174 139.895 193.745 139.877C193.74 139.877 193.734 139.877 193.727 139.874C193.509 139.855 193.304 139.835 193.113 139.814C191.822 139.684 191.095 139.593 191.095 139.593C186.654 139.041 181.003 138.126 174.455 136.52C168.72 140.578 162.464 141.71 158.627 141.992C170.239 146.642 181.494 148.458 184.568 146.662C185.025 146.394 187.947 144.5 189.303 145.729C189.658 146.049 189.799 146.498 189.852 146.623C190.651 148.436 189.79 149.987 188.154 149.887C178.021 149.28 169.398 147.146 163.367 145.276ZM158.151 114.634L158.149 114.631C155.846 113.941 152.741 113.144 149.033 112.581C146.481 112.192 144.224 111.861 141.321 112.012C138.36 112.169 130.891 112.532 129.851 116.455C129.299 118.536 130.695 120.841 131.827 122.663C134.141 126.403 137.587 129.791 141.631 132.778C151.038 135.94 159.163 131.5 161.112 130.296C158.46 128.711 155.748 127.021 152.986 125.225C150.027 123.299 147.192 121.363 144.478 119.43C144.367 119.354 144.259 119.279 144.151 119.2C144.151 119.2 143.467 118.713 142.956 117.993C142.816 117.796 142.686 117.578 142.686 117.578C142.583 117.404 142.503 117.251 142.442 117.124C142.397 117.02 142.295 116.765 142.345 116.505C142.422 116.114 142.808 115.897 143.1 116.035C143.101 116.035 143.101 116.035 143.101 116.035C143.373 116.149 144.916 116.726 145.61 117.632C145.627 117.658 145.645 117.68 145.664 117.706C146.047 118.218 146.629 118.94 147.414 119.717C147.414 119.717 147.676 119.972 147.953 120.23C154.234 126.099 161.219 130.009 167.823 132.619C163.861 121.405 160.083 116.548 158.151 114.634ZM173.596 136.209C172.817 135.923 172.074 135.634 171.369 135.351C166.363 133.344 163.274 131.559 163.274 131.559C162.825 131.3 162.364 131.032 161.893 130.754C154.997 134.718 147.684 134.735 143.936 134.392C147.709 136.908 151.879 139.1 156.074 140.928L156.076 140.928C164.434 142.17 171.139 138.018 173.596 136.209Z" fill="white" fill-opacity="0.2"/>
<path d="M293.562 156.369C282.658 152.993 275.531 149.232 269.849 144.536C265.018 140.547 261.738 136.704 260.02 133.012C259.411 131.703 258.237 129.064 258.569 126.432C258.569 126.432 258.815 124.484 260.231 122.936C262.62 120.325 269.926 119.403 279.926 120.901C284.398 121.394 289.017 122.64 292.521 123.764C296.022 124.884 298.405 125.882 298.405 125.882C298.405 125.882 318.311 134.217 321.328 141.152C321.342 141.188 321.357 141.227 321.357 141.227C321.495 141.673 321.207 142.142 320.731 142.48C320.053 142.96 319.335 142.985 318.994 142.941C315.56 142.497 312.52 137.912 312.52 137.912C310.48 134.835 305.081 130.674 289.96 126.214C295.789 132.552 298.761 144 298.761 144C307.313 147.273 317.916 148.455 324.321 148.939C324.67 148.91 325.005 148.921 325.287 149.009C325.387 149.04 325.478 149.08 325.561 149.133C325.8 149.286 325.887 149.487 325.925 149.541C326.172 149.935 326.155 150.296 325.946 150.553C325.725 150.822 325.327 150.869 324.686 150.947C324.686 150.947 324.369 150.988 323.941 150.97C323.936 150.97 323.929 150.97 323.922 150.966C323.705 150.948 323.499 150.928 323.309 150.907C322.017 150.777 321.29 150.686 321.29 150.686C316.849 150.133 311.198 149.218 304.65 147.613C298.916 151.67 292.659 152.802 288.822 153.084C300.435 157.735 311.689 159.551 314.763 157.755C315.22 157.487 318.142 155.593 319.498 156.821C319.854 157.141 319.994 157.591 320.048 157.716C320.846 159.529 319.986 161.08 318.349 160.98C308.216 160.373 299.593 158.238 293.562 156.369ZM288.346 125.727L288.344 125.724C286.041 125.034 282.936 124.237 279.228 123.673C276.677 123.285 274.419 122.954 271.516 123.105C268.555 123.262 261.086 123.625 260.047 127.548C259.494 129.629 260.89 131.934 262.022 133.756C264.336 137.496 267.782 140.884 271.826 143.87C281.234 147.032 289.359 142.593 291.307 141.388C288.656 139.804 285.943 138.114 283.181 136.318C280.222 134.391 277.387 132.456 274.673 130.522C274.563 130.447 274.454 130.371 274.346 130.293C274.346 130.293 273.662 129.806 273.151 129.085C273.011 128.889 272.881 128.671 272.881 128.671C272.779 128.497 272.698 128.343 272.637 128.217C272.592 128.113 272.49 127.858 272.541 127.598C272.618 127.207 273.003 126.99 273.295 127.128C273.297 127.128 273.297 127.128 273.297 127.128C273.568 127.242 275.112 127.818 275.805 128.725C275.822 128.751 275.841 128.773 275.859 128.798C276.242 129.311 276.825 130.033 277.609 130.81C277.609 130.81 277.871 131.064 278.148 131.323C284.429 137.192 291.414 141.102 298.018 143.712C294.057 132.497 290.278 127.641 288.346 125.727ZM303.791 147.302C303.013 147.015 302.27 146.727 301.564 146.444C296.558 144.436 293.469 142.652 293.469 142.652C293.02 142.393 292.559 142.125 292.088 141.847C285.192 145.811 277.879 145.828 274.131 145.485C277.904 148.001 282.074 150.193 286.27 152.021L286.271 152.021C294.629 153.262 301.334 149.11 303.791 147.302Z" fill="white"/>
<path d="M220.367 198.275C209.463 194.899 202.335 191.138 196.653 186.442C191.822 182.453 188.543 178.61 186.825 174.918C186.215 173.609 185.042 170.97 185.373 168.339C185.373 168.339 185.619 166.39 187.036 164.843C189.424 162.231 196.73 161.31 206.73 162.807C211.202 163.301 215.821 164.546 219.326 165.67C222.827 166.79 225.209 167.788 225.209 167.788C225.209 167.788 245.116 176.123 248.133 183.058C248.146 183.094 248.161 183.133 248.161 183.133C248.3 183.579 248.012 184.049 247.535 184.386C246.858 184.867 246.14 184.891 245.798 184.847C242.365 184.404 239.324 179.818 239.324 179.818C237.285 176.741 231.885 172.58 216.765 168.12C222.594 174.458 225.566 185.907 225.566 185.907C234.117 189.179 244.721 190.361 251.126 190.845C251.475 190.816 251.81 190.827 252.091 190.915C252.191 190.946 252.283 190.986 252.366 191.039C252.605 191.192 252.692 191.393 252.729 191.448C252.977 191.842 252.96 192.202 252.751 192.459C252.53 192.728 252.132 192.775 251.49 192.853C251.49 192.853 251.174 192.894 250.745 192.876C250.74 192.876 250.734 192.876 250.727 192.873C250.509 192.854 250.304 192.834 250.113 192.813C248.822 192.683 248.095 192.592 248.095 192.592C243.654 192.04 238.003 191.125 231.455 189.519C225.72 193.577 219.464 194.709 215.627 194.991C227.239 199.641 238.494 201.457 241.568 199.661C242.025 199.393 244.947 197.499 246.303 198.728C246.658 199.048 246.799 199.497 246.852 199.622C247.651 201.435 246.79 202.986 245.154 202.886C235.021 202.279 226.398 200.145 220.367 198.275ZM215.151 167.633L215.149 167.63C212.846 166.94 209.741 166.143 206.033 165.58C203.481 165.191 201.224 164.86 198.321 165.011C195.36 165.168 187.891 165.531 186.851 169.454C186.299 171.535 187.695 173.84 188.827 175.662C191.141 179.402 194.587 182.79 198.631 185.777C208.038 188.939 216.163 184.499 218.112 183.295C215.46 181.71 212.748 180.02 209.986 178.224C207.027 176.298 204.192 174.362 201.478 172.429C201.367 172.353 201.259 172.278 201.151 172.199C201.151 172.199 200.467 171.712 199.956 170.992C199.816 170.795 199.686 170.577 199.686 170.577C199.583 170.403 199.503 170.25 199.442 170.123C199.397 170.019 199.295 169.764 199.345 169.504C199.422 169.113 199.808 168.896 200.1 169.034C200.101 169.034 200.101 169.034 200.101 169.034C200.373 169.148 201.916 169.725 202.61 170.631C202.627 170.657 202.645 170.679 202.664 170.705C203.047 171.217 203.629 171.939 204.414 172.716C204.414 172.716 204.676 172.971 204.953 173.229C211.234 179.098 218.219 183.008 224.823 185.618C220.861 174.404 217.083 169.547 215.151 167.633ZM230.596 189.208C229.817 188.922 229.074 188.633 228.369 188.351C223.363 186.343 220.274 184.558 220.274 184.558C219.825 184.299 219.364 184.031 218.893 183.753C211.997 187.717 204.684 187.734 200.936 187.391C204.709 189.907 208.879 192.099 213.074 193.927L213.076 193.927C221.434 195.169 228.139 191.017 230.596 189.208Z" fill="white"/>
<path d="M244.367 295.275C233.463 291.899 226.335 288.138 220.653 283.442C215.822 279.453 212.543 275.61 210.825 271.918C210.215 270.609 209.042 267.97 209.373 265.339C209.373 265.339 209.619 263.39 211.036 261.843C213.424 259.231 220.73 258.31 230.73 259.807C235.202 260.301 239.821 261.546 243.326 262.67C246.827 263.79 249.209 264.788 249.209 264.788C249.209 264.788 269.116 273.123 272.133 280.058C272.146 280.094 272.161 280.133 272.161 280.133C272.3 280.579 272.012 281.049 271.535 281.386C270.858 281.867 270.14 281.891 269.798 281.847C266.365 281.404 263.324 276.818 263.324 276.818C261.285 273.741 255.885 269.58 240.765 265.12C246.594 271.458 249.566 282.907 249.566 282.907C258.117 286.179 268.721 287.361 275.126 287.845C275.475 287.816 275.81 287.827 276.091 287.915C276.191 287.946 276.283 287.986 276.366 288.039C276.605 288.192 276.692 288.393 276.729 288.448C276.977 288.842 276.96 289.202 276.751 289.459C276.53 289.728 276.132 289.775 275.49 289.853C275.49 289.853 275.174 289.894 274.745 289.876C274.74 289.876 274.734 289.876 274.727 289.873C274.509 289.854 274.304 289.834 274.113 289.813C272.822 289.683 272.095 289.592 272.095 289.592C267.654 289.04 262.003 288.125 255.455 286.519C249.72 290.577 243.464 291.709 239.627 291.991C251.239 296.641 262.494 298.457 265.568 296.661C266.025 296.393 268.947 294.499 270.303 295.728C270.658 296.048 270.799 296.497 270.852 296.622C271.651 298.435 270.79 299.986 269.154 299.886C259.021 299.279 250.398 297.145 244.367 295.275ZM239.151 264.633L239.149 264.63C236.846 263.94 233.741 263.143 230.033 262.58C227.481 262.191 225.224 261.86 222.321 262.011C219.36 262.168 211.891 262.531 210.851 266.454C210.299 268.535 211.695 270.84 212.827 272.662C215.141 276.402 218.587 279.79 222.631 282.777C232.038 285.939 240.163 281.499 242.112 280.295C239.46 278.71 236.748 277.02 233.986 275.224C231.027 273.298 228.192 271.362 225.478 269.429C225.367 269.353 225.259 269.278 225.151 269.199C225.151 269.199 224.467 268.712 223.956 267.992C223.816 267.795 223.686 267.577 223.686 267.577C223.583 267.403 223.503 267.25 223.442 267.123C223.397 267.019 223.295 266.764 223.345 266.504C223.422 266.113 223.808 265.896 224.1 266.034C224.101 266.034 224.101 266.034 224.101 266.034C224.373 266.148 225.916 266.725 226.61 267.631C226.627 267.657 226.645 267.679 226.664 267.705C227.047 268.217 227.629 268.939 228.414 269.716C228.414 269.716 228.676 269.971 228.953 270.229C235.234 276.098 242.219 280.008 248.823 282.618C244.861 271.404 241.083 266.547 239.151 264.633ZM254.596 286.208C253.817 285.922 253.074 285.633 252.369 285.351C247.363 283.343 244.274 281.558 244.274 281.558C243.825 281.299 243.364 281.031 242.893 280.753C235.997 284.717 228.684 284.734 224.936 284.391C228.709 286.907 232.879 289.099 237.074 290.927L237.076 290.927C245.434 292.169 252.139 288.017 254.596 286.208Z" fill="white" fill-opacity="0.2"/>
<path d="M15.2271 629.709C20.6067 619.641 25.649 613.355 31.336 608.665C36.1675 604.676 40.5614 602.183 44.5122 601.196C45.9131 600.845 48.726 600.192 51.2472 601.016C51.2472 601.016 53.114 601.626 54.3653 603.31C56.4771 606.15 55.9991 613.498 52.6353 623.034C51.3043 627.332 49.2068 631.631 47.4401 634.859C45.6774 638.085 44.2462 640.236 44.2462 640.236C44.2462 640.236 32.2934 658.204 24.9126 659.854C24.8749 659.86 24.8336 659.868 24.8336 659.868C24.3692 659.919 23.963 659.547 23.722 659.016C23.3784 658.259 23.4899 657.55 23.5982 657.223C24.6833 653.936 29.7618 651.818 29.7618 651.818C33.1693 650.398 38.277 645.884 45.5188 631.881C38.1923 636.405 26.388 637.155 26.388 637.155C21.5555 644.933 18.3879 655.121 16.7 661.319C16.662 661.667 16.5884 661.993 16.4483 662.253C16.3987 662.346 16.3425 662.428 16.2746 662.5C16.0794 662.705 15.8654 662.753 15.8048 662.779C15.3709 662.947 15.0203 662.862 14.8073 662.608C14.585 662.34 14.6142 661.941 14.6591 661.296C14.6591 661.296 14.6791 660.978 14.7776 660.56C14.7786 660.555 14.7799 660.549 14.7846 660.543C14.8437 660.333 14.9022 660.135 14.9593 659.952C15.3313 658.708 15.5582 658.012 15.5582 658.012C16.9416 653.755 18.9099 648.38 21.7258 642.254C18.8274 635.855 18.9004 629.498 19.3498 625.677C12.585 636.199 8.67106 646.906 9.85289 650.264C10.0292 650.764 11.3359 653.991 9.8728 655.091C9.49138 655.379 9.02332 655.431 8.89099 655.461C6.95904 655.902 5.5994 654.763 6.007 653.175C8.5219 643.34 12.2498 635.277 15.2271 629.709ZM46.3026 630.388L46.3063 630.387C47.4198 628.256 48.7898 625.358 50.0453 621.824C50.91 619.392 51.6624 617.238 52.0632 614.359C52.4702 611.422 53.5276 604.019 49.8723 602.256C47.9335 601.319 45.4059 602.254 43.4023 603.02C39.2918 604.585 35.313 607.327 31.6148 610.732C26.7289 619.371 29.5501 628.19 30.3638 630.331C32.4216 628.027 34.5947 625.684 36.8812 623.312C39.3329 620.771 41.7703 618.354 44.1826 616.055C44.2775 615.961 44.3721 615.869 44.47 615.777C44.47 615.777 45.0775 615.198 45.8816 614.832C46.1008 614.732 46.3398 614.646 46.3398 614.646C46.5301 614.578 46.6961 614.528 46.8314 614.492C46.9421 614.468 47.2124 614.416 47.4579 614.515C47.8268 614.664 47.967 615.084 47.7766 615.344C47.7763 615.346 47.7763 615.346 47.7763 615.346C47.6132 615.591 46.7546 616.997 45.733 617.507C45.7046 617.518 45.6793 617.532 45.6507 617.546C45.0752 617.825 44.2555 618.26 43.3446 618.883C43.3446 618.883 43.0448 619.092 42.7387 619.316C35.7865 624.371 30.625 630.49 26.8117 636.48C38.5735 634.714 44.0579 631.923 46.3026 630.388ZM22.1937 641.47C22.6226 640.759 23.0463 640.084 23.4576 639.445C26.3768 634.91 28.7135 632.215 28.7135 632.215C29.0532 631.823 29.4035 631.421 29.7657 631.011C27.1791 623.489 28.5465 616.305 29.5929 612.69C26.4082 615.919 23.4667 619.598 20.8775 623.372L20.8771 623.373C18.0757 631.345 20.8832 638.715 22.1937 641.47Z" fill="white" fill-opacity="0.2"/>
<path d="M211.328 94.7643C205.067 93.1997 200.973 91.4602 197.709 89.2903C194.933 87.447 193.048 85.6725 192.06 83.9681C191.709 83.3638 191.034 82.146 191.222 80.9323C191.222 80.9323 191.362 80.0336 192.174 79.3208C193.544 78.1178 197.736 77.6974 203.478 78.3947C206.045 78.6252 208.697 79.2028 210.709 79.7234C212.719 80.2424 214.088 80.7043 214.088 80.7043C214.088 80.7043 225.519 84.562 227.256 87.7629C227.263 87.7795 227.272 87.7976 227.272 87.7976C227.352 88.0035 227.187 88.2197 226.913 88.375C226.525 88.5963 226.113 88.6072 225.917 88.5865C223.946 88.3798 222.197 86.2626 222.197 86.2626C221.025 84.8419 217.923 82.9191 209.241 80.852C212.59 83.7792 214.304 89.0622 214.304 89.0622C219.215 90.5774 225.302 91.1293 228.979 91.3568C229.179 91.3438 229.371 91.3488 229.533 91.3898C229.59 91.4042 229.643 91.4225 229.691 91.4471C229.828 91.5177 229.878 91.6105 229.899 91.6358C230.042 91.8177 230.032 91.9839 229.912 92.1024C229.786 92.2264 229.557 92.2478 229.189 92.2833C229.189 92.2833 229.007 92.3019 228.762 92.2934C228.759 92.2934 228.755 92.2934 228.751 92.2918C228.626 92.2832 228.508 92.2739 228.399 92.2639C227.657 92.2031 227.24 92.1607 227.24 92.1607C224.69 91.9029 221.446 91.4772 217.686 90.7324C214.398 92.6003 210.807 93.1183 208.605 93.246C215.273 95.3987 221.735 96.2437 223.498 95.4172C223.76 95.294 225.436 94.4222 226.216 94.9898C226.42 95.1376 226.5 95.3451 226.531 95.4025C226.991 96.2396 226.498 96.9543 225.558 96.9073C219.742 96.6204 214.791 95.6304 211.328 94.7643ZM208.314 80.6263L208.313 80.6247C206.99 80.305 205.208 79.9355 203.079 79.6731C201.614 79.4921 200.318 79.338 198.652 79.406C196.952 79.4762 192.665 79.6389 192.071 81.4477C191.755 82.4074 192.558 83.4715 193.209 84.3128C194.54 86.0395 196.52 87.6044 198.843 88.9847C204.245 90.4494 208.906 88.4068 210.024 87.8525C208.501 87.1199 206.943 86.3384 205.356 85.5082C203.656 84.6177 202.028 83.723 200.469 82.8294C200.405 82.7945 200.343 82.7596 200.281 82.7232C200.281 82.7232 199.888 82.4982 199.594 82.1656C199.514 82.0749 199.439 81.9741 199.439 81.9741C199.38 81.8938 199.334 81.8229 199.299 81.7647C199.273 81.7167 199.214 81.5988 199.243 81.4789C199.287 81.2988 199.508 81.1989 199.675 81.2626C199.676 81.2626 199.676 81.2626 199.676 81.2626C199.832 81.3153 200.719 81.5823 201.118 82.0011C201.127 82.0129 201.138 82.0231 201.149 82.035C201.369 82.2715 201.703 82.6052 202.154 82.9638C202.154 82.9638 202.305 83.0815 202.464 83.2008C206.073 85.9123 210.085 87.7203 213.877 88.9287C211.596 83.7531 209.424 81.5102 208.314 80.6263ZM217.193 90.5884C216.746 90.4557 216.32 90.3223 215.914 90.1913C213.04 89.2619 211.266 88.4369 211.266 88.4369C211.008 88.317 210.743 88.1931 210.472 88.0645C206.516 89.8885 202.319 89.8917 200.167 89.7311C202.335 90.894 204.73 91.9077 207.139 92.7537L207.14 92.7537C211.938 93.3319 215.784 91.421 217.193 90.5884Z" fill="white"/>
<path d="M253.67 68.8252C246.201 66.5149 241.318 63.9416 237.426 60.7284C234.116 57.999 231.87 55.3699 230.693 52.8435C230.275 51.9478 229.472 50.1425 229.699 48.3419C229.699 48.3419 229.867 47.0087 230.837 45.9499C232.474 44.1633 237.478 43.5327 244.329 44.5575C247.392 44.895 250.556 45.7473 252.957 46.5161C255.355 47.2826 256.988 47.9655 256.988 47.9655C256.988 47.9655 270.625 53.6684 272.691 58.4135C272.7 58.438 272.711 58.4648 272.711 58.4648C272.806 58.7701 272.608 59.0912 272.282 59.3219C271.818 59.6508 271.326 59.6677 271.092 59.6373C268.74 59.3341 266.657 56.1965 266.657 56.1965C265.26 54.0911 261.561 51.2443 251.203 48.1927C255.196 52.529 257.232 60.3623 257.232 60.3623C263.09 62.6016 270.354 63.41 274.742 63.7413C274.981 63.7217 275.21 63.7289 275.403 63.7893C275.472 63.8106 275.534 63.8378 275.591 63.8742C275.755 63.9786 275.815 64.1162 275.84 64.1536C276.01 64.4233 275.998 64.6698 275.855 64.8458C275.703 65.0299 275.431 65.062 274.991 65.1153C274.991 65.1153 274.774 65.1432 274.481 65.131C274.477 65.131 274.473 65.131 274.468 65.1286C274.319 65.1161 274.178 65.1025 274.048 65.0878C273.163 64.9989 272.665 64.9367 272.665 64.9367C269.623 64.5586 265.752 63.9325 261.266 62.8341C257.338 65.6102 253.052 66.3846 250.423 66.5777C258.378 69.7596 266.088 71.0023 268.194 69.7732C268.507 69.5901 270.509 68.2942 271.438 69.1347C271.681 69.3537 271.777 69.6613 271.814 69.7464C272.361 70.9873 271.772 72.0482 270.65 71.9801C263.709 71.5643 257.802 70.1041 253.67 68.8252ZM250.097 47.8594L250.096 47.8571C248.518 47.385 246.391 46.84 243.851 46.4542C242.103 46.1883 240.557 45.9618 238.568 46.0655C236.54 46.1724 231.423 46.4209 230.711 49.105C230.332 50.529 231.289 52.106 232.064 53.3528C233.65 55.9118 236.01 58.2297 238.78 60.2732C245.225 62.4368 250.791 59.3992 252.126 58.5752C250.309 57.491 248.451 56.3345 246.559 55.1057C244.532 53.7877 242.59 52.4632 240.73 51.1403C240.655 51.0887 240.581 51.0371 240.507 50.9832C240.507 50.9832 240.038 50.6501 239.688 50.1572C239.592 50.0229 239.503 49.8735 239.503 49.8735C239.433 49.7544 239.378 49.6494 239.336 49.5631C239.305 49.492 239.235 49.3171 239.27 49.1393C239.323 48.8721 239.587 48.7235 239.786 48.8177C239.788 48.8177 239.788 48.8177 239.788 48.8177C239.974 48.8956 241.031 49.2902 241.506 49.9106C241.518 49.9281 241.53 49.9433 241.543 49.9609C241.806 50.3113 242.205 50.8057 242.742 51.3369C242.742 51.3369 242.921 51.5113 243.111 51.688C247.414 55.7039 252.199 58.379 256.723 60.1651C254.009 52.4919 251.421 49.1687 250.097 47.8594ZM260.678 62.6214C260.144 62.4252 259.635 62.228 259.152 62.0344C255.723 60.6607 253.607 59.4398 253.607 59.4398C253.299 59.2624 252.984 59.0791 252.661 58.8888C247.936 61.601 242.927 61.6128 240.359 61.3781C242.944 63.0995 245.801 64.5991 248.675 65.8499L248.676 65.8499C254.401 66.6995 258.995 63.8586 260.678 62.6214Z" fill="white" fill-opacity="0.2"/>
<path d="M171.641 240.78C163.828 238.381 158.721 235.708 154.649 232.372C151.188 229.537 148.838 226.807 147.607 224.183C147.17 223.253 146.329 221.378 146.566 219.508C146.566 219.508 146.743 218.124 147.758 217.024C149.469 215.169 154.704 214.514 161.869 215.579C165.074 215.93 168.383 216.815 170.894 217.613C173.403 218.409 175.11 219.119 175.11 219.119C175.11 219.119 189.374 225.041 191.536 229.969C191.546 229.995 191.557 230.022 191.557 230.022C191.656 230.339 191.449 230.673 191.108 230.913C190.622 231.254 190.108 231.272 189.864 231.24C187.403 230.925 185.225 227.667 185.225 227.667C183.763 225.48 179.894 222.524 169.059 219.354C173.236 223.858 175.366 231.992 175.366 231.992C181.494 234.318 189.092 235.158 193.681 235.502C193.931 235.482 194.171 235.489 194.373 235.552C194.445 235.574 194.51 235.602 194.57 235.64C194.741 235.748 194.803 235.891 194.83 235.93C195.007 236.21 194.995 236.466 194.845 236.649C194.687 236.84 194.402 236.874 193.942 236.929C193.942 236.929 193.715 236.958 193.409 236.945C193.405 236.945 193.4 236.945 193.395 236.943C193.239 236.93 193.092 236.915 192.956 236.9C192.03 236.808 191.509 236.743 191.509 236.743C188.327 236.35 184.278 235.7 179.586 234.559C175.477 237.442 170.994 238.246 168.245 238.446C176.566 241.751 184.63 243.042 186.833 241.766C187.16 241.575 189.254 240.23 190.226 241.103C190.48 241.33 190.581 241.65 190.619 241.738C191.192 243.027 190.575 244.128 189.402 244.057C182.142 243.625 175.963 242.109 171.641 240.78ZM167.903 219.008L167.902 219.006C166.251 218.515 164.026 217.949 161.369 217.549C159.541 217.272 157.923 217.037 155.843 217.145C153.722 217.256 148.37 217.514 147.625 220.301C147.229 221.78 148.23 223.417 149.041 224.712C150.7 227.369 153.168 229.777 156.066 231.899C162.807 234.146 168.629 230.992 170.025 230.136C168.125 229.01 166.182 227.809 164.202 226.533C162.082 225.164 160.051 223.789 158.106 222.415C158.027 222.361 157.949 222.308 157.871 222.252C157.871 222.252 157.381 221.906 157.015 221.394C156.915 221.254 156.822 221.099 156.822 221.099C156.748 220.976 156.69 220.867 156.647 220.777C156.615 220.703 156.541 220.521 156.578 220.337C156.633 220.059 156.909 219.905 157.118 220.003C157.119 220.003 157.119 220.003 157.119 220.003C157.314 220.084 158.42 220.494 158.917 221.138C158.929 221.156 158.942 221.172 158.956 221.19C159.23 221.554 159.647 222.067 160.21 222.619C160.21 222.619 160.397 222.8 160.596 222.984C165.096 227.154 170.102 229.932 174.834 231.787C171.995 223.819 169.287 220.368 167.903 219.008ZM178.971 234.338C178.413 234.135 177.88 233.93 177.375 233.729C173.788 232.302 171.574 231.034 171.574 231.034C171.253 230.85 170.922 230.66 170.585 230.462C165.643 233.278 160.404 233.29 157.718 233.046C160.422 234.834 163.41 236.391 166.416 237.69L166.417 237.69C172.406 238.573 177.21 235.623 178.971 234.338Z" fill="white"/>
<path d="M232.374 871.678C221.47 868.301 214.343 864.54 208.661 859.844C203.83 855.855 200.551 852.013 198.833 848.32C198.223 847.011 197.05 844.373 197.381 841.741C197.381 841.741 197.627 839.792 199.044 838.245C201.432 835.634 208.738 834.712 218.738 836.21C223.21 836.703 227.829 837.949 231.333 839.072C234.834 840.192 237.217 841.191 237.217 841.191C237.217 841.191 257.124 849.525 260.141 856.461C260.154 856.496 260.169 856.536 260.169 856.536C260.308 856.982 260.019 857.451 259.543 857.788C258.865 858.269 258.148 858.294 257.806 858.249C254.373 857.806 251.332 853.22 251.332 853.22C249.293 850.143 243.893 845.983 228.772 841.523C234.601 847.86 237.573 859.309 237.573 859.309C246.125 862.582 256.729 863.763 263.134 864.247C263.483 864.219 263.817 864.229 264.099 864.318C264.199 864.349 264.291 864.388 264.374 864.442C264.613 864.594 264.7 864.795 264.737 864.85C264.985 865.244 264.967 865.604 264.758 865.862C264.538 866.131 264.139 866.178 263.498 866.256C263.498 866.256 263.182 866.296 262.753 866.278C262.748 866.278 262.741 866.278 262.735 866.275C262.517 866.257 262.311 866.237 262.121 866.215C260.83 866.085 260.103 865.995 260.103 865.995C255.662 865.442 250.011 864.527 243.462 862.922C237.728 866.979 231.472 868.111 227.635 868.393C239.247 873.044 250.502 874.86 253.576 873.063C254.033 872.796 256.955 870.902 258.311 872.13C258.666 872.45 258.806 872.9 258.86 873.024C259.659 874.838 258.798 876.388 257.161 876.289C247.029 875.681 238.406 873.547 232.374 871.678ZM227.158 841.036L227.157 841.032C224.854 840.342 221.749 839.546 218.04 838.982C215.489 838.593 213.231 838.262 210.328 838.414C207.368 838.57 199.898 838.933 198.859 842.856C198.306 844.937 199.703 847.242 200.835 849.065C203.149 852.805 206.594 856.192 210.639 859.179C220.046 862.341 228.171 857.901 230.12 856.697C227.468 855.113 224.756 853.422 221.993 851.626C219.034 849.7 216.199 847.764 213.485 845.831C213.375 845.755 213.267 845.68 213.159 845.601C213.159 845.601 212.474 845.114 211.963 844.394C211.823 844.198 211.694 843.979 211.694 843.979C211.591 843.805 211.51 843.652 211.45 843.526C211.405 843.422 211.302 843.166 211.353 842.906C211.43 842.516 211.816 842.299 212.107 842.436C212.109 842.436 212.109 842.436 212.109 842.436C212.38 842.55 213.924 843.127 214.618 844.034C214.635 844.059 214.653 844.081 214.672 844.107C215.055 844.619 215.637 845.342 216.422 846.118C216.422 846.118 216.684 846.373 216.961 846.631C223.241 852.501 230.227 856.41 236.83 859.021C232.869 847.806 229.091 842.949 227.158 841.036ZM242.604 862.611C241.825 862.324 241.082 862.036 240.376 861.753C235.371 859.745 232.282 857.961 232.282 857.961C231.833 857.702 231.372 857.434 230.901 857.155C224.004 861.119 216.692 861.137 212.943 860.794C216.717 863.31 220.886 865.501 225.082 867.329L225.084 867.329C233.441 868.571 240.147 864.419 242.604 862.611Z" fill="white" fill-opacity="0.2"/>
<path d="M210.244 1002.26C199.34 998.883 192.212 995.122 186.53 990.426C181.699 986.437 178.42 982.595 176.702 978.902C176.092 977.593 174.919 974.955 175.25 972.323C175.25 972.323 175.496 970.374 176.913 968.827C179.301 966.216 186.607 965.294 196.607 966.792C201.079 967.285 205.698 968.531 209.203 969.654C212.703 970.774 215.086 971.773 215.086 971.773C215.086 971.773 234.993 980.107 238.01 987.043C238.023 987.078 238.038 987.118 238.038 987.118C238.177 987.564 237.888 988.033 237.412 988.37C236.734 988.851 236.017 988.876 235.675 988.831C232.242 988.388 229.201 983.802 229.201 983.802C227.162 980.725 221.762 976.565 206.642 972.105C212.47 978.442 215.443 989.891 215.443 989.891C223.994 993.164 234.598 994.345 241.003 994.829C241.352 994.801 241.687 994.811 241.968 994.9C242.068 994.931 242.16 994.97 242.243 995.024C242.482 995.176 242.569 995.377 242.606 995.432C242.854 995.826 242.836 996.186 242.628 996.444C242.407 996.713 242.009 996.76 241.367 996.838C241.367 996.838 241.051 996.878 240.622 996.86C240.617 996.86 240.61 996.86 240.604 996.857C240.386 996.839 240.181 996.819 239.99 996.797C238.699 996.667 237.972 996.577 237.972 996.577C233.531 996.024 227.88 995.109 221.331 993.504C215.597 997.561 209.341 998.693 205.504 998.975C217.116 1003.63 228.371 1005.44 231.445 1003.65C231.902 1003.38 234.824 1001.48 236.18 1002.71C236.535 1003.03 236.676 1003.48 236.729 1003.61C237.528 1005.42 236.667 1006.97 235.031 1006.87C224.898 1006.26 216.275 1004.13 210.244 1002.26ZM205.028 971.618L205.026 971.614C202.723 970.924 199.618 970.128 195.91 969.564C193.358 969.175 191.101 968.844 188.198 968.996C185.237 969.152 177.768 969.515 176.728 973.438C176.176 975.519 177.572 977.824 178.704 979.647C181.018 983.387 184.463 986.774 188.508 989.761C197.915 992.923 206.04 988.483 207.989 987.279C205.337 985.695 202.625 984.004 199.863 982.208C196.904 980.282 194.069 978.346 191.354 976.413C191.244 976.337 191.136 976.262 191.028 976.183C191.028 976.183 190.344 975.696 189.833 974.976C189.693 974.78 189.563 974.561 189.563 974.561C189.46 974.387 189.38 974.234 189.319 974.108C189.274 974.004 189.172 973.748 189.222 973.488C189.299 973.098 189.685 972.881 189.977 973.018C189.978 973.018 189.978 973.018 189.978 973.018C190.25 973.132 191.793 973.709 192.487 974.616C192.504 974.641 192.522 974.663 192.541 974.689C192.924 975.201 193.506 975.924 194.291 976.7C194.291 976.7 194.553 976.955 194.83 977.213C201.111 983.083 208.096 986.992 214.7 989.603C210.738 978.388 206.96 973.531 205.028 971.618ZM220.473 993.193C219.694 992.906 218.951 992.618 218.246 992.335C213.24 990.327 210.151 988.543 210.151 988.543C209.702 988.284 209.241 988.016 208.77 987.738C201.873 991.701 194.561 991.719 190.812 991.376C194.586 993.892 198.756 996.083 202.951 997.911L202.953 997.911C211.31 999.153 218.016 995.001 220.473 993.193Z" fill="white" fill-opacity="0.2"/>
<path d="M254.367 396.275C243.463 392.899 236.335 389.138 230.653 384.442C225.822 380.453 222.543 376.61 220.825 372.918C220.215 371.609 219.042 368.97 219.373 366.339C219.373 366.339 219.619 364.39 221.036 362.843C223.424 360.231 230.73 359.31 240.73 360.807C245.202 361.301 249.821 362.546 253.326 363.67C256.827 364.79 259.209 365.788 259.209 365.788C259.209 365.788 279.116 374.123 282.133 381.058C282.146 381.094 282.161 381.133 282.161 381.133C282.3 381.579 282.012 382.049 281.535 382.386C280.858 382.867 280.14 382.891 279.798 382.847C276.365 382.404 273.324 377.818 273.324 377.818C271.285 374.741 265.885 370.58 250.765 366.12C256.594 372.458 259.566 383.907 259.566 383.907C268.117 387.179 278.721 388.361 285.126 388.845C285.475 388.816 285.81 388.827 286.091 388.915C286.191 388.946 286.283 388.986 286.366 389.039C286.605 389.192 286.692 389.393 286.729 389.448C286.977 389.842 286.96 390.202 286.751 390.459C286.53 390.728 286.132 390.775 285.49 390.853C285.49 390.853 285.174 390.894 284.745 390.876C284.74 390.876 284.734 390.876 284.727 390.873C284.509 390.854 284.304 390.834 284.113 390.813C282.822 390.683 282.095 390.592 282.095 390.592C277.654 390.04 272.003 389.125 265.455 387.519C259.72 391.577 253.464 392.709 249.627 392.991C261.239 397.641 272.494 399.457 275.568 397.661C276.025 397.393 278.947 395.499 280.303 396.728C280.658 397.048 280.799 397.497 280.852 397.622C281.651 399.435 280.79 400.986 279.154 400.886C269.021 400.279 260.398 398.145 254.367 396.275ZM249.151 365.633L249.149 365.63C246.846 364.94 243.741 364.143 240.033 363.58C237.481 363.191 235.224 362.86 232.321 363.011C229.36 363.168 221.891 363.531 220.851 367.454C220.299 369.535 221.695 371.84 222.827 373.662C225.141 377.402 228.587 380.79 232.631 383.777C242.038 386.939 250.163 382.499 252.112 381.295C249.46 379.71 246.748 378.02 243.986 376.224C241.027 374.298 238.192 372.362 235.478 370.429C235.367 370.353 235.259 370.278 235.151 370.199C235.151 370.199 234.467 369.712 233.956 368.992C233.816 368.795 233.686 368.577 233.686 368.577C233.583 368.403 233.503 368.25 233.442 368.123C233.397 368.019 233.295 367.764 233.345 367.504C233.422 367.113 233.808 366.896 234.1 367.034C234.101 367.034 234.101 367.034 234.101 367.034C234.373 367.148 235.916 367.725 236.61 368.631C236.627 368.657 236.645 368.679 236.664 368.705C237.047 369.217 237.629 369.939 238.414 370.716C238.414 370.716 238.676 370.971 238.953 371.229C245.234 377.098 252.219 381.008 258.823 383.618C254.861 372.404 251.083 367.547 249.151 365.633ZM264.596 387.208C263.817 386.922 263.074 386.633 262.369 386.351C257.363 384.343 254.274 382.558 254.274 382.558C253.825 382.299 253.364 382.031 252.893 381.753C245.997 385.717 238.684 385.734 234.936 385.391C238.709 387.907 242.879 390.099 247.074 391.927L247.076 391.927C255.434 393.169 262.139 389.017 264.596 387.208Z" fill="white"/>
<path d="M203.33 331.847C196.975 329.181 192.912 326.506 189.772 323.352C187.102 320.673 185.356 318.173 184.539 315.854C184.249 315.032 183.698 313.378 184.051 311.816C184.051 311.816 184.312 310.659 185.254 309.812C186.841 308.383 191.285 308.255 197.206 309.739C199.865 310.296 202.567 311.314 204.607 312.194C206.646 313.072 208.019 313.81 208.019 313.81C208.019 313.81 219.494 319.981 220.902 324.324C220.908 324.346 220.915 324.37 220.915 324.37C220.972 324.647 220.771 324.912 220.465 325.087C220.03 325.336 219.597 325.309 219.395 325.262C217.358 324.796 215.798 321.863 215.798 321.863C214.752 319.895 211.751 317.079 202.926 313.517C206.058 317.665 207.176 324.718 207.176 324.718C212.123 327.184 218.426 328.513 222.246 329.177C222.457 329.181 222.658 329.206 222.822 329.276C222.88 329.3 222.933 329.33 222.98 329.366C223.114 329.472 223.155 329.598 223.174 329.633C223.3 329.884 223.268 330.1 223.128 330.242C222.979 330.391 222.738 330.396 222.348 330.405C222.348 330.405 222.155 330.411 221.899 330.376C221.896 330.375 221.892 330.375 221.888 330.372C221.758 330.349 221.636 330.325 221.523 330.301C220.754 330.147 220.323 330.05 220.323 330.05C217.686 329.459 214.344 328.579 210.503 327.233C206.821 329.336 202.996 329.651 200.673 329.596C207.38 333.068 214.036 334.817 215.988 333.917C216.279 333.783 218.145 332.815 218.888 333.632C219.083 333.845 219.141 334.124 219.166 334.202C219.54 335.338 218.932 336.219 217.954 336.064C211.901 335.108 206.845 333.322 203.33 331.847ZM201.984 313.13L201.983 313.128C200.64 312.579 198.821 311.919 196.625 311.364C195.115 310.981 193.778 310.651 192.025 310.572C190.236 310.494 185.727 310.276 184.874 312.572C184.42 313.791 185.124 315.257 185.698 316.418C186.871 318.8 188.743 321.037 190.999 323.068C196.467 325.517 201.608 323.323 202.849 322.714C201.349 321.607 199.818 320.433 198.262 319.192C196.597 317.862 195.006 316.534 193.488 315.213C193.427 315.162 193.366 315.11 193.306 315.056C193.306 315.056 192.923 314.724 192.658 314.261C192.585 314.135 192.52 313.996 192.52 313.996C192.469 313.886 192.429 313.789 192.4 313.709C192.379 313.644 192.332 313.485 192.378 313.332C192.447 313.101 192.691 312.994 192.859 313.093C192.86 313.093 192.86 313.093 192.86 313.093C193.016 313.178 193.91 313.614 194.274 314.2C194.282 314.216 194.292 314.23 194.302 314.247C194.502 314.577 194.81 315.045 195.236 315.557C195.236 315.557 195.379 315.726 195.53 315.897C198.961 319.791 202.93 322.548 206.746 324.501C205.02 317.532 203.033 314.393 201.984 313.13ZM210.006 326.996C209.554 326.778 209.125 326.561 208.717 326.35C205.827 324.852 204.075 323.599 204.075 323.599C203.82 323.417 203.559 323.229 203.292 323.035C198.917 325.014 194.522 324.597 192.289 324.173C194.41 325.905 196.787 327.465 199.202 328.808L199.203 328.808C204.152 330.042 208.424 327.939 210.006 326.996Z" fill="white"/>
<path d="M93.1052 534.443C96.8603 540.222 98.7146 544.719 99.5371 549.093C100.238 552.81 100.275 555.859 99.6463 558.236C99.4234 559.079 98.9487 560.756 97.7785 561.849C97.7785 561.849 96.9118 562.658 95.6568 562.829C93.5401 563.118 89.7943 560.724 85.733 556.167C83.8486 554.211 82.1867 551.849 80.9947 549.974C79.803 548.102 79.0829 546.718 79.0829 546.718C79.0829 546.718 73.0659 535.162 74.3448 530.779C74.3524 530.758 74.3606 530.734 74.3606 530.734C74.4686 530.473 74.7837 530.367 75.1349 530.394C75.635 530.433 75.9775 530.699 76.1188 530.851C77.5407 532.383 77.1802 535.685 77.1802 535.685C76.938 537.9 77.8362 541.916 83.1294 549.826C82.8727 544.634 85.9156 538.174 85.9156 538.174C83.212 533.353 78.7484 528.709 75.9636 526.01C75.7907 525.889 75.6394 525.755 75.5428 525.605C75.5084 525.552 75.4812 525.498 75.4632 525.441C75.4114 525.278 75.4486 525.151 75.4525 525.112C75.4898 524.833 75.637 524.673 75.8333 524.634C76.0397 524.595 76.2426 524.726 76.5703 524.938C76.5703 524.938 76.7328 525.041 76.9247 525.215C76.927 525.217 76.9302 525.22 76.932 525.224C77.0259 525.316 77.1136 525.405 77.1936 525.489C77.7426 526.048 78.0448 526.371 78.0448 526.371C79.8919 528.342 82.1605 530.95 84.5787 534.224C88.8064 534.556 92.1463 536.447 94.0356 537.798C90.444 531.155 85.9235 525.966 83.8034 525.612C83.4879 525.559 81.4008 525.31 81.2459 524.216C81.2047 523.93 81.3133 523.667 81.3364 523.589C81.6663 522.439 82.6645 522.052 83.3855 522.73C87.8522 526.926 91.0287 531.247 93.1052 534.443ZM83.6901 550.675L83.6896 550.678C84.4917 551.887 85.6247 553.456 87.1275 555.15C88.1611 556.316 89.0808 557.341 90.4862 558.392C91.9204 559.463 95.5262 562.18 97.5236 560.761C98.5838 560.009 98.8263 558.4 99.0049 557.117C99.3756 554.488 99.0855 551.586 98.3626 548.638C95.2191 543.537 89.7344 542.459 88.3652 542.265C88.9835 544.024 89.589 545.856 90.1771 547.756C90.806 549.793 91.3737 551.786 91.8863 553.731C91.9082 553.809 91.9294 553.886 91.9492 553.964C91.9492 553.964 92.0785 554.454 92.0374 554.986C92.0265 555.131 92.0023 555.283 92.0023 555.283C91.9828 555.403 91.961 555.505 91.9403 555.587C91.9211 555.653 91.8699 555.811 91.7459 555.912C91.5593 556.063 91.2966 556.015 91.2145 555.839C91.2137 555.838 91.2137 555.838 91.2137 555.838C91.1317 555.68 90.6382 554.817 90.6666 554.128C90.6687 554.11 90.6687 554.092 90.67 554.073C90.6901 553.687 90.699 553.127 90.6349 552.464C90.6349 552.464 90.6117 552.245 90.5828 552.018C89.9358 546.869 88.2048 542.357 86.1491 538.595C83.6555 545.328 83.5327 549.041 83.6901 550.675ZM84.8569 534.699C85.1075 535.133 85.3409 535.554 85.559 535.958C87.106 538.823 87.8501 540.844 87.8501 540.844C87.9583 541.137 88.0687 541.44 88.1798 541.751C92.9107 542.575 96.3102 545.391 97.917 546.998C97.1379 544.374 96.0498 541.746 94.8092 539.278L94.8084 539.277C91.4102 535.473 86.6953 534.809 84.8569 534.699Z" fill="white"/>
<path d="M192.076 901.798C183.716 899.21 178.252 896.326 173.896 892.726C170.193 889.668 167.678 886.722 166.361 883.891C165.894 882.888 164.995 880.865 165.249 878.847C165.249 878.847 165.437 877.354 166.523 876.167C168.354 874.165 173.955 873.459 181.622 874.607C185.05 874.985 188.591 875.94 191.278 876.802C193.962 877.66 195.788 878.425 195.788 878.425C195.788 878.425 211.05 884.815 213.362 890.132C213.373 890.159 213.384 890.19 213.384 890.19C213.49 890.532 213.269 890.891 212.904 891.15C212.385 891.518 211.834 891.537 211.573 891.503C208.94 891.164 206.609 887.648 206.609 887.648C205.046 885.289 200.907 882.099 189.314 878.68C193.783 883.539 196.061 892.316 196.061 892.316C202.617 894.825 210.747 895.731 215.657 896.102C215.924 896.08 216.181 896.088 216.397 896.155C216.474 896.179 216.544 896.21 216.608 896.251C216.791 896.368 216.858 896.522 216.886 896.564C217.076 896.866 217.063 897.142 216.902 897.339C216.733 897.546 216.428 897.582 215.936 897.641C215.936 897.641 215.694 897.672 215.365 897.659C215.361 897.659 215.356 897.659 215.351 897.656C215.184 897.642 215.027 897.627 214.881 897.61C213.891 897.511 213.333 897.441 213.333 897.441C209.929 897.017 205.596 896.316 200.576 895.085C196.18 898.196 191.384 899.064 188.442 899.28C197.345 902.845 205.973 904.237 208.329 902.86C208.68 902.655 210.92 901.203 211.96 902.145C212.232 902.39 212.339 902.735 212.381 902.83C212.993 904.221 212.333 905.409 211.078 905.333C203.31 904.867 196.7 903.231 192.076 901.798ZM188.077 878.307L188.076 878.304C186.31 877.775 183.93 877.164 181.087 876.732C179.131 876.434 177.4 876.181 175.174 876.297C172.905 876.417 167.178 876.695 166.382 879.703C165.958 881.298 167.028 883.065 167.896 884.462C169.67 887.329 172.312 889.926 175.412 892.216C182.624 894.64 188.853 891.237 190.347 890.313C188.314 889.099 186.235 887.803 184.117 886.426C181.849 884.949 179.675 883.465 177.595 881.983C177.51 881.925 177.427 881.867 177.344 881.807C177.344 881.807 176.82 881.434 176.428 880.881C176.321 880.731 176.221 880.563 176.221 880.563C176.142 880.43 176.081 880.312 176.034 880.216C175.999 880.136 175.921 879.94 175.96 879.741C176.019 879.441 176.315 879.275 176.538 879.381C176.54 879.381 176.54 879.381 176.54 879.381C176.748 879.468 177.931 879.91 178.463 880.605C178.476 880.625 178.49 880.642 178.504 880.661C178.798 881.054 179.244 881.608 179.846 882.203C179.846 882.203 180.046 882.399 180.259 882.597C185.074 887.096 190.429 890.094 195.492 892.095C192.455 883.497 189.558 879.774 188.077 878.307ZM199.918 894.847C199.321 894.627 198.751 894.406 198.21 894.189C194.373 892.65 192.005 891.282 192.005 891.282C191.66 891.083 191.307 890.878 190.946 890.665C185.659 893.704 180.053 893.717 177.179 893.454C180.072 895.383 183.269 897.063 186.485 898.464L186.486 898.464C192.894 899.416 198.034 896.233 199.918 894.847Z" fill="white"/>
<path d="M106.354 683.187C100.213 676.952 96.7627 671.827 94.6277 666.595C92.8112 662.149 91.9894 658.364 92.168 655.247C92.2309 654.142 92.3953 651.934 93.5734 650.277C93.5734 650.277 94.4461 649.05 95.9641 648.518C98.5243 647.621 103.793 649.647 110.005 654.285C112.846 656.24 115.515 658.756 117.474 660.786C119.433 662.812 120.68 664.35 120.68 664.35C120.68 664.35 131.104 677.199 130.627 682.977C130.623 683.006 130.619 683.038 130.619 683.038C130.551 683.39 130.186 683.602 129.742 683.657C129.11 683.736 128.616 683.493 128.401 683.339C126.243 681.794 125.852 677.594 125.852 677.594C125.59 674.776 123.452 670.008 114.856 661.512C116.495 667.907 114.351 676.718 114.351 676.718C118.94 682.029 125.674 686.673 129.825 689.322C130.071 689.429 130.293 689.558 130.451 689.72C130.508 689.777 130.555 689.837 130.592 689.903C130.698 690.093 130.684 690.26 130.689 690.311C130.714 690.667 130.571 690.904 130.337 691.002C130.09 691.103 129.804 690.991 129.343 690.811C129.343 690.811 129.114 690.723 128.831 690.556C128.828 690.554 128.823 690.552 128.82 690.547C128.68 690.456 128.548 690.368 128.427 690.284C127.602 689.728 127.144 689.403 127.144 689.403C124.345 687.419 120.859 684.752 117.018 681.293C111.674 681.955 107.038 680.45 104.344 679.25C110.501 686.602 117.444 691.91 120.172 691.811C120.578 691.796 123.238 691.576 123.709 692.898C123.833 693.243 123.764 693.597 123.755 693.701C123.637 695.215 122.494 695.951 121.424 695.29C114.8 691.205 109.75 686.637 106.354 683.187ZM113.942 660.598L113.942 660.595C112.637 659.294 110.828 657.63 108.528 655.905C106.946 654.717 105.541 653.675 103.525 652.724C101.469 651.756 96.2918 649.293 94.1672 651.566C93.0392 652.771 93.1464 654.834 93.2502 656.476C93.4573 659.841 94.556 663.379 96.2048 666.863C101.412 672.41 108.51 672.358 110.263 672.251C109.047 670.219 107.828 668.094 106.613 665.879C105.313 663.505 104.1 661.169 102.968 658.879C102.921 658.788 102.875 658.698 102.83 658.605C102.83 658.605 102.545 658.028 102.461 657.357C102.438 657.173 102.429 656.979 102.429 656.979C102.423 656.824 102.424 656.691 102.429 656.584C102.436 656.497 102.46 656.287 102.588 656.13C102.782 655.895 103.121 655.888 103.268 656.086C103.269 656.087 103.269 656.087 103.269 656.087C103.411 656.262 104.245 657.212 104.385 658.076C104.387 658.099 104.391 658.121 104.394 658.145C104.467 658.63 104.599 659.329 104.847 660.138C104.847 660.138 104.932 660.405 105.025 660.68C107.139 666.922 110.44 672.096 113.953 676.254C115.345 667.242 114.553 662.591 113.942 660.598ZM116.551 680.772C116.129 680.296 115.732 679.832 115.358 679.385C112.705 676.214 111.265 673.888 111.265 673.888C111.056 673.55 110.842 673.202 110.625 672.844C104.529 673.02 99.5835 670.38 97.1759 668.789C98.8123 671.857 100.834 674.849 103.005 677.605L103.006 677.606C108.201 681.475 114.236 681.103 116.551 680.772Z" fill="white"/>
<path d="M184.244 792.26C173.34 788.883 166.212 785.122 160.53 780.426C155.699 776.437 152.42 772.595 150.702 768.902C150.092 767.593 148.919 764.955 149.25 762.323C149.25 762.323 149.496 760.374 150.913 758.827C153.301 756.216 160.607 755.294 170.607 756.792C175.079 757.285 179.698 758.531 183.203 759.654C186.703 760.774 189.086 761.773 189.086 761.773C189.086 761.773 208.993 770.107 212.01 777.043C212.023 777.078 212.038 777.118 212.038 777.118C212.177 777.564 211.888 778.033 211.412 778.37C210.734 778.851 210.017 778.876 209.675 778.831C206.242 778.388 203.201 773.802 203.201 773.802C201.162 770.725 195.762 766.565 180.642 762.105C186.47 768.442 189.443 779.891 189.443 779.891C197.994 783.164 208.598 784.345 215.003 784.829C215.352 784.801 215.687 784.811 215.968 784.9C216.068 784.931 216.16 784.97 216.243 785.024C216.482 785.176 216.569 785.377 216.606 785.432C216.854 785.826 216.836 786.186 216.628 786.444C216.407 786.713 216.009 786.76 215.367 786.838C215.367 786.838 215.051 786.878 214.622 786.86C214.617 786.86 214.61 786.86 214.604 786.857C214.386 786.839 214.181 786.819 213.99 786.797C212.699 786.667 211.972 786.577 211.972 786.577C207.531 786.024 201.88 785.109 195.331 783.504C189.597 787.561 183.341 788.693 179.504 788.975C191.116 793.626 202.371 795.442 205.445 793.645C205.902 793.378 208.824 791.484 210.18 792.712C210.535 793.032 210.676 793.482 210.729 793.606C211.528 795.42 210.667 796.97 209.031 796.871C198.898 796.263 190.275 794.129 184.244 792.26ZM179.028 761.618L179.026 761.614C176.723 760.924 173.618 760.128 169.91 759.564C167.358 759.175 165.101 758.844 162.198 758.996C159.237 759.152 151.768 759.515 150.728 763.438C150.176 765.519 151.572 767.824 152.704 769.647C155.018 773.387 158.463 776.774 162.508 779.761C171.915 782.923 180.04 778.483 181.989 777.279C179.337 775.695 176.625 774.004 173.863 772.208C170.904 770.282 168.069 768.346 165.354 766.413C165.244 766.337 165.136 766.262 165.028 766.183C165.028 766.183 164.344 765.696 163.833 764.976C163.693 764.78 163.563 764.561 163.563 764.561C163.46 764.387 163.38 764.234 163.319 764.108C163.274 764.004 163.172 763.748 163.222 763.488C163.299 763.098 163.685 762.881 163.977 763.018C163.978 763.018 163.978 763.018 163.978 763.018C164.25 763.132 165.793 763.709 166.487 764.616C166.504 764.641 166.522 764.663 166.541 764.689C166.924 765.201 167.506 765.924 168.291 766.7C168.291 766.7 168.553 766.955 168.83 767.213C175.111 773.083 182.096 776.992 188.7 779.603C184.738 768.388 180.96 763.531 179.028 761.618ZM194.473 783.193C193.694 782.906 192.951 782.618 192.246 782.335C187.24 780.327 184.151 778.543 184.151 778.543C183.702 778.284 183.241 778.016 182.77 777.738C175.873 781.701 168.561 781.719 164.812 781.376C168.586 783.892 172.756 786.083 176.951 787.911L176.953 787.911C185.31 789.153 192.016 785.001 194.473 783.193Z" fill="white" fill-opacity="0.2"/>
<path d="M55.5898 752.251C57.1667 740.945 59.7311 733.305 63.4512 726.941C66.6105 721.531 69.8749 717.676 73.2425 715.386C74.4364 714.573 76.8517 712.991 79.5023 712.894C79.5023 712.894 81.465 712.823 83.2203 713.972C86.182 715.909 88.268 722.971 88.3998 733.082C88.6329 737.575 88.1472 742.334 87.6024 745.974C87.0605 749.609 86.4591 752.122 86.4591 752.122C86.4591 752.122 81.4378 773.111 75.0789 777.205C75.0457 777.224 75.0095 777.245 75.0095 777.245C74.5914 777.453 74.0818 777.244 73.6722 776.829C73.0888 776.237 72.9488 775.533 72.9377 775.189C72.8223 771.729 76.8587 767.989 76.8587 767.989C79.5672 765.481 82.8044 759.482 84.7717 743.841C79.4552 750.614 68.6344 755.39 68.6344 755.39C66.7811 764.357 67.3222 775.013 67.8756 781.413C67.96 781.752 68.0036 782.084 67.9617 782.376C67.9471 782.48 67.9227 782.577 67.8836 782.668C67.7714 782.928 67.5869 783.046 67.539 783.092C67.1898 783.4 66.8314 783.441 66.5439 783.276C66.2428 783.101 66.1323 782.716 65.9522 782.095C65.9522 782.095 65.8611 781.789 65.8097 781.364C65.8089 781.359 65.8078 781.352 65.8101 781.345C65.7931 781.127 65.7797 780.921 65.7702 780.73C65.6905 779.434 65.6631 778.702 65.6631 778.702C65.4936 774.23 65.4868 768.505 66.0169 761.784C61.0893 756.778 58.9649 750.786 58.0687 747.044C55.3484 759.253 55.368 770.654 57.6358 773.398C57.9736 773.807 60.3133 776.385 59.3192 777.922C59.0606 778.324 58.6394 778.534 58.5252 778.607C56.864 779.688 55.195 779.088 55.0297 777.457C53.9981 767.358 54.7161 758.504 55.5898 752.251ZM84.9925 742.169L84.9956 742.167C85.3058 739.783 85.592 736.59 85.5514 732.84C85.5243 730.259 85.4875 727.978 84.8705 725.137C84.2395 722.24 82.6785 714.926 78.6394 714.532C76.4965 714.322 74.4464 716.071 72.8302 717.481C69.5116 720.368 66.7227 724.314 64.4262 728.786C62.8199 738.58 68.5098 745.884 70.0122 747.613C71.1491 744.741 72.3806 741.792 73.7084 738.777C75.1331 735.546 76.5873 732.437 78.0584 729.447C78.1152 729.326 78.1722 729.207 78.2325 729.087C78.2325 729.087 78.6028 728.334 79.2316 727.713C79.4028 727.544 79.5974 727.38 79.5974 727.38C79.7526 727.251 79.8911 727.147 80.0059 727.067C80.1012 727.005 80.337 726.863 80.6016 726.871C80.9995 726.885 81.2758 727.23 81.1869 727.54C81.1871 727.542 81.1871 727.542 81.1871 727.542C81.1185 727.828 80.7979 729.444 80.0146 730.275C79.992 730.296 79.9731 730.318 79.9508 730.34C79.5069 730.8 78.8876 731.492 78.2477 732.391C78.2477 732.391 78.0383 732.69 77.828 733.006C73.0465 740.149 70.3123 747.673 68.7992 754.611C79.2298 748.896 83.415 744.384 84.9925 742.169ZM66.1856 760.887C66.3432 760.072 66.508 759.292 66.6736 758.55C67.8494 753.287 69.113 749.951 69.113 749.951C69.2966 749.466 69.4868 748.968 69.6855 748.458C64.6629 742.29 63.4685 735.076 63.2035 731.321C61.328 735.45 59.8362 739.918 58.7075 744.353L58.7078 744.355C58.8278 752.803 64.0053 758.753 66.1856 760.887Z" fill="white" fill-opacity="0.2"/>
<path d="M134.244 946.26C123.34 942.883 116.212 939.122 110.53 934.426C105.699 930.437 102.42 926.595 100.702 922.902C100.092 921.593 98.919 918.955 99.2504 916.323C99.2504 916.323 99.4963 914.374 100.913 912.827C103.301 910.216 110.607 909.294 120.607 910.792C125.079 911.285 129.698 912.531 133.203 913.654C136.703 914.774 139.086 915.773 139.086 915.773C139.086 915.773 158.993 924.107 162.01 931.043C162.023 931.078 162.038 931.118 162.038 931.118C162.177 931.564 161.888 932.033 161.412 932.37C160.734 932.851 160.017 932.876 159.675 932.831C156.242 932.388 153.201 927.802 153.201 927.802C151.162 924.725 145.762 920.565 130.642 916.105C136.47 922.442 139.443 933.891 139.443 933.891C147.994 937.164 158.598 938.345 165.003 938.829C165.352 938.801 165.687 938.811 165.968 938.9C166.068 938.931 166.16 938.97 166.243 939.024C166.482 939.176 166.569 939.377 166.606 939.432C166.854 939.826 166.836 940.186 166.628 940.444C166.407 940.713 166.009 940.76 165.367 940.838C165.367 940.838 165.051 940.878 164.622 940.86C164.617 940.86 164.61 940.86 164.604 940.857C164.386 940.839 164.181 940.819 163.99 940.797C162.699 940.667 161.972 940.577 161.972 940.577C157.531 940.024 151.88 939.109 145.331 937.504C139.597 941.561 133.341 942.693 129.504 942.975C141.116 947.626 152.371 949.442 155.445 947.645C155.902 947.378 158.824 945.484 160.18 946.712C160.535 947.032 160.676 947.482 160.729 947.606C161.528 949.42 160.667 950.97 159.031 950.871C148.898 950.263 140.275 948.129 134.244 946.26ZM129.028 915.618L129.026 915.614C126.723 914.924 123.618 914.128 119.91 913.564C117.358 913.175 115.101 912.844 112.198 912.996C109.237 913.152 101.768 913.515 100.728 917.438C100.176 919.519 101.572 921.824 102.704 923.647C105.018 927.387 108.463 930.774 112.508 933.761C121.915 936.923 130.04 932.483 131.989 931.279C129.337 929.695 126.625 928.004 123.863 926.208C120.904 924.282 118.069 922.346 115.354 920.413C115.244 920.337 115.136 920.262 115.028 920.183C115.028 920.183 114.344 919.696 113.833 918.976C113.693 918.78 113.563 918.561 113.563 918.561C113.46 918.387 113.38 918.234 113.319 918.108C113.274 918.004 113.172 917.748 113.222 917.488C113.299 917.098 113.685 916.881 113.977 917.018C113.978 917.018 113.978 917.018 113.978 917.018C114.25 917.132 115.793 917.709 116.487 918.616C116.504 918.641 116.522 918.663 116.541 918.689C116.924 919.201 117.506 919.924 118.291 920.7C118.291 920.7 118.553 920.955 118.83 921.213C125.111 927.083 132.096 930.992 138.7 933.603C134.738 922.388 130.96 917.531 129.028 915.618ZM144.473 937.193C143.694 936.906 142.951 936.618 142.246 936.335C137.24 934.327 134.151 932.543 134.151 932.543C133.702 932.284 133.241 932.016 132.77 931.738C125.873 935.701 118.561 935.719 114.812 935.376C118.586 937.892 122.756 940.083 126.951 941.911L126.953 941.911C135.31 943.153 142.016 939.001 144.473 937.193Z" fill="white" fill-opacity="0.2"/>
<path d="M248.244 751.26C237.34 747.883 230.212 744.122 224.53 739.426C219.699 735.437 216.42 731.595 214.702 727.902C214.092 726.593 212.919 723.955 213.25 721.323C213.25 721.323 213.496 719.374 214.913 717.827C217.301 715.216 224.607 714.294 234.607 715.792C239.079 716.285 243.698 717.531 247.203 718.654C250.703 719.774 253.086 720.773 253.086 720.773C253.086 720.773 272.993 729.107 276.01 736.043C276.023 736.078 276.038 736.118 276.038 736.118C276.177 736.564 275.888 737.033 275.412 737.37C274.734 737.851 274.017 737.876 273.675 737.831C270.242 737.388 267.201 732.802 267.201 732.802C265.162 729.725 259.762 725.565 244.642 721.105C250.47 727.442 253.443 738.891 253.443 738.891C261.994 742.164 272.598 743.345 279.003 743.829C279.352 743.801 279.687 743.811 279.968 743.9C280.068 743.931 280.16 743.97 280.243 744.024C280.482 744.176 280.569 744.377 280.606 744.432C280.854 744.826 280.836 745.186 280.628 745.444C280.407 745.713 280.009 745.76 279.367 745.838C279.367 745.838 279.051 745.878 278.622 745.86C278.617 745.86 278.61 745.86 278.604 745.857C278.386 745.839 278.181 745.819 277.99 745.797C276.699 745.667 275.972 745.577 275.972 745.577C271.531 745.024 265.88 744.109 259.331 742.504C253.597 746.561 247.341 747.693 243.504 747.975C255.116 752.626 266.371 754.442 269.445 752.645C269.902 752.378 272.824 750.484 274.18 751.712C274.535 752.032 274.676 752.482 274.729 752.606C275.528 754.42 274.667 755.97 273.031 755.871C262.898 755.263 254.275 753.129 248.244 751.26ZM243.028 720.618L243.026 720.614C240.723 719.924 237.618 719.128 233.91 718.564C231.358 718.175 229.101 717.844 226.198 717.996C223.237 718.152 215.768 718.515 214.728 722.438C214.176 724.519 215.572 726.824 216.704 728.647C219.018 732.387 222.463 735.774 226.508 738.761C235.915 741.923 244.04 737.483 245.989 736.279C243.337 734.695 240.625 733.004 237.863 731.208C234.904 729.282 232.069 727.346 229.354 725.413C229.244 725.337 229.136 725.262 229.028 725.183C229.028 725.183 228.344 724.696 227.833 723.976C227.693 723.78 227.563 723.561 227.563 723.561C227.46 723.387 227.38 723.234 227.319 723.108C227.274 723.004 227.172 722.748 227.222 722.488C227.299 722.098 227.685 721.881 227.977 722.018C227.978 722.018 227.978 722.018 227.978 722.018C228.25 722.132 229.793 722.709 230.487 723.616C230.504 723.641 230.522 723.663 230.541 723.689C230.924 724.201 231.506 724.924 232.291 725.7C232.291 725.7 232.553 725.955 232.83 726.213C239.111 732.083 246.096 735.992 252.7 738.603C248.738 727.388 244.96 722.531 243.028 720.618ZM258.473 742.193C257.694 741.906 256.951 741.618 256.246 741.335C251.24 739.327 248.151 737.543 248.151 737.543C247.702 737.284 247.241 737.016 246.77 736.738C239.873 740.701 232.561 740.719 228.812 740.376C232.586 742.892 236.756 745.083 240.951 746.911L240.953 746.911C249.31 748.153 256.016 744.001 258.473 742.193Z" fill="white"/>
<path d="M148.244 1029.26C137.34 1025.88 130.212 1022.12 124.53 1017.43C119.699 1013.44 116.42 1009.59 114.702 1005.9C114.092 1004.59 112.919 1001.95 113.25 999.323C113.25 999.323 113.496 997.374 114.913 995.827C117.301 993.216 124.607 992.294 134.607 993.792C139.079 994.285 143.698 995.531 147.203 996.654C150.703 997.774 153.086 998.773 153.086 998.773C153.086 998.773 172.993 1007.11 176.01 1014.04C176.023 1014.08 176.038 1014.12 176.038 1014.12C176.177 1014.56 175.888 1015.03 175.412 1015.37C174.734 1015.85 174.017 1015.88 173.675 1015.83C170.242 1015.39 167.201 1010.8 167.201 1010.8C165.162 1007.73 159.762 1003.56 144.642 999.105C150.47 1005.44 153.443 1016.89 153.443 1016.89C161.994 1020.16 172.598 1021.35 179.003 1021.83C179.352 1021.8 179.687 1021.81 179.968 1021.9C180.068 1021.93 180.16 1021.97 180.243 1022.02C180.482 1022.18 180.569 1022.38 180.606 1022.43C180.854 1022.83 180.836 1023.19 180.628 1023.44C180.407 1023.71 180.009 1023.76 179.367 1023.84C179.367 1023.84 179.051 1023.88 178.622 1023.86C178.617 1023.86 178.61 1023.86 178.604 1023.86C178.386 1023.84 178.181 1023.82 177.99 1023.8C176.699 1023.67 175.972 1023.58 175.972 1023.58C171.531 1023.02 165.88 1022.11 159.331 1020.5C153.597 1024.56 147.341 1025.69 143.504 1025.98C155.116 1030.63 166.371 1032.44 169.445 1030.65C169.902 1030.38 172.824 1028.48 174.18 1029.71C174.535 1030.03 174.676 1030.48 174.729 1030.61C175.528 1032.42 174.667 1033.97 173.031 1033.87C162.898 1033.26 154.275 1031.13 148.244 1029.26ZM143.028 998.618L143.026 998.614C140.723 997.924 137.618 997.128 133.91 996.564C131.358 996.175 129.101 995.844 126.198 995.996C123.237 996.152 115.768 996.515 114.728 1000.44C114.176 1002.52 115.572 1004.82 116.704 1006.65C119.018 1010.39 122.463 1013.77 126.508 1016.76C135.915 1019.92 144.04 1015.48 145.989 1014.28C143.337 1012.69 140.625 1011 137.863 1009.21C134.904 1007.28 132.069 1005.35 129.354 1003.41C129.244 1003.34 129.136 1003.26 129.028 1003.18C129.028 1003.18 128.344 1002.7 127.833 1001.98C127.693 1001.78 127.563 1001.56 127.563 1001.56C127.46 1001.39 127.38 1001.23 127.319 1001.11C127.274 1001 127.172 1000.75 127.222 1000.49C127.299 1000.1 127.685 999.881 127.977 1000.02C127.978 1000.02 127.978 1000.02 127.978 1000.02C128.25 1000.13 129.793 1000.71 130.487 1001.62C130.504 1001.64 130.522 1001.66 130.541 1001.69C130.924 1002.2 131.506 1002.92 132.291 1003.7C132.291 1003.7 132.553 1003.96 132.83 1004.21C139.111 1010.08 146.096 1013.99 152.7 1016.6C148.738 1005.39 144.96 1000.53 143.028 998.618ZM158.473 1020.19C157.694 1019.91 156.951 1019.62 156.246 1019.33C151.24 1017.33 148.151 1015.54 148.151 1015.54C147.702 1015.28 147.241 1015.02 146.77 1014.74C139.873 1018.7 132.561 1018.72 128.812 1018.38C132.586 1020.89 136.756 1023.08 140.951 1024.91L140.953 1024.91C149.31 1026.15 156.016 1022 158.473 1020.19Z" fill="white"/>
<path d="M137.244 62.2598C126.34 58.8834 119.212 55.1224 113.53 50.4263C108.699 46.4371 105.42 42.5947 103.702 38.9023C103.092 37.5931 101.919 34.9546 102.25 32.3231C102.25 32.3231 102.496 30.3745 103.913 28.827C106.301 26.2159 113.607 25.2941 123.607 26.7918C128.079 27.2851 132.698 28.5307 136.203 29.6543C139.703 30.7745 142.086 31.7726 142.086 31.7726C142.086 31.7726 161.993 40.1075 165.01 47.0426C165.023 47.0784 165.038 47.1176 165.038 47.1176C165.177 47.5638 164.888 48.0331 164.412 48.3703C163.734 48.851 163.017 48.8757 162.675 48.8313C159.242 48.3881 156.201 43.8024 156.201 43.8024C154.162 40.7253 148.762 36.5646 133.642 32.1047C139.47 38.4423 142.443 49.891 142.443 49.891C150.994 53.1637 161.598 54.3453 168.003 54.8294C168.352 54.8008 168.687 54.8112 168.968 54.8995C169.068 54.9307 169.16 54.9703 169.243 55.0235C169.482 55.1762 169.569 55.3773 169.606 55.432C169.854 55.8261 169.836 56.1864 169.628 56.4436C169.407 56.7127 169.009 56.7597 168.367 56.8376C168.367 56.8376 168.051 56.8783 167.622 56.8605C167.617 56.8605 167.61 56.8604 167.604 56.857C167.386 56.8387 167.181 56.8188 166.99 56.7973C165.699 56.6675 164.972 56.5766 164.972 56.5766C160.531 56.0239 154.88 55.109 148.331 53.5037C142.597 57.561 136.341 58.6929 132.504 58.9751C144.116 63.6256 155.371 65.4416 158.445 63.6454C158.902 63.3777 161.824 61.4836 163.18 62.7121C163.535 63.0321 163.676 63.4817 163.729 63.6061C164.528 65.4197 163.667 66.9703 162.031 66.8707C151.898 66.2631 143.275 64.1291 137.244 62.2598ZM132.028 31.6176L132.026 31.6142C129.723 30.9243 126.618 30.1277 122.91 29.564C120.358 29.1753 118.101 28.8443 115.198 28.9959C112.237 29.1522 104.768 29.5154 103.728 33.4384C103.176 35.5195 104.572 37.8244 105.704 39.6466C108.018 43.3866 111.463 46.7744 115.508 49.761C124.915 52.9231 133.04 48.4834 134.989 47.2791C132.337 45.6946 129.625 44.0043 126.863 42.2084C123.904 40.2821 121.069 38.3463 118.354 36.4129C118.244 36.3375 118.136 36.2621 118.028 36.1832C118.028 36.1832 117.344 35.6965 116.833 34.9761C116.693 34.7797 116.563 34.5614 116.563 34.5614C116.46 34.3874 116.38 34.2339 116.319 34.1077C116.274 34.0038 116.172 33.7482 116.222 33.4884C116.299 33.0978 116.685 32.8807 116.977 33.0184C116.978 33.0184 116.978 33.0184 116.978 33.0184C117.25 33.1322 118.793 33.7089 119.487 34.6157C119.504 34.6413 119.522 34.6635 119.541 34.6891C119.924 35.2013 120.506 35.9238 121.291 36.7002C121.291 36.7002 121.553 36.955 121.83 37.2133C128.111 43.0826 135.096 46.9924 141.7 49.6028C137.738 38.3881 133.96 33.5312 132.028 31.6176ZM147.473 53.1927C146.694 52.906 145.951 52.6178 145.246 52.3349C140.24 50.3271 137.151 48.5428 137.151 48.5428C136.702 48.2835 136.241 48.0157 135.77 47.7375C128.873 51.7015 121.561 51.7188 117.812 51.3758C121.586 53.8917 125.756 56.0834 129.951 57.9114L129.953 57.9114C138.31 59.1531 145.016 55.001 147.473 53.1927Z" fill="white"/>
<path d="M259.259 819.992C252.992 818.037 248.895 815.86 245.629 813.141C242.852 810.832 240.967 808.607 239.98 806.47C239.63 805.712 238.955 804.184 239.146 802.661C239.146 802.661 239.287 801.533 240.102 800.637C241.474 799.125 245.674 798.591 251.422 799.458C253.992 799.743 256.647 800.464 258.662 801.115C260.674 801.763 262.044 802.341 262.044 802.341C262.044 802.341 273.486 807.166 275.22 811.181C275.227 811.202 275.236 811.224 275.236 811.224C275.316 811.483 275.15 811.754 274.876 811.95C274.487 812.228 274.074 812.242 273.878 812.217C271.904 811.96 270.157 809.305 270.157 809.305C268.984 807.524 265.881 805.115 257.19 802.534C260.54 806.203 262.248 812.831 262.248 812.831C267.163 814.725 273.258 815.409 276.94 815.689C277.14 815.673 277.333 815.679 277.495 815.73C277.552 815.748 277.605 815.771 277.653 815.801C277.79 815.89 277.84 816.006 277.862 816.038C278.004 816.266 277.994 816.475 277.874 816.624C277.747 816.779 277.518 816.807 277.149 816.852C277.149 816.852 276.967 816.875 276.721 816.865C276.718 816.865 276.714 816.865 276.71 816.863C276.585 816.852 276.467 816.841 276.358 816.828C275.616 816.753 275.198 816.701 275.198 816.701C272.645 816.381 269.397 815.851 265.633 814.922C262.337 817.271 258.741 817.927 256.535 818.09C263.21 820.782 269.679 821.833 271.446 820.793C271.709 820.638 273.388 819.542 274.168 820.253C274.372 820.438 274.452 820.698 274.483 820.771C274.942 821.82 274.448 822.718 273.507 822.661C267.682 822.309 262.726 821.074 259.259 819.992ZM256.262 802.252L256.261 802.25C254.937 801.85 253.152 801.389 251.021 801.063C249.554 800.838 248.257 800.646 246.588 800.734C244.886 800.825 240.593 801.035 239.995 803.306C239.678 804.511 240.48 805.846 241.131 806.901C242.461 809.066 244.441 811.027 246.766 812.756C252.173 814.587 256.844 812.016 257.964 811.319C256.44 810.401 254.881 809.423 253.293 808.383C251.592 807.268 249.962 806.147 248.402 805.028C248.339 804.984 248.277 804.941 248.215 804.895C248.215 804.895 247.821 804.613 247.528 804.196C247.447 804.083 247.373 803.956 247.373 803.956C247.314 803.856 247.267 803.767 247.232 803.694C247.206 803.633 247.148 803.485 247.177 803.335C247.221 803.109 247.443 802.983 247.61 803.063C247.611 803.063 247.611 803.063 247.611 803.063C247.767 803.129 248.655 803.463 249.053 803.988C249.063 804.002 249.074 804.015 249.084 804.03C249.304 804.327 249.639 804.745 250.09 805.194C250.09 805.194 250.241 805.342 250.4 805.491C254.01 808.889 258.025 811.153 261.821 812.664C259.544 806.171 257.372 803.359 256.262 802.252ZM265.139 814.742C264.692 814.576 264.265 814.409 263.859 814.245C260.982 813.083 259.206 812.05 259.206 812.05C258.948 811.9 258.683 811.745 258.413 811.584C254.448 813.879 250.245 813.889 248.09 813.691C250.259 815.147 252.656 816.416 255.068 817.474L255.069 817.474C259.873 818.193 263.727 815.789 265.139 814.742Z" fill="white"/>
<path d="M250.143 945.81C242.673 943.499 237.791 940.926 233.898 937.713C230.589 934.983 228.342 932.354 227.165 929.828C226.748 928.932 225.944 927.127 226.171 925.326C226.171 925.326 226.34 923.993 227.31 922.934C228.946 921.148 233.951 920.517 240.801 921.542C243.865 921.879 247.029 922.732 249.43 923.5C251.828 924.267 253.46 924.95 253.46 924.95C253.46 924.95 267.097 930.653 269.164 935.398C269.173 935.422 269.183 935.449 269.183 935.449C269.278 935.754 269.081 936.076 268.755 936.306C268.29 936.635 267.799 936.652 267.565 936.622C265.213 936.318 263.13 933.181 263.13 933.181C261.733 931.075 258.034 928.229 247.675 925.177C251.668 929.513 253.704 937.347 253.704 937.347C259.563 939.586 266.827 940.394 271.214 940.726C271.453 940.706 271.683 940.713 271.876 940.774C271.944 940.795 272.007 940.822 272.064 940.859C272.227 940.963 272.287 941.101 272.313 941.138C272.482 941.408 272.47 941.654 272.327 941.83C272.176 942.014 271.903 942.046 271.464 942.1C271.464 942.1 271.247 942.128 270.954 942.115C270.95 942.115 270.946 942.115 270.941 942.113C270.792 942.1 270.651 942.087 270.521 942.072C269.636 941.983 269.138 941.921 269.138 941.921C266.096 941.543 262.224 940.917 257.739 939.819C253.81 942.595 249.525 943.369 246.896 943.562C254.851 946.744 262.561 947.987 264.667 946.758C264.98 946.574 266.981 945.279 267.911 946.119C268.154 946.338 268.25 946.646 268.287 946.731C268.834 947.972 268.244 949.033 267.123 948.964C260.182 948.549 254.275 947.088 250.143 945.81ZM246.57 924.844L246.569 924.841C244.991 924.369 242.864 923.824 240.323 923.439C238.576 923.173 237.029 922.946 235.04 923.05C233.012 923.157 227.896 923.405 227.184 926.089C226.805 927.513 227.761 929.09 228.537 930.337C230.122 932.896 232.483 935.214 235.253 937.258C241.698 939.421 247.264 936.384 248.598 935.56C246.782 934.475 244.924 933.319 243.032 932.09C241.004 930.772 239.062 929.448 237.203 928.125C237.128 928.073 237.053 928.021 236.979 927.968C236.979 927.968 236.511 927.634 236.161 927.142C236.065 927.007 235.976 926.858 235.976 926.858C235.905 926.739 235.85 926.634 235.809 926.547C235.778 926.476 235.708 926.301 235.743 926.124C235.795 925.856 236.059 925.708 236.259 925.802C236.26 925.802 236.26 925.802 236.26 925.802C236.446 925.88 237.504 926.275 237.979 926.895C237.99 926.913 238.003 926.928 238.016 926.945C238.278 927.296 238.677 927.79 239.215 928.321C239.215 928.321 239.394 928.496 239.584 928.672C243.886 932.688 248.672 935.363 253.195 937.149C250.482 929.476 247.893 926.153 246.57 924.844ZM257.151 939.606C256.617 939.41 256.108 939.212 255.625 939.019C252.196 937.645 250.08 936.424 250.08 936.424C249.772 936.247 249.456 936.064 249.134 935.873C244.409 938.585 239.4 938.597 236.832 938.362C239.417 940.084 242.273 941.583 245.147 942.834L245.149 942.834C250.874 943.684 255.467 940.843 257.151 939.606Z" fill="white" fill-opacity="0.2"/>
<path d="M220.143 1061.81C212.673 1059.5 207.791 1056.93 203.898 1053.71C200.589 1050.98 198.342 1048.35 197.165 1045.83C196.748 1044.93 195.944 1043.13 196.171 1041.33C196.171 1041.33 196.34 1039.99 197.31 1038.93C198.946 1037.15 203.951 1036.52 210.801 1037.54C213.865 1037.88 217.029 1038.73 219.43 1039.5C221.828 1040.27 223.46 1040.95 223.46 1040.95C223.46 1040.95 237.097 1046.65 239.164 1051.4C239.173 1051.42 239.183 1051.45 239.183 1051.45C239.278 1051.75 239.081 1052.08 238.755 1052.31C238.29 1052.64 237.799 1052.65 237.565 1052.62C235.213 1052.32 233.13 1049.18 233.13 1049.18C231.733 1047.08 228.034 1044.23 217.675 1041.18C221.668 1045.51 223.704 1053.35 223.704 1053.35C229.563 1055.59 236.827 1056.39 241.214 1056.73C241.453 1056.71 241.683 1056.71 241.876 1056.77C241.944 1056.8 242.007 1056.82 242.064 1056.86C242.227 1056.96 242.287 1057.1 242.313 1057.14C242.482 1057.41 242.47 1057.65 242.327 1057.83C242.176 1058.01 241.903 1058.05 241.464 1058.1C241.464 1058.1 241.247 1058.13 240.954 1058.12C240.95 1058.12 240.946 1058.12 240.941 1058.11C240.792 1058.1 240.651 1058.09 240.521 1058.07C239.636 1057.98 239.138 1057.92 239.138 1057.92C236.096 1057.54 232.224 1056.92 227.739 1055.82C223.81 1058.59 219.525 1059.37 216.896 1059.56C224.851 1062.74 232.561 1063.99 234.667 1062.76C234.98 1062.57 236.981 1061.28 237.911 1062.12C238.154 1062.34 238.25 1062.65 238.287 1062.73C238.834 1063.97 238.244 1065.03 237.123 1064.96C230.182 1064.55 224.275 1063.09 220.143 1061.81ZM216.57 1040.84L216.569 1040.84C214.991 1040.37 212.864 1039.82 210.323 1039.44C208.576 1039.17 207.029 1038.95 205.04 1039.05C203.012 1039.16 197.896 1039.41 197.184 1042.09C196.805 1043.51 197.761 1045.09 198.537 1046.34C200.122 1048.9 202.483 1051.21 205.253 1053.26C211.698 1055.42 217.264 1052.38 218.598 1051.56C216.782 1050.48 214.924 1049.32 213.032 1048.09C211.004 1046.77 209.062 1045.45 207.203 1044.12C207.128 1044.07 207.053 1044.02 206.979 1043.97C206.979 1043.97 206.511 1043.63 206.161 1043.14C206.065 1043.01 205.976 1042.86 205.976 1042.86C205.905 1042.74 205.85 1042.63 205.809 1042.55C205.778 1042.48 205.708 1042.3 205.743 1042.12C205.795 1041.86 206.059 1041.71 206.259 1041.8C206.26 1041.8 206.26 1041.8 206.26 1041.8C206.446 1041.88 207.504 1042.27 207.979 1042.9C207.99 1042.91 208.003 1042.93 208.016 1042.95C208.278 1043.3 208.677 1043.79 209.215 1044.32C209.215 1044.32 209.394 1044.5 209.584 1044.67C213.886 1048.69 218.672 1051.36 223.195 1053.15C220.482 1045.48 217.893 1042.15 216.57 1040.84ZM227.151 1055.61C226.617 1055.41 226.108 1055.21 225.625 1055.02C222.196 1053.65 220.08 1052.42 220.08 1052.42C219.772 1052.25 219.456 1052.06 219.134 1051.87C214.409 1054.59 209.4 1054.6 206.832 1054.36C209.417 1056.08 212.273 1057.58 215.147 1058.83L215.149 1058.83C220.874 1059.68 225.467 1056.84 227.151 1055.61Z" fill="white" fill-opacity="0.2"/>
<path d="M253.67 142.825C246.201 140.515 241.318 137.942 237.426 134.728C234.116 131.999 231.87 129.37 230.693 126.844C230.275 125.948 229.472 124.142 229.699 122.342C229.699 122.342 229.867 121.009 230.837 119.95C232.474 118.163 237.478 117.533 244.329 118.557C247.392 118.895 250.556 119.747 252.957 120.516C255.355 121.283 256.988 121.965 256.988 121.965C256.988 121.965 270.625 127.668 272.691 132.414C272.7 132.438 272.711 132.465 272.711 132.465C272.806 132.77 272.608 133.091 272.282 133.322C271.818 133.651 271.326 133.668 271.092 133.637C268.74 133.334 266.657 130.196 266.657 130.196C265.26 128.091 261.561 125.244 251.203 122.193C255.196 126.529 257.232 134.362 257.232 134.362C263.09 136.602 270.354 137.41 274.742 137.741C274.981 137.722 275.21 137.729 275.403 137.789C275.472 137.811 275.534 137.838 275.591 137.874C275.755 137.979 275.815 138.116 275.84 138.154C276.01 138.423 275.998 138.67 275.855 138.846C275.703 139.03 275.431 139.062 274.991 139.115C274.991 139.115 274.774 139.143 274.481 139.131C274.477 139.131 274.473 139.131 274.468 139.129C274.319 139.116 274.178 139.103 274.048 139.088C273.163 138.999 272.665 138.937 272.665 138.937C269.623 138.559 265.752 137.933 261.266 136.834C257.338 139.61 253.052 140.385 250.423 140.578C258.378 143.76 266.088 145.002 268.194 143.773C268.507 143.59 270.509 142.294 271.438 143.135C271.681 143.354 271.777 143.661 271.814 143.746C272.361 144.987 271.772 146.048 270.65 145.98C263.709 145.564 257.802 144.104 253.67 142.825ZM250.097 121.859L250.096 121.857C248.518 121.385 246.391 120.84 243.851 120.454C242.103 120.188 240.557 119.962 238.568 120.065C236.54 120.172 231.423 120.421 230.711 123.105C230.332 124.529 231.289 126.106 232.064 127.353C233.65 129.912 236.01 132.23 238.78 134.273C245.225 136.437 250.791 133.399 252.126 132.575C250.309 131.491 248.451 130.335 246.559 129.106C244.532 127.788 242.59 126.463 240.73 125.14C240.655 125.089 240.581 125.037 240.507 124.983C240.507 124.983 240.038 124.65 239.688 124.157C239.592 124.023 239.503 123.873 239.503 123.873C239.433 123.754 239.378 123.649 239.336 123.563C239.305 123.492 239.235 123.317 239.27 123.139C239.323 122.872 239.587 122.724 239.786 122.818C239.788 122.818 239.788 122.818 239.788 122.818C239.974 122.896 241.031 123.29 241.506 123.911C241.518 123.928 241.53 123.943 241.543 123.961C241.806 124.311 242.205 124.806 242.742 125.337C242.742 125.337 242.921 125.511 243.111 125.688C247.414 129.704 252.199 132.379 256.723 134.165C254.009 126.492 251.421 123.169 250.097 121.859ZM260.678 136.621C260.144 136.425 259.635 136.228 259.152 136.034C255.723 134.661 253.607 133.44 253.607 133.44C253.299 133.262 252.984 133.079 252.661 132.889C247.936 135.601 242.927 135.613 240.359 135.378C242.944 137.099 245.801 138.599 248.675 139.85L248.676 139.85C254.401 140.699 258.995 137.859 260.678 136.621Z" fill="white"/>
</svg>
