<svg width="197" height="90" viewBox="0 0 197 90" fill="none" xmlns="http://www.w3.org/2000/svg">
<path d="M66.8339 8.13236C66.7774 7.94849 66.6949 7.76251 66.6949 7.76251C66.6289 7.61458 66.5605 7.48988 66.5039 7.39055C66.4521 7.31236 66.3106 7.12849 66.056 7.0503C65.6647 6.93195 65.1744 7.11159 65.0589 7.37787V7.37999C64.9198 7.66318 63.9391 9.46592 64.644 10.2711C64.8302 10.4825 65.0801 10.5585 65.1508 10.5903C65.6411 10.81 66.089 10.7974 66.412 10.6135C66.7491 10.4212 66.8127 10.0704 66.9141 9.50607C66.9165 9.50819 67.0438 8.81076 66.8339 8.13236Z" fill="#2C4C3F"/>
<path d="M67.3996 41.2241C67.1355 41.3763 66.8314 41.4397 66.4896 41.4122C66.0535 41.3847 65.7353 40.7571 65.5326 39.5313C65.3298 38.3055 65.12 35.9765 64.9031 32.5486C64.7782 30.2915 64.6698 28.0809 64.5778 25.921C64.4835 23.7611 64.4222 22.0957 64.3916 20.9227C64.3916 20.6163 64.4458 20.3859 64.5543 20.2338C64.6627 20.0816 64.8725 20.0034 65.1837 20.0034C65.8979 20.0034 66.3506 20.2697 66.5368 20.7981C66.723 21.3285 66.8173 22.3451 66.8173 23.8498L66.7702 28.7846C66.7702 31.5997 66.8645 33.8589 67.0507 35.5581C67.0507 35.6426 67.1898 36.5345 67.4703 38.2337C67.6872 39.4045 67.7956 40.1843 67.7956 40.5753C67.7956 40.8543 67.6636 41.072 67.3996 41.2241Z" fill="#2C4C3F"/>
<path d="M90.484 32.5294C90.484 33.0303 90.0715 34.1335 89.2488 35.8326C88.4237 37.5339 87.1814 39.1084 85.5171 40.5582C83.8528 42.008 81.809 42.7329 79.3833 42.7329C77.3937 42.7329 75.7294 42.175 74.3928 41.0612C73.0562 39.9474 72.3867 38.2313 72.3867 35.9172C72.3867 33.7425 72.9478 31.5889 74.0651 29.4565C75.1849 27.3241 76.6464 25.5826 78.4498 24.23C80.2532 22.8775 82.1178 22.2012 84.0461 22.2012C85.1965 22.2012 86.1677 22.4315 86.9622 22.8901C87.7542 23.3509 88.1526 24.0124 88.1526 24.8767C88.1526 25.8531 87.5373 26.7999 86.3092 27.7214C85.081 28.6407 83.4874 29.4502 81.5285 30.1476C79.5695 30.845 77.5469 31.3459 75.4654 31.6523C75.0929 32.9352 74.9067 34.1884 74.9067 35.4163C74.9067 37.0331 75.3334 38.2884 76.1891 39.1803C77.0448 40.0721 78.2659 40.5181 79.8501 40.5181C82.2451 40.5181 84.1876 39.7509 85.6798 38.2187C87.172 36.6865 88.4166 34.9577 89.4114 33.0324C89.4727 32.9204 89.5812 32.7048 89.7367 32.3836C89.8923 32.0644 90.0314 31.9017 90.1564 31.9017C90.3732 31.9017 90.484 32.1109 90.484 32.5294ZM85.2837 24.2913C84.7698 24.0398 84.1711 23.9151 83.4874 23.9151C82.3064 23.9151 81.1702 24.2639 80.0834 24.9613C78.9943 25.6587 78.0844 26.4956 77.3536 27.4699C76.6229 28.4463 76.149 29.3107 75.9298 30.063C77.3607 29.9236 78.8694 29.5622 80.4535 28.9767C82.04 28.3913 83.3696 27.751 84.4422 27.0535C85.5147 26.3561 86.0522 25.7855 86.0522 25.3396C86.0522 24.8915 85.7953 24.5407 85.2837 24.2913Z" fill="#2C4C3F"/>
<path d="M112.967 26.3401C112.517 26.5916 111.699 26.786 110.518 26.9255C107.656 27.3714 106.055 27.6229 105.713 27.6779L102.682 28.1386C102.682 29.5884 102.706 31.1079 102.753 32.6972C102.8 34.2865 102.868 35.6814 102.962 36.8797C103.087 38.4964 103.304 39.737 103.615 40.6014C103.927 41.4657 104.096 41.9539 104.129 42.0659C104.129 42.3449 103.934 42.6028 103.547 42.8395C103.158 43.0762 102.793 43.1945 102.451 43.1945C102.265 43.1945 102.109 43.1459 101.984 43.0487C101.859 42.9515 101.751 42.7908 101.657 42.5668C101.47 42.1758 101.291 41.4531 101.119 40.3921C100.947 39.3333 100.815 38.1625 100.723 36.8797C100.629 35.7363 100.56 34.407 100.513 32.8853C100.466 31.3658 100.442 29.8948 100.442 28.4746C98.7004 28.7261 96.9135 29.0326 95.0795 29.394C93.4318 29.7004 92.4511 29.8547 92.1399 29.8547C91.7675 29.8547 91.4162 29.7575 91.0909 29.563C90.7656 29.3686 90.6006 29.1023 90.6006 28.7684C90.6006 28.407 90.7397 28.1703 91.0202 28.0583C91.3007 27.9463 91.7675 27.8913 92.4205 27.8913C92.8872 27.8913 93.5708 27.8153 94.4737 27.661C95.3742 27.5088 95.9494 27.4031 96.1993 27.3482C98.2832 26.9868 99.6976 26.7501 100.442 26.6381C100.442 26.0527 100.412 25.2855 100.348 24.3387C100.285 23.0559 100.254 22.0816 100.254 21.4116C100.254 20.3253 100.292 19.4821 100.369 18.8819C100.447 18.2838 100.596 17.747 100.813 17.2715C101.06 16.7135 101.527 16.4346 102.213 16.4346C102.493 16.4346 102.68 16.4768 102.772 16.5593C102.866 16.6438 102.911 16.796 102.911 17.02C102.911 17.1869 102.833 17.6751 102.677 18.4846C102.522 19.294 102.444 20.3655 102.444 21.7054C102.444 22.7367 102.475 23.8949 102.538 25.1756L102.585 26.3042C103.986 26.1097 106.751 25.5941 110.888 24.7572C111.135 24.7022 111.345 24.5057 111.517 24.1717C111.687 23.8378 111.866 23.6709 112.055 23.6709C112.397 23.6709 112.745 23.8463 113.104 24.1929C113.46 24.5416 113.641 24.8966 113.641 25.2601C113.644 25.7272 113.417 26.0907 112.967 26.3401Z" fill="#2C4C3F"/>
<path d="M139.813 30.3716C139.362 30.6231 138.544 30.8175 137.363 30.957C134.502 31.4029 132.901 31.6544 132.559 31.7094L129.528 32.1701C129.528 33.6199 129.551 35.1394 129.598 36.7287C129.646 38.318 129.714 39.7128 129.808 40.9111C129.933 42.5279 130.15 43.7685 130.461 44.6329C130.772 45.4972 130.942 45.9854 130.975 46.0974C130.975 46.3764 130.779 46.6342 130.393 46.8709C130.004 47.1077 129.638 47.226 129.297 47.226C129.11 47.226 128.955 47.1774 128.83 47.0802C128.705 46.983 128.597 46.8223 128.502 46.5983C128.316 46.2073 128.137 45.4846 127.965 44.4236C127.793 43.3648 127.661 42.194 127.569 40.9111C127.474 39.7678 127.406 38.4385 127.359 36.9168C127.312 35.3973 127.288 33.9263 127.288 32.5061C125.546 32.7576 123.759 33.0641 121.925 33.4255C120.277 33.7319 119.297 33.8862 118.986 33.8862C118.613 33.8862 118.262 33.789 117.937 33.5945C117.611 33.4001 117.446 33.1338 117.446 32.7999C117.446 32.4385 117.585 32.2018 117.866 32.0898C118.146 31.9778 118.613 31.9228 119.266 31.9228C119.733 31.9228 120.417 31.8468 121.319 31.6925C122.22 31.5403 122.795 31.4346 123.045 31.3797C125.129 31.0183 126.543 30.7816 127.288 30.6696C127.288 30.0842 127.258 29.317 127.194 28.3702C127.13 27.0874 127.1 26.1131 127.1 25.4431C127.1 24.3568 127.137 23.5136 127.215 22.9134C127.293 22.3153 127.441 21.7785 127.658 21.303C127.906 20.745 128.373 20.4661 129.059 20.4661C129.339 20.4661 129.525 20.5083 129.617 20.5908C129.712 20.6753 129.756 20.8275 129.756 21.0515C129.756 21.2184 129.679 21.7066 129.523 22.5161C129.367 23.3255 129.29 24.397 129.29 25.7369C129.29 26.7682 129.32 27.9264 129.384 29.2071L129.431 30.3357C130.831 30.1412 133.596 29.6256 137.734 28.7887C137.981 28.7337 138.191 28.5372 138.363 28.2032C138.533 27.8693 138.712 27.7024 138.9 27.7024C139.242 27.7024 139.591 27.8778 139.949 28.2244C140.305 28.5731 140.487 28.9281 140.487 29.2916C140.489 29.7587 140.263 30.1201 139.813 30.3716Z" fill="#2C4C3F"/>
<path d="M161.64 48.0376C161.39 48.2743 161.065 48.3927 160.659 48.3927C160.348 48.3927 160.084 48.3293 159.867 48.2046C159.65 48.0799 159.542 47.9045 159.542 47.6826L159.636 44.7978C159.792 41.3698 159.87 38.5674 159.87 36.3927C159.87 33.2142 159.62 30.9909 159.122 29.7228C158.625 28.4548 158.05 27.8208 157.397 27.8208C155.935 27.8208 154.101 29.8496 151.892 33.9053C149.684 37.9609 147.555 42.3885 145.502 47.1817C145.346 47.5727 145.136 47.9488 144.872 48.3102C144.608 48.6716 144.335 48.8534 144.057 48.8534C143.373 48.8534 143.031 48.659 143.031 48.268C143.031 46.5688 142.953 43.3818 142.798 38.7133C142.642 34.0448 142.517 30.9697 142.425 29.4925C142.145 24.5027 141.881 21.4214 141.633 20.2506C141.383 19.0797 141.261 18.452 141.261 18.3696C141.261 18.0907 141.43 17.8814 141.775 17.7419C142.116 17.6025 142.553 17.5327 143.081 17.5327C143.517 17.5327 143.835 18.4182 144.038 20.1872C144.24 21.9582 144.387 24.2216 144.481 26.9818L144.528 28.1526C144.589 29.017 144.636 31.4918 144.667 35.5749C144.698 39.6601 144.714 42.6632 144.714 44.5864C146.145 41.3804 147.489 38.5231 148.75 36.0144C150.009 33.5058 151.463 31.1578 153.111 28.9684C154.759 26.781 156.284 25.6862 157.682 25.6862C158.863 25.6862 159.858 26.5718 160.666 28.3407C161.475 30.1117 161.878 32.7514 161.878 36.2659C161.878 37.8278 161.909 40.0024 161.972 42.79L162.019 47.1817C162.012 47.5156 161.89 47.8009 161.64 48.0376Z" fill="#2C4C3F"/>
<path d="M184.518 36.5604C184.518 37.0613 184.106 38.1645 183.283 39.8636C182.458 41.5649 181.216 43.1394 179.551 44.5892C177.887 46.039 175.843 46.7639 173.417 46.7639C171.428 46.7639 169.764 46.206 168.427 45.0922C167.09 43.9784 166.421 42.2624 166.421 39.9482C166.421 37.7735 166.982 35.6199 168.099 33.4875C169.219 31.3551 170.681 29.6136 172.484 28.261C174.287 26.9085 176.152 26.2322 178.08 26.2322C179.231 26.2322 180.202 26.4625 180.996 26.9211C181.788 27.3819 182.187 28.0434 182.187 28.9077C182.187 29.8841 181.572 30.8309 180.343 31.7524C179.115 32.6717 177.522 33.4812 175.563 34.1786C173.604 34.876 171.581 35.3769 169.5 35.6833C169.127 36.9662 168.941 38.2194 168.941 39.4473C168.941 41.0641 169.368 42.3194 170.223 43.2113C171.079 44.1031 172.3 44.5491 173.884 44.5491C176.279 44.5491 178.222 43.7819 179.714 42.2497C181.206 40.7175 182.451 38.9887 183.446 37.0634C183.507 36.9514 183.615 36.7358 183.771 36.4146C183.927 36.0954 184.066 35.9327 184.191 35.9327C184.41 35.9327 184.518 36.1419 184.518 36.5604ZM179.318 28.3223C178.804 28.0708 178.205 27.9461 177.522 27.9461C176.341 27.9461 175.204 28.2949 174.118 28.9923C173.029 29.6897 172.119 30.5266 171.388 31.5009C170.657 32.4773 170.183 33.3417 169.964 34.094C171.395 33.9546 172.904 33.5932 174.488 33.0078C176.074 32.4223 177.404 31.782 178.476 31.0846C179.549 30.3871 180.086 29.8165 180.086 29.3706C180.089 28.9225 179.832 28.5738 179.318 28.3223Z" fill="#2C4C3F"/>
<path d="M59.3059 11.71C59.3059 12.268 59.2753 13.3627 59.2116 14.9922C59.148 16.6237 59.1173 18.2616 59.1173 19.9058C59.1173 23.0844 59.1951 26.3242 59.3507 29.6275C59.5063 32.9307 59.6312 35.0991 59.7232 36.1304C59.7232 36.2974 59.7397 36.4792 59.7703 36.6736C59.801 36.868 59.8316 37.0498 59.8646 37.2167C59.9895 37.9966 60.0508 38.4721 60.0508 38.6391C60.0508 38.918 59.8245 39.1822 59.3743 39.4337C58.924 39.6852 58.5728 39.8099 58.3253 39.8099C57.9834 39.8099 57.7571 39.6915 57.6487 39.4548C57.5403 39.2181 57.4861 38.8906 57.4861 38.4721C57.4861 36.9399 57.5332 35.3358 57.6251 33.6641L57.6723 31.3224C57.6723 30.5426 57.6558 29.5176 57.6251 28.2496C57.5945 26.9815 57.5473 25.9142 57.4861 25.0499C55.8996 29.6233 54.1033 33.4063 52.0995 36.4031C50.0934 39.3999 47.9247 40.8983 45.5933 40.8983C44.5348 40.8983 43.6414 40.4524 42.9106 39.5605C42.1798 38.6686 41.8145 37.3858 41.8145 35.7141C41.8145 33.5119 42.6466 31.1132 44.3109 28.5222C45.9728 25.929 47.8705 23.6994 50.0015 21.8311C52.1302 19.9629 53.7096 19.0288 54.735 19.0288C55.7298 19.0288 56.2272 19.3204 56.2272 19.9079C56.2272 20.2989 56.0787 20.7512 55.7841 21.2669C55.4894 21.7825 55.1617 22.2496 54.8058 22.6681C54.4474 23.0865 54.2376 23.2957 54.1763 23.2957C54.1127 23.2957 54.0443 23.2746 53.9665 23.2323C53.8888 23.1901 53.8487 23.1415 53.8487 23.0865C53.8487 22.947 53.9265 22.7103 54.0821 22.3764C54.2376 22.0425 54.3154 21.8185 54.3154 21.7065C54.3154 21.567 54.2989 21.4698 54.2683 21.4148C54.2376 21.3599 54.1433 21.3303 53.9878 21.3303C53.3348 21.3303 52.1608 22.1312 50.4659 23.7353C48.771 25.3394 47.2552 27.2415 45.9186 29.4436C44.582 31.6458 43.9125 33.6958 43.9125 35.5915C43.9125 36.2615 44.0681 36.887 44.3792 37.4725C44.6904 38.0579 45.202 38.3516 45.9186 38.3516C48.1887 38.3516 50.2962 36.6313 52.2386 33.1865C54.1811 29.7437 55.8689 25.8339 57.2998 21.4571L57.2055 17.9446C57.1112 14.8506 57.0664 13.2063 57.0664 13.0098C57.0664 11.3381 57.1442 10.1398 57.2998 9.41277C57.3611 9.1338 57.4318 8.93937 57.5096 8.82736C57.5874 8.71535 57.7501 8.6604 58 8.6604C58.3111 8.6604 58.6223 8.75128 58.9335 8.93303C59.2446 9.11478 59.4002 9.35782 59.4002 9.66427L59.3059 11.71Z" fill="#2C4C3F"/>
<path d="M34.3634 83.2606C34.0994 83.4127 33.7953 83.4762 33.4535 83.4487C33.0174 83.4212 32.6992 82.7935 32.4964 81.5677C32.2937 80.342 32.0839 78.013 31.867 74.5851C31.7421 72.3279 31.6336 70.1173 31.5417 67.9574C31.4474 65.7975 31.3861 64.1322 31.3555 62.9613C31.3555 62.6549 31.4097 62.4245 31.5181 62.2724C31.6266 62.1202 31.8364 62.042 32.1475 62.042C32.8618 62.042 33.3144 62.3083 33.5006 62.8366C33.6869 63.3671 33.7812 64.3836 33.7812 65.8884L33.734 70.8232C33.734 73.6404 33.8283 75.8975 34.0145 77.5967C34.0145 77.6812 34.1536 78.5731 34.4342 80.2722C34.651 81.4431 34.7595 82.2229 34.7595 82.6139C34.7595 82.8907 34.6275 83.1063 34.3634 83.2606Z" fill="#2C4C3F"/>
<path d="M74.836 56.1897C74.836 56.5257 74.7488 56.9632 74.579 57.5084C74.4069 58.0516 74.2136 58.3221 73.9944 58.3221C73.7775 58.3221 73.6149 58.2333 73.5064 58.0516C73.3956 57.8698 73.2966 57.6268 73.2023 57.3203C72.8605 56.3714 72.3396 55.5704 71.6394 54.9153C70.9393 54.2601 70.1849 53.9325 69.3787 53.9325C67.2006 53.9325 65.6376 55.2492 64.69 57.8846C63.7423 60.5179 63.2685 63.6056 63.2685 67.1456C64.1997 67.0906 65.2487 66.9575 66.4156 66.7482C67.5824 66.539 68.3509 66.408 68.7258 66.3509C70.9322 65.9346 72.3938 65.7253 73.1104 65.7253C73.7304 65.7253 74.0416 65.9747 74.0416 66.4777C74.0416 66.8687 73.9496 67.285 73.7634 67.731C73.5748 68.179 73.2966 68.4009 72.9218 68.4009C72.6107 68.4009 72.2995 68.346 71.9907 68.234C71.5546 68.067 70.9629 67.9825 70.218 67.9825C69.7206 67.9825 68.6928 68.1219 67.1393 68.4009L63.4076 68.9018C63.4076 69.5992 63.4995 71.5372 63.6881 74.7158C63.9969 79.621 64.1549 83.5392 64.1549 86.4663C64.1549 86.9947 64.0912 87.3645 63.9663 87.5737C63.8437 87.783 63.5938 87.8865 63.2214 87.8865C62.7853 87.8865 62.4576 87.6646 62.2407 87.2187C62.0238 86.7727 61.9154 86.2698 61.9154 85.7139C61.9154 82.5079 61.682 77.4759 61.2153 70.6179L61.121 69.278C61.0149 69.2907 54.3483 69.7746 47.2386 71.2688C47.2692 73.64 47.4036 75.5569 47.5168 76.8292C47.8609 80.7347 47.9835 84.6593 47.9835 88.5797C47.9835 89.1081 47.9199 89.4779 47.7949 89.6871C47.6724 89.8964 47.4225 89.9999 47.05 89.9999C46.6139 89.9999 46.2862 89.778 46.0694 89.3321C45.8525 88.8862 45.744 88.3832 45.744 87.8273C45.744 84.6213 45.5107 79.5893 45.0439 72.7313L44.9496 71.3914C44.7021 71.421 43.9006 71.5457 42.5475 71.7697C41.1967 71.9916 40.209 72.1036 39.5867 72.1036C39.2449 72.1036 38.9573 72.0339 38.7239 71.8944C38.4905 71.7549 38.375 71.5457 38.375 71.2667C38.375 70.5693 38.6532 70.2079 39.2142 70.1804C40.0228 70.1529 41.0011 70.0895 42.1515 69.9923C43.3018 69.8951 44.1882 69.7894 44.8105 69.6774C44.8105 65.1061 45.5036 61.3907 46.8874 58.5334C48.2688 55.6761 50.3291 54.2474 53.0659 54.2474C54.0607 54.2474 54.9872 54.4715 55.8429 54.9174C56.6962 55.3633 57.3799 55.9065 57.8938 56.5468C58.4077 57.1893 58.6646 57.7747 58.6646 58.3031C58.6646 58.6391 58.5774 59.0766 58.4077 59.6218C58.2356 60.165 58.0423 60.4355 57.8231 60.4355C57.6062 60.4355 57.4435 60.3467 57.3351 60.165C57.2243 59.9832 57.1253 59.7402 57.031 59.4337C56.6892 58.4848 56.1682 57.6838 55.4681 57.0287C54.7679 56.3735 54.0136 56.0459 53.2074 56.0459C51.0292 56.0459 49.4663 57.3626 48.5186 59.998C47.571 62.6313 47.0972 65.719 47.0972 69.259C47.5545 69.2125 59.3813 67.6126 60.9819 67.4774C60.9913 62.9462 61.682 59.2583 63.0587 56.42C64.4401 53.5627 66.5004 52.134 69.2373 52.134C70.2321 52.134 71.1585 52.3581 72.0142 52.804C72.8676 53.2499 73.5512 53.7931 74.0651 54.4334C74.579 55.0759 74.836 55.6613 74.836 56.1897Z" fill="#2C4C3F"/>
<path d="M96.6012 69.7474C96.6012 70.2483 96.1887 71.3515 95.366 73.0507C94.5409 74.7519 93.2986 76.3264 91.6343 77.7762C89.97 79.226 87.9262 79.9509 85.5005 79.9509C83.5109 79.9509 81.8466 79.393 80.51 78.2792C79.1734 77.1655 78.5039 75.4494 78.5039 73.1352C78.5039 70.9605 79.065 68.8069 80.1823 66.6745C81.3021 64.5421 82.7636 62.8006 84.567 61.4481C86.3704 60.0955 88.235 59.4192 90.1633 59.4192C91.3137 59.4192 92.2849 59.6496 93.0793 60.1103C93.8714 60.571 94.2698 61.2325 94.2698 62.0969C94.2698 63.0733 93.6545 64.0201 92.4264 64.9394C91.1982 65.8587 89.6046 66.6682 87.6457 67.3656C85.6867 68.063 83.6641 68.5639 81.5826 68.8703C81.2101 70.1532 81.0239 71.4064 81.0239 72.6343C81.0239 74.2511 81.4506 75.5064 82.3063 76.3983C83.162 77.2901 84.3831 77.7361 85.9672 77.7361C88.3623 77.7361 90.3048 76.9689 91.797 75.4367C93.2891 73.9045 94.5338 72.1757 95.5286 70.2504C95.5899 70.1384 95.6983 69.9228 95.8539 69.6016C96.0095 69.2803 96.1486 69.1197 96.2735 69.1197C96.4928 69.1197 96.6012 69.3289 96.6012 69.7474ZM91.4009 61.5094C90.887 61.2579 90.2882 61.1332 89.6046 61.1332C88.4236 61.1332 87.2874 61.4819 86.2006 62.1793C85.1115 62.8767 84.2016 63.7136 83.4708 64.6879C82.74 65.6643 82.2662 66.5287 82.047 67.2811C83.4779 67.1416 84.9866 66.7781 86.5707 66.1948C88.1572 65.6094 89.4868 64.969 90.5593 64.2716C91.6319 63.5741 92.1694 63.0035 92.1694 62.5576C92.1694 62.1096 91.9148 61.7608 91.4009 61.5094Z" fill="#2C4C3F"/>
<path d="M116.867 63.0343C116.478 63.3555 116.143 63.5162 115.865 63.5162C115.648 63.5162 115.436 63.4316 115.236 63.2647C115.033 63.0977 114.809 62.861 114.559 62.5546C114.342 62.2756 114.052 62.0389 113.696 61.8445C113.338 61.65 112.973 61.5528 112.6 61.5528C111.697 61.5528 110.486 62.618 108.963 64.7525C107.44 66.8849 105.946 69.569 104.484 72.8025C104.515 73.4449 104.569 74.2523 104.647 75.2287C104.724 76.205 104.779 76.9299 104.809 77.4033L104.948 79.0772C104.948 79.4681 104.854 79.8084 104.668 80.1022C104.482 80.3938 104.137 80.5418 103.642 80.5418C103.114 80.5418 102.773 79.9077 102.617 78.6397C102.461 77.3716 102.367 75.5245 102.336 73.0983C102.306 72.4855 102.282 71.6063 102.266 70.4629C102.249 69.3196 102.212 67.9543 102.148 66.365C102.054 63.9684 102.009 62.2523 102.009 61.221C102.009 60.5806 102.445 60.2594 103.315 60.2594C103.843 60.2594 104.161 60.4623 104.272 60.866C104.38 61.2696 104.434 62.0431 104.434 63.1865V69.8352C105.368 67.688 106.377 65.8346 107.466 64.2728C108.555 62.711 109.618 61.519 110.66 60.6969C111.702 59.8748 112.626 59.4626 113.435 59.4626C114.118 59.4626 114.771 59.6021 115.394 59.8811C116.016 60.1601 116.514 60.5151 116.886 60.9484C117.258 61.3816 117.447 61.7916 117.447 62.1826C117.449 62.4278 117.256 62.7152 116.867 63.0343Z" fill="#2C4C3F"/>
<path d="M137.53 69.7474C137.53 70.2483 137.117 71.3515 136.295 73.0507C135.47 74.7519 134.227 76.3264 132.563 77.7762C130.899 79.226 128.855 79.9509 126.429 79.9509C124.44 79.9509 122.775 79.393 121.439 78.2792C120.102 77.1655 119.433 75.4494 119.433 73.1352C119.433 70.9605 119.994 68.8069 121.111 66.6745C122.231 64.5421 123.692 62.8006 125.496 61.4481C127.299 60.0955 129.164 59.4192 131.092 59.4192C132.242 59.4192 133.214 59.6496 134.008 60.1103C134.8 60.571 135.199 61.2325 135.199 62.0969C135.199 63.0733 134.583 64.0201 133.355 64.9394C132.127 65.8587 130.533 66.6682 128.574 67.3656C126.615 68.063 124.593 68.5639 122.511 68.8703C122.139 70.1532 121.953 71.4064 121.953 72.6343C121.953 74.2511 122.379 75.5064 123.235 76.3983C124.091 77.2901 125.312 77.7361 126.896 77.7361C129.291 77.7361 131.233 76.9689 132.726 75.4367C134.218 73.9045 135.463 72.1757 136.457 70.2504C136.519 70.1384 136.627 69.9228 136.783 69.6016C136.938 69.2803 137.077 69.1197 137.202 69.1197C137.421 69.1197 137.53 69.3289 137.53 69.7474ZM132.33 61.5094C131.816 61.2579 131.217 61.1332 130.533 61.1332C129.352 61.1332 128.216 61.4819 127.129 62.1793C126.04 62.8767 125.13 63.7136 124.4 64.6879C123.669 65.6643 123.195 66.5287 122.976 67.2811C124.407 67.1416 125.915 66.7781 127.499 66.1948C129.086 65.6094 130.415 64.969 131.488 64.2716C132.561 63.5741 133.098 63.0035 133.098 62.5576C133.1 62.1096 132.844 61.7608 132.33 61.5094Z" fill="#2C4C3F"/>
<path d="M155.552 80.9323C155.241 81.169 154.869 81.2874 154.433 81.2874C154.121 81.2874 153.857 81.224 153.641 81.0993C153.424 80.9746 153.315 80.7992 153.315 80.5773C153.315 79.4339 153.41 77.665 153.596 75.2663C153.782 72.7027 153.876 70.5682 153.876 68.869C153.876 67.2248 153.822 65.8785 153.714 64.8345C153.605 63.7884 153.348 63.2664 152.945 63.2664C151.887 63.2664 150.729 64.4435 149.47 66.8C148.212 69.1564 146.774 72.2568 145.156 76.1032L144.456 77.777C144.331 78.056 144.122 78.2779 143.827 78.4469C143.532 78.6139 143.228 78.6984 142.917 78.6984C142.545 78.6984 142.295 78.671 142.17 78.6139C142.045 78.559 141.967 78.392 141.936 78.1109L141.564 74.683L140.864 68.6619C140.647 66.2653 140.381 64.173 140.072 62.3893C139.977 61.9708 139.933 61.6517 139.933 61.4277C139.933 61.0092 140.135 60.669 140.538 60.4027C140.942 60.1385 141.408 60.0054 141.939 60.0054C142.25 60.0054 142.476 60.6753 142.615 62.0131C142.754 63.3509 142.903 65.5129 143.058 68.4949L143.245 70.7119C143.492 73.5291 143.634 75.3107 143.664 76.0651C143.759 75.8982 143.843 75.7101 143.921 75.5009C143.999 75.2916 144.1 75.0613 144.225 74.8119C145.904 70.9084 147.483 67.6538 148.959 65.048C150.435 62.4421 151.858 61.1382 153.226 61.1382C154.19 61.1382 154.85 61.8694 155.208 63.334C155.564 64.7965 155.79 66.6732 155.885 68.9578C155.979 71.4938 156.024 75.2029 156.024 80.0806C156.019 80.4103 155.864 80.6956 155.552 80.9323Z" fill="#2C4C3F"/>
<path d="M173.463 72.1304C172.824 72.9948 172.18 73.7746 171.527 74.4721C169.91 76.2283 168.456 77.5809 167.166 78.5277C165.875 79.4766 164.531 79.95 163.131 79.95C161.95 79.95 160.976 79.4893 160.215 78.5699C159.453 77.6506 159.071 76.5918 159.071 75.3914C159.071 73.6077 159.599 71.3506 160.658 68.6179C161.714 65.8853 163.053 63.5162 164.67 61.5084C166.287 59.5007 167.904 58.4968 169.521 58.4968C170.205 58.4968 170.797 58.7208 171.294 59.1668C171.575 59.4183 171.839 59.7522 172.086 60.1706C172.334 60.5891 172.459 60.9653 172.459 61.2992C172.459 61.7726 172.388 62.3242 172.249 62.9519C172.11 63.5796 171.961 63.8924 171.806 63.8924C171.494 63.8924 171.292 63.7402 171.2 63.4316C171.106 63.1252 171.044 62.7363 171.014 62.2608C170.919 61.5359 170.827 61.0562 170.733 60.8173C170.639 60.5806 170.5 60.4623 170.313 60.4623C168.852 60.4623 167.437 61.3753 166.068 63.2013C164.698 65.0272 163.581 67.147 162.709 69.5584C161.839 71.9698 161.403 73.8317 161.403 75.142C161.403 76.9828 162.086 77.9021 163.456 77.9021C164.451 77.9021 165.361 77.6802 166.186 77.2322C167.008 76.7862 167.871 76.1586 168.774 75.3512C170.453 73.819 171.759 72.4939 172.692 71.378C172.753 71.2935 172.932 71.0779 173.229 70.7292C173.524 70.3805 173.734 70.2072 173.859 70.2072C174.231 70.2072 174.418 70.3319 174.418 70.5834C174.42 70.7504 174.099 71.266 173.463 72.1304Z" fill="#2C4C3F"/>
<path d="M196.712 69.7474C196.712 70.2483 196.299 71.3515 195.476 73.0507C194.651 74.7519 193.409 76.3264 191.745 77.7762C190.08 79.226 188.037 79.9509 185.611 79.9509C183.621 79.9509 181.957 79.393 180.62 78.2792C179.284 77.1655 178.614 75.4494 178.614 73.1352C178.614 70.9605 179.175 68.8069 180.293 66.6745C181.412 64.5421 182.874 62.8006 184.677 61.4481C186.481 60.0955 188.345 59.4192 190.274 59.4192C191.424 59.4192 192.395 59.6496 193.19 60.1103C193.982 60.571 194.38 61.2325 194.38 62.0969C194.38 63.0733 193.765 64.0201 192.537 64.9394C191.309 65.8587 189.715 66.6682 187.756 67.3656C185.797 68.063 183.774 68.5639 181.693 68.8703C181.32 70.1532 181.134 71.4064 181.134 72.6343C181.134 74.2511 181.561 75.5064 182.417 76.3983C183.272 77.2901 184.493 77.7361 186.078 77.7361C188.473 77.7361 190.415 76.9689 191.907 75.4367C193.399 73.9045 194.644 72.1757 195.639 70.2504C195.7 70.1384 195.809 69.9228 195.964 69.6016C196.12 69.2803 196.259 69.1197 196.384 69.1197C196.603 69.1197 196.712 69.3289 196.712 69.7474ZM191.511 61.5094C190.997 61.2579 190.399 61.1332 189.715 61.1332C188.534 61.1332 187.398 61.4819 186.311 62.1793C185.222 62.8767 184.312 63.7136 183.581 64.6879C182.85 65.6643 182.377 66.5287 182.157 67.2811C183.588 67.1416 185.097 66.7781 186.681 66.1948C188.268 65.6094 189.597 64.969 190.67 64.2716C191.742 63.5741 192.28 63.0035 192.28 62.5576C192.282 62.1096 192.025 61.7608 191.511 61.5094Z" fill="#2C4C3F"/>
<path d="M30.5017 31.0036C27.6988 21.3876 24.5517 15.0939 20.6079 10.0682C17.2558 5.79492 14.0215 2.88898 10.9075 1.35676C9.80186 0.813619 7.57653 -0.232517 5.34885 0.046453C5.34885 0.046453 3.69871 0.253567 2.38331 1.49202C0.162696 3.58218 -0.652944 10.009 0.565801 18.8198C0.961835 22.7592 1.99199 26.8318 2.9255 29.9216C3.85665 33.0092 4.68879 35.1121 4.68879 35.1121C4.68879 35.1121 11.6429 52.6787 17.4939 55.3691C17.5245 55.3817 17.5575 55.3944 17.5575 55.3944C17.9347 55.5191 18.3331 55.2676 18.6207 54.8492C19.0308 54.2553 19.0544 53.6234 19.0191 53.3233C18.6607 50.299 14.7971 47.5981 14.7971 47.5981C12.204 45.7869 8.71041 41.0127 5.01174 27.6792C10.344 32.8423 20.0139 35.5178 20.0139 35.5178C23.828 46.0722 24.1651 60.1454 24.3207 62.6815L24.3372 63.2626C22.9063 67.6395 21.2185 71.5493 19.276 74.992C17.3312 78.4348 15.2237 80.1572 12.956 80.1572C12.2394 80.1572 11.7255 79.8634 11.4166 79.278C11.1055 78.6926 10.9499 78.0649 10.9499 77.3971C10.9499 75.5014 11.617 73.4514 12.956 71.2492C14.2926 69.047 15.8084 67.145 17.5033 65.5409C19.1982 63.9389 20.3722 63.138 21.0252 63.138C21.1807 63.138 21.2727 63.1654 21.3057 63.2204C21.334 63.2774 21.3505 63.3746 21.3505 63.5141C21.3505 63.6261 21.2727 63.8481 21.1171 64.182C20.9615 64.5159 20.8837 64.7547 20.8837 64.8942C20.8837 64.9491 20.9238 64.9977 21.0016 65.04C21.0794 65.0823 21.1477 65.1013 21.2114 65.1013C21.2727 65.1013 21.4825 64.8942 21.8408 64.4757C22.1991 64.0573 22.5244 63.5902 22.8215 63.0746C23.1161 62.5589 23.2623 62.1066 23.2623 61.7156C23.2623 61.1302 22.7649 60.8364 21.7701 60.8364C20.7446 60.8364 19.1652 61.7706 17.0365 63.6388C14.9055 65.5071 13.0102 67.7367 11.3459 70.3299C9.68164 72.923 8.85185 75.3196 8.85185 77.5218C8.85185 79.1935 9.21488 80.4763 9.94566 81.3682C10.6764 82.26 11.5722 82.7081 12.6283 82.7081C14.9621 82.7081 17.1308 81.2097 19.1346 78.2129C21.1407 75.2161 22.937 71.431 24.5235 66.8575C24.5847 67.724 24.6319 68.7892 24.6625 70.0572C24.6932 71.3274 24.7097 72.3503 24.7097 73.1301L24.6625 75.4739C24.5706 77.1456 24.5235 78.7497 24.5235 80.2819C24.5235 80.7003 24.5777 81.0279 24.6861 81.2646C24.7945 81.5013 25.0208 81.6197 25.3627 81.6197C25.6102 81.6197 25.9614 81.495 26.4117 81.2435C26.8619 80.992 27.0882 80.7278 27.0882 80.4489C27.0882 80.2819 27.0246 79.8085 26.902 79.0265C26.8714 78.8596 26.8384 78.6799 26.8077 78.4834C26.7771 78.2889 26.7606 78.1072 26.7606 77.9402C26.6828 77.0759 26.5838 75.4105 26.4612 72.9463V72.942C26.4612 63.3134 25.5607 55.386 25.5607 55.386C25.1151 51.4741 24.3679 46.4949 23.043 40.7189C26.5036 35.6912 27.4913 30.19 27.7483 26.8127C31.6261 37.0585 33.1065 46.9767 31.5719 49.6734C31.3432 50.075 29.7261 52.6364 30.7586 53.8368C31.0274 54.1517 31.4069 54.2764 31.513 54.325C33.0429 55.0373 34.3583 54.287 34.2828 52.8457C33.8161 43.925 32.0528 36.3231 30.5017 31.0036ZM4.60628 26.2569L4.60393 26.2548C4.03109 24.2238 3.37339 21.487 2.91371 18.2196C2.59783 15.971 2.32909 13.9822 2.47053 11.4271C2.61669 8.82131 2.96086 2.24862 6.28471 1.35254C8.048 0.877021 9.99045 2.11759 11.5274 3.12357C14.6792 5.17991 17.5292 8.22956 20.0351 11.8054C22.6635 20.1027 18.8682 27.2333 17.8404 28.943C16.5132 26.6014 15.0964 24.2048 13.5901 21.7638C11.9753 19.1495 10.3511 16.643 8.72927 14.2443C8.66562 14.1471 8.60197 14.052 8.53597 13.9548C8.53597 13.9548 8.12815 13.3503 7.51996 12.896C7.35494 12.7713 7.17107 12.6571 7.17107 12.6571C7.02491 12.5663 6.89526 12.4944 6.78918 12.4395C6.70196 12.3993 6.48508 12.3084 6.26585 12.3507C5.93582 12.4162 5.74959 12.7544 5.8651 13.0122C5.8651 13.0143 5.8651 13.0143 5.8651 13.0143C5.9594 13.2531 6.44029 14.6163 7.20407 15.2313C7.22529 15.2461 7.24415 15.263 7.26536 15.2799C7.69676 15.6201 8.30495 16.1358 8.95793 16.8311C8.95793 16.8311 9.17245 17.0636 9.38933 17.3087C14.3232 22.867 17.5976 29.036 19.7734 34.8627C10.3063 31.3185 6.21635 27.9667 4.60628 26.2569ZM22.7814 39.9623C22.5433 39.2755 22.3028 38.6203 22.0671 37.9969C20.3934 33.5799 18.8988 30.8514 18.8988 30.8514C18.682 30.4541 18.458 30.0484 18.2246 29.632C21.6121 23.5813 21.6616 17.1439 21.3905 13.8428C23.5004 17.1777 25.3344 20.8593 26.8596 24.562V24.5641C27.8685 31.9272 24.3231 37.8088 22.7814 39.9623Z" fill="#2C4C3F"/>
</svg>
