<svg width="96" height="96" viewBox="0 0 96 96" fill="none" xmlns="http://www.w3.org/2000/svg">
<path d="M90.2691 45.6689L81 50.3034L69 27.3227L78.3635 22.6409C79.067 22.2892 79.8804 22.2278 80.6288 22.4699C81.3771 22.7121 82.0004 23.2384 82.3644 23.9356L91.5868 41.597C91.7712 41.9501 91.8834 42.3365 91.9169 42.7335C91.9503 43.1305 91.9044 43.5302 91.7818 43.9092C91.6591 44.2883 91.4622 44.6391 91.2025 44.9412C90.9427 45.2433 90.6255 45.4907 90.2691 45.6689V45.6689Z" stroke="#0A0A0A" stroke-width="2" stroke-linecap="round" stroke-linejoin="round"/>
<path d="M14.9997 49.9021L5.73062 45.2675C5.37428 45.0894 5.057 44.842 4.79729 44.5399C4.53758 44.2378 4.34064 43.8869 4.21799 43.5079C4.09533 43.1288 4.0494 42.7291 4.08288 42.3321C4.11636 41.9351 4.22858 41.5488 4.41299 41.1956L13.6353 23.5343C13.9994 22.8371 14.6227 22.3107 15.371 22.0686C16.1193 21.8264 16.9328 21.8878 17.6363 22.2396L26.9997 26.9213L14.9997 49.9021Z" stroke="#0A0A0A" stroke-width="2" stroke-linecap="round" stroke-linejoin="round"/>
<path d="M81 50.3033L75 57.3225L61.2011 71.1215C60.8348 71.4878 60.3798 71.753 59.8806 71.8913C59.3813 72.0296 58.8547 72.0362 58.3521 71.9106L36.6183 66.4771C36.2107 66.3752 35.829 66.1888 35.4979 65.9299L15 49.9014" stroke="#0A0A0A" stroke-width="2" stroke-linecap="round" stroke-linejoin="round"/>
<path d="M74.9992 57.3223L58.4992 45.3223L53.6992 48.9223C51.622 50.4801 49.0956 51.3223 46.4992 51.3223C43.9027 51.3223 41.3763 50.4801 39.2992 48.9223L37.2664 47.3977C36.9226 47.1398 36.6381 46.811 36.4324 46.4336C36.2267 46.0563 36.1044 45.6391 36.074 45.2104C36.0435 44.7816 36.1055 44.3513 36.2558 43.9487C36.4061 43.546 36.6412 43.1803 36.9451 42.8764L51.6205 28.2009C51.8991 27.9224 52.2298 27.7014 52.5938 27.5506C52.9578 27.3999 53.3479 27.3223 53.7418 27.3223H68.9992" stroke="#0A0A0A" stroke-width="2" stroke-linecap="round" stroke-linejoin="round"/>
<path d="M27.2168 26.9209L46.4618 21.3103C47.1493 21.1099 47.8858 21.162 48.5382 21.4572L61.5014 27.3228" stroke="#0A0A0A" stroke-width="2" stroke-linecap="round" stroke-linejoin="round"/>
<path d="M42 79.8231L30.6977 76.9975C30.2391 76.8829 29.814 76.6614 29.4572 76.3513L21 69" stroke="#0A0A0A" stroke-width="2" stroke-linecap="round" stroke-linejoin="round"/>
</svg>
