<svg width="220" height="306" viewBox="0 0 220 306" fill="none" xmlns="http://www.w3.org/2000/svg">
<path d="M140.464 108.89C144.15 96.8317 148.289 88.9401 153.478 82.6381C157.885 77.2801 162.139 73.6356 166.236 71.7157C167.689 71.0344 170.617 69.7226 173.547 70.0717C173.547 70.0717 175.717 70.3307 177.447 71.8846C180.368 74.5045 181.44 82.5631 179.838 93.6112C179.318 98.5507 177.962 103.657 176.734 107.533C175.51 111.404 174.415 114.041 174.415 114.041C174.415 114.041 165.27 136.068 157.573 139.442C157.533 139.457 157.49 139.474 157.49 139.474C156.994 139.63 156.47 139.315 156.092 138.791C155.553 138.046 155.521 137.254 155.568 136.877C156.039 133.084 161.121 129.698 161.121 129.698C164.532 127.428 169.126 121.441 173.992 104.721C166.978 111.196 154.259 114.55 154.259 114.55C150.672 124.01 149.426 135.723 148.928 142.796C148.963 143.181 148.953 143.55 148.857 143.862C148.823 143.973 148.779 144.074 148.72 144.166C148.552 144.431 148.329 144.528 148.268 144.569C147.831 144.845 147.43 144.828 147.143 144.599C146.842 144.357 146.787 143.918 146.696 143.211C146.696 143.211 146.649 142.862 146.666 142.389C146.666 142.383 146.666 142.376 146.67 142.368C146.689 142.128 146.71 141.901 146.732 141.691C146.869 140.264 146.965 139.461 146.965 139.461C147.551 134.555 148.533 128.312 150.277 121.073C145.726 114.769 144.427 107.87 144.088 103.637C138.988 116.485 137.04 128.92 139.058 132.301C139.359 132.804 141.485 136.017 140.127 137.522C139.773 137.917 139.274 138.074 139.136 138.134C137.123 139.028 135.393 138.087 135.493 136.28C136.104 125.091 138.423 115.559 140.464 108.89ZM174.523 102.937L174.527 102.935C175.28 100.388 176.146 96.9555 176.749 92.8587C177.166 90.0399 177.519 87.5457 177.332 84.3422C177.139 81.0748 176.687 72.8323 172.316 71.7101C169.997 71.1133 167.441 72.6691 165.421 73.9302C161.275 76.5088 157.527 80.3335 154.23 84.817C150.773 95.2214 155.765 104.162 157.117 106.305C158.863 103.368 160.726 100.364 162.707 97.3027C164.831 94.0241 166.966 90.8825 169.1 87.8741C169.183 87.7522 169.266 87.632 169.353 87.5119C169.353 87.5119 169.891 86.7537 170.689 86.1851C170.906 86.0293 171.149 85.8848 171.149 85.8848C171.341 85.7703 171.512 85.6803 171.652 85.6127C171.767 85.562 172.051 85.4476 172.34 85.502C172.775 85.5846 173.019 86.0087 172.868 86.3315C172.868 86.3334 172.868 86.3334 172.868 86.3334C172.743 86.6336 172.111 88.3414 171.107 89.1128C171.079 89.1315 171.054 89.1522 171.026 89.1728C170.458 89.5988 169.658 90.2463 168.799 91.1171C168.799 91.1171 168.517 91.408 168.232 91.7158C161.742 98.6858 157.437 106.422 154.575 113.728C167.027 109.284 172.406 105.082 174.523 102.937ZM150.618 120.123C150.932 119.262 151.248 118.44 151.558 117.659C153.759 112.121 155.725 108.7 155.725 108.7C156.01 108.203 156.306 107.692 156.612 107.17C152.157 99.5829 152.091 91.5112 152.449 87.3712C149.674 91.5525 147.262 96.1692 145.255 100.812V100.814C143.927 110.047 148.59 117.423 150.618 120.123Z" fill="#2C4C3F"/>
<path d="M116.144 208.182C132.015 188.35 145.607 176.652 159.959 168.709C172.154 161.953 182.782 158.29 191.828 157.739C195.035 157.542 201.455 157.261 206.635 160.09C206.635 160.09 210.47 162.186 212.521 166.38C215.983 173.452 211.944 189.333 200.699 208.823C196.036 217.682 189.696 226.233 184.515 232.575C179.345 238.914 175.337 243.036 175.337 243.036C175.337 243.036 141.867 277.474 125.048 278.075C124.963 278.073 124.87 278.072 124.87 278.072C123.833 277.996 123.096 277.017 122.785 275.756C122.342 273.961 122.875 272.455 123.245 271.784C126.959 265.034 138.931 262.471 138.931 262.471C146.964 260.753 159.977 252.959 181.526 225.277C163.655 232.187 137.526 229.02 137.526 229.02C123.785 244.065 112.703 265.063 106.485 277.933C106.261 278.678 105.966 279.363 105.554 279.875C105.408 280.057 105.251 280.214 105.074 280.343C104.563 280.713 104.075 280.73 103.932 280.762C102.914 280.954 102.182 280.625 101.82 279.983C101.442 279.306 101.669 278.443 102.03 277.052C102.03 277.052 102.203 276.363 102.589 275.491C102.593 275.48 102.599 275.466 102.612 275.455C102.826 275.019 103.035 274.61 103.235 274.233C104.555 271.664 105.335 270.233 105.335 270.233C110.096 261.486 116.592 250.528 125.249 238.274C121.515 223.095 124.266 209.217 126.806 201.041C107.719 221.302 94.7941 243.131 96.011 250.96C96.1931 252.125 97.7366 259.717 94.0879 261.526C93.1361 262.001 92.0907 261.925 91.7894 261.935C87.3833 262.113 84.8729 259.068 86.4117 255.759C95.9208 235.27 107.362 219.151 116.144 208.182ZM183.849 222.331L183.857 222.33C187.161 218.122 191.339 212.341 195.526 205.12C198.409 200.153 200.932 195.747 202.982 189.612C205.07 183.353 210.399 167.589 203.121 162.242C199.262 159.403 193.352 160.418 188.656 161.278C179.026 163.026 169.205 167.402 159.727 173.346C145.518 190.253 148.096 210.695 149.004 215.711C154.444 211.51 160.153 207.269 166.122 203.011C172.521 198.451 178.838 194.157 185.052 190.11C185.298 189.944 185.542 189.781 185.793 189.62C185.793 189.62 187.359 188.6 189.267 188.129C189.787 187.998 190.345 187.908 190.345 187.908C190.789 187.837 191.172 187.795 191.483 187.772C191.735 187.763 192.348 187.759 192.844 188.076C193.591 188.554 193.726 189.529 193.204 190.021C193.202 190.024 193.202 190.024 193.202 190.024C192.746 190.493 190.294 193.221 187.852 193.919C187.785 193.933 187.724 193.953 187.656 193.971C186.283 194.347 184.312 194.965 182.066 195.957C182.066 195.957 181.325 196.292 180.564 196.656C163.295 204.883 149.51 216.166 138.727 227.716C165.178 228.644 178.313 224.774 183.849 222.331ZM126.592 236.749C127.82 235.37 129.021 234.066 130.182 232.835C138.416 224.104 144.626 219.159 144.626 219.159C145.529 218.441 146.459 217.704 147.418 216.955C144.825 199.445 150.743 184.288 154.506 176.804C146.223 182.57 138.289 189.42 131.087 196.621L131.086 196.624C121.709 212.921 124.847 230.189 126.592 236.749Z" fill="#2C4C3F"/>
<path d="M21.0652 65.3096C19.4291 52.4096 19.9747 43.2424 22.1743 35.131C24.0406 28.2363 26.4866 23.0191 29.5135 19.4916C30.5865 18.2403 32.7751 15.776 35.6665 14.8747C35.6665 14.8747 37.8077 14.2077 40.0844 14.9441C43.9252 16.1846 48.3306 23.3214 51.4928 34.3956C53.0902 39.2645 53.9751 44.6415 54.461 48.8055C54.9487 52.9644 55.0358 55.9067 55.0358 55.9067C55.0358 55.9067 55.7666 80.4841 49.9824 86.8921C49.9516 86.9229 49.9179 86.957 49.9179 86.957C49.5195 87.3117 48.8958 87.2349 48.3205 86.9007C47.5012 86.4256 47.1369 85.6935 47.0219 85.3185C45.8624 81.5498 49.1936 76.2287 49.1936 76.2287C51.4292 72.659 53.2057 65.0938 50.7058 47.3102C46.8696 56.3504 36.3734 64.8473 36.3734 64.8473C37.0072 75.2597 40.7828 86.8102 43.302 93.6785C43.4963 94.0264 43.6434 94.3784 43.6846 94.7122C43.6994 94.8308 43.7014 94.9444 43.6853 95.0556C43.6393 95.3754 43.4715 95.561 43.4322 95.6253C43.1394 96.0685 42.7568 96.2209 42.3909 96.1261C42.007 96.0244 41.7703 95.634 41.3867 95.006C41.3867 95.006 41.1951 94.6972 41.0114 94.2448C41.0091 94.2395 41.0059 94.2324 41.0063 94.2238C40.9226 93.9896 40.8463 93.7671 40.7788 93.5597C40.3044 92.1597 40.0558 91.363 40.0558 91.363C38.5346 86.4981 36.819 80.2076 35.3975 72.6605C28.4749 68.6361 24.3464 62.6865 22.2425 58.8426C22.8887 73.0796 26.312 85.6049 29.6294 87.9415C30.1233 88.2888 33.4704 90.4212 32.8337 92.4084C32.6687 92.9279 32.2676 93.286 32.1636 93.4005C30.6557 95.0864 28.638 94.9278 27.9692 93.1842C23.8194 82.3935 21.9685 72.4459 21.0652 65.3096ZM50.4504 45.4067L50.4532 45.4033C50.0835 42.6896 49.4462 39.0943 48.2823 34.9839C47.4824 32.1553 46.7611 29.6586 45.2338 26.7211C43.6742 23.726 39.7722 16.1556 35.2047 16.9341C32.7809 17.3458 31.0442 19.8833 29.6845 21.9188C26.8896 26.0871 24.9944 31.2611 23.7989 36.8663C24.9515 48.1135 33.3997 54.4354 35.5708 55.8854C35.9664 52.3873 36.4433 48.7763 37.0062 45.0631C37.612 41.0846 38.2862 37.2303 39.0148 33.5023C39.0413 33.3525 39.0685 33.2045 39.0993 33.0549C39.0993 33.0549 39.2824 32.1155 39.79 31.245C39.928 31.0071 40.0938 30.7694 40.0938 30.7694C40.2262 30.5806 40.3476 30.4243 40.4502 30.302C40.5368 30.2058 40.7542 29.9789 41.0483 29.9087C41.4905 29.8038 41.8981 30.1006 41.8926 30.4681C41.8934 30.4698 41.8934 30.4698 41.8934 30.4698C41.9032 30.805 42.0322 32.678 41.4171 33.8259C41.3984 33.8555 41.3841 33.8852 41.3663 33.9166C41.0146 34.5559 40.5385 35.5014 40.1017 36.6817C40.1017 36.6817 39.9605 37.0739 39.8229 37.4836C36.6865 46.7703 35.9193 55.8608 36.3223 63.9407C46.1086 54.5293 49.3734 48.3148 50.4504 45.4067ZM35.3156 71.6235C35.2461 70.6807 35.195 69.7742 35.1561 68.9089C34.8809 62.7705 35.2776 58.7244 35.2776 58.7244C35.3352 58.1363 35.3961 57.5318 35.4629 56.912C28.0889 51.6385 24.6204 44.0669 23.208 40.0191C22.3739 45.1206 22.0636 50.4796 22.1435 55.6934L22.1443 55.6952C24.7974 64.9458 32.2768 69.9322 35.3156 71.6235Z" fill="#2C4C3F"/>
<path d="M76.2697 34.7728C75.2052 26.3794 75.5602 20.4147 76.9914 15.137C78.2057 10.651 79.7972 7.25636 81.7666 4.96117C82.4648 4.14704 83.8888 2.54364 85.7701 1.95714C85.7701 1.95714 87.1633 1.52316 88.6447 2.0023C91.1437 2.80945 94.0101 7.45303 96.0676 14.6586C97.107 17.8265 97.6827 21.3251 97.9988 24.0344C98.3162 26.7404 98.3729 28.6548 98.3729 28.6548C98.3729 28.6548 98.8484 44.6462 95.0849 48.8156C95.0648 48.8356 95.0429 48.8579 95.0429 48.8579C94.7837 49.0887 94.3778 49.0386 94.0035 48.8212C93.4704 48.5121 93.2334 48.0357 93.1586 47.7917C92.4041 45.3396 94.5716 41.8774 94.5716 41.8774C96.0262 39.5548 97.1821 34.6324 95.5556 23.0614C93.0595 28.9435 86.2301 34.472 86.2301 34.472C86.6425 41.247 89.0991 48.7623 90.7382 53.2312C90.8646 53.4576 90.9604 53.6866 90.9871 53.9038C90.9968 53.9809 90.9981 54.0549 90.9876 54.1273C90.9577 54.3353 90.8485 54.4561 90.8229 54.4979C90.6324 54.7863 90.3834 54.8855 90.1454 54.8237C89.8956 54.7576 89.7416 54.5035 89.492 54.0949C89.492 54.0949 89.3673 53.894 89.2479 53.5997C89.2463 53.5962 89.2442 53.5916 89.2445 53.586C89.1901 53.4337 89.1404 53.2889 89.0965 53.1539C88.7878 52.243 88.6261 51.7246 88.6261 51.7246C87.6363 48.5593 86.52 44.4663 85.5951 39.5558C81.0909 36.9373 78.4046 33.0662 77.0357 30.5651C77.4562 39.8284 79.6836 47.9781 81.8421 49.4984C82.1634 49.7244 84.3412 51.1118 83.927 52.4048C83.8196 52.7428 83.5586 52.9758 83.491 53.0503C82.5099 54.1473 81.197 54.0441 80.7619 52.9096C78.0617 45.8886 76.8575 39.4161 76.2697 34.7728ZM95.3894 21.823L95.3912 21.8208C95.1506 20.0551 94.736 17.7158 93.9787 15.0413C93.4582 13.2009 92.9889 11.5764 91.9951 9.6651C90.9804 7.71629 88.4415 2.79057 85.4696 3.29713C83.8926 3.56498 82.7626 5.21606 81.8779 6.54042C80.0594 9.25257 78.8263 12.6191 78.0484 16.2661C78.7984 23.5842 84.2952 27.6975 85.7079 28.641C85.9653 26.3649 86.2755 24.0154 86.6418 21.5994C87.036 19.0108 87.4746 16.503 87.9487 14.0773C87.9659 13.9798 87.9837 13.8835 88.0037 13.7862C88.0037 13.7862 88.1229 13.175 88.4531 12.6086C88.5429 12.4538 88.6508 12.2991 88.6508 12.2991C88.7369 12.1763 88.8159 12.0746 88.8826 11.995C88.939 11.9324 89.0805 11.7848 89.2718 11.7391C89.5596 11.6708 89.8247 11.864 89.8212 12.1031C89.8217 12.1042 89.8217 12.1042 89.8217 12.1042C89.8281 12.3223 89.912 13.541 89.5118 14.2879C89.4996 14.3071 89.4903 14.3265 89.4787 14.3469C89.2499 14.7628 88.9401 15.378 88.6559 16.146C88.6559 16.146 88.5641 16.4012 88.4745 16.6677C86.4338 22.7102 85.9346 28.6249 86.1969 33.8822C92.5643 27.7586 94.6886 23.7151 95.3894 21.823ZM85.5418 38.8811C85.4966 38.2676 85.4634 37.6778 85.438 37.1148C85.259 33.1208 85.5171 30.4882 85.5171 30.4882C85.5546 30.1055 85.5942 29.7122 85.6377 29.3089C80.8397 25.8777 78.583 20.9512 77.664 18.3175C77.1212 21.6368 76.9193 25.1237 76.9713 28.5161L76.9719 28.5172C78.6981 34.5361 83.5646 37.7806 85.5418 38.8811Z" fill="#2C4C3F"/>
<path d="M43.3855 148.382C50.7588 124.075 59.0362 108.167 69.4133 95.463C78.228 84.6619 86.7362 77.3149 94.9304 73.4447C97.8358 72.0714 103.692 69.427 109.552 70.1306C109.552 70.1306 113.891 70.6527 117.353 73.7852C123.194 79.0666 125.339 95.3116 122.135 117.583C121.094 127.541 118.382 137.835 115.927 145.647C113.479 153.452 111.289 158.767 111.289 158.767C111.289 158.767 92.9972 203.171 77.6037 209.973C77.5243 210.003 77.4373 210.037 77.4373 210.037C76.4461 210.351 75.3982 209.716 74.6416 208.66C73.5634 207.158 73.4991 205.562 73.5936 204.801C74.5356 197.155 84.7008 190.331 84.7008 190.331C91.5218 185.753 100.711 173.684 110.441 139.98C96.4133 153.032 70.9757 159.793 70.9757 159.793C63.803 178.864 61.3099 202.475 60.3149 216.734C60.383 217.509 60.3641 218.254 60.1712 218.882C60.1031 219.106 60.0161 219.31 59.8988 219.495C59.5621 220.029 59.1157 220.225 58.9946 220.309C58.1207 220.865 57.3187 220.831 56.7437 220.369C56.1422 219.881 56.0325 218.996 55.8509 217.57C55.8509 217.57 55.7563 216.866 55.7903 215.913C55.7903 215.901 55.7903 215.886 55.7979 215.871C55.8357 215.387 55.8774 214.929 55.9227 214.505C56.1951 211.63 56.3881 210.011 56.3881 210.011C57.5608 200.122 59.5243 187.535 63.0123 172.943C53.9101 160.235 51.3111 146.328 50.634 137.793C40.4347 163.693 36.5381 188.761 40.5747 195.578C41.1762 196.592 45.4284 203.069 42.7121 206.103C42.0047 206.897 41.006 207.215 40.7298 207.336C36.7046 209.137 33.243 207.241 33.4435 203.598C34.6655 181.043 39.3036 161.828 43.3855 148.382ZM111.504 136.382L111.512 136.378C113.017 131.245 114.75 124.325 115.957 116.066C116.789 110.384 117.497 105.356 117.122 98.8981C116.736 92.3116 115.832 75.6957 107.089 73.4334C102.451 72.2303 97.3402 75.3666 93.2998 77.9089C85.0073 83.107 77.5129 90.8172 70.919 99.8553C64.0035 120.829 73.9871 138.853 76.692 143.173C80.1838 137.252 83.9102 131.195 87.8711 125.025C92.1195 118.416 96.3907 112.083 100.658 106.018C100.824 105.772 100.991 105.53 101.165 105.288C101.165 105.288 102.239 103.76 103.836 102.613C104.271 102.299 104.755 102.008 104.755 102.008C105.141 101.777 105.481 101.596 105.761 101.459C105.992 101.357 106.56 101.126 107.138 101.236C108.009 101.403 108.497 102.258 108.194 102.908C108.194 102.912 108.194 102.912 108.194 102.912C107.944 103.517 106.681 106.96 104.672 108.515C104.615 108.553 104.566 108.594 104.509 108.636C103.374 109.495 101.774 110.8 100.056 112.555C100.056 112.555 99.4928 113.142 98.9215 113.762C85.9417 127.813 77.3314 143.407 71.6075 158.136C96.5117 149.177 107.271 140.706 111.504 136.382ZM63.6932 171.029C64.3212 169.292 64.953 167.635 65.5735 166.061C69.977 154.897 73.9076 148 73.9076 148C74.4789 146.998 75.0691 145.969 75.6819 144.917C66.7727 129.622 66.6403 113.35 67.3553 105.004C61.8055 113.433 56.982 122.74 52.9681 132.1V132.103C50.3124 150.717 59.6378 165.585 63.6932 171.029Z" fill="#2C4C3F"/>
</svg>
