<svg width="540" height="148" viewBox="0 0 540 148" fill="none" xmlns="http://www.w3.org/2000/svg">
<path d="M451.225 35.4048C447.969 24.4644 444.286 17.2962 439.652 11.563C435.717 6.68867 431.91 3.36721 428.237 1.60887C426.935 0.984945 424.309 -0.217102 421.674 0.0854274C421.674 0.0854274 419.723 0.309905 418.16 1.7095C415.523 4.06919 414.521 11.3644 415.909 21.3804C416.353 25.8574 417.548 30.4897 418.633 34.0062C419.715 37.5192 420.687 39.9129 420.687 39.9129C420.687 39.9129 428.803 59.9097 435.704 63.0025C435.74 63.0162 435.779 63.0317 435.779 63.0317C436.224 63.1752 436.696 62.892 437.039 62.4194C437.527 61.747 437.559 61.0297 437.519 60.6878C437.113 57.2497 432.561 54.159 432.561 54.159C429.506 52.0859 425.405 46.6411 421.111 31.4722C427.385 37.3703 438.8 40.4678 438.8 40.4678C441.979 49.0548 443.044 59.6709 443.458 66.0809C443.425 66.4293 443.432 66.7642 443.517 67.0469C443.547 67.1474 443.586 67.2394 443.638 67.323C443.788 67.5635 443.989 67.6529 444.043 67.6906C444.434 67.9425 444.795 67.9291 445.054 67.723C445.326 67.5051 445.377 67.1076 445.462 66.4671C445.462 66.4671 445.506 66.1511 445.493 65.7226C445.493 65.7175 445.493 65.7107 445.49 65.7038C445.474 65.4861 445.456 65.2803 445.437 65.0898C445.321 63.7971 445.238 63.069 445.238 63.069C444.734 58.6222 443.881 52.9614 442.348 46.396C446.468 40.7066 447.668 34.4631 447.993 30.6293C452.515 42.292 454.208 53.5659 452.378 56.6201C452.105 57.0743 450.179 59.9749 451.393 61.3448C451.709 61.7034 452.157 61.8486 452.281 61.9036C454.086 62.7223 455.646 61.8786 455.564 60.2409C455.068 50.1021 453.028 41.4565 451.225 35.4048ZM420.642 29.853L420.639 29.8513C419.974 27.5407 419.212 24.4272 418.689 20.713C418.328 18.1576 418.022 15.8965 418.205 12.9953C418.394 10.0363 418.839 2.5716 422.773 1.57537C424.86 1.04557 427.15 2.46689 428.959 3.61879C432.674 5.9741 436.024 9.4564 438.966 13.5333C442.024 22.9748 437.496 31.0508 436.27 32.986C434.715 30.3172 433.054 27.5866 431.289 24.8045C429.395 21.8245 427.491 18.9685 425.587 16.2333C425.513 16.1224 425.439 16.0132 425.361 15.904C425.361 15.904 424.882 15.2147 424.167 14.6958C423.972 14.5537 423.755 14.4217 423.755 14.4217C423.582 14.317 423.43 14.2346 423.304 14.1728C423.201 14.1263 422.946 14.0213 422.686 14.0693C422.295 14.142 422.073 14.5251 422.208 14.8182C422.208 14.8199 422.208 14.8199 422.208 14.8199C422.319 15.0925 422.878 16.6426 423.777 17.346C423.803 17.3631 423.825 17.382 423.85 17.4008C424.358 17.7894 425.074 18.3796 425.842 19.1725C425.842 19.1725 426.094 19.4373 426.349 19.7175C432.149 26.062 435.982 33.0899 438.52 39.7217C427.35 35.6377 422.534 31.8061 420.642 29.853ZM442.046 45.5341C441.768 44.7523 441.488 44.0062 441.213 43.2975C439.26 38.2702 437.51 35.1618 437.51 35.1618C437.256 34.7099 436.993 34.2461 436.72 33.7721C440.759 26.9194 440.857 19.6076 440.555 15.8555C443.029 19.6563 445.175 23.8498 446.957 28.0652L446.957 28.0669C448.107 36.4376 443.882 43.0972 442.046 45.5341Z" fill="white"/>
<path d="M219.135 103.339C215.879 92.399 212.196 85.2308 207.563 79.4976C203.627 74.6232 199.82 71.3018 196.147 69.5434C194.845 68.9195 192.219 67.7175 189.584 68.02C189.584 68.02 187.633 68.2445 186.07 69.6441C183.433 72.0038 182.431 79.299 183.819 89.3149C184.263 93.792 185.458 98.4243 186.543 101.941C187.625 105.454 188.597 107.848 188.597 107.848C188.597 107.848 196.713 127.844 203.615 130.937C203.65 130.951 203.689 130.966 203.689 130.966C204.134 131.11 204.606 130.827 204.949 130.354C205.437 129.682 205.469 128.964 205.429 128.622C205.023 125.184 200.471 122.094 200.471 122.094C197.417 120.02 193.315 114.576 189.022 99.4068C195.295 105.305 206.71 108.402 206.71 108.402C209.889 116.989 210.954 127.605 211.368 134.015C211.336 134.364 211.342 134.699 211.428 134.981C211.458 135.082 211.496 135.174 211.549 135.258C211.699 135.498 211.899 135.587 211.953 135.625C212.344 135.877 212.705 135.864 212.964 135.658C213.236 135.44 213.287 135.042 213.372 134.402C213.372 134.402 213.416 134.086 213.403 133.657C213.403 133.652 213.403 133.645 213.4 133.638C213.384 133.421 213.366 133.215 213.347 133.024C213.231 131.732 213.148 131.004 213.148 131.004C212.644 126.557 211.791 120.896 210.258 114.331C214.378 108.641 215.579 102.398 215.903 98.5639C220.426 110.227 222.118 121.501 220.288 124.555C220.016 125.009 218.09 127.91 219.303 129.279C219.619 129.638 220.067 129.783 220.191 129.838C221.996 130.657 223.556 129.813 223.474 128.176C222.978 118.037 220.938 109.391 219.135 103.339ZM188.552 97.7875L188.549 97.7858C187.884 95.4753 187.122 92.3617 186.599 88.6476C186.238 86.0921 185.932 83.831 186.115 80.9299C186.304 77.9709 186.749 70.5062 190.683 69.5099C192.77 68.9801 195.06 70.4015 196.869 71.5534C200.584 73.9087 203.934 77.391 206.876 81.4679C209.934 90.9094 205.406 98.9853 204.18 100.921C202.625 98.2517 200.965 95.5212 199.199 92.7391C197.305 89.7591 195.401 86.9031 193.497 84.1679C193.423 84.057 193.349 83.9478 193.271 83.8386C193.271 83.8386 192.792 83.1492 192.077 82.6304C191.882 82.4883 191.665 82.3562 191.665 82.3562C191.493 82.2516 191.34 82.1692 191.214 82.1074C191.111 82.0609 190.857 81.9559 190.596 82.0038C190.205 82.0766 189.983 82.4597 190.118 82.7528C190.118 82.7545 190.118 82.7545 190.118 82.7545C190.229 83.0271 190.789 84.5772 191.688 85.2806C191.713 85.2977 191.735 85.3165 191.76 85.3354C192.268 85.7239 192.985 86.3142 193.752 87.1071C193.752 87.1071 194.004 87.3719 194.259 87.6521C200.06 93.9965 203.892 101.024 206.43 107.656C195.26 103.572 190.444 99.7406 188.552 97.7875ZM209.957 113.469C209.678 112.687 209.398 111.941 209.123 111.232C207.17 106.205 205.42 103.096 205.42 103.096C205.166 102.644 204.903 102.181 204.63 101.707C208.669 94.854 208.767 87.5421 208.465 83.7901C210.939 87.5908 213.085 91.7843 214.867 95.9998L214.867 96.0015C216.017 104.372 211.792 111.032 209.957 113.469Z" fill="white"/>
<path d="M309.753 111.276C306.496 100.336 302.813 93.1673 298.18 87.4341C294.244 82.5598 290.438 79.2383 286.764 77.48C285.462 76.856 282.836 75.654 280.201 75.9565C280.201 75.9565 278.25 76.181 276.687 77.5806C274.05 79.9403 273.048 87.2355 274.436 97.2514C274.88 101.729 276.075 106.361 277.16 109.877C278.242 113.39 279.214 115.784 279.214 115.784C279.214 115.784 287.33 135.781 294.232 138.874C294.267 138.887 294.306 138.903 294.306 138.903C294.751 139.046 295.223 138.763 295.566 138.291C296.054 137.618 296.087 136.901 296.046 136.559C295.64 133.121 291.088 130.03 291.088 130.03C288.034 127.957 283.933 122.512 279.639 107.343C285.912 113.241 297.327 116.339 297.327 116.339C300.506 124.926 301.571 135.542 301.985 141.952C301.953 142.3 301.96 142.635 302.045 142.918C302.075 143.018 302.113 143.11 302.166 143.194C302.316 143.435 302.516 143.524 302.57 143.562C302.962 143.814 303.322 143.8 303.582 143.594C303.853 143.376 303.904 142.979 303.989 142.338C303.989 142.338 304.033 142.022 304.02 141.594C304.02 141.589 304.02 141.582 304.017 141.575C304.001 141.357 303.984 141.151 303.964 140.961C303.848 139.668 303.766 138.94 303.766 138.94C303.262 134.493 302.409 128.833 300.875 122.267C304.995 116.578 306.196 110.334 306.52 106.5C311.043 118.163 312.735 129.437 310.905 132.491C310.633 132.945 308.707 135.846 309.92 137.216C310.236 137.575 310.684 137.72 310.808 137.775C312.613 138.593 314.173 137.75 314.091 136.112C313.595 125.973 311.556 117.328 309.753 111.276ZM279.169 105.724L279.166 105.722C278.501 103.412 277.739 100.298 277.216 96.5841C276.855 94.0287 276.549 91.7676 276.732 88.8664C276.921 85.9074 277.366 78.4427 281.3 77.4465C283.388 76.9167 285.677 78.338 287.487 79.4899C291.201 81.8452 294.551 85.3275 297.493 89.4044C300.552 98.8459 296.023 106.922 294.797 108.857C293.242 106.188 291.582 103.458 289.816 100.676C287.922 97.6956 286.018 94.8396 284.114 92.1044C284.04 91.9935 283.966 91.8843 283.888 91.7751C283.888 91.7751 283.409 91.0858 282.694 90.5669C282.5 90.4248 282.283 90.2927 282.283 90.2927C282.11 90.1881 281.957 90.1057 281.832 90.0439C281.728 89.9974 281.474 89.8924 281.213 89.9404C280.822 90.0131 280.601 90.3962 280.735 90.6893C280.735 90.691 280.735 90.691 280.735 90.691C280.846 90.9636 281.406 92.5137 282.305 93.2171C282.33 93.2342 282.352 93.2531 282.378 93.2719C282.886 93.6605 283.602 94.2507 284.369 95.0436C284.369 95.0436 284.621 95.3084 284.877 95.5886C290.677 101.933 294.51 108.961 297.047 115.593C285.877 111.509 281.062 107.677 279.169 105.724ZM300.574 121.405C300.296 120.623 300.016 119.877 299.74 119.169C297.788 114.141 296.037 111.033 296.037 111.033C295.783 110.581 295.52 110.117 295.247 109.643C299.287 102.79 299.384 95.4787 299.082 91.7266C301.557 95.5274 303.702 99.7209 305.484 103.936L305.484 103.938C306.634 112.309 302.409 118.968 300.574 121.405Z" fill="white"/>
<path d="M357.96 70.4634C354.703 59.523 351.02 52.3548 346.387 46.6216C342.451 41.7473 338.645 38.4258 334.971 36.6675C333.669 36.0435 331.043 34.8415 328.408 35.144C328.408 35.144 326.457 35.3685 324.894 36.7681C322.257 39.1278 321.255 46.423 322.643 56.4389C323.087 60.916 324.282 65.5483 325.367 69.0648C326.449 72.5778 327.421 74.9715 327.421 74.9715C327.421 74.9715 335.537 94.9683 342.439 98.061C342.474 98.0748 342.513 98.0903 342.513 98.0903C342.958 98.2338 343.43 97.9506 343.773 97.478C344.261 96.8056 344.294 96.0883 344.253 95.7464C343.847 92.3083 339.295 89.2176 339.295 89.2176C336.241 87.1445 332.14 81.6997 327.846 66.5308C334.119 72.4289 345.534 75.5264 345.534 75.5264C348.713 84.1134 349.778 94.7295 350.192 101.14C350.16 101.488 350.167 101.823 350.252 102.105C350.282 102.206 350.32 102.298 350.373 102.382C350.523 102.622 350.723 102.711 350.777 102.749C351.169 103.001 351.529 102.988 351.789 102.782C352.06 102.564 352.111 102.166 352.196 101.526C352.196 101.526 352.24 101.21 352.227 100.781C352.227 100.776 352.227 100.769 352.224 100.762C352.208 100.545 352.191 100.339 352.171 100.148C352.055 98.8557 351.973 98.1276 351.973 98.1276C351.469 93.6808 350.616 88.02 349.082 81.4546C353.202 75.7652 354.403 69.5217 354.727 65.6879C359.25 77.3506 360.942 88.6245 359.112 91.6787C358.84 92.1329 356.914 95.0335 358.127 96.4033C358.443 96.762 358.892 96.9072 359.015 96.9622C360.82 97.7809 362.38 96.9372 362.298 95.2995C361.802 85.1607 359.763 76.5151 357.96 70.4634ZM327.376 64.9116L327.373 64.9098C326.708 62.5993 325.946 59.4858 325.423 55.7716C325.062 53.2162 324.756 50.9551 324.939 48.0539C325.128 45.0949 325.573 37.6302 329.507 36.634C331.595 36.1042 333.884 37.5255 335.694 38.6774C339.408 41.0327 342.758 44.515 345.7 48.5919C348.759 58.0334 344.23 66.1094 343.004 68.0446C341.449 65.3757 339.789 62.6452 338.023 59.8631C336.129 56.8831 334.225 54.0271 332.321 51.2919C332.247 51.181 332.173 51.0718 332.095 50.9626C332.095 50.9626 331.616 50.2733 330.901 49.7544C330.707 49.6123 330.49 49.4802 330.49 49.4802C330.317 49.3756 330.164 49.2932 330.039 49.2314C329.935 49.1849 329.681 49.0799 329.42 49.1279C329.029 49.2006 328.808 49.5837 328.942 49.8768C328.942 49.8785 328.942 49.8785 328.942 49.8785C329.053 50.1511 329.613 51.7012 330.512 52.4046C330.537 52.4217 330.559 52.4406 330.585 52.4594C331.093 52.848 331.809 53.4382 332.576 54.2311C332.576 54.2311 332.828 54.4959 333.084 54.7761C338.884 61.1206 342.717 68.1485 345.254 74.7803C334.084 70.6963 329.269 66.8647 327.376 64.9116ZM348.781 80.5927C348.503 79.8109 348.223 79.0648 347.947 78.3561C345.995 73.3288 344.244 70.2204 344.244 70.2204C343.99 69.7685 343.727 69.3047 343.454 68.8307C347.494 61.978 347.591 54.6662 347.289 50.9141C349.764 54.7149 351.909 58.9084 353.691 63.1238L353.691 63.1255C354.841 71.4962 350.616 78.1558 348.781 80.5927Z" fill="white"/>
<path d="M136.049 83.1763C132.793 72.2359 129.11 65.0677 124.477 59.3345C120.541 54.4602 116.735 51.1387 113.061 49.3804C111.759 48.7564 109.133 47.5544 106.498 47.8569C106.498 47.8569 104.547 48.0814 102.984 49.481C100.347 51.8407 99.3451 59.1359 100.733 69.1518C101.177 73.6289 102.372 78.2612 103.457 81.7777C104.539 85.2907 105.511 87.6844 105.511 87.6844C105.511 87.6844 113.627 107.681 120.529 110.774C120.564 110.788 120.603 110.803 120.603 110.803C121.048 110.947 121.52 110.663 121.863 110.191C122.351 109.519 122.383 108.801 122.343 108.459C121.937 105.021 117.385 101.93 117.385 101.93C114.331 99.8574 110.229 94.4126 105.936 79.2437C112.209 85.1418 123.624 88.2393 123.624 88.2393C126.803 96.8263 127.868 107.442 128.282 113.852C128.25 114.201 128.256 114.536 128.342 114.818C128.372 114.919 128.41 115.011 128.463 115.094C128.613 115.335 128.813 115.424 128.867 115.462C129.258 115.714 129.619 115.701 129.878 115.495C130.15 115.277 130.201 114.879 130.286 114.239C130.286 114.239 130.33 113.923 130.317 113.494C130.317 113.489 130.317 113.482 130.314 113.475C130.298 113.258 130.28 113.052 130.261 112.861C130.145 111.569 130.062 110.84 130.062 110.84C129.558 106.394 128.706 100.733 127.172 94.1675C131.292 88.4781 132.493 82.2346 132.817 78.4008C137.34 90.0635 139.032 101.337 137.202 104.392C136.93 104.846 135.004 107.746 136.217 109.116C136.533 109.475 136.981 109.62 137.105 109.675C138.91 110.494 140.47 109.65 140.388 108.012C139.892 97.8736 137.852 89.228 136.049 83.1763ZM105.466 77.6245L105.463 77.6227C104.798 75.3122 104.036 72.1987 103.513 68.4845C103.152 65.929 102.846 63.668 103.029 60.7668C103.218 57.8078 103.663 50.3431 107.597 49.3468C109.684 48.8171 111.974 50.2384 113.784 51.3903C117.498 53.7456 120.848 57.2279 123.79 61.3048C126.849 70.7463 122.32 78.8223 121.094 80.7574C119.539 78.0886 117.879 75.3581 116.113 72.576C114.219 69.596 112.315 66.74 110.411 64.0048C110.337 63.8939 110.263 63.7847 110.185 63.6755C110.185 63.6755 109.706 62.9862 108.991 62.4673C108.796 62.3252 108.579 62.1931 108.579 62.1931C108.407 62.0885 108.254 62.0061 108.129 61.9443C108.025 61.8978 107.771 61.7928 107.51 61.8407C107.119 61.9135 106.898 62.2966 107.032 62.5897C107.032 62.5914 107.032 62.5914 107.032 62.5914C107.143 62.864 107.703 64.4141 108.602 65.1175C108.627 65.1346 108.649 65.1534 108.675 65.1723C109.183 65.5609 109.899 66.1511 110.666 66.944C110.666 66.944 110.918 67.2088 111.174 67.489C116.974 73.8334 120.806 80.8614 123.344 87.4932C112.174 83.4092 107.359 79.5776 105.466 77.6245ZM126.871 93.3056C126.592 92.5238 126.312 91.7777 126.037 91.069C124.085 86.0417 122.334 82.9333 122.334 82.9333C122.08 82.4814 121.817 82.0176 121.544 81.5436C125.584 74.6909 125.681 67.3791 125.379 63.627C127.854 67.4278 129.999 71.6213 131.781 75.8367L131.781 75.8384C132.931 84.2091 128.706 90.8687 126.871 93.3056Z" fill="white"/>
<path d="M36.2252 115.405C32.9686 104.464 29.286 97.2962 24.6525 91.563C20.7166 86.6887 16.9103 83.3672 13.237 81.6089C11.9346 80.9849 9.30909 79.7829 6.67406 80.0854C6.67406 80.0854 4.72288 80.3099 3.16002 81.7095C0.522797 84.0692 -0.479081 91.3644 0.90884 101.38C1.3531 105.857 2.54799 110.49 3.63307 114.006C4.71478 117.519 5.68669 119.913 5.68669 119.913C5.68669 119.913 13.8027 139.91 20.7044 143.002C20.74 143.016 20.779 143.032 20.779 143.032C21.2237 143.175 21.6961 142.892 22.0386 142.419C22.5266 141.747 22.5592 141.03 22.5185 140.688C22.113 137.25 17.5609 134.159 17.5609 134.159C14.5064 132.086 10.4052 126.641 6.11139 111.472C12.3847 117.37 23.8001 120.468 23.8001 120.468C26.9788 129.055 28.044 139.671 28.4578 146.081C28.4254 146.429 28.4322 146.764 28.5174 147.047C28.5475 147.147 28.5861 147.239 28.6384 147.323C28.7884 147.563 28.9886 147.653 29.0428 147.691C29.4342 147.943 29.7947 147.929 30.0542 147.723C30.3256 147.505 30.377 147.108 30.4619 146.467C30.4619 146.467 30.5061 146.151 30.493 145.723C30.493 145.717 30.4931 145.711 30.4897 145.704C30.4738 145.486 30.4562 145.28 30.4368 145.09C30.3211 143.797 30.2382 143.069 30.2382 143.069C29.7343 138.622 28.8813 132.961 27.348 126.396C31.468 120.707 32.6684 114.463 32.9927 110.629C37.5155 122.292 39.208 133.566 37.3781 136.62C37.1054 137.074 35.1794 139.975 36.393 141.345C36.7091 141.703 37.1571 141.849 37.2809 141.904C39.0856 142.722 40.6456 141.879 40.564 140.241C40.0676 130.102 38.0282 121.456 36.2252 115.405ZM5.64208 109.853L5.63869 109.851C4.97406 107.541 4.2116 104.427 3.68857 100.713C3.32783 98.1576 3.02167 95.8965 3.20506 92.9953C3.39385 90.0363 3.83898 82.5716 7.77308 81.5754C9.86016 81.0456 12.1496 82.4669 13.9593 83.6188C17.6737 85.9741 21.0235 89.4564 23.9656 93.5333C27.0243 102.975 22.4957 111.051 21.2701 112.986C19.7148 110.317 18.0544 107.587 16.2888 104.804C14.3951 101.824 12.4906 98.9685 10.5871 96.2333C10.5128 96.1224 10.4386 96.0132 10.361 95.904C10.361 95.904 9.88171 95.2147 9.16697 94.6958C8.9722 94.5537 8.75527 94.4217 8.75527 94.4217C8.5824 94.317 8.42982 94.2346 8.30434 94.1728C8.20087 94.1263 7.9464 94.0213 7.68604 94.0693C7.29464 94.142 7.07333 94.5251 7.20782 94.8182C7.20781 94.8199 7.20781 94.8199 7.20781 94.8199C7.3186 95.0925 7.87838 96.6426 8.77747 97.346C8.80288 97.3631 8.82489 97.382 8.85029 97.4008C9.3583 97.7894 10.0744 98.3796 10.8421 99.1725C10.8421 99.1725 11.094 99.4373 11.3493 99.7175C17.1494 106.062 20.9823 113.09 23.52 119.722C12.3495 115.638 7.53434 111.806 5.64208 109.853ZM27.0464 125.534C26.7683 124.752 26.4882 124.006 26.2131 123.298C24.2603 118.27 22.5101 115.162 22.5101 115.162C22.2557 114.71 21.9929 114.246 21.72 113.772C25.7593 106.919 25.8568 99.6076 25.555 95.8555C28.0293 99.6563 30.1751 103.85 31.957 108.065L31.957 108.067C33.107 116.438 28.8816 123.097 27.0464 125.534Z" fill="white"/>
<path d="M500.715 102.136C497.459 91.1959 493.776 84.0277 489.143 78.2945C485.207 73.4201 481.401 70.0987 477.727 68.3403C476.425 67.7164 473.799 66.5143 471.164 66.8169C471.164 66.8169 469.213 67.0414 467.65 68.4409C465.013 70.8006 464.011 78.0958 465.399 88.1118C465.843 92.5889 467.038 97.2212 468.123 100.738C469.205 104.251 470.177 106.644 470.177 106.644C470.177 106.644 478.293 126.641 485.195 129.734C485.23 129.748 485.269 129.763 485.269 129.763C485.714 129.907 486.186 129.623 486.529 129.151C487.017 128.478 487.049 127.761 487.009 127.419C486.603 123.981 482.051 120.89 482.051 120.89C478.997 118.817 474.895 113.373 470.602 98.2037C476.875 104.102 488.29 107.199 488.29 107.199C491.469 115.786 492.534 126.402 492.948 132.812C492.916 133.161 492.922 133.496 493.008 133.778C493.038 133.879 493.076 133.971 493.129 134.054C493.279 134.295 493.479 134.384 493.533 134.422C493.924 134.674 494.285 134.661 494.544 134.454C494.816 134.237 494.867 133.839 494.952 133.199C494.952 133.199 494.996 132.883 494.983 132.454C494.983 132.449 494.983 132.442 494.98 132.435C494.964 132.218 494.946 132.012 494.927 131.821C494.811 130.529 494.728 129.8 494.728 129.8C494.224 125.354 493.372 119.693 491.838 113.127C495.958 107.438 497.159 101.195 497.483 97.3607C502.006 109.023 503.698 120.297 501.868 123.352C501.596 123.806 499.67 126.706 500.883 128.076C501.199 128.435 501.647 128.58 501.771 128.635C503.576 129.454 505.136 128.61 505.054 126.972C504.558 116.834 502.518 108.188 500.715 102.136ZM470.132 96.5844L470.129 96.5827C469.464 94.2721 468.702 91.1586 468.179 87.4445C467.818 84.889 467.512 82.6279 467.695 79.7267C467.884 76.7678 468.329 69.303 472.263 68.3068C474.35 67.777 476.64 69.1983 478.45 70.3502C482.164 72.7055 485.514 76.1878 488.456 80.2648C491.515 89.7063 486.986 97.7822 485.76 99.7174C484.205 97.0486 482.545 94.318 480.779 91.5359C478.885 88.5559 476.981 85.7 475.077 82.9648C475.003 82.8539 474.929 82.7447 474.851 82.6355C474.851 82.6355 474.372 81.9461 473.657 81.4273C473.462 81.2851 473.246 81.1531 473.246 81.1531C473.073 81.0485 472.92 80.9661 472.795 80.9042C472.691 80.8578 472.437 80.7528 472.176 80.8007C471.785 80.8735 471.564 81.2566 471.698 81.5497C471.698 81.5514 471.698 81.5514 471.698 81.5514C471.809 81.824 472.369 83.374 473.268 84.0775C473.293 84.0946 473.315 84.1134 473.341 84.1322C473.849 84.5208 474.565 85.1111 475.332 85.9039C475.332 85.9039 475.584 86.1688 475.84 86.4489C481.64 92.7934 485.472 99.8213 488.01 106.453C476.84 102.369 472.025 98.5375 470.132 96.5844ZM491.537 112.266C491.259 111.484 490.978 110.738 490.703 110.029C488.751 105.002 487 101.893 487 101.893C486.746 101.441 486.483 100.978 486.21 100.504C490.25 93.6508 490.347 86.339 490.045 82.5869C492.52 86.3877 494.665 90.5812 496.447 94.7966L496.447 94.7983C497.597 103.169 493.372 109.829 491.537 112.266Z" fill="white"/>
<path d="M421.111 93.8297C418.883 86.3351 416.364 81.4246 413.193 77.4972C410.5 74.1581 407.896 71.8828 405.383 70.6783C404.492 70.2508 402.695 69.4274 400.892 69.6347C400.892 69.6347 399.557 69.7885 398.488 70.7472C396.684 72.3637 395.998 77.3612 396.948 84.2226C397.252 87.2895 398.069 90.4628 398.812 92.8717C399.552 95.2783 400.217 96.9181 400.217 96.9181C400.217 96.9181 405.77 110.617 410.492 112.735C410.516 112.745 410.543 112.755 410.543 112.755C410.847 112.854 411.17 112.66 411.405 112.336C411.739 111.875 411.761 111.384 411.733 111.15C411.456 108.794 408.341 106.677 408.341 106.677C406.251 105.257 403.445 101.527 400.507 91.1359C404.799 95.1763 412.61 97.2981 412.61 97.2981C414.785 103.181 415.514 110.453 415.797 114.844C415.775 115.083 415.779 115.312 415.837 115.506C415.858 115.575 415.884 115.638 415.92 115.695C416.023 115.86 416.16 115.921 416.197 115.947C416.465 116.119 416.711 116.11 416.889 115.969C417.075 115.82 417.11 115.547 417.168 115.109C417.168 115.109 417.198 114.892 417.189 114.599C417.189 114.595 417.189 114.59 417.187 114.586C417.176 114.437 417.164 114.296 417.151 114.165C417.072 113.28 417.015 112.781 417.015 112.781C416.67 109.735 416.087 105.857 415.037 101.359C417.856 97.4617 418.678 93.1846 418.9 90.5583C421.994 98.5477 423.152 106.271 421.9 108.363C421.714 108.674 420.396 110.661 421.226 111.6C421.442 111.845 421.749 111.945 421.834 111.982C423.068 112.543 424.136 111.965 424.08 110.843C423.74 103.898 422.345 97.9753 421.111 93.8297ZM400.186 90.0266L400.184 90.0254C399.729 88.4426 399.207 86.3097 398.85 83.7654C398.603 82.0148 398.393 80.4659 398.519 78.4784C398.648 76.4514 398.953 71.3378 401.644 70.6553C403.072 70.2924 404.639 71.266 405.877 72.0551C408.418 73.6686 410.71 76.0541 412.723 78.8469C414.816 85.3147 411.718 90.8471 410.879 92.1728C409.815 90.3445 408.679 88.474 407.471 86.5681C406.175 84.5267 404.872 82.5703 403.57 80.6966C403.519 80.6206 403.468 80.5458 403.415 80.471C403.415 80.471 403.087 79.9988 402.598 79.6433C402.465 79.546 402.316 79.4555 402.316 79.4555C402.198 79.3839 402.094 79.3274 402.008 79.2851C401.937 79.2532 401.763 79.1813 401.585 79.2141C401.317 79.264 401.165 79.5264 401.257 79.7272C401.257 79.7284 401.257 79.7284 401.257 79.7284C401.333 79.9151 401.716 80.977 402.331 81.4588C402.349 81.4706 402.364 81.4835 402.381 81.4964C402.729 81.7625 403.219 82.1669 403.744 82.71C403.744 82.71 403.916 82.8915 404.091 83.0834C408.06 87.4296 410.682 92.2439 412.418 96.787C404.775 93.9894 401.481 91.3645 400.186 90.0266ZM414.831 100.769C414.641 100.233 414.449 99.722 414.261 99.2366C412.925 95.7927 411.727 93.6633 411.727 93.6633C411.553 93.3537 411.373 93.036 411.187 92.7113C413.951 88.0169 414.017 83.008 413.811 80.4377C415.504 83.0414 416.972 85.9141 418.191 88.8018L418.191 88.803C418.978 94.5372 416.087 99.0993 414.831 100.769Z" fill="white"/>
<path d="M530.5 35.3229C528.272 27.8283 525.752 22.9178 522.582 18.9904C519.889 15.6513 517.285 13.3759 514.771 12.1714C513.88 11.744 512.084 10.9206 510.281 11.1278C510.281 11.1278 508.946 11.2816 507.877 12.2404C506.072 13.8569 505.387 18.8544 506.336 25.7157C506.64 28.7827 507.458 31.956 508.2 34.3649C508.94 36.7714 509.605 38.4112 509.605 38.4112C509.605 38.4112 515.158 52.1098 519.88 54.2284C519.905 54.2378 519.931 54.2485 519.931 54.2485C520.236 54.3467 520.559 54.1527 520.793 53.829C521.127 53.3684 521.15 52.877 521.122 52.6428C520.844 50.2875 517.73 48.1703 517.73 48.1703C515.64 46.7502 512.834 43.0203 509.896 32.629C514.188 36.6694 521.999 38.7913 521.999 38.7913C524.174 44.6737 524.902 51.9461 525.185 56.3372C525.163 56.5759 525.168 56.8053 525.226 56.999C525.247 57.0678 525.273 57.1308 525.309 57.1881C525.412 57.3528 525.549 57.4141 525.586 57.4399C525.853 57.6125 526.1 57.6033 526.278 57.4622C526.463 57.3129 526.499 57.0405 526.557 56.6018C526.557 56.6018 526.587 56.3853 526.578 56.0917C526.578 56.0882 526.578 56.0836 526.576 56.0789C526.565 55.9298 526.553 55.7888 526.539 55.6583C526.46 54.7727 526.404 54.274 526.404 54.274C526.059 51.2277 525.475 47.3499 524.426 42.8523C527.245 38.9548 528.066 34.6778 528.288 32.0515C531.383 40.0408 532.541 47.7639 531.289 49.8562C531.102 50.1673 529.784 52.1544 530.615 53.0927C530.831 53.3384 531.138 53.4379 531.222 53.4756C532.457 54.0364 533.524 53.4584 533.469 52.3366C533.129 45.3911 531.734 39.4685 530.5 35.3229ZM509.575 31.5198L509.572 31.5186C509.118 29.9358 508.596 27.8029 508.238 25.2586C507.991 23.508 507.782 21.959 507.907 19.9716C508.037 17.9446 508.341 12.831 511.033 12.1485C512.461 11.7856 514.027 12.7592 515.266 13.5483C517.807 15.1618 520.099 17.5473 522.112 20.3401C524.205 26.8079 521.106 32.3402 520.268 33.6659C519.203 31.8377 518.067 29.9672 516.859 28.0613C515.564 26.0199 514.261 24.0635 512.958 22.1898C512.907 22.1138 512.857 22.039 512.804 21.9642C512.804 21.9642 512.476 21.4919 511.987 21.1365C511.853 21.0391 511.705 20.9487 511.705 20.9487C511.587 20.877 511.482 20.8206 511.396 20.7782C511.326 20.7464 511.151 20.6745 510.973 20.7073C510.706 20.7572 510.554 21.0196 510.646 21.2204C510.646 21.2215 510.646 21.2215 510.646 21.2215C510.722 21.4083 511.105 22.4701 511.72 22.952C511.737 22.9637 511.753 22.9766 511.77 22.9895C512.118 23.2557 512.607 23.6601 513.133 24.2032C513.133 24.2032 513.305 24.3846 513.48 24.5765C517.448 28.9227 520.071 33.7371 521.807 38.2802C514.164 35.4825 510.869 32.8577 509.575 31.5198ZM524.22 42.2619C524.029 41.7263 523.838 41.2152 523.65 40.7297C522.314 37.2859 521.116 35.1564 521.116 35.1564C520.942 34.8469 520.762 34.5292 520.575 34.2044C523.339 29.5101 523.406 24.5012 523.199 21.9309C524.892 24.5345 526.361 27.4072 527.58 30.295L527.58 30.2961C528.367 36.0304 525.475 40.5925 524.22 42.2619Z" fill="white"/>
<path d="M247.646 50.5024C246.065 44.4734 244.274 40.5236 242.02 37.3652C240.106 34.6798 238.254 32.8504 236.466 31.8825C235.832 31.539 234.554 30.8773 233.271 31.045C233.271 31.045 232.321 31.1694 231.56 31.9413C230.275 33.2428 229.785 37.2641 230.458 42.7842C230.672 45.2518 231.252 47.8046 231.78 49.7424C232.305 51.6783 232.777 52.9974 232.777 52.9974C232.777 52.9974 236.722 64.0165 240.081 65.7188C240.098 65.7264 240.117 65.735 240.117 65.735C240.334 65.8139 240.564 65.6576 240.731 65.397C240.968 65.0263 240.985 64.6309 240.965 64.4424C240.769 62.5476 238.554 60.8455 238.554 60.8455C237.067 59.7039 235.072 56.7043 232.987 48.3449C236.039 51.5937 241.596 53.2972 241.596 53.2972C243.14 58.0291 243.655 63.8801 243.855 67.413C243.839 67.6051 243.842 67.7897 243.883 67.9454C243.898 68.0008 243.917 68.0515 243.942 68.0976C244.015 68.2301 244.112 68.2793 244.139 68.3001C244.329 68.4388 244.505 68.4313 244.631 68.3176C244.763 68.1974 244.789 67.9783 244.83 67.6252C244.83 67.6252 244.852 67.451 244.846 67.2148C244.846 67.212 244.846 67.2083 244.844 67.2045C244.836 67.0845 244.828 66.9711 244.818 66.8661C244.763 66.1536 244.722 65.7523 244.722 65.7523C244.479 63.3015 244.065 60.1817 243.321 56.5635C245.329 53.4262 245.915 49.9846 246.074 47.8713C248.272 54.298 249.092 60.5114 248.201 62.1954C248.068 62.4459 247.129 64.0453 247.719 64.7999C247.873 64.9975 248.091 65.0773 248.152 65.1076C249.03 65.5583 249.79 65.0927 249.75 64.1901C249.512 58.602 248.522 53.8374 247.646 50.5024ZM232.759 47.4526L232.757 47.4516C232.435 46.1783 232.064 44.4625 231.811 42.4155C231.636 41.0071 231.488 39.7609 231.578 38.1618C231.671 36.5308 231.89 32.4162 233.806 31.8658C234.822 31.5731 235.936 32.3558 236.817 32.9901C238.625 34.287 240.254 36.2053 241.685 38.4514C243.171 43.6543 240.964 48.1071 240.366 49.1742C239.61 47.7037 238.803 46.1992 237.944 44.6664C237.023 43.0245 236.097 41.451 235.171 39.944C235.135 39.883 235.099 39.8228 235.061 39.7626C235.061 39.7626 234.828 39.3828 234.48 39.0971C234.385 39.0188 234.28 38.9461 234.28 38.9461C234.196 38.8885 234.121 38.8431 234.06 38.8091C234.01 38.7835 233.886 38.7257 233.759 38.7522C233.569 38.7925 233.461 39.0037 233.526 39.1652C233.526 39.1662 233.526 39.1662 233.526 39.1662C233.58 39.3164 233.852 40.1705 234.29 40.5579C234.302 40.5674 234.313 40.5777 234.325 40.5881C234.572 40.8021 234.921 41.1272 235.294 41.564C235.294 41.564 235.417 41.7099 235.541 41.8642C238.363 45.3592 240.226 49.2316 241.46 52.886C236.023 50.6388 233.68 48.5284 232.759 47.4526ZM243.174 56.0886C243.039 55.6577 242.903 55.2466 242.769 54.856C241.82 52.0858 240.969 50.373 240.969 50.373C240.846 50.1241 240.718 49.8685 240.585 49.6073C242.554 45.8289 242.604 41.7988 242.458 39.7308C243.662 41.8249 244.705 44.1355 245.571 46.4584L245.571 46.4593C246.128 51.0727 244.069 54.7447 243.174 56.0886Z" fill="white"/>
<path d="M75.2252 70.4048C71.9686 59.4644 68.286 52.2962 63.6525 46.563C59.7166 41.6887 55.9103 38.3672 52.237 36.6089C50.9346 35.9849 48.3091 34.7829 45.6741 35.0854C45.6741 35.0854 43.7229 35.3099 42.16 36.7095C39.5228 39.0692 38.5209 46.3644 39.9088 56.3804C40.3531 60.8574 41.548 65.4897 42.6331 69.0062C43.7148 72.5192 44.6867 74.9129 44.6867 74.9129C44.6867 74.9129 52.8027 94.9097 59.7044 98.0025C59.74 98.0162 59.779 98.0317 59.779 98.0317C60.2237 98.1752 60.6961 97.892 61.0386 97.4194C61.5266 96.747 61.5592 96.0297 61.5185 95.6878C61.113 92.2497 56.5609 89.159 56.5609 89.159C53.5064 87.0859 49.4052 81.6411 45.1114 66.4722C51.3847 72.3703 62.8001 75.4678 62.8001 75.4678C65.9788 84.0548 67.044 94.6709 67.4578 101.081C67.4254 101.429 67.4322 101.764 67.5174 102.047C67.5475 102.147 67.5861 102.239 67.6384 102.323C67.7884 102.563 67.9886 102.653 68.0428 102.691C68.4342 102.943 68.7947 102.929 69.0542 102.723C69.3256 102.505 69.377 102.108 69.4619 101.467C69.4619 101.467 69.5061 101.151 69.493 100.723C69.493 100.717 69.4931 100.711 69.4897 100.704C69.4738 100.486 69.4562 100.28 69.4368 100.09C69.3211 98.7971 69.2382 98.069 69.2382 98.069C68.7343 93.6222 67.8813 87.9614 66.348 81.396C70.468 75.7066 71.6684 69.4631 71.9927 65.6293C76.5155 77.292 78.208 88.5659 76.3781 91.6201C76.1054 92.0743 74.1794 94.9749 75.393 96.3448C75.7091 96.7034 76.1571 96.8486 76.2809 96.9036C78.0856 97.7223 79.6456 96.8786 79.564 95.2409C79.0676 85.1021 77.0282 76.4565 75.2252 70.4048ZM44.6421 64.853L44.6387 64.8513C43.9741 62.5407 43.2116 59.4272 42.6886 55.713C42.3278 53.1576 42.0217 50.8965 42.2051 47.9953C42.3938 45.0363 42.839 37.5716 46.7731 36.5754C48.8602 36.0456 51.1496 37.4669 52.9593 38.6188C56.6737 40.9741 60.0235 44.4564 62.9656 48.5333C66.0243 57.9748 61.4957 66.0508 60.2701 67.986C58.7148 65.3172 57.0544 62.5866 55.2888 59.8045C53.3951 56.8245 51.4906 53.9685 49.5871 51.2333C49.5128 51.1224 49.4386 51.0132 49.361 50.904C49.361 50.904 48.8817 50.2147 48.167 49.6958C47.9722 49.5537 47.7553 49.4217 47.7553 49.4217C47.5824 49.317 47.4298 49.2346 47.3043 49.1728C47.2009 49.1263 46.9464 49.0213 46.686 49.0693C46.2946 49.142 46.0733 49.5251 46.2078 49.8182C46.2078 49.8199 46.2078 49.8199 46.2078 49.8199C46.3186 50.0925 46.8784 51.6426 47.7775 52.346C47.8029 52.3631 47.8249 52.382 47.8503 52.4008C48.3583 52.7894 49.0744 53.3796 49.8421 54.1725C49.8421 54.1725 50.094 54.4373 50.3493 54.7175C56.1494 61.062 59.9823 68.0899 62.52 74.7217C51.3495 70.6377 46.5343 66.8061 44.6421 64.853ZM66.0464 80.5341C65.7683 79.7523 65.4882 79.0062 65.2131 78.2975C63.2603 73.2702 61.5101 70.1618 61.5101 70.1618C61.2557 69.7099 60.9929 69.2461 60.72 68.7721C64.7593 61.9194 64.8568 54.6076 64.555 50.8555C67.0293 54.6563 69.1751 58.8498 70.957 63.0652L70.957 63.0669C72.107 71.4376 67.8816 78.0972 66.0464 80.5341Z" fill="white"/>
</svg>
