<svg width="520" height="704" viewBox="0 0 520 704" fill="none" xmlns="http://www.w3.org/2000/svg">
<path d="M540.734 195.547C535.744 205.813 533.617 213.586 533.16 220.944C532.769 227.196 533.331 232.217 534.852 235.995C535.391 237.335 536.515 239.994 538.662 241.552C538.662 241.552 540.252 242.704 542.35 242.728C545.888 242.77 551.555 238.068 557.298 229.745C559.995 226.144 562.244 221.922 563.819 218.596C565.395 215.275 566.296 212.853 566.296 212.853C566.296 212.853 573.82 192.627 570.821 185.684C570.804 185.65 570.786 185.612 570.786 185.612C570.555 185.206 570.015 185.096 569.444 185.213C568.63 185.379 568.121 185.886 567.92 186.165C565.896 188.974 567.165 194.328 567.165 194.328C568.016 197.92 567.362 204.705 560.28 218.79C559.639 210.203 553.315 200.208 553.315 200.208C556.773 191.729 563.159 183.182 567.184 178.176C567.443 177.941 567.665 177.69 567.793 177.424C567.839 177.33 567.872 177.236 567.89 177.139C567.942 176.86 567.855 176.659 567.84 176.594C567.722 176.144 567.447 175.911 567.117 175.887C566.769 175.865 566.463 176.123 565.967 176.538C565.967 176.538 565.721 176.741 565.442 177.066C565.438 177.07 565.433 177.074 565.431 177.082C565.296 177.253 565.17 177.417 565.056 177.57C564.268 178.602 563.837 179.194 563.837 179.194C561.204 182.813 558.009 187.563 554.704 193.44C547.823 194.852 542.72 198.644 539.891 201.252C544.435 189.597 550.803 180.141 554.216 179.126C554.724 178.975 558.103 178.138 558.134 176.308C558.143 175.83 557.911 175.42 557.857 175.296C557.079 173.473 555.359 173.041 554.313 174.304C547.83 182.115 543.493 189.867 540.734 195.547ZM559.532 220.301L559.534 220.304C558.463 222.457 556.922 225.268 554.798 228.36C553.338 230.487 552.036 232.361 549.941 234.377C547.803 236.431 542.432 241.634 538.858 239.711C536.961 238.691 536.233 236.097 535.677 234.025C534.53 229.779 534.412 224.948 534.997 219.955C539.12 210.927 547.915 208.032 550.126 207.433C549.47 210.452 548.85 213.587 548.272 216.831C547.655 220.307 547.13 223.7 546.685 227.002C546.665 227.134 546.646 227.265 546.63 227.398C546.63 227.398 546.517 228.23 546.694 229.095C546.741 229.331 546.812 229.575 546.812 229.575C546.869 229.769 546.926 229.933 546.977 230.063C547.021 230.168 547.138 230.417 547.362 230.558C547.7 230.768 548.122 230.635 548.221 230.328C548.222 230.327 548.222 230.327 548.222 230.327C548.325 230.051 548.959 228.53 548.771 227.404C548.764 227.374 548.761 227.346 548.755 227.315C548.643 226.685 548.513 225.766 548.483 224.663C548.483 224.663 548.476 224.297 548.477 223.918C548.487 215.322 550.409 207.551 553.018 200.947C558.495 211.504 559.457 217.583 559.532 220.301ZM554.344 194.279C554.021 195.044 553.724 195.783 553.448 196.491C551.491 201.517 550.682 204.991 550.682 204.991C550.564 205.496 550.445 206.016 550.326 206.55C542.718 208.873 537.706 214.199 535.394 217.169C536.138 212.695 537.388 208.154 538.922 203.842L538.924 203.841C543.731 196.892 551.345 194.836 554.344 194.279Z" fill="white"/>
<path d="M540.236 26.8915C535.246 37.158 533.119 44.9309 532.662 52.2883C532.271 58.5411 532.833 63.5614 534.354 67.3394C534.893 68.6793 536.016 71.3392 538.164 72.8963C538.164 72.8963 539.754 74.0489 541.852 74.0728C545.39 74.1145 551.057 69.4126 556.8 61.0901C559.497 57.489 561.746 53.2664 563.321 49.9406C564.897 46.6197 565.797 44.1982 565.797 44.1982C565.797 44.1982 573.322 23.9716 570.323 17.0288C570.306 16.9946 570.288 16.9568 570.288 16.9568C570.057 16.5506 569.517 16.4403 568.946 16.5574C568.131 16.7234 567.623 17.2303 567.422 17.5099C565.398 20.3187 566.667 25.6728 566.667 25.6728C567.518 29.2647 566.864 36.0498 559.782 50.1347C559.141 41.548 552.817 31.5524 552.817 31.5524C556.274 23.0738 562.661 14.5268 566.686 9.52115C566.945 9.2862 567.167 9.03467 567.295 8.76867C567.34 8.67428 567.374 8.58035 567.392 8.48341C567.444 8.20472 567.357 8.00356 567.342 7.93915C567.224 7.48896 566.949 7.25533 566.618 7.23196C566.271 7.20925 565.965 7.46767 565.469 7.88255C565.469 7.88255 565.223 8.08571 564.943 8.41048C564.94 8.41423 564.935 8.41922 564.933 8.42652C564.798 8.59775 564.672 8.76141 564.557 8.91499C563.769 9.94627 563.339 10.5391 563.339 10.5391C560.706 14.1582 557.511 18.9081 554.206 24.7848C547.325 26.1963 542.222 29.9887 539.393 32.5963C543.937 20.9419 550.305 11.4862 553.718 10.4705C554.226 10.3198 557.605 9.48228 557.636 7.65248C557.645 7.17451 557.413 6.7648 557.359 6.64056C556.581 4.81782 554.861 4.386 553.815 5.64859C547.332 13.4594 542.995 21.2116 540.236 26.8915ZM559.034 51.6456L559.036 51.6492C557.965 53.8018 556.424 56.6125 554.3 59.7043C552.84 61.8321 551.538 63.7061 549.443 65.7213C547.305 67.7754 541.934 72.9785 538.36 71.0553C536.463 70.036 535.735 67.4414 535.179 65.3695C534.032 61.1236 533.914 56.2931 534.499 51.2996C538.622 42.272 547.417 39.3768 549.628 38.778C548.972 41.7964 548.352 44.9314 547.774 48.1754C547.157 51.6519 546.632 55.0442 546.187 58.3469C546.167 58.4788 546.148 58.6094 546.132 58.7424C546.132 58.7424 546.019 59.5744 546.196 60.4398C546.243 60.6762 546.314 60.9201 546.314 60.9201C546.371 61.114 546.428 61.2778 546.478 61.4082C546.523 61.5124 546.64 61.7617 546.864 61.9022C547.202 62.113 547.624 61.9801 547.723 61.6731C547.724 61.6718 547.724 61.6718 547.724 61.6718C547.827 61.396 548.461 59.875 548.273 58.7489C548.266 58.7191 548.263 58.6904 548.257 58.6594C548.145 58.0297 548.015 57.1107 547.985 56.0075C547.985 56.0075 547.978 55.642 547.979 55.263C547.989 46.6669 549.911 38.8958 552.52 32.2917C557.997 42.8492 558.959 48.9273 559.034 51.6456ZM553.846 25.6239C553.523 26.3882 553.226 27.1275 552.95 27.8359C550.993 32.8618 550.184 36.3361 550.184 36.3361C550.066 36.8411 549.947 37.3606 549.828 37.8945C542.22 40.2182 537.208 45.5434 534.896 48.5137C535.64 44.0399 536.89 39.4983 538.424 35.1865L538.425 35.1852C543.232 28.2366 550.847 26.1809 553.846 25.6239Z" fill="white"/>
<path d="M518.324 113.001C513.7 122.551 511.737 129.786 511.33 136.638C510.982 142.461 511.519 147.139 512.945 150.662C513.451 151.911 514.504 154.392 516.509 155.848C516.509 155.848 517.994 156.925 519.949 156.953C523.247 157.001 528.516 152.635 533.846 144.898C536.351 141.55 538.435 137.622 539.895 134.529C541.355 131.439 542.188 129.186 542.188 129.186C542.188 129.186 549.149 110.364 546.336 103.89C546.32 103.858 546.303 103.823 546.303 103.823C546.087 103.444 545.584 103.34 545.051 103.447C544.293 103.6 543.82 104.071 543.634 104.331C541.755 106.942 542.951 111.932 542.951 111.932C543.753 115.28 543.161 121.599 536.597 134.7C535.978 126.7 530.06 117.374 530.06 117.374C533.26 109.485 539.19 101.54 542.928 96.8873C543.169 96.6691 543.375 96.4354 543.493 96.188C543.536 96.1002 543.567 96.0127 543.583 95.9225C543.631 95.663 543.549 95.4754 543.536 95.4154C543.424 94.9958 543.167 94.7774 542.859 94.7548C542.536 94.7328 542.251 94.9728 541.79 95.3579C541.79 95.3579 541.561 95.5466 541.301 95.8484C541.298 95.8519 541.294 95.8565 541.292 95.8633C541.166 96.0224 541.049 96.1746 540.943 96.3173C540.211 97.2759 539.811 97.8271 539.811 97.8271C537.367 101.192 534.402 105.608 531.337 111.073C524.928 112.371 520.183 115.89 517.553 118.312C521.758 107.468 527.668 98.6763 530.846 97.7388C531.319 97.5998 534.466 96.8282 534.49 95.1238C534.497 94.6786 534.28 94.2964 534.229 94.1805C533.5 92.4807 531.896 92.0741 530.924 93.2476C524.902 100.507 520.88 107.717 518.324 113.001ZM535.904 136.106L535.905 136.109C534.913 138.112 533.484 140.726 531.513 143.6C530.157 145.579 528.949 147.321 527.002 149.193C525.015 151.101 520.023 155.934 516.688 154.133C514.917 153.179 514.233 150.76 513.709 148.829C512.629 144.871 512.508 140.371 513.04 135.722C516.859 127.323 525.047 124.648 527.106 124.096C526.502 126.906 525.932 129.825 525.402 132.845C524.836 136.082 524.355 139.24 523.95 142.315C523.931 142.438 523.914 142.56 523.899 142.684C523.899 142.684 523.796 143.459 523.963 144.265C524.008 144.485 524.074 144.713 524.074 144.713C524.128 144.893 524.181 145.046 524.229 145.168C524.271 145.265 524.38 145.497 524.589 145.629C524.905 145.826 525.298 145.703 525.389 145.418C525.39 145.417 525.39 145.417 525.39 145.417C525.485 145.16 526.072 143.745 525.894 142.695C525.888 142.668 525.884 142.641 525.879 142.612C525.773 142.025 525.65 141.169 525.619 140.141C525.619 140.141 525.611 139.801 525.611 139.448C525.599 131.44 527.37 124.207 529.784 118.062C534.915 127.91 535.827 133.574 535.904 136.106ZM531.004 111.854C530.705 112.565 530.429 113.253 530.174 113.912C528.363 118.589 527.618 121.823 527.618 121.823C527.51 122.293 527.399 122.777 527.29 123.274C520.206 125.419 515.55 130.367 513.403 133.128C514.084 128.962 515.238 124.735 516.657 120.722L516.658 120.721C521.12 114.261 528.21 112.365 531.004 111.854Z" fill="white"/>
<path d="M356.236 27.8915C351.246 38.158 349.119 45.9309 348.662 53.2883C348.271 59.5411 348.833 64.5614 350.354 68.3394C350.893 69.6793 352.016 72.3392 354.164 73.8963C354.164 73.8963 355.754 75.0489 357.852 75.0728C361.39 75.1145 367.057 70.4126 372.8 62.0901C375.497 58.489 377.746 54.2664 379.321 50.9406C380.897 47.6197 381.797 45.1982 381.797 45.1982C381.797 45.1982 389.322 24.9716 386.323 18.0288C386.306 17.9946 386.288 17.9568 386.288 17.9568C386.057 17.5506 385.517 17.4403 384.946 17.5574C384.131 17.7234 383.623 18.2303 383.422 18.5099C381.398 21.3187 382.667 26.6728 382.667 26.6728C383.518 30.2647 382.864 37.0498 375.782 51.1347C375.141 42.548 368.817 32.5524 368.817 32.5524C372.274 24.0738 378.661 15.5268 382.686 10.5212C382.945 10.2862 383.167 10.0347 383.295 9.76867C383.34 9.67428 383.374 9.58035 383.392 9.48341C383.444 9.20472 383.357 9.00356 383.342 8.93915C383.224 8.48896 382.949 8.25533 382.618 8.23196C382.271 8.20925 381.965 8.46767 381.469 8.88255C381.469 8.88255 381.223 9.08571 380.943 9.41048C380.94 9.41423 380.935 9.41922 380.933 9.42652C380.798 9.59775 380.672 9.76141 380.557 9.91499C379.769 10.9463 379.339 11.5391 379.339 11.5391C376.706 15.1582 373.511 19.9081 370.206 25.7848C363.325 27.1963 358.222 30.9887 355.393 33.5963C359.937 21.9419 366.305 12.4862 369.718 11.4705C370.226 11.3198 373.605 10.4823 373.636 8.65248C373.645 8.17451 373.413 7.7648 373.359 7.64056C372.581 5.81782 370.861 5.386 369.815 6.64859C363.332 14.4594 358.995 22.2116 356.236 27.8915ZM375.034 52.6456L375.036 52.6492C373.965 54.8018 372.424 57.6125 370.3 60.7043C368.84 62.8321 367.538 64.7061 365.443 66.7213C363.305 68.7754 357.934 73.9785 354.36 72.0553C352.463 71.036 351.735 68.4414 351.179 66.3695C350.032 62.1236 349.914 57.2931 350.499 52.2996C354.622 43.272 363.417 40.3768 365.628 39.778C364.972 42.7964 364.352 45.9314 363.774 49.1754C363.157 52.6519 362.632 56.0442 362.187 59.3469C362.167 59.4788 362.148 59.6094 362.132 59.7424C362.132 59.7424 362.019 60.5744 362.196 61.4398C362.243 61.6762 362.314 61.9201 362.314 61.9201C362.371 62.114 362.428 62.2778 362.478 62.4082C362.523 62.5124 362.64 62.7617 362.864 62.9022C363.202 63.113 363.624 62.9801 363.723 62.6731C363.724 62.6718 363.724 62.6718 363.724 62.6718C363.827 62.396 364.461 60.875 364.273 59.7489C364.266 59.7191 364.263 59.6904 364.257 59.6594C364.145 59.0297 364.015 58.1107 363.985 57.0075C363.985 57.0075 363.978 56.642 363.979 56.263C363.989 47.6669 365.911 39.8958 368.52 33.2917C373.997 43.8492 374.959 49.9273 375.034 52.6456ZM369.846 26.6239C369.523 27.3882 369.226 28.1275 368.95 28.8359C366.993 33.8618 366.184 37.3361 366.184 37.3361C366.066 37.8411 365.947 38.3606 365.828 38.8945C358.22 41.2182 353.208 46.5434 350.896 49.5137C351.64 45.0399 352.89 40.4983 354.424 36.1865L354.425 36.1852C359.232 29.2366 366.847 27.1809 369.846 26.6239Z" fill="white"/>
<path d="M477.617 193.07C472.627 203.337 470.499 211.11 470.043 218.467C469.652 224.72 470.214 229.74 471.735 233.518C472.274 234.858 473.397 237.518 475.545 239.075C475.545 239.075 477.135 240.228 479.233 240.251C482.771 240.293 488.438 235.591 494.181 227.269C496.878 223.668 499.127 219.445 500.702 216.119C502.278 212.798 503.178 210.377 503.178 210.377C503.178 210.377 510.703 190.15 507.704 183.208C507.687 183.173 507.669 183.136 507.669 183.136C507.438 182.729 506.898 182.619 506.326 182.736C505.512 182.902 505.004 183.409 504.803 183.689C502.779 186.497 504.047 191.851 504.047 191.851C504.899 195.443 504.245 202.229 497.163 216.313C496.522 207.727 490.198 197.731 490.198 197.731C493.655 189.252 500.042 180.706 504.067 175.7C504.326 175.465 504.548 175.213 504.676 174.947C504.721 174.853 504.755 174.759 504.773 174.662C504.825 174.383 504.738 174.182 504.723 174.118C504.605 173.668 504.33 173.434 503.999 173.411C503.652 173.388 503.346 173.646 502.85 174.061C502.85 174.061 502.604 174.264 502.324 174.589C502.321 174.593 502.316 174.598 502.314 174.605C502.179 174.776 502.053 174.94 501.938 175.094C501.15 176.125 500.72 176.718 500.72 176.718C498.087 180.337 494.892 185.087 491.587 190.963C484.706 192.375 479.603 196.167 476.774 198.775C481.318 187.121 487.686 177.665 491.099 176.649C491.607 176.499 494.986 175.661 495.017 173.831C495.026 173.353 494.794 172.944 494.74 172.819C493.962 170.997 492.242 170.565 491.196 171.827C484.712 179.638 480.375 187.39 477.617 193.07ZM496.415 217.824L496.416 217.828C495.346 219.98 493.804 222.791 491.681 225.883C490.22 228.011 488.919 229.885 486.824 231.9C484.685 233.954 479.314 239.157 475.741 237.234C473.844 236.215 473.116 233.62 472.56 231.548C471.413 227.302 471.295 222.472 471.88 217.478C476.003 208.451 484.798 205.556 487.009 204.957C486.353 207.975 485.732 211.11 485.155 214.354C484.538 217.831 484.013 221.223 483.568 224.526C483.548 224.657 483.529 224.788 483.513 224.921C483.513 224.921 483.4 225.753 483.577 226.619C483.624 226.855 483.695 227.099 483.695 227.099C483.752 227.293 483.809 227.457 483.859 227.587C483.904 227.691 484.021 227.94 484.245 228.081C484.583 228.292 485.005 228.159 485.104 227.852C485.105 227.851 485.105 227.851 485.105 227.851C485.207 227.575 485.842 226.054 485.654 224.928C485.647 224.898 485.644 224.869 485.638 224.838C485.525 224.208 485.396 223.289 485.366 222.186C485.366 222.186 485.359 221.821 485.36 221.442C485.37 212.846 487.291 205.075 489.9 198.47C495.378 209.028 496.339 215.106 496.415 217.824ZM491.227 191.803C490.904 192.567 490.606 193.306 490.331 194.015C488.374 199.041 487.565 202.515 487.565 202.515C487.447 203.02 487.327 203.539 487.208 204.073C479.601 206.397 474.589 211.722 472.277 214.692C473.02 210.219 474.271 205.677 475.805 201.365L475.806 201.364C480.613 194.415 488.228 192.36 491.227 191.803Z" fill="white"/>
<path d="M476.236 57.8915C471.246 68.158 469.119 75.9309 468.662 83.2883C468.271 89.5411 468.833 94.5614 470.354 98.3394C470.893 99.6793 472.016 102.339 474.164 103.896C474.164 103.896 475.754 105.049 477.852 105.073C481.39 105.115 487.057 100.413 492.8 92.0901C495.497 88.489 497.746 84.2664 499.321 80.9406C500.897 77.6197 501.797 75.1982 501.797 75.1982C501.797 75.1982 509.322 54.9716 506.323 48.0288C506.306 47.9946 506.288 47.9568 506.288 47.9568C506.057 47.5506 505.517 47.4403 504.946 47.5574C504.131 47.7234 503.623 48.2303 503.422 48.5099C501.398 51.3187 502.667 56.6728 502.667 56.6728C503.518 60.2647 502.864 67.0498 495.782 81.1347C495.141 72.548 488.817 62.5524 488.817 62.5524C492.274 54.0738 498.661 45.5268 502.686 40.5212C502.945 40.2862 503.167 40.0347 503.295 39.7687C503.34 39.6743 503.374 39.5803 503.392 39.4834C503.444 39.2047 503.357 39.0036 503.342 38.9392C503.224 38.489 502.949 38.2553 502.618 38.232C502.271 38.2092 501.965 38.4677 501.469 38.8825C501.469 38.8825 501.223 39.0857 500.943 39.4105C500.94 39.4142 500.935 39.4192 500.933 39.4265C500.798 39.5978 500.672 39.7614 500.557 39.915C499.769 40.9463 499.339 41.5391 499.339 41.5391C496.706 45.1582 493.511 49.9081 490.206 55.7848C483.325 57.1963 478.222 60.9887 475.393 63.5963C479.937 51.9419 486.305 42.4862 489.718 41.4705C490.226 41.3198 493.605 40.4823 493.636 38.6525C493.645 38.1745 493.413 37.7648 493.359 37.6406C492.581 35.8178 490.861 35.386 489.815 36.6486C483.332 44.4594 478.995 52.2116 476.236 57.8915ZM495.034 82.6456L495.036 82.6492C493.965 84.8018 492.424 87.6125 490.3 90.7043C488.84 92.8321 487.538 94.7061 485.443 96.7213C483.305 98.7754 477.934 103.978 474.36 102.055C472.463 101.036 471.735 98.4414 471.179 96.3695C470.032 92.1236 469.914 87.2931 470.499 82.2996C474.622 73.272 483.417 70.3768 485.628 69.778C484.972 72.7964 484.352 75.9314 483.774 79.1754C483.157 82.6519 482.632 86.0442 482.187 89.3469C482.167 89.4788 482.148 89.6094 482.132 89.7424C482.132 89.7424 482.019 90.5744 482.196 91.4398C482.243 91.6762 482.314 91.9201 482.314 91.9201C482.371 92.114 482.428 92.2778 482.478 92.4082C482.523 92.5124 482.64 92.7617 482.864 92.9022C483.202 93.113 483.624 92.9801 483.723 92.6731C483.724 92.6718 483.724 92.6718 483.724 92.6718C483.827 92.396 484.461 90.875 484.273 89.7489C484.266 89.7191 484.263 89.6904 484.257 89.6594C484.145 89.0297 484.015 88.1107 483.985 87.0075C483.985 87.0075 483.978 86.642 483.979 86.263C483.989 77.6669 485.911 69.8958 488.52 63.2917C493.997 73.8492 494.959 79.9273 495.034 82.6456ZM489.846 56.6239C489.523 57.3882 489.226 58.1275 488.95 58.8359C486.993 63.8618 486.184 67.3361 486.184 67.3361C486.066 67.8411 485.947 68.3606 485.828 68.8945C478.22 71.2182 473.208 76.5434 470.896 79.5137C471.64 75.0399 472.89 70.4983 474.424 66.1865L474.425 66.1852C479.232 59.2366 486.847 57.1809 489.846 56.6239Z" fill="white"/>
<path d="M279.234 27.8915C274.244 38.158 272.117 45.9309 271.66 53.2883C271.269 59.5411 271.831 64.5614 273.352 68.3394C273.891 69.6793 275.015 72.3392 277.162 73.8963C277.162 73.8963 278.752 75.0489 280.85 75.0728C284.388 75.1145 290.055 70.4126 295.798 62.0901C298.495 58.489 300.744 54.2664 302.319 50.9406C303.895 47.6197 304.796 45.1982 304.796 45.1982C304.796 45.1982 312.32 24.9716 309.321 18.0288C309.304 17.9946 309.286 17.9568 309.286 17.9568C309.055 17.5506 308.515 17.4403 307.944 17.5574C307.13 17.7234 306.621 18.2303 306.42 18.5099C304.396 21.3187 305.665 26.6728 305.665 26.6728C306.516 30.2647 305.862 37.0498 298.78 51.1347C298.139 42.548 291.815 32.5524 291.815 32.5524C295.273 24.0738 301.659 15.5268 305.684 10.5212C305.943 10.2862 306.165 10.0347 306.293 9.76867C306.339 9.67428 306.372 9.58035 306.39 9.48341C306.442 9.20472 306.355 9.00356 306.34 8.93915C306.222 8.48896 305.947 8.25533 305.617 8.23196C305.269 8.20925 304.963 8.46767 304.467 8.88255C304.467 8.88255 304.221 9.08571 303.942 9.41048C303.938 9.41423 303.933 9.41922 303.931 9.42652C303.796 9.59775 303.67 9.76141 303.556 9.91499C302.768 10.9463 302.337 11.5391 302.337 11.5391C299.704 15.1582 296.509 19.9081 293.204 25.7848C286.323 27.1963 281.22 30.9887 278.391 33.5963C282.935 21.9419 289.303 12.4862 292.716 11.4705C293.224 11.3198 296.603 10.4823 296.634 8.65248C296.643 8.17451 296.411 7.7648 296.357 7.64056C295.579 5.81782 293.859 5.386 292.813 6.64859C286.33 14.4594 281.993 22.2116 279.234 27.8915ZM298.032 52.6456L298.034 52.6492C296.963 54.8018 295.422 57.6125 293.298 60.7043C291.838 62.8321 290.536 64.7061 288.441 66.7213C286.303 68.7754 280.932 73.9785 277.358 72.0553C275.461 71.036 274.733 68.4414 274.177 66.3695C273.03 62.1236 272.912 57.2931 273.497 52.2996C277.62 43.272 286.415 40.3768 288.626 39.778C287.97 42.7964 287.35 45.9314 286.772 49.1754C286.155 52.6519 285.63 56.0442 285.185 59.3469C285.165 59.4788 285.146 59.6094 285.13 59.7424C285.13 59.7424 285.017 60.5744 285.194 61.4398C285.241 61.6762 285.312 61.9201 285.312 61.9201C285.369 62.114 285.426 62.2778 285.477 62.4082C285.521 62.5124 285.638 62.7617 285.862 62.9022C286.2 63.113 286.622 62.9801 286.721 62.6731C286.722 62.6718 286.722 62.6718 286.722 62.6718C286.825 62.396 287.459 60.875 287.271 59.7489C287.264 59.7191 287.261 59.6904 287.255 59.6594C287.143 59.0297 287.013 58.1107 286.983 57.0075C286.983 57.0075 286.976 56.642 286.977 56.263C286.987 47.6669 288.909 39.8958 291.518 33.2917C296.995 43.8492 297.957 49.9273 298.032 52.6456ZM292.844 26.6239C292.521 27.3882 292.224 28.1275 291.948 28.8359C289.991 33.8618 289.182 37.3361 289.182 37.3361C289.064 37.8411 288.945 38.3606 288.826 38.8945C281.218 41.2182 276.206 46.5434 273.894 49.5137C274.638 45.0399 275.888 40.4983 277.422 36.1865L277.424 36.1852C282.231 29.2366 289.845 27.1809 292.844 26.6239Z" fill="white"/>
<path d="M210.234 41.8915C205.244 52.158 203.117 59.9309 202.66 67.2883C202.269 73.5411 202.831 78.5614 204.352 82.3394C204.891 83.6793 206.015 86.3392 208.162 87.8963C208.162 87.8963 209.752 89.0489 211.85 89.0728C215.388 89.1145 221.055 84.4126 226.798 76.0901C229.495 72.489 231.744 68.2664 233.319 64.9406C234.895 61.6197 235.796 59.1982 235.796 59.1982C235.796 59.1982 243.32 38.9716 240.321 32.0288C240.304 31.9946 240.286 31.9568 240.286 31.9568C240.055 31.5506 239.515 31.4403 238.944 31.5574C238.13 31.7234 237.621 32.2303 237.42 32.5099C235.396 35.3187 236.665 40.6728 236.665 40.6728C237.516 44.2647 236.862 51.0498 229.78 65.1347C229.139 56.548 222.815 46.5524 222.815 46.5524C226.273 38.0738 232.659 29.5268 236.684 24.5212C236.943 24.2862 237.165 24.0347 237.293 23.7687C237.339 23.6743 237.372 23.5803 237.39 23.4834C237.442 23.2047 237.355 23.0036 237.34 22.9392C237.222 22.489 236.947 22.2553 236.617 22.232C236.269 22.2092 235.963 22.4677 235.467 22.8825C235.467 22.8825 235.221 23.0857 234.942 23.4105C234.938 23.4142 234.933 23.4192 234.931 23.4265C234.796 23.5978 234.67 23.7614 234.556 23.915C233.768 24.9463 233.337 25.5391 233.337 25.5391C230.704 29.1582 227.509 33.9081 224.204 39.7848C217.323 41.1963 212.22 44.9887 209.391 47.5963C213.935 35.9419 220.303 26.4862 223.716 25.4705C224.224 25.3198 227.603 24.4823 227.634 22.6525C227.643 22.1745 227.411 21.7648 227.357 21.6406C226.579 19.8178 224.859 19.386 223.813 20.6486C217.33 28.4594 212.993 36.2116 210.234 41.8915ZM229.032 66.6456L229.034 66.6492C227.963 68.8018 226.422 71.6125 224.298 74.7043C222.838 76.8321 221.536 78.7061 219.441 80.7213C217.303 82.7754 211.932 87.9785 208.358 86.0553C206.461 85.036 205.733 82.4414 205.177 80.3695C204.03 76.1236 203.912 71.2931 204.497 66.2996C208.62 57.272 217.415 54.3768 219.626 53.778C218.97 56.7964 218.35 59.9314 217.772 63.1754C217.155 66.6519 216.63 70.0442 216.185 73.3469C216.165 73.4788 216.146 73.6094 216.13 73.7424C216.13 73.7424 216.017 74.5744 216.194 75.4398C216.241 75.6762 216.312 75.9201 216.312 75.9201C216.369 76.114 216.426 76.2778 216.477 76.4082C216.521 76.5124 216.638 76.7617 216.862 76.9022C217.2 77.113 217.622 76.9801 217.721 76.6731C217.722 76.6718 217.722 76.6718 217.722 76.6718C217.825 76.396 218.459 74.875 218.271 73.7489C218.264 73.7191 218.261 73.6904 218.255 73.6594C218.143 73.0297 218.013 72.1107 217.983 71.0075C217.983 71.0075 217.976 70.642 217.977 70.263C217.987 61.6669 219.909 53.8958 222.518 47.2917C227.995 57.8492 228.957 63.9273 229.032 66.6456ZM223.844 40.6239C223.521 41.3882 223.224 42.1275 222.948 42.8359C220.991 47.8618 220.182 51.3361 220.182 51.3361C220.064 51.8411 219.945 52.3606 219.826 52.8945C212.218 55.2182 207.206 60.5434 204.894 63.5137C205.638 59.0399 206.888 54.4983 208.422 50.1865L208.424 50.1852C213.231 43.2366 220.845 41.1809 223.844 40.6239Z" fill="white"/>
<path d="M393.759 73.2783C388.769 83.5447 386.642 91.3177 386.185 98.675C385.794 104.928 386.357 109.948 387.877 113.726C388.416 115.066 389.54 117.726 391.687 119.283C391.687 119.283 393.277 120.436 395.375 120.459C398.914 120.501 404.581 115.799 410.324 107.477C413.021 103.876 415.269 99.6531 416.845 96.3273C418.42 93.0064 419.321 90.5849 419.321 90.5849C419.321 90.5849 426.846 70.3583 423.847 63.4155C423.83 63.3813 423.811 63.3435 423.811 63.3435C423.58 62.9374 423.041 62.827 422.469 62.9441C421.655 63.1102 421.146 63.617 420.945 63.8966C418.922 66.7055 420.19 72.0595 420.19 72.0595C421.042 75.6514 420.387 82.4365 413.306 96.5214C412.665 87.9347 406.341 77.9391 406.341 77.9391C409.798 69.4605 416.184 60.9136 420.21 55.9079C420.469 55.6729 420.69 55.4214 420.818 55.1554C420.864 55.061 420.898 54.9671 420.916 54.8701C420.967 54.5914 420.88 54.3903 420.866 54.3259C420.747 53.8757 420.472 53.642 420.142 53.6187C419.795 53.596 419.488 53.8544 418.993 54.2693C418.993 54.2693 418.747 54.4724 418.467 54.7972C418.463 54.8009 418.459 54.8059 418.457 54.8132C418.321 54.9845 418.195 55.1481 418.081 55.3017C417.293 56.333 416.862 56.9258 416.862 56.9258C414.23 60.5449 411.034 65.2949 407.73 71.1715C400.848 72.583 395.745 76.3754 392.916 78.9831C397.46 67.3286 403.829 57.8729 407.241 56.8572C407.749 56.7065 411.129 55.869 411.159 54.0392C411.169 53.5612 410.936 53.1515 410.882 53.0273C410.105 51.2045 408.385 50.7727 407.338 52.0353C400.855 59.8461 396.518 67.5983 393.759 73.2783ZM412.558 98.0323L412.559 98.0359C411.488 100.188 409.947 102.999 407.823 106.091C406.363 108.219 405.061 110.093 402.966 112.108C400.828 114.162 395.457 119.365 391.883 117.442C389.987 116.423 389.259 113.828 388.703 111.756C387.555 107.51 387.438 102.68 388.023 97.6863C392.146 88.6587 400.941 85.7636 403.152 85.1647C402.495 88.1832 401.875 91.3181 401.297 94.5621C400.68 98.0386 400.155 101.431 399.711 104.734C399.691 104.865 399.672 104.996 399.655 105.129C399.655 105.129 399.543 105.961 399.719 106.827C399.767 107.063 399.838 107.307 399.838 107.307C399.894 107.501 399.951 107.665 400.002 107.795C400.047 107.899 400.163 108.148 400.388 108.289C400.726 108.5 401.148 108.367 401.246 108.06C401.248 108.059 401.248 108.059 401.248 108.059C401.35 107.783 401.984 106.262 401.797 105.136C401.79 105.106 401.786 105.077 401.78 105.046C401.668 104.416 401.539 103.497 401.508 102.394C401.508 102.394 401.502 102.029 401.503 101.65C401.512 93.0536 403.434 85.2826 406.043 78.6784C411.52 89.2359 412.482 95.314 412.558 98.0323ZM407.37 72.0106C407.047 72.775 406.749 73.5143 406.473 74.2227C404.517 79.2485 403.707 82.7228 403.707 82.7228C403.59 83.2278 403.47 83.7473 403.351 84.2812C395.743 86.6049 390.732 91.9301 388.42 94.9004C389.163 90.4266 390.414 85.885 391.948 81.5732L391.949 81.572C396.756 74.6233 404.37 72.5676 407.37 72.0106Z" fill="white"/>
<path d="M446.84 133.18C443.42 140.211 441.96 145.533 441.645 150.571C441.375 154.852 441.758 158.289 442.797 160.875C443.165 161.792 443.933 163.613 445.403 164.678C445.403 164.678 446.491 165.467 447.927 165.482C450.35 165.509 454.231 162.288 458.166 156.587C460.014 154.121 461.555 151.229 462.635 148.951C463.715 146.677 464.332 145.018 464.332 145.018C464.332 145.018 469.492 131.167 467.442 126.415C467.43 126.391 467.418 126.365 467.418 126.365C467.26 126.087 466.891 126.012 466.499 126.092C465.942 126.207 465.593 126.554 465.456 126.745C464.069 128.669 464.935 132.334 464.935 132.334C465.517 134.793 465.066 139.439 460.212 149.085C459.777 143.207 455.452 136.366 455.452 136.366C457.822 130.559 462.197 124.705 464.955 121.276C465.133 121.115 465.284 120.943 465.372 120.761C465.403 120.696 465.427 120.632 465.439 120.565C465.474 120.374 465.415 120.237 465.405 120.193C465.324 119.884 465.136 119.725 464.91 119.709C464.672 119.693 464.462 119.87 464.123 120.155C464.123 120.155 463.954 120.294 463.763 120.516C463.76 120.519 463.757 120.522 463.756 120.527C463.663 120.645 463.577 120.757 463.498 120.862C462.958 121.568 462.663 121.974 462.663 121.974C460.859 124.453 458.67 127.707 456.405 131.732C451.694 132.701 448.199 135.299 446.261 137.086C449.377 129.105 453.74 122.628 456.077 121.931C456.425 121.828 458.739 121.253 458.76 120C458.767 119.673 458.608 119.393 458.571 119.308C458.039 118.06 456.862 117.765 456.145 118.63C451.704 123.98 448.731 129.29 446.84 133.18ZM459.699 150.12L459.7 150.122C458.966 151.597 457.91 153.522 456.455 155.639C455.454 157.097 454.562 158.38 453.127 159.761C451.663 161.168 447.984 164.733 445.538 163.417C444.24 162.72 443.743 160.944 443.363 159.526C442.579 156.619 442.501 153.312 442.903 149.893C445.729 143.711 451.751 141.725 453.265 141.314C452.815 143.381 452.389 145.527 451.992 147.749C451.568 150.129 451.207 152.452 450.902 154.713C450.888 154.804 450.875 154.893 450.863 154.984C450.863 154.984 450.786 155.554 450.907 156.146C450.939 156.308 450.987 156.475 450.987 156.475C451.026 156.608 451.065 156.72 451.1 156.809C451.13 156.88 451.21 157.051 451.364 157.147C451.595 157.291 451.884 157.2 451.952 156.99C451.952 156.989 451.952 156.989 451.952 156.989C452.023 156.8 452.458 155.759 452.33 154.988C452.325 154.967 452.322 154.948 452.318 154.926C452.242 154.495 452.154 153.866 452.133 153.111C452.133 153.111 452.129 152.861 452.13 152.601C452.14 146.716 453.459 141.395 455.247 136.872C458.993 144.098 459.649 148.259 459.699 150.12ZM456.158 132.306C455.937 132.83 455.733 133.336 455.544 133.821C454.202 137.263 453.647 139.642 453.647 139.642C453.566 139.988 453.484 140.343 453.402 140.709C448.193 142.303 444.76 145.951 443.176 147.986C443.687 144.922 444.545 141.812 445.597 138.86L445.598 138.859C448.891 134.099 454.105 132.689 456.158 132.306Z" fill="white"/>
<path d="M441.895 23.6471C438.449 30.7708 436.987 36.1681 436.686 41.2802C436.428 45.6249 436.83 49.1151 437.895 51.744C438.273 52.6764 439.06 54.5275 440.557 55.6144C440.557 55.6144 441.665 56.4189 443.124 56.4402C445.584 56.4771 449.514 53.2219 453.489 47.4508C455.356 44.9542 456.91 42.0245 457.998 39.7168C459.086 37.4123 459.707 35.7314 459.707 35.7314C459.707 35.7314 464.894 21.6913 462.794 16.8596C462.782 16.8358 462.769 16.8095 462.769 16.8095C462.607 16.5267 462.232 16.4488 461.835 16.5289C461.269 16.6425 460.916 16.9936 460.777 17.1875C459.377 19.1351 460.27 22.8588 460.27 22.8588C460.87 25.357 460.43 30.0709 455.538 39.8437C455.073 33.8748 450.654 26.9142 450.654 26.9142C453.039 21.0295 457.46 15.1038 460.248 11.6339C460.428 11.4712 460.581 11.2969 460.67 11.1123C460.701 11.0468 460.724 10.9816 460.737 10.9143C460.772 10.7207 460.711 10.5807 460.701 10.5359C460.617 10.2228 460.426 10.0598 460.196 10.0429C459.954 10.0263 459.742 10.2052 459.398 10.4924C459.398 10.4924 459.228 10.6331 459.034 10.8582C459.032 10.8608 459.028 10.8642 459.027 10.8693C458.933 10.988 458.846 11.1015 458.767 11.2079C458.221 11.9229 457.923 12.3339 457.923 12.3339C456.1 14.8432 453.889 18.1372 451.604 22.2139C446.823 23.1796 443.283 25.8039 441.322 27.6099C444.456 19.5205 448.863 12.9632 451.233 12.2649C451.586 12.1613 453.934 11.5867 453.951 10.3152C453.957 9.983 453.794 9.69775 453.756 9.61128C453.212 8.34281 452.015 8.03889 451.29 8.91402C446.799 14.3279 443.801 19.7058 441.895 23.6471ZM455.021 40.8922L455.022 40.8946C454.282 42.3882 453.217 44.3382 451.747 46.4821C450.737 47.9577 449.836 49.2572 448.383 50.653C446.901 52.0758 443.178 55.6798 440.689 54.3354C439.368 53.6227 438.856 51.818 438.465 50.3768C437.658 47.4235 437.565 44.0662 437.961 40.5972C440.808 34.3324 446.916 32.3399 448.452 31.9287C448.003 34.0249 447.578 36.2022 447.184 38.4554C446.763 40.8701 446.405 43.2265 446.103 45.5208C446.09 45.6124 446.077 45.7032 446.066 45.7955C446.066 45.7955 445.989 46.3735 446.114 46.9753C446.148 47.1397 446.197 47.3094 446.197 47.3094C446.237 47.4443 446.277 47.5583 446.313 47.649C446.344 47.7214 446.426 47.895 446.582 47.9932C446.817 48.1404 447.111 48.0489 447.179 47.8358C447.179 47.8349 447.179 47.8349 447.179 47.8349C447.25 47.6435 447.688 46.5878 447.555 45.8048C447.55 45.7841 447.547 45.7641 447.543 45.7426C447.464 45.3047 447.372 44.6658 447.348 43.899C447.348 43.899 447.343 43.645 447.342 43.3816C447.33 37.4076 448.649 32.0112 450.448 27.4273C454.28 34.7766 454.962 39.0028 455.021 40.8922ZM451.356 22.7963C451.133 23.3268 450.928 23.8399 450.738 24.3316C449.388 27.8201 448.833 30.2328 448.833 30.2328C448.753 30.5835 448.671 30.9443 448.589 31.3151C443.305 32.9131 439.832 36.6028 438.231 38.662C438.738 35.5544 439.597 32.401 440.654 29.4078L440.655 29.4069C443.982 24.5885 449.272 23.1768 451.356 22.7963Z" fill="white"/>
<path d="M326.662 102.419C323.242 109.45 321.783 114.773 321.467 119.81C321.197 124.091 321.58 127.528 322.619 130.114C322.987 131.031 323.756 132.852 325.225 133.917C325.225 133.917 326.313 134.706 327.749 134.721C330.172 134.748 334.053 131.527 337.988 125.826C339.836 123.36 341.377 120.468 342.457 118.19C343.537 115.916 344.155 114.258 344.155 114.258C344.155 114.258 349.315 100.406 347.264 95.654C347.253 95.6305 347.24 95.6047 347.24 95.6047C347.082 95.3267 346.713 95.2514 346.321 95.3317C345.764 95.4458 345.416 95.793 345.278 95.9845C343.891 97.9085 344.757 101.574 344.757 101.574C345.339 104.033 344.888 108.678 340.034 118.324C339.599 112.446 335.274 105.605 335.274 105.605C337.644 99.7985 342.02 93.9441 344.777 90.5153C344.955 90.3543 345.107 90.182 345.194 89.9998C345.226 89.9352 345.249 89.8709 345.261 89.8045C345.297 89.6137 345.237 89.476 345.227 89.4319C345.146 89.1237 344.958 88.9639 344.732 88.948C344.494 88.9326 344.284 89.1097 343.945 89.3939C343.945 89.3939 343.777 89.5331 343.585 89.7556C343.583 89.7582 343.579 89.7616 343.578 89.7666C343.485 89.8839 343.399 89.996 343.32 90.1012C342.781 90.8076 342.485 91.2136 342.485 91.2136C340.682 93.6925 338.492 96.9459 336.227 100.971C331.516 101.94 328.021 104.539 326.083 106.325C329.199 98.344 333.562 91.8674 335.899 91.1706C336.247 91.0673 338.561 90.4924 338.583 89.2396C338.589 88.9124 338.43 88.632 338.393 88.5469C337.862 87.2993 336.684 87.0044 335.968 87.8692C331.526 93.2196 328.554 98.529 326.662 102.419ZM339.522 119.359L339.523 119.362C338.789 120.836 337.732 122.761 336.277 124.879C335.277 126.336 334.385 127.62 332.95 129C331.485 130.407 327.806 133.972 325.36 132.657C324.062 131.96 323.565 130.184 323.185 128.765C322.401 125.859 322.323 122.552 322.725 119.132C325.552 112.95 331.574 110.964 333.088 110.553C332.637 112.62 332.211 114.767 331.814 116.988C331.39 119.368 331.03 121.691 330.724 123.953C330.71 124.043 330.697 124.132 330.686 124.223C330.686 124.223 330.608 124.793 330.729 125.386C330.761 125.547 330.81 125.714 330.81 125.714C330.848 125.847 330.887 125.959 330.922 126.048C330.953 126.12 331.032 126.29 331.186 126.387C331.417 126.531 331.706 126.44 331.774 126.229C331.775 126.228 331.775 126.228 331.775 126.228C331.845 126.04 332.28 124.998 332.152 124.227C332.147 124.207 332.145 124.187 332.14 124.166C332.064 123.735 331.976 123.106 331.956 122.35C331.956 122.35 331.951 122.1 331.952 121.841C331.962 115.955 333.281 110.634 335.07 106.111C338.815 113.337 339.471 117.498 339.522 119.359ZM335.981 101.545C335.759 102.069 335.555 102.575 335.366 103.06C334.025 106.502 333.469 108.881 333.469 108.881C333.388 109.227 333.306 109.583 333.224 109.948C328.015 111.542 324.582 115.19 322.998 117.225C323.509 114.162 324.367 111.052 325.419 108.099L325.42 108.098C328.714 103.339 333.927 101.928 335.981 101.545Z" fill="white"/>
</svg>
